<?xml version="1.0" encoding="UTF-8"?>
<svg xmlns="http://www.w3.org/2000/svg" xmlns:xlink="http://www.w3.org/1999/xlink" width="756pt" height="414pt" viewBox="0 0 756 414" version="1.1">
<g id="surface54">
<rect x="0" y="0" width="756" height="414" style="fill:rgb(100%,100%,100%);fill-opacity:1;stroke:none;"/>
<path style=" stroke:none;fill-rule:nonzero;fill:rgb(100%,64.705882%,0%);fill-opacity:0.701961;" d="M 23.234375 399.4375 L 194.945312 399.4375 L 195.085938 399.433594 L 206.253906 399.433594 L 206.390625 399.429688 L 212.953125 399.429688 L 213.09375 399.425781 L 217.980469 399.425781 L 218.117188 399.421875 L 221.75 399.421875 L 221.886719 399.417969 L 224.960938 399.417969 L 225.097656 399.414062 L 227.75 399.414062 L 227.890625 399.410156 L 230.125 399.410156 L 230.265625 399.40625 L 232.21875 399.40625 L 232.359375 399.402344 L 234.171875 399.402344 L 234.3125 399.398438 L 235.847656 399.398438 L 235.988281 399.394531 L 237.523438 399.394531 L 237.664062 399.390625 L 239.058594 399.390625 L 239.199219 399.386719 L 240.316406 399.386719 L 240.453125 399.382812 L 241.710938 399.382812 L 241.851562 399.378906 L 242.828125 399.378906 L 242.96875 399.375 L 244.085938 399.375 L 244.222656 399.371094 L 245.0625 399.371094 L 245.203125 399.367188 L 246.179688 399.367188 L 246.316406 399.363281 L 247.15625 399.363281 L 247.296875 399.359375 L 248.132812 399.359375 L 248.273438 399.355469 L 248.96875 399.355469 L 249.109375 399.351562 L 249.808594 399.351562 L 249.949219 399.347656 L 250.644531 399.347656 L 250.785156 399.34375 L 251.484375 399.34375 L 251.625 399.339844 L 252.179688 399.339844 L 252.320312 399.335938 L 253.019531 399.335938 L 253.160156 399.332031 L 253.71875 399.332031 L 253.855469 399.328125 L 254.414062 399.328125 L 254.554688 399.324219 L 255.113281 399.324219 L 255.253906 399.320312 L 255.671875 399.320312 L 255.8125 399.316406 L 256.371094 399.316406 L 256.507812 399.3125 L 256.929688 399.3125 L 257.066406 399.308594 L 257.625 399.308594 L 257.765625 399.304688 L 258.183594 399.304688 L 258.324219 399.300781 L 258.742188 399.300781 L 258.882812 399.296875 L 259.300781 399.296875 L 259.441406 399.292969 L 259.859375 399.292969 L 260 399.289062 L 260.277344 399.289062 L 260.417969 399.285156 L 260.835938 399.285156 L 260.976562 399.28125 L 261.394531 399.28125 L 261.535156 399.277344 L 261.8125 399.277344 L 261.953125 399.273438 L 262.371094 399.273438 L 262.511719 399.269531 L 262.792969 399.269531 L 262.929688 399.265625 L 263.210938 399.265625 L 263.351562 399.261719 L 263.769531 399.261719 L 263.90625 399.257812 L 264.1875 399.257812 L 264.328125 399.253906 L 264.605469 399.253906 L 264.746094 399.25 L 265.023438 399.25 L 265.164062 399.246094 L 265.445312 399.246094 L 265.582031 399.242188 L 265.863281 399.242188 L 266.003906 399.238281 L 266.28125 399.238281 L 266.421875 399.234375 L 266.699219 399.234375 L 266.839844 399.230469 L 267.117188 399.230469 L 267.257812 399.226562 L 267.398438 399.226562 L 267.539062 399.222656 L 267.816406 399.222656 L 267.957031 399.21875 L 268.234375 399.21875 L 268.375 399.214844 L 268.515625 399.214844 L 268.65625 399.210938 L 268.933594 399.210938 L 269.074219 399.207031 L 269.351562 399.207031 L 269.492188 399.203125 L 269.632812 399.203125 L 269.769531 399.199219 L 270.050781 399.199219 L 270.191406 399.195312 L 270.328125 399.195312 L 270.46875 399.191406 L 270.609375 399.191406 L 270.75 399.1875 L 271.027344 399.1875 L 271.167969 399.183594 L 271.308594 399.183594 L 271.445312 399.179688 L 271.585938 399.179688 L 271.726562 399.175781 L 272.003906 399.175781 L 272.144531 399.171875 L 272.285156 399.171875 L 272.425781 399.167969 L 272.5625 399.167969 L 272.703125 399.164062 L 272.84375 399.164062 L 272.980469 399.160156 L 273.121094 399.160156 L 273.261719 399.15625 L 273.539062 399.15625 L 273.679688 399.152344 L 273.820312 399.152344 L 273.960938 399.148438 L 274.097656 399.148438 L 274.238281 399.144531 L 274.378906 399.144531 L 274.519531 399.140625 L 274.65625 399.140625 L 274.796875 399.136719 L 274.9375 399.136719 L 275.078125 399.132812 L 275.214844 399.132812 L 275.355469 399.128906 L 275.496094 399.128906 L 275.632812 399.125 L 275.773438 399.125 L 275.914062 399.121094 L 276.054688 399.121094 L 276.191406 399.117188 L 276.332031 399.117188 L 276.613281 399.109375 L 276.75 399.109375 L 276.890625 399.105469 L 277.03125 399.105469 L 277.171875 399.101562 L 277.308594 399.101562 L 277.449219 399.097656 L 277.589844 399.097656 L 277.730469 399.09375 L 277.867188 399.09375 L 278.148438 399.085938 L 278.289062 399.085938 L 278.425781 399.082031 L 278.566406 399.082031 L 278.707031 399.078125 L 278.84375 399.078125 L 279.125 399.070312 L 279.265625 399.070312 L 279.402344 399.066406 L 279.542969 399.066406 L 279.824219 399.058594 L 279.960938 399.058594 L 280.242188 399.050781 L 280.382812 399.050781 L 280.519531 399.046875 L 280.660156 399.046875 L 280.941406 399.039062 L 281.078125 399.039062 L 281.359375 399.03125 L 281.496094 399.03125 L 281.777344 399.023438 L 281.917969 399.023438 L 282.054688 399.019531 L 282.195312 399.015625 L 282.335938 399.015625 L 282.476562 399.011719 L 282.613281 399.007812 L 282.753906 399.007812 L 283.035156 399 L 283.171875 399 L 283.453125 398.992188 L 283.59375 398.992188 L 283.730469 398.988281 L 284.011719 398.980469 L 284.152344 398.980469 L 284.289062 398.976562 L 284.429688 398.972656 L 284.570312 398.972656 L 284.707031 398.96875 L 284.988281 398.960938 L 285.128906 398.960938 L 285.265625 398.957031 L 285.546875 398.949219 L 285.6875 398.949219 L 285.824219 398.945312 L 286.246094 398.933594 L 286.382812 398.933594 L 286.804688 398.921875 L 286.941406 398.917969 L 287.082031 398.917969 L 287.363281 398.910156 L 287.5 398.90625 L 287.640625 398.902344 L 287.78125 398.902344 L 287.917969 398.898438 L 288.339844 398.886719 L 288.476562 398.882812 L 288.617188 398.878906 L 288.757812 398.878906 L 288.898438 398.875 L 289.035156 398.871094 L 289.457031 398.859375 L 289.59375 398.855469 L 289.734375 398.851562 L 289.875 398.851562 L 290.015625 398.847656 L 290.152344 398.84375 L 290.433594 398.835938 L 290.570312 398.832031 L 290.992188 398.820312 L 291.128906 398.816406 L 291.550781 398.804688 L 291.6875 398.800781 L 291.828125 398.796875 L 291.96875 398.796875 L 292.109375 398.792969 L 292.246094 398.789062 L 292.667969 398.777344 L 292.804688 398.773438 L 293.226562 398.761719 L 293.363281 398.757812 L 293.503906 398.753906 L 293.644531 398.746094 L 293.78125 398.742188 L 294.203125 398.730469 L 294.339844 398.726562 L 294.761719 398.714844 L 294.898438 398.710938 L 295.320312 398.699219 L 295.457031 398.695312 L 295.597656 398.6875 L 295.878906 398.679688 L 296.015625 398.675781 L 296.296875 398.667969 L 296.433594 398.664062 L 296.574219 398.660156 L 296.714844 398.652344 L 296.855469 398.648438 L 296.992188 398.644531 L 297.414062 398.632812 L 297.550781 398.625 L 297.972656 398.613281 L 298.109375 398.609375 L 298.25 398.601562 L 298.53125 398.59375 L 298.667969 398.589844 L 298.808594 398.582031 L 299.089844 398.574219 L 299.226562 398.570312 L 299.367188 398.5625 L 299.507812 398.558594 L 299.644531 398.554688 L 299.785156 398.546875 L 300.066406 398.539062 L 300.203125 398.535156 L 300.34375 398.527344 L 300.625 398.519531 L 300.761719 398.511719 L 301.042969 398.503906 L 301.183594 398.496094 L 301.320312 398.492188 L 301.460938 398.488281 L 301.601562 398.480469 L 301.742188 398.476562 L 301.878906 398.46875 L 302.160156 398.460938 L 302.296875 398.453125 L 302.4375 398.449219 L 302.578125 398.441406 L 302.71875 398.4375 L 302.855469 398.433594 L 302.996094 398.425781 L 303.136719 398.421875 L 303.277344 398.414062 L 303.414062 398.410156 L 303.554688 398.402344 L 303.695312 398.398438 L 303.835938 398.390625 L 303.972656 398.386719 L 304.113281 398.378906 L 304.253906 398.375 L 304.394531 398.367188 L 304.53125 398.363281 L 304.671875 398.355469 L 304.8125 398.351562 L 304.953125 398.34375 L 305.089844 398.339844 L 305.230469 398.332031 L 305.371094 398.328125 L 305.507812 398.320312 L 305.648438 398.3125 L 305.789062 398.308594 L 305.929688 398.300781 L 306.066406 398.296875 L 306.347656 398.28125 L 306.488281 398.277344 L 306.625 398.269531 L 306.765625 398.261719 L 306.90625 398.257812 L 307.046875 398.25 L 307.183594 398.246094 L 307.464844 398.230469 L 307.605469 398.226562 L 307.742188 398.21875 L 308.023438 398.203125 L 308.164062 398.199219 L 308.300781 398.191406 L 308.441406 398.183594 L 308.582031 398.179688 L 308.71875 398.171875 L 309 398.15625 L 309.140625 398.152344 L 309.277344 398.144531 L 309.699219 398.121094 L 309.835938 398.117188 L 310.257812 398.09375 L 310.394531 398.085938 L 310.675781 398.070312 L 310.816406 398.066406 L 310.953125 398.058594 L 311.234375 398.042969 L 311.371094 398.035156 L 311.792969 398.011719 L 311.929688 398.003906 L 312.210938 397.988281 L 312.351562 397.984375 L 312.488281 397.976562 L 312.910156 397.953125 L 313.046875 397.945312 L 313.328125 397.929688 L 313.46875 397.917969 L 313.605469 397.910156 L 314.027344 397.886719 L 314.164062 397.878906 L 314.445312 397.863281 L 314.582031 397.855469 L 314.863281 397.839844 L 315.003906 397.828125 L 315.140625 397.820312 L 315.5625 397.796875 L 315.699219 397.789062 L 315.839844 397.777344 L 316.121094 397.761719 L 316.257812 397.753906 L 316.398438 397.746094 L 316.539062 397.734375 L 316.679688 397.726562 L 316.816406 397.71875 L 316.957031 397.710938 L 317.097656 397.699219 L 317.234375 397.691406 L 317.375 397.683594 L 317.515625 397.671875 L 317.65625 397.664062 L 317.792969 397.65625 L 317.933594 397.644531 L 318.214844 397.628906 L 318.351562 397.617188 L 318.632812 397.601562 L 318.773438 397.589844 L 318.910156 397.582031 L 319.050781 397.570312 L 319.332031 397.554688 L 319.46875 397.542969 L 319.609375 397.535156 L 319.75 397.523438 L 319.890625 397.515625 L 320.027344 397.503906 L 320.167969 397.496094 L 320.308594 397.484375 L 320.445312 397.476562 L 320.585938 397.464844 L 320.726562 397.457031 L 320.867188 397.445312 L 321.003906 397.433594 L 321.144531 397.425781 L 321.285156 397.414062 L 321.425781 397.40625 L 321.5625 397.394531 L 321.703125 397.382812 L 321.84375 397.375 L 321.984375 397.363281 L 322.121094 397.355469 L 322.542969 397.320312 L 322.679688 397.3125 L 322.960938 397.289062 L 323.097656 397.28125 L 323.519531 397.246094 L 323.65625 397.238281 L 324.078125 397.203125 L 324.214844 397.191406 L 324.355469 397.183594 L 324.636719 397.160156 L 324.773438 397.148438 L 325.195312 397.113281 L 325.332031 397.101562 L 325.472656 397.089844 L 325.613281 397.082031 L 325.753906 397.070312 L 325.890625 397.058594 L 326.171875 397.035156 L 326.308594 397.023438 L 326.730469 396.988281 L 326.867188 396.976562 L 327.007812 396.964844 L 327.148438 396.949219 L 327.289062 396.9375 L 327.425781 396.925781 L 327.847656 396.890625 L 327.984375 396.878906 L 328.265625 396.855469 L 328.40625 396.839844 L 328.542969 396.828125 L 328.824219 396.804688 L 328.960938 396.792969 L 329.101562 396.777344 L 329.382812 396.753906 L 329.519531 396.738281 L 329.941406 396.703125 L 330.078125 396.6875 L 330.359375 396.664062 L 330.5 396.648438 L 330.636719 396.636719 L 330.777344 396.621094 L 331.058594 396.597656 L 331.195312 396.582031 L 331.335938 396.570312 L 331.476562 396.554688 L 331.617188 396.542969 L 331.753906 396.527344 L 331.894531 396.515625 L 332.035156 396.5 L 332.171875 396.488281 L 332.3125 396.472656 L 332.453125 396.460938 L 332.59375 396.445312 L 332.730469 396.433594 L 333.011719 396.402344 L 333.152344 396.390625 L 333.289062 396.375 L 333.429688 396.363281 L 333.710938 396.332031 L 333.847656 396.316406 L 333.988281 396.304688 L 334.269531 396.273438 L 334.40625 396.261719 L 334.828125 396.214844 L 334.964844 396.203125 L 335.246094 396.171875 L 335.382812 396.15625 L 335.804688 396.109375 L 335.941406 396.097656 L 336.363281 396.050781 L 336.5 396.035156 L 336.921875 395.988281 L 337.058594 395.972656 L 337.480469 395.925781 L 337.617188 395.910156 L 337.898438 395.878906 L 338.035156 395.863281 L 338.175781 395.84375 L 338.457031 395.8125 L 338.59375 395.796875 L 338.875 395.765625 L 339.015625 395.746094 L 339.152344 395.730469 L 339.433594 395.699219 L 339.574219 395.679688 L 339.710938 395.664062 L 339.992188 395.632812 L 340.132812 395.613281 L 340.269531 395.597656 L 340.410156 395.578125 L 340.691406 395.546875 L 340.828125 395.527344 L 340.96875 395.511719 L 341.109375 395.492188 L 341.246094 395.476562 L 341.386719 395.460938 L 341.527344 395.441406 L 341.667969 395.425781 L 341.804688 395.40625 L 341.945312 395.390625 L 342.226562 395.351562 L 342.363281 395.335938 L 342.503906 395.316406 L 342.644531 395.300781 L 342.785156 395.28125 L 342.921875 395.261719 L 343.0625 395.246094 L 343.34375 395.207031 L 343.480469 395.191406 L 343.761719 395.152344 L 343.898438 395.136719 L 344.320312 395.078125 L 344.457031 395.058594 L 344.597656 395.042969 L 344.878906 395.003906 L 345.015625 394.984375 L 345.4375 394.925781 L 345.574219 394.90625 L 345.714844 394.890625 L 345.996094 394.851562 L 346.132812 394.832031 L 346.414062 394.792969 L 346.554688 394.769531 L 346.691406 394.75 L 346.972656 394.710938 L 347.109375 394.691406 L 347.53125 394.632812 L 347.667969 394.613281 L 347.808594 394.589844 L 348.089844 394.550781 L 348.226562 394.53125 L 348.367188 394.507812 L 348.648438 394.46875 L 348.785156 394.449219 L 348.925781 394.425781 L 349.207031 394.386719 L 349.34375 394.363281 L 349.484375 394.34375 L 349.625 394.320312 L 349.761719 394.300781 L 349.902344 394.277344 L 350.183594 394.238281 L 350.320312 394.214844 L 350.460938 394.195312 L 350.742188 394.148438 L 350.878906 394.128906 L 351.019531 394.105469 L 351.160156 394.085938 L 351.300781 394.0625 L 351.4375 394.039062 L 351.578125 394.019531 L 351.859375 393.972656 L 351.996094 393.953125 L 352.277344 393.90625 L 352.417969 393.886719 L 352.554688 393.863281 L 352.835938 393.816406 L 352.972656 393.792969 L 353.113281 393.773438 L 353.394531 393.726562 L 353.53125 393.703125 L 353.953125 393.632812 L 354.089844 393.609375 L 354.511719 393.539062 L 354.648438 393.515625 L 355.070312 393.445312 L 355.207031 393.421875 L 355.628906 393.351562 L 355.765625 393.324219 L 356.046875 393.277344 L 356.183594 393.253906 L 356.324219 393.230469 L 356.464844 393.203125 L 356.605469 393.179688 L 356.742188 393.15625 L 356.882812 393.128906 L 357.164062 393.082031 L 357.300781 393.054688 L 357.582031 393.007812 L 357.722656 392.980469 L 357.859375 392.957031 L 358 392.929688 L 358.140625 392.90625 L 358.28125 392.878906 L 358.417969 392.855469 L 358.558594 392.828125 L 358.699219 392.804688 L 358.835938 392.777344 L 358.976562 392.753906 L 359.257812 392.699219 L 359.394531 392.675781 L 359.675781 392.621094 L 359.816406 392.597656 L 359.953125 392.570312 L 360.09375 392.542969 L 360.234375 392.519531 L 360.375 392.492188 L 360.511719 392.464844 L 360.792969 392.410156 L 360.933594 392.386719 L 361.070312 392.359375 L 361.492188 392.277344 L 361.628906 392.25 L 361.910156 392.195312 L 362.046875 392.167969 L 362.46875 392.085938 L 362.605469 392.058594 L 363.027344 391.976562 L 363.164062 391.949219 L 363.304688 391.921875 L 363.445312 391.890625 L 363.585938 391.863281 L 363.722656 391.835938 L 364.003906 391.78125 L 364.144531 391.75 L 364.28125 391.722656 L 364.421875 391.695312 L 364.5625 391.664062 L 364.699219 391.636719 L 364.839844 391.609375 L 364.980469 391.578125 L 365.121094 391.550781 L 365.257812 391.523438 L 365.398438 391.492188 L 365.539062 391.464844 L 365.679688 391.433594 L 365.816406 391.40625 L 365.957031 391.375 L 366.097656 391.347656 L 366.238281 391.316406 L 366.375 391.289062 L 366.515625 391.257812 L 366.65625 391.230469 L 366.796875 391.199219 L 366.933594 391.167969 L 367.074219 391.140625 L 367.355469 391.078125 L 367.492188 391.050781 L 367.773438 390.988281 L 367.910156 390.957031 L 368.050781 390.929688 L 368.332031 390.867188 L 368.46875 390.835938 L 368.609375 390.804688 L 368.75 390.777344 L 368.890625 390.746094 L 369.027344 390.714844 L 369.449219 390.621094 L 369.585938 390.589844 L 370.007812 390.496094 L 370.144531 390.464844 L 370.425781 390.402344 L 370.5625 390.371094 L 370.703125 390.339844 L 370.84375 390.304688 L 370.984375 390.273438 L 371.121094 390.242188 L 371.402344 390.179688 L 371.542969 390.144531 L 371.679688 390.113281 L 371.960938 390.050781 L 372.101562 390.015625 L 372.238281 389.984375 L 372.378906 389.953125 L 372.519531 389.917969 L 372.660156 389.886719 L 372.796875 389.855469 L 372.9375 389.820312 L 373.078125 389.789062 L 373.21875 389.753906 L 373.355469 389.722656 L 373.496094 389.6875 L 373.636719 389.65625 L 373.773438 389.621094 L 373.914062 389.589844 L 374.054688 389.554688 L 374.195312 389.523438 L 374.332031 389.488281 L 374.472656 389.453125 L 374.613281 389.421875 L 374.753906 389.386719 L 374.890625 389.351562 L 375.03125 389.320312 L 375.3125 389.25 L 375.449219 389.214844 L 375.589844 389.183594 L 375.871094 389.113281 L 376.007812 389.078125 L 376.148438 389.042969 L 376.289062 389.011719 L 376.429688 388.976562 L 376.566406 388.941406 L 376.847656 388.871094 L 376.984375 388.835938 L 377.40625 388.730469 L 377.542969 388.695312 L 377.964844 388.589844 L 378.101562 388.554688 L 378.523438 388.449219 L 378.660156 388.410156 L 379.082031 388.304688 L 379.21875 388.269531 L 379.359375 388.230469 L 379.5 388.195312 L 379.636719 388.160156 L 379.777344 388.125 L 379.917969 388.085938 L 380.058594 388.050781 L 380.195312 388.015625 L 380.335938 387.976562 L 380.476562 387.941406 L 380.617188 387.902344 L 380.753906 387.867188 L 380.894531 387.832031 L 381.035156 387.792969 L 381.175781 387.757812 L 381.3125 387.71875 L 381.453125 387.683594 L 381.59375 387.644531 L 381.734375 387.609375 L 381.871094 387.570312 L 382.011719 387.53125 L 382.152344 387.496094 L 382.292969 387.457031 L 382.429688 387.421875 L 382.710938 387.34375 L 382.847656 387.308594 L 383.269531 387.191406 L 383.40625 387.15625 L 383.828125 387.039062 L 383.964844 387.003906 L 384.386719 386.886719 L 384.523438 386.847656 L 384.945312 386.730469 L 385.082031 386.691406 L 385.222656 386.65625 L 385.363281 386.617188 L 385.5 386.578125 L 385.78125 386.5 L 385.921875 386.457031 L 386.058594 386.417969 L 386.480469 386.300781 L 386.617188 386.261719 L 387.039062 386.144531 L 387.175781 386.101562 L 387.597656 385.984375 L 387.734375 385.941406 L 388.15625 385.824219 L 388.292969 385.78125 L 388.574219 385.703125 L 388.710938 385.660156 L 388.992188 385.582031 L 389.132812 385.539062 L 389.269531 385.5 L 389.410156 385.457031 L 389.550781 385.417969 L 389.691406 385.375 L 389.828125 385.335938 L 389.96875 385.292969 L 390.109375 385.253906 L 390.25 385.210938 L 390.386719 385.171875 L 390.527344 385.128906 L 390.667969 385.089844 L 390.808594 385.046875 L 390.945312 385.007812 L 391.226562 384.921875 L 391.363281 384.882812 L 391.644531 384.796875 L 391.785156 384.757812 L 391.921875 384.714844 L 392.203125 384.628906 L 392.34375 384.589844 L 392.480469 384.546875 L 392.761719 384.460938 L 392.902344 384.421875 L 393.039062 384.378906 L 393.460938 384.25 L 393.597656 384.207031 L 393.738281 384.167969 L 394.019531 384.082031 L 394.15625 384.039062 L 394.4375 383.953125 L 394.574219 383.910156 L 394.996094 383.78125 L 395.132812 383.738281 L 395.554688 383.609375 L 395.691406 383.566406 L 395.972656 383.480469 L 396.113281 383.433594 L 396.25 383.390625 L 396.671875 383.261719 L 396.808594 383.21875 L 396.949219 383.175781 L 397.089844 383.128906 L 397.226562 383.085938 L 397.648438 382.957031 L 397.785156 382.910156 L 398.066406 382.824219 L 398.207031 382.777344 L 398.34375 382.734375 L 398.484375 382.691406 L 398.625 382.644531 L 398.765625 382.601562 L 398.902344 382.558594 L 399.042969 382.511719 L 399.324219 382.425781 L 399.460938 382.378906 L 399.601562 382.335938 L 399.742188 382.289062 L 399.882812 382.246094 L 400.019531 382.203125 L 400.160156 382.15625 L 400.300781 382.113281 L 400.4375 382.066406 L 400.578125 382.023438 L 400.71875 381.976562 L 400.859375 381.933594 L 400.996094 381.886719 L 401.136719 381.84375 L 401.277344 381.796875 L 401.417969 381.753906 L 401.554688 381.707031 L 401.695312 381.664062 L 401.976562 381.570312 L 402.113281 381.527344 L 402.253906 381.480469 L 402.394531 381.4375 L 402.535156 381.390625 L 402.671875 381.34375 L 402.8125 381.300781 L 403.09375 381.207031 L 403.230469 381.164062 L 403.511719 381.070312 L 403.648438 381.027344 L 403.929688 380.933594 L 404.070312 380.890625 L 404.207031 380.84375 L 404.488281 380.75 L 404.628906 380.707031 L 404.765625 380.660156 L 405.046875 380.566406 L 405.1875 380.523438 L 405.324219 380.476562 L 405.746094 380.335938 L 405.882812 380.289062 L 406.023438 380.246094 L 406.164062 380.199219 L 406.300781 380.152344 L 406.722656 380.011719 L 406.859375 379.964844 L 407 379.921875 L 407.28125 379.828125 L 407.417969 379.78125 L 407.839844 379.640625 L 407.976562 379.59375 L 408.398438 379.453125 L 408.535156 379.40625 L 408.816406 379.3125 L 408.957031 379.269531 L 409.09375 379.222656 L 409.375 379.128906 L 409.511719 379.082031 L 409.933594 378.941406 L 410.070312 378.894531 L 410.210938 378.847656 L 410.351562 378.796875 L 410.492188 378.75 L 410.628906 378.703125 L 411.050781 378.5625 L 411.1875 378.515625 L 411.609375 378.375 L 411.746094 378.328125 L 412.027344 378.234375 L 412.164062 378.1875 L 412.445312 378.09375 L 412.585938 378.042969 L 412.722656 377.996094 L 413.144531 377.855469 L 413.28125 377.808594 L 413.703125 377.667969 L 413.839844 377.617188 L 414.261719 377.476562 L 414.398438 377.429688 L 414.820312 377.289062 L 414.957031 377.238281 L 415.238281 377.144531 L 415.375 377.097656 L 415.796875 376.957031 L 415.933594 376.90625 L 416.355469 376.765625 L 416.492188 376.71875 L 416.773438 376.625 L 416.914062 376.574219 L 417.050781 376.527344 L 417.472656 376.386719 L 417.609375 376.339844 L 417.75 376.292969 L 417.890625 376.242188 L 418.027344 376.195312 L 418.449219 376.054688 L 418.585938 376.007812 L 418.726562 375.960938 L 418.867188 375.910156 L 419.007812 375.863281 L 419.144531 375.816406 L 419.566406 375.675781 L 419.703125 375.628906 L 419.84375 375.578125 L 420.125 375.484375 L 420.261719 375.4375 L 420.683594 375.296875 L 420.820312 375.25 L 420.960938 375.199219 L 421.101562 375.152344 L 421.238281 375.105469 L 421.660156 374.964844 L 421.796875 374.917969 L 422.21875 374.777344 L 422.355469 374.730469 L 422.496094 374.679688 L 422.777344 374.585938 L 422.914062 374.539062 L 423.335938 374.398438 L 423.472656 374.351562 L 423.894531 374.210938 L 424.03125 374.164062 L 424.3125 374.070312 L 424.449219 374.023438 L 424.871094 373.882812 L 425.007812 373.835938 L 425.429688 373.695312 L 425.566406 373.648438 L 425.988281 373.507812 L 426.125 373.460938 L 426.40625 373.367188 L 426.546875 373.324219 L 426.683594 373.277344 L 426.964844 373.183594 L 427.101562 373.136719 L 427.523438 372.996094 L 427.660156 372.949219 L 427.800781 372.90625 L 428.082031 372.8125 L 428.21875 372.765625 L 428.359375 372.71875 L 428.5 372.675781 L 428.640625 372.628906 L 428.777344 372.582031 L 429.058594 372.488281 L 429.199219 372.445312 L 429.335938 372.398438 L 429.476562 372.351562 L 429.617188 372.308594 L 429.757812 372.261719 L 429.894531 372.214844 L 430.035156 372.167969 L 430.175781 372.125 L 430.3125 372.078125 L 430.453125 372.03125 L 430.59375 371.988281 L 430.734375 371.941406 L 430.871094 371.898438 L 431.152344 371.804688 L 431.292969 371.761719 L 431.429688 371.714844 L 431.570312 371.671875 L 431.851562 371.578125 L 431.988281 371.535156 L 432.128906 371.488281 L 432.269531 371.445312 L 432.410156 371.398438 L 432.546875 371.355469 L 432.6875 371.308594 L 432.828125 371.265625 L 432.964844 371.21875 L 433.246094 371.132812 L 433.386719 371.085938 L 433.523438 371.042969 L 433.664062 370.996094 L 433.945312 370.910156 L 434.082031 370.863281 L 434.363281 370.777344 L 434.503906 370.730469 L 434.640625 370.6875 L 434.921875 370.601562 L 435.0625 370.554688 L 435.199219 370.511719 L 435.480469 370.425781 L 435.621094 370.378906 L 435.757812 370.335938 L 436.039062 370.25 L 436.175781 370.207031 L 436.597656 370.078125 L 436.734375 370.03125 L 437.15625 369.902344 L 437.292969 369.859375 L 437.714844 369.730469 L 437.851562 369.691406 L 438.273438 369.5625 L 438.410156 369.519531 L 438.691406 369.433594 L 438.828125 369.390625 L 438.96875 369.351562 L 439.25 369.265625 L 439.386719 369.222656 L 439.527344 369.183594 L 439.808594 369.097656 L 439.945312 369.058594 L 440.226562 368.972656 L 440.367188 368.933594 L 440.503906 368.890625 L 440.644531 368.851562 L 440.925781 368.765625 L 441.0625 368.726562 L 441.203125 368.683594 L 441.34375 368.644531 L 441.484375 368.601562 L 441.621094 368.5625 L 441.761719 368.523438 L 441.902344 368.480469 L 442.039062 368.441406 L 442.179688 368.398438 L 442.460938 368.320312 L 442.597656 368.28125 L 442.738281 368.238281 L 443.019531 368.160156 L 443.15625 368.121094 L 443.296875 368.078125 L 443.578125 368 L 443.714844 367.960938 L 444.136719 367.84375 L 444.273438 367.804688 L 444.695312 367.6875 L 444.832031 367.648438 L 445.113281 367.570312 L 445.25 367.53125 L 445.671875 367.414062 L 445.808594 367.378906 L 446.230469 367.261719 L 446.367188 367.226562 L 446.648438 367.148438 L 446.789062 367.113281 L 446.925781 367.074219 L 447.066406 367.039062 L 447.207031 367 L 447.347656 366.964844 L 447.484375 366.925781 L 447.625 366.890625 L 447.765625 366.851562 L 447.902344 366.816406 L 448.042969 366.777344 L 448.324219 366.707031 L 448.460938 366.667969 L 448.742188 366.597656 L 448.882812 366.558594 L 449.019531 366.523438 L 449.441406 366.417969 L 449.578125 366.382812 L 449.71875 366.34375 L 450 366.273438 L 450.136719 366.238281 L 450.558594 366.132812 L 450.695312 366.101562 L 450.976562 366.03125 L 451.113281 365.996094 L 451.394531 365.925781 L 451.535156 365.894531 L 451.671875 365.859375 L 451.8125 365.824219 L 451.953125 365.792969 L 452.09375 365.757812 L 452.230469 365.722656 L 452.371094 365.691406 L 452.511719 365.65625 L 452.652344 365.625 L 452.789062 365.589844 L 452.929688 365.558594 L 453.070312 365.523438 L 453.210938 365.492188 L 453.347656 365.460938 L 453.488281 365.425781 L 453.628906 365.394531 L 453.765625 365.363281 L 453.90625 365.332031 L 454.046875 365.296875 L 454.1875 365.265625 L 454.324219 365.234375 L 454.746094 365.140625 L 454.882812 365.109375 L 455.304688 365.015625 L 455.441406 364.984375 L 455.863281 364.890625 L 456 364.859375 L 456.140625 364.832031 L 456.421875 364.769531 L 456.558594 364.738281 L 456.699219 364.710938 L 456.839844 364.679688 L 456.976562 364.652344 L 457.117188 364.621094 L 457.257812 364.59375 L 457.398438 364.5625 L 457.535156 364.535156 L 457.675781 364.503906 L 457.816406 364.476562 L 457.957031 364.445312 L 458.09375 364.417969 L 458.375 364.363281 L 458.515625 364.332031 L 458.652344 364.304688 L 459.074219 364.222656 L 459.210938 364.195312 L 459.492188 364.140625 L 459.628906 364.113281 L 460.050781 364.03125 L 460.1875 364.003906 L 460.328125 363.976562 L 460.46875 363.953125 L 460.609375 363.925781 L 460.746094 363.898438 L 460.886719 363.875 L 461.167969 363.820312 L 461.304688 363.796875 L 461.445312 363.769531 L 461.585938 363.746094 L 461.726562 363.71875 L 461.863281 363.695312 L 462.003906 363.667969 L 462.285156 363.621094 L 462.421875 363.597656 L 462.5625 363.570312 L 462.703125 363.546875 L 462.839844 363.523438 L 463.261719 363.453125 L 463.398438 363.429688 L 463.820312 363.359375 L 463.957031 363.335938 L 464.378906 363.265625 L 464.515625 363.246094 L 464.9375 363.175781 L 465.074219 363.15625 L 465.214844 363.132812 L 465.355469 363.113281 L 465.496094 363.089844 L 465.632812 363.070312 L 465.773438 363.046875 L 465.914062 363.027344 L 466.050781 363.007812 L 466.191406 362.984375 L 466.472656 362.945312 L 466.609375 362.925781 L 466.75 362.902344 L 467.03125 362.863281 L 467.167969 362.84375 L 467.589844 362.785156 L 467.726562 362.765625 L 467.867188 362.746094 L 468.007812 362.730469 L 468.148438 362.710938 L 468.285156 362.691406 L 468.425781 362.671875 L 468.566406 362.65625 L 468.703125 362.636719 L 468.84375 362.617188 L 468.984375 362.601562 L 469.125 362.582031 L 469.261719 362.566406 L 469.402344 362.546875 L 469.683594 362.515625 L 469.820312 362.496094 L 470.242188 362.449219 L 470.378906 362.429688 L 470.800781 362.382812 L 470.9375 362.367188 L 471.359375 362.320312 L 471.496094 362.304688 L 471.636719 362.289062 L 471.777344 362.277344 L 471.914062 362.261719 L 472.054688 362.246094 L 472.195312 362.234375 L 472.335938 362.21875 L 472.472656 362.203125 L 472.613281 362.191406 L 472.753906 362.175781 L 472.894531 362.164062 L 473.03125 362.148438 L 473.3125 362.125 L 473.453125 362.109375 L 473.589844 362.097656 L 473.871094 362.074219 L 474.011719 362.058594 L 474.148438 362.046875 L 474.429688 362.023438 L 474.566406 362.011719 L 474.988281 361.976562 L 475.125 361.96875 L 475.546875 361.933594 L 475.683594 361.925781 L 475.964844 361.902344 L 476.105469 361.894531 L 476.242188 361.882812 L 476.382812 361.875 L 476.523438 361.863281 L 476.664062 361.855469 L 476.800781 361.847656 L 476.941406 361.835938 L 477.222656 361.820312 L 477.359375 361.8125 L 477.5 361.800781 L 477.640625 361.792969 L 477.777344 361.785156 L 478.199219 361.761719 L 478.335938 361.753906 L 478.476562 361.75 L 478.757812 361.734375 L 478.894531 361.726562 L 479.035156 361.71875 L 479.175781 361.714844 L 479.316406 361.707031 L 479.453125 361.703125 L 479.59375 361.695312 L 479.734375 361.691406 L 479.875 361.683594 L 480.011719 361.679688 L 480.152344 361.671875 L 480.292969 361.667969 L 480.429688 361.664062 L 480.570312 361.65625 L 480.851562 361.648438 L 480.988281 361.644531 L 481.410156 361.632812 L 481.546875 361.628906 L 481.96875 361.617188 L 482.105469 361.613281 L 482.246094 361.613281 L 482.527344 361.605469 L 482.664062 361.605469 L 482.945312 361.597656 L 483.085938 361.597656 L 483.222656 361.59375 L 483.503906 361.59375 L 483.640625 361.589844 L 484.0625 361.589844 L 484.199219 361.585938 L 485.316406 361.585938 L 485.457031 361.589844 L 485.875 361.589844 L 486.015625 361.59375 L 486.15625 361.59375 L 486.292969 361.597656 L 486.433594 361.597656 L 486.574219 361.601562 L 486.714844 361.601562 L 486.851562 361.605469 L 486.992188 361.609375 L 487.132812 361.609375 L 487.273438 361.613281 L 487.410156 361.617188 L 487.550781 361.621094 L 487.691406 361.621094 L 487.832031 361.625 L 487.96875 361.628906 L 488.390625 361.640625 L 488.527344 361.644531 L 488.667969 361.652344 L 488.949219 361.660156 L 489.085938 361.664062 L 489.226562 361.671875 L 489.367188 361.675781 L 489.503906 361.679688 L 489.644531 361.6875 L 489.785156 361.691406 L 489.925781 361.699219 L 490.0625 361.703125 L 490.203125 361.710938 L 490.34375 361.714844 L 490.484375 361.722656 L 490.621094 361.730469 L 490.761719 361.738281 L 490.902344 361.742188 L 491.042969 361.75 L 491.179688 361.757812 L 491.601562 361.78125 L 491.738281 361.789062 L 492.019531 361.804688 L 492.160156 361.816406 L 492.296875 361.824219 L 492.578125 361.839844 L 492.714844 361.851562 L 492.996094 361.867188 L 493.136719 361.878906 L 493.273438 361.886719 L 493.414062 361.898438 L 493.554688 361.90625 L 493.695312 361.917969 L 493.832031 361.929688 L 493.972656 361.9375 L 494.253906 361.960938 L 494.390625 361.972656 L 494.53125 361.984375 L 494.671875 361.992188 L 494.8125 362.003906 L 494.949219 362.015625 L 495.230469 362.039062 L 495.367188 362.054688 L 495.789062 362.089844 L 495.925781 362.101562 L 496.066406 362.117188 L 496.347656 362.140625 L 496.484375 362.15625 L 496.625 362.167969 L 496.765625 362.183594 L 496.90625 362.195312 L 497.042969 362.210938 L 497.183594 362.222656 L 497.464844 362.253906 L 497.601562 362.269531 L 497.742188 362.28125 L 498.023438 362.3125 L 498.160156 362.328125 L 498.441406 362.359375 L 498.578125 362.375 L 499 362.421875 L 499.136719 362.4375 L 499.277344 362.453125 L 499.417969 362.472656 L 499.558594 362.488281 L 499.695312 362.503906 L 499.835938 362.519531 L 499.976562 362.539062 L 500.117188 362.554688 L 500.253906 362.574219 L 500.394531 362.589844 L 500.535156 362.609375 L 500.675781 362.625 L 500.8125 362.644531 L 500.953125 362.664062 L 501.09375 362.679688 L 501.230469 362.699219 L 501.652344 362.757812 L 501.789062 362.773438 L 502.210938 362.832031 L 502.347656 362.851562 L 502.628906 362.890625 L 502.769531 362.914062 L 502.90625 362.933594 L 503.1875 362.972656 L 503.328125 362.996094 L 503.464844 363.015625 L 503.605469 363.035156 L 503.746094 363.058594 L 503.886719 363.078125 L 504.023438 363.101562 L 504.164062 363.121094 L 504.304688 363.144531 L 504.441406 363.164062 L 504.582031 363.1875 L 504.722656 363.207031 L 504.863281 363.230469 L 505 363.253906 L 505.140625 363.277344 L 505.28125 363.296875 L 505.421875 363.320312 L 505.558594 363.34375 L 505.980469 363.414062 L 506.117188 363.4375 L 506.539062 363.507812 L 506.675781 363.53125 L 506.816406 363.558594 L 506.957031 363.582031 L 507.09375 363.605469 L 507.234375 363.628906 L 507.375 363.65625 L 507.515625 363.679688 L 507.652344 363.707031 L 507.933594 363.753906 L 508.074219 363.78125 L 508.210938 363.804688 L 508.492188 363.859375 L 508.632812 363.882812 L 508.769531 363.910156 L 508.910156 363.9375 L 509.050781 363.960938 L 509.191406 363.988281 L 509.328125 364.015625 L 509.75 364.097656 L 509.886719 364.125 L 510.167969 364.179688 L 510.304688 364.207031 L 510.726562 364.289062 L 510.863281 364.316406 L 511.003906 364.34375 L 511.144531 364.375 L 511.285156 364.402344 L 511.421875 364.429688 L 511.5625 364.460938 L 511.84375 364.515625 L 511.980469 364.546875 L 512.121094 364.574219 L 512.261719 364.605469 L 512.402344 364.632812 L 512.539062 364.664062 L 512.679688 364.691406 L 512.960938 364.753906 L 513.097656 364.78125 L 513.378906 364.84375 L 513.515625 364.875 L 513.65625 364.902344 L 513.9375 364.964844 L 514.074219 364.996094 L 514.496094 365.089844 L 514.632812 365.121094 L 515.054688 365.214844 L 515.191406 365.246094 L 515.332031 365.28125 L 515.613281 365.34375 L 515.75 365.375 L 515.890625 365.410156 L 516.03125 365.441406 L 516.167969 365.472656 L 516.308594 365.507812 L 516.589844 365.570312 L 516.726562 365.605469 L 516.867188 365.636719 L 517.007812 365.671875 L 517.148438 365.703125 L 517.285156 365.738281 L 517.425781 365.773438 L 517.566406 365.804688 L 517.707031 365.839844 L 517.84375 365.875 L 517.984375 365.90625 L 518.265625 365.976562 L 518.402344 366.011719 L 518.542969 366.046875 L 518.683594 366.078125 L 518.824219 366.113281 L 518.960938 366.148438 L 519.242188 366.21875 L 519.378906 366.253906 L 519.800781 366.359375 L 519.9375 366.394531 L 520.078125 366.433594 L 520.359375 366.503906 L 520.496094 366.539062 L 520.636719 366.574219 L 520.777344 366.613281 L 520.917969 366.648438 L 521.054688 366.683594 L 521.195312 366.71875 L 521.335938 366.757812 L 521.476562 366.792969 L 521.613281 366.832031 L 521.753906 366.867188 L 521.894531 366.90625 L 522.03125 366.941406 L 522.171875 366.980469 L 522.3125 367.015625 L 522.453125 367.054688 L 522.589844 367.089844 L 522.730469 367.128906 L 522.871094 367.164062 L 523.011719 367.203125 L 523.148438 367.242188 L 523.289062 367.28125 L 523.429688 367.316406 L 523.570312 367.355469 L 523.707031 367.394531 L 523.847656 367.433594 L 523.988281 367.46875 L 524.128906 367.507812 L 524.265625 367.546875 L 524.6875 367.664062 L 524.824219 367.703125 L 525.105469 367.78125 L 525.242188 367.820312 L 525.664062 367.9375 L 525.800781 367.976562 L 526.082031 368.054688 L 526.222656 368.097656 L 526.359375 368.136719 L 526.640625 368.214844 L 526.78125 368.257812 L 526.917969 368.296875 L 527.199219 368.375 L 527.339844 368.417969 L 527.476562 368.457031 L 527.617188 368.5 L 527.757812 368.539062 L 527.894531 368.578125 L 528.035156 368.621094 L 528.175781 368.660156 L 528.316406 368.703125 L 528.453125 368.742188 L 528.59375 368.785156 L 528.734375 368.824219 L 528.875 368.867188 L 529.011719 368.910156 L 529.152344 368.949219 L 529.292969 368.992188 L 529.433594 369.03125 L 529.570312 369.074219 L 529.710938 369.117188 L 529.851562 369.15625 L 529.992188 369.199219 L 530.128906 369.242188 L 530.269531 369.285156 L 530.410156 369.324219 L 530.550781 369.367188 L 530.6875 369.410156 L 530.96875 369.496094 L 531.105469 369.539062 L 531.246094 369.578125 L 531.527344 369.664062 L 531.664062 369.707031 L 532.085938 369.835938 L 532.222656 369.878906 L 532.644531 370.007812 L 532.78125 370.050781 L 533.203125 370.179688 L 533.339844 370.222656 L 533.480469 370.269531 L 533.761719 370.355469 L 533.898438 370.398438 L 534.039062 370.441406 L 534.179688 370.488281 L 534.316406 370.53125 L 534.597656 370.617188 L 534.738281 370.664062 L 534.875 370.707031 L 535.15625 370.792969 L 535.296875 370.839844 L 535.433594 370.882812 L 535.574219 370.925781 L 535.714844 370.972656 L 535.855469 371.015625 L 535.992188 371.0625 L 536.273438 371.148438 L 536.414062 371.195312 L 536.550781 371.238281 L 536.691406 371.285156 L 536.832031 371.328125 L 536.96875 371.375 L 537.109375 371.417969 L 537.25 371.464844 L 537.390625 371.507812 L 537.527344 371.554688 L 537.667969 371.597656 L 537.808594 371.644531 L 537.949219 371.6875 L 538.085938 371.734375 L 538.226562 371.78125 L 538.367188 371.824219 L 538.507812 371.871094 L 538.644531 371.914062 L 538.925781 372.007812 L 539.066406 372.050781 L 539.203125 372.097656 L 539.34375 372.144531 L 539.484375 372.1875 L 539.625 372.234375 L 539.761719 372.28125 L 539.902344 372.324219 L 540.042969 372.371094 L 540.179688 372.417969 L 540.320312 372.464844 L 540.460938 372.507812 L 540.601562 372.554688 L 540.738281 372.601562 L 541.019531 372.695312 L 541.160156 372.738281 L 541.296875 372.785156 L 541.71875 372.925781 L 541.855469 372.96875 L 542.277344 373.109375 L 542.414062 373.15625 L 542.695312 373.25 L 542.832031 373.296875 L 542.972656 373.339844 L 543.253906 373.433594 L 543.390625 373.480469 L 543.8125 373.621094 L 543.949219 373.667969 L 544.371094 373.808594 L 544.507812 373.855469 L 544.929688 373.996094 L 545.066406 374.042969 L 545.488281 374.183594 L 545.625 374.230469 L 545.90625 374.324219 L 546.042969 374.371094 L 546.464844 374.511719 L 546.601562 374.558594 L 547.023438 374.699219 L 547.160156 374.75 L 547.582031 374.890625 L 547.71875 374.9375 L 548.140625 375.078125 L 548.277344 375.125 L 548.417969 375.171875 L 548.558594 375.222656 L 548.695312 375.269531 L 549.117188 375.410156 L 549.253906 375.457031 L 549.535156 375.550781 L 549.675781 375.601562 L 549.8125 375.648438 L 550.234375 375.789062 L 550.371094 375.835938 L 550.652344 375.929688 L 550.792969 375.980469 L 550.929688 376.027344 L 551.351562 376.167969 L 551.488281 376.214844 L 551.628906 376.261719 L 551.769531 376.3125 L 551.90625 376.359375 L 552.328125 376.5 L 552.464844 376.546875 L 552.605469 376.597656 L 552.886719 376.691406 L 553.023438 376.738281 L 553.445312 376.878906 L 553.582031 376.929688 L 554.003906 377.070312 L 554.140625 377.117188 L 554.421875 377.210938 L 554.5625 377.261719 L 554.699219 377.308594 L 554.980469 377.402344 L 555.117188 377.449219 L 555.539062 377.589844 L 555.675781 377.640625 L 556.097656 377.78125 L 556.234375 377.828125 L 556.65625 377.96875 L 556.792969 378.015625 L 556.933594 378.066406 L 557.214844 378.160156 L 557.351562 378.207031 L 557.632812 378.300781 L 557.769531 378.347656 L 558.191406 378.488281 L 558.328125 378.535156 L 558.75 378.675781 L 558.886719 378.722656 L 559.027344 378.769531 L 559.167969 378.820312 L 559.308594 378.867188 L 559.445312 378.914062 L 559.867188 379.054688 L 560.003906 379.101562 L 560.425781 379.242188 L 560.5625 379.289062 L 560.703125 379.335938 L 560.84375 379.378906 L 560.980469 379.425781 L 561.402344 379.566406 L 561.539062 379.613281 L 561.960938 379.753906 L 562.097656 379.800781 L 562.519531 379.941406 L 562.65625 379.984375 L 563.078125 380.125 L 563.214844 380.171875 L 563.496094 380.265625 L 563.632812 380.308594 L 564.054688 380.449219 L 564.191406 380.496094 L 564.332031 380.539062 L 564.613281 380.632812 L 564.75 380.679688 L 564.890625 380.726562 L 565.03125 380.769531 L 565.171875 380.816406 L 565.308594 380.863281 L 565.449219 380.90625 L 565.730469 381 L 565.867188 381.046875 L 566.007812 381.089844 L 566.289062 381.183594 L 566.425781 381.226562 L 566.707031 381.320312 L 566.84375 381.363281 L 566.984375 381.410156 L 567.125 381.453125 L 567.265625 381.5 L 567.402344 381.546875 L 567.542969 381.589844 L 567.683594 381.636719 L 567.824219 381.679688 L 567.960938 381.726562 L 568.101562 381.773438 L 568.242188 381.816406 L 568.382812 381.863281 L 568.519531 381.90625 L 568.660156 381.953125 L 568.800781 381.996094 L 568.941406 382.042969 L 569.078125 382.085938 L 569.21875 382.132812 L 569.359375 382.175781 L 569.496094 382.21875 L 569.636719 382.265625 L 569.777344 382.308594 L 569.917969 382.355469 L 570.054688 382.398438 L 570.195312 382.441406 L 570.335938 382.488281 L 570.476562 382.53125 L 570.613281 382.578125 L 570.894531 382.664062 L 571.035156 382.710938 L 571.171875 382.753906 L 571.453125 382.839844 L 571.59375 382.886719 L 571.730469 382.929688 L 572.011719 383.015625 L 572.152344 383.0625 L 572.289062 383.105469 L 572.570312 383.191406 L 572.707031 383.234375 L 572.847656 383.28125 L 573.128906 383.367188 L 573.265625 383.410156 L 573.6875 383.539062 L 573.824219 383.582031 L 573.964844 383.625 L 574.105469 383.671875 L 574.246094 383.714844 L 574.382812 383.757812 L 574.804688 383.886719 L 574.941406 383.929688 L 575.082031 383.972656 L 575.222656 384.011719 L 575.359375 384.054688 L 575.78125 384.183594 L 575.917969 384.226562 L 576.339844 384.355469 L 576.476562 384.394531 L 576.898438 384.523438 L 577.035156 384.5625 L 577.457031 384.691406 L 577.59375 384.730469 L 577.875 384.816406 L 578.015625 384.855469 L 578.152344 384.898438 L 578.292969 384.941406 L 578.433594 384.980469 L 578.570312 385.023438 L 578.710938 385.066406 L 578.851562 385.105469 L 578.992188 385.148438 L 579.128906 385.1875 L 579.269531 385.230469 L 579.410156 385.269531 L 579.550781 385.3125 L 579.6875 385.351562 L 579.828125 385.394531 L 579.96875 385.433594 L 580.109375 385.476562 L 580.246094 385.515625 L 580.386719 385.558594 L 580.667969 385.636719 L 580.804688 385.679688 L 581.085938 385.757812 L 581.226562 385.800781 L 581.363281 385.839844 L 581.503906 385.878906 L 581.644531 385.921875 L 581.78125 385.960938 L 582.203125 386.078125 L 582.339844 386.121094 L 582.761719 386.238281 L 582.898438 386.277344 L 583.179688 386.355469 L 583.320312 386.398438 L 583.457031 386.4375 L 583.878906 386.554688 L 584.015625 386.59375 L 584.296875 386.671875 L 584.433594 386.710938 L 584.714844 386.789062 L 584.855469 386.824219 L 584.992188 386.863281 L 585.414062 386.980469 L 585.550781 387.019531 L 585.691406 387.054688 L 585.972656 387.132812 L 586.109375 387.171875 L 586.25 387.210938 L 586.390625 387.246094 L 586.53125 387.285156 L 586.667969 387.324219 L 586.808594 387.359375 L 587.089844 387.4375 L 587.226562 387.472656 L 587.367188 387.511719 L 587.507812 387.546875 L 587.644531 387.585938 L 587.785156 387.625 L 587.925781 387.660156 L 588.066406 387.699219 L 588.203125 387.734375 L 588.34375 387.773438 L 588.625 387.84375 L 588.761719 387.882812 L 588.902344 387.917969 L 589.042969 387.957031 L 589.183594 387.992188 L 589.320312 388.027344 L 589.460938 388.066406 L 589.742188 388.136719 L 589.878906 388.175781 L 590.160156 388.246094 L 590.296875 388.28125 L 590.4375 388.320312 L 590.71875 388.390625 L 590.855469 388.425781 L 590.996094 388.460938 L 591.136719 388.5 L 591.277344 388.535156 L 591.414062 388.570312 L 591.835938 388.675781 L 591.972656 388.710938 L 592.394531 388.816406 L 592.53125 388.851562 L 592.953125 388.957031 L 593.089844 388.988281 L 593.371094 389.058594 L 593.507812 389.09375 L 593.789062 389.164062 L 593.929688 389.195312 L 594.066406 389.230469 L 594.347656 389.300781 L 594.488281 389.332031 L 594.625 389.367188 L 594.765625 389.402344 L 594.90625 389.433594 L 595.046875 389.46875 L 595.183594 389.503906 L 595.324219 389.535156 L 595.464844 389.570312 L 595.605469 389.601562 L 595.742188 389.636719 L 595.882812 389.667969 L 596.023438 389.703125 L 596.160156 389.734375 L 596.300781 389.769531 L 596.441406 389.800781 L 596.582031 389.835938 L 596.71875 389.867188 L 596.859375 389.898438 L 597 389.933594 L 597.140625 389.964844 L 597.277344 389.996094 L 597.417969 390.03125 L 597.699219 390.09375 L 597.835938 390.128906 L 598.257812 390.222656 L 598.394531 390.253906 L 598.535156 390.289062 L 598.816406 390.351562 L 598.953125 390.382812 L 599.234375 390.445312 L 599.371094 390.476562 L 599.792969 390.570312 L 599.929688 390.601562 L 600.351562 390.695312 L 600.488281 390.726562 L 600.910156 390.820312 L 601.046875 390.851562 L 601.1875 390.878906 L 601.46875 390.941406 L 601.605469 390.972656 L 601.746094 391 L 602.027344 391.0625 L 602.164062 391.09375 L 602.304688 391.121094 L 602.445312 391.152344 L 602.582031 391.183594 L 602.722656 391.210938 L 602.863281 391.242188 L 603.003906 391.269531 L 603.140625 391.300781 L 603.28125 391.328125 L 603.421875 391.359375 L 603.5625 391.386719 L 603.699219 391.417969 L 603.839844 391.445312 L 603.980469 391.476562 L 604.121094 391.503906 L 604.257812 391.535156 L 604.398438 391.5625 L 604.539062 391.59375 L 604.679688 391.621094 L 604.816406 391.648438 L 604.957031 391.679688 L 605.097656 391.707031 L 605.234375 391.734375 L 605.375 391.761719 L 605.515625 391.792969 L 605.65625 391.820312 L 605.792969 391.847656 L 606.074219 391.902344 L 606.214844 391.933594 L 606.351562 391.960938 L 606.773438 392.042969 L 606.910156 392.070312 L 607.332031 392.152344 L 607.46875 392.179688 L 607.890625 392.261719 L 608.027344 392.289062 L 608.308594 392.34375 L 608.445312 392.371094 L 608.585938 392.394531 L 608.867188 392.449219 L 609.003906 392.476562 L 609.144531 392.503906 L 609.285156 392.527344 L 609.425781 392.554688 L 609.5625 392.582031 L 609.703125 392.609375 L 609.84375 392.632812 L 609.984375 392.660156 L 610.121094 392.6875 L 610.261719 392.710938 L 610.402344 392.738281 L 610.542969 392.761719 L 610.679688 392.789062 L 610.820312 392.8125 L 610.960938 392.839844 L 611.097656 392.867188 L 611.238281 392.890625 L 611.378906 392.917969 L 611.519531 392.941406 L 611.65625 392.964844 L 611.796875 392.992188 L 611.9375 393.015625 L 612.078125 393.042969 L 612.214844 393.066406 L 612.355469 393.089844 L 612.496094 393.117188 L 612.636719 393.140625 L 612.773438 393.164062 L 612.914062 393.191406 L 613.195312 393.238281 L 613.332031 393.261719 L 613.472656 393.289062 L 613.753906 393.335938 L 613.890625 393.359375 L 614.171875 393.40625 L 614.308594 393.433594 L 614.730469 393.503906 L 614.867188 393.527344 L 615.289062 393.597656 L 615.425781 393.621094 L 615.847656 393.691406 L 615.984375 393.710938 L 616.40625 393.78125 L 616.542969 393.804688 L 616.683594 393.828125 L 616.824219 393.847656 L 616.960938 393.871094 L 617.242188 393.917969 L 617.382812 393.9375 L 617.519531 393.960938 L 617.800781 394.007812 L 617.941406 394.027344 L 618.078125 394.050781 L 618.21875 394.070312 L 618.5 394.117188 L 618.636719 394.136719 L 618.777344 394.160156 L 618.917969 394.179688 L 619.058594 394.203125 L 619.195312 394.222656 L 619.335938 394.246094 L 619.476562 394.265625 L 619.617188 394.289062 L 619.753906 394.308594 L 619.894531 394.332031 L 620.035156 394.351562 L 620.171875 394.371094 L 620.3125 394.394531 L 620.59375 394.433594 L 620.730469 394.457031 L 621.011719 394.496094 L 621.152344 394.519531 L 621.289062 394.539062 L 621.570312 394.578125 L 621.710938 394.601562 L 621.847656 394.621094 L 622.269531 394.679688 L 622.40625 394.699219 L 622.6875 394.738281 L 622.828125 394.761719 L 622.964844 394.78125 L 623.246094 394.820312 L 623.382812 394.839844 L 623.804688 394.898438 L 623.941406 394.917969 L 624.082031 394.933594 L 624.363281 394.972656 L 624.5 394.992188 L 624.921875 395.050781 L 625.058594 395.070312 L 625.199219 395.085938 L 625.480469 395.125 L 625.617188 395.144531 L 625.757812 395.160156 L 625.898438 395.179688 L 626.035156 395.199219 L 626.175781 395.214844 L 626.457031 395.253906 L 626.59375 395.269531 L 626.875 395.308594 L 627.015625 395.324219 L 627.152344 395.34375 L 627.292969 395.359375 L 627.433594 395.378906 L 627.574219 395.394531 L 627.710938 395.414062 L 627.851562 395.429688 L 627.992188 395.449219 L 628.132812 395.464844 L 628.269531 395.484375 L 628.410156 395.5 L 628.550781 395.519531 L 628.691406 395.535156 L 628.828125 395.554688 L 629.109375 395.585938 L 629.246094 395.605469 L 629.527344 395.636719 L 629.667969 395.65625 L 629.804688 395.671875 L 630.085938 395.703125 L 630.226562 395.722656 L 630.363281 395.738281 L 630.644531 395.769531 L 630.785156 395.789062 L 630.921875 395.804688 L 631.34375 395.851562 L 631.480469 395.867188 L 631.761719 395.898438 L 631.898438 395.917969 L 632.320312 395.964844 L 632.457031 395.980469 L 632.878906 396.027344 L 633.015625 396.042969 L 633.15625 396.054688 L 633.4375 396.085938 L 633.574219 396.101562 L 633.996094 396.148438 L 634.132812 396.164062 L 634.273438 396.179688 L 634.414062 396.191406 L 634.554688 396.207031 L 634.691406 396.222656 L 634.832031 396.238281 L 634.972656 396.25 L 635.109375 396.265625 L 635.390625 396.296875 L 635.53125 396.308594 L 635.667969 396.324219 L 635.808594 396.339844 L 635.949219 396.351562 L 636.089844 396.367188 L 636.226562 396.382812 L 636.367188 396.394531 L 636.507812 396.410156 L 636.648438 396.421875 L 636.785156 396.4375 L 636.925781 396.453125 L 637.066406 396.464844 L 637.207031 396.480469 L 637.34375 396.492188 L 637.484375 396.507812 L 637.625 396.519531 L 637.761719 396.535156 L 637.902344 396.546875 L 638.042969 396.5625 L 638.183594 396.574219 L 638.320312 396.589844 L 638.601562 396.613281 L 638.742188 396.628906 L 638.878906 396.640625 L 639.019531 396.65625 L 639.300781 396.679688 L 639.4375 396.695312 L 639.71875 396.71875 L 639.859375 396.734375 L 639.996094 396.746094 L 640.277344 396.769531 L 640.417969 396.785156 L 640.554688 396.796875 L 640.835938 396.820312 L 640.972656 396.832031 L 641.113281 396.847656 L 641.394531 396.871094 L 641.53125 396.882812 L 641.8125 396.90625 L 641.953125 396.921875 L 642.089844 396.933594 L 642.511719 396.96875 L 642.648438 396.980469 L 643.070312 397.015625 L 643.207031 397.027344 L 643.628906 397.0625 L 643.765625 397.074219 L 644.046875 397.097656 L 644.183594 397.109375 L 644.324219 397.121094 L 644.464844 397.128906 L 644.605469 397.140625 L 644.742188 397.152344 L 645.164062 397.1875 L 645.300781 397.199219 L 645.441406 397.207031 L 645.722656 397.230469 L 645.859375 397.242188 L 646 397.253906 L 646.140625 397.261719 L 646.28125 397.273438 L 646.417969 397.285156 L 646.558594 397.292969 L 646.699219 397.304688 L 646.835938 397.316406 L 646.976562 397.328125 L 647.117188 397.335938 L 647.257812 397.347656 L 647.394531 397.359375 L 647.535156 397.367188 L 647.816406 397.390625 L 647.953125 397.398438 L 648.09375 397.410156 L 648.234375 397.417969 L 648.375 397.429688 L 648.511719 397.4375 L 648.792969 397.460938 L 648.933594 397.46875 L 649.070312 397.480469 L 649.210938 397.488281 L 649.351562 397.5 L 649.492188 397.507812 L 649.628906 397.519531 L 649.769531 397.527344 L 649.910156 397.539062 L 650.046875 397.546875 L 650.1875 397.558594 L 650.46875 397.574219 L 650.605469 397.585938 L 650.746094 397.59375 L 650.886719 397.605469 L 651.027344 397.613281 L 651.164062 397.621094 L 651.304688 397.632812 L 651.585938 397.648438 L 651.722656 397.660156 L 652.003906 397.675781 L 652.144531 397.6875 L 652.28125 397.695312 L 652.421875 397.703125 L 652.5625 397.714844 L 652.699219 397.722656 L 652.980469 397.738281 L 653.121094 397.75 L 653.257812 397.757812 L 653.679688 397.78125 L 653.816406 397.792969 L 654.238281 397.816406 L 654.375 397.824219 L 654.515625 397.832031 L 654.65625 397.84375 L 654.796875 397.851562 L 654.933594 397.859375 L 655.355469 397.882812 L 655.492188 397.890625 L 655.773438 397.90625 L 655.910156 397.914062 L 656.332031 397.9375 L 656.46875 397.945312 L 656.890625 397.96875 L 657.027344 397.976562 L 657.449219 398 L 657.585938 398.007812 L 658.007812 398.03125 L 658.144531 398.039062 L 658.425781 398.054688 L 658.5625 398.0625 L 658.703125 398.066406 L 658.984375 398.082031 L 659.121094 398.089844 L 659.402344 398.105469 L 659.542969 398.109375 L 659.679688 398.117188 L 660.101562 398.140625 L 660.238281 398.144531 L 660.660156 398.167969 L 660.796875 398.175781 L 660.9375 398.179688 L 661.21875 398.195312 L 661.355469 398.199219 L 661.636719 398.214844 L 661.773438 398.222656 L 661.914062 398.226562 L 662.195312 398.242188 L 662.332031 398.246094 L 662.613281 398.261719 L 662.753906 398.265625 L 662.890625 398.273438 L 663.03125 398.277344 L 663.3125 398.292969 L 663.449219 398.296875 L 663.589844 398.304688 L 663.730469 398.308594 L 663.871094 398.316406 L 664.007812 398.324219 L 664.148438 398.328125 L 664.289062 398.335938 L 664.425781 398.339844 L 664.566406 398.347656 L 664.707031 398.351562 L 664.847656 398.359375 L 664.984375 398.363281 L 665.125 398.371094 L 665.265625 398.375 L 665.40625 398.382812 L 665.542969 398.386719 L 665.683594 398.394531 L 665.824219 398.398438 L 665.964844 398.40625 L 666.101562 398.410156 L 666.242188 398.417969 L 666.382812 398.421875 L 666.523438 398.429688 L 666.660156 398.433594 L 666.800781 398.441406 L 667.082031 398.449219 L 667.21875 398.457031 L 667.359375 398.460938 L 667.5 398.46875 L 667.636719 398.472656 L 667.777344 398.476562 L 667.917969 398.484375 L 668.058594 398.488281 L 668.195312 398.492188 L 668.335938 398.5 L 668.476562 398.503906 L 668.617188 398.511719 L 668.753906 398.515625 L 669.035156 398.523438 L 669.175781 398.53125 L 669.3125 398.535156 L 669.453125 398.539062 L 669.59375 398.546875 L 669.734375 398.550781 L 669.871094 398.554688 L 670.011719 398.5625 L 670.292969 398.570312 L 670.429688 398.574219 L 670.570312 398.582031 L 670.710938 398.585938 L 670.847656 398.589844 L 670.988281 398.59375 L 671.128906 398.601562 L 671.269531 398.605469 L 671.40625 398.609375 L 671.6875 398.617188 L 671.828125 398.625 L 671.964844 398.628906 L 672.386719 398.640625 L 672.523438 398.648438 L 672.945312 398.660156 L 673.082031 398.664062 L 673.363281 398.671875 L 673.5 398.679688 L 673.921875 398.691406 L 674.058594 398.695312 L 674.480469 398.707031 L 674.617188 398.710938 L 674.757812 398.714844 L 674.898438 398.722656 L 675.039062 398.726562 L 675.175781 398.730469 L 675.597656 398.742188 L 675.734375 398.746094 L 676.15625 398.757812 L 676.292969 398.761719 L 676.574219 398.769531 L 676.710938 398.773438 L 677.132812 398.785156 L 677.269531 398.789062 L 677.691406 398.800781 L 677.828125 398.804688 L 678.25 398.816406 L 678.386719 398.820312 L 678.667969 398.828125 L 678.808594 398.828125 L 678.945312 398.832031 L 679.226562 398.839844 L 679.363281 398.84375 L 679.785156 398.855469 L 679.921875 398.859375 L 680.0625 398.863281 L 680.203125 398.863281 L 680.34375 398.867188 L 680.480469 398.871094 L 680.902344 398.882812 L 681.039062 398.886719 L 681.179688 398.890625 L 681.320312 398.890625 L 681.460938 398.894531 L 681.597656 398.898438 L 682.019531 398.910156 L 682.15625 398.910156 L 682.4375 398.917969 L 682.574219 398.921875 L 682.714844 398.925781 L 682.855469 398.925781 L 682.996094 398.929688 L 683.132812 398.933594 L 683.414062 398.941406 L 683.554688 398.941406 L 683.691406 398.945312 L 683.972656 398.953125 L 684.113281 398.953125 L 684.25 398.957031 L 684.53125 398.964844 L 684.671875 398.964844 L 684.808594 398.96875 L 685.089844 398.976562 L 685.226562 398.976562 L 685.507812 398.984375 L 685.648438 398.984375 L 685.785156 398.988281 L 686.066406 398.996094 L 686.207031 398.996094 L 686.34375 399 L 686.484375 399.003906 L 686.625 399.003906 L 686.765625 399.007812 L 686.902344 399.011719 L 687.042969 399.011719 L 687.324219 399.019531 L 687.460938 399.019531 L 687.742188 399.027344 L 687.882812 399.027344 L 688.019531 399.03125 L 688.160156 399.035156 L 688.300781 399.035156 L 688.4375 399.039062 L 688.578125 399.042969 L 688.71875 399.042969 L 688.859375 399.046875 L 688.996094 399.050781 L 689.136719 399.050781 L 689.277344 399.054688 L 689.417969 399.054688 L 689.554688 399.058594 L 689.695312 399.0625 L 689.835938 399.0625 L 689.976562 399.066406 L 690.113281 399.066406 L 690.394531 399.074219 L 690.535156 399.074219 L 690.671875 399.078125 L 690.8125 399.078125 L 690.953125 399.082031 L 691.09375 399.082031 L 691.230469 399.085938 L 691.371094 399.089844 L 691.511719 399.089844 L 691.648438 399.09375 L 691.789062 399.09375 L 691.929688 399.097656 L 692.070312 399.097656 L 692.207031 399.101562 L 692.347656 399.105469 L 692.488281 399.105469 L 692.628906 399.109375 L 692.765625 399.109375 L 692.90625 399.113281 L 693.046875 399.113281 L 693.1875 399.117188 L 693.324219 399.117188 L 693.464844 399.121094 L 693.605469 399.121094 L 693.746094 399.125 L 693.882812 399.125 L 694.023438 399.128906 L 694.164062 399.128906 L 694.300781 399.132812 L 694.441406 399.132812 L 694.582031 399.136719 L 694.722656 399.136719 L 694.859375 399.140625 L 695 399.140625 L 695.140625 399.144531 L 695.28125 399.144531 L 695.417969 399.148438 L 695.558594 399.148438 L 695.699219 399.152344 L 695.839844 399.152344 L 695.976562 399.15625 L 696.117188 399.15625 L 696.257812 399.160156 L 696.398438 399.160156 L 696.535156 399.164062 L 696.675781 399.164062 L 696.816406 399.167969 L 697.09375 399.167969 L 697.234375 399.171875 L 697.375 399.171875 L 697.511719 399.175781 L 697.652344 399.175781 L 697.792969 399.179688 L 698.070312 399.179688 L 698.210938 399.183594 L 698.351562 399.183594 L 698.492188 399.1875 L 698.628906 399.1875 L 698.769531 399.191406 L 699.050781 399.191406 L 699.1875 399.195312 L 699.328125 399.195312 L 699.46875 399.199219 L 699.746094 399.199219 L 699.886719 399.203125 L 700.027344 399.203125 L 700.164062 399.207031 L 700.445312 399.207031 L 700.585938 399.210938 L 700.722656 399.210938 L 700.863281 399.214844 L 701.144531 399.214844 L 701.28125 399.21875 L 701.421875 399.21875 L 701.5625 399.222656 L 701.839844 399.222656 L 701.980469 399.226562 L 702.261719 399.226562 L 702.398438 399.230469 L 702.679688 399.230469 L 702.820312 399.234375 L 703.097656 399.234375 L 703.238281 399.238281 L 703.515625 399.238281 L 703.65625 399.242188 L 703.796875 399.242188 L 703.933594 399.246094 L 704.355469 399.246094 L 704.492188 399.25 L 704.773438 399.25 L 704.914062 399.253906 L 705.191406 399.253906 L 705.332031 399.257812 L 705.609375 399.257812 L 705.75 399.261719 L 706.027344 399.261719 L 706.167969 399.265625 L 706.449219 399.265625 L 706.585938 399.269531 L 707.007812 399.269531 L 707.144531 399.273438 L 707.425781 399.273438 L 707.566406 399.277344 L 707.984375 399.277344 L 708.125 399.28125 L 708.402344 399.28125 L 708.542969 399.285156 L 708.960938 399.285156 L 709.101562 399.289062 L 709.519531 399.289062 L 709.660156 399.292969 L 710.078125 399.292969 L 710.21875 399.296875 L 710.636719 399.296875 L 710.777344 399.300781 L 711.195312 399.300781 L 711.335938 399.304688 L 711.753906 399.304688 L 711.894531 399.308594 L 712.3125 399.308594 L 712.449219 399.3125 L 713.007812 399.3125 L 713.148438 399.316406 L 713.566406 399.316406 L 713.707031 399.320312 L 714.265625 399.320312 L 714.40625 399.324219 L 714.964844 399.324219 L 715.101562 399.328125 L 715.660156 399.328125 L 715.800781 399.332031 L 716.359375 399.332031 L 716.5 399.335938 L 717.058594 399.335938 L 717.199219 399.339844 L 717.894531 399.339844 L 718.035156 399.34375 L 718.59375 399.34375 L 718.734375 399.347656 L 719.429688 399.347656 L 719.570312 399.351562 L 720.410156 399.351562 L 720.546875 399.355469 L 721.105469 399.355469 L 721.105469 399.4375 Z M 23.234375 399.4375 "/>
<path style=" stroke:none;fill-rule:nonzero;fill:rgb(90.196078%,25.490196%,45.098039%);fill-opacity:0.701961;" d="M 23.234375 399.4375 L 452.230469 399.4375 L 452.371094 399.433594 L 453.210938 399.433594 L 453.347656 399.429688 L 453.90625 399.429688 L 454.046875 399.425781 L 454.324219 399.425781 L 454.464844 399.421875 L 454.605469 399.421875 L 454.746094 399.417969 L 454.882812 399.417969 L 455.023438 399.414062 L 455.164062 399.414062 L 455.304688 399.410156 L 455.441406 399.40625 L 455.582031 399.40625 L 455.863281 399.398438 L 456 399.394531 L 456.421875 399.382812 L 456.558594 399.375 L 456.699219 399.371094 L 456.839844 399.363281 L 456.976562 399.359375 L 457.398438 399.335938 L 457.535156 399.324219 L 457.675781 399.316406 L 457.957031 399.292969 L 458.09375 399.28125 L 458.234375 399.265625 L 458.375 399.253906 L 458.515625 399.238281 L 458.652344 399.21875 L 458.792969 399.203125 L 458.933594 399.183594 L 459.074219 399.160156 L 459.210938 399.140625 L 459.351562 399.113281 L 459.492188 399.089844 L 459.628906 399.058594 L 459.769531 399.03125 L 460.050781 398.960938 L 460.1875 398.925781 L 460.328125 398.886719 L 460.46875 398.84375 L 460.609375 398.796875 L 460.746094 398.746094 L 460.886719 398.695312 L 461.027344 398.640625 L 461.167969 398.578125 L 461.304688 398.515625 L 461.585938 398.375 L 461.726562 398.296875 L 461.863281 398.210938 L 462.003906 398.125 L 462.285156 397.929688 L 462.421875 397.820312 L 462.5625 397.707031 L 462.703125 397.585938 L 462.839844 397.457031 L 462.980469 397.320312 L 463.121094 397.175781 L 463.261719 397.019531 L 463.398438 396.855469 L 463.539062 396.683594 L 463.679688 396.5 L 463.820312 396.304688 L 463.957031 396.097656 L 464.097656 395.878906 L 464.238281 395.648438 L 464.378906 395.402344 L 464.515625 395.144531 L 464.65625 394.871094 L 464.796875 394.582031 L 464.9375 394.277344 L 465.074219 393.957031 L 465.214844 393.617188 L 465.355469 393.261719 L 465.496094 392.886719 L 465.632812 392.488281 L 465.773438 392.074219 L 465.914062 391.632812 L 466.050781 391.171875 L 466.191406 390.6875 L 466.332031 390.179688 L 466.472656 389.644531 L 466.609375 389.085938 L 466.75 388.496094 L 466.890625 387.878906 L 467.03125 387.234375 L 467.167969 386.558594 L 467.308594 385.847656 L 467.449219 385.109375 L 467.589844 384.332031 L 467.726562 383.523438 L 467.867188 382.675781 L 468.007812 381.792969 L 468.148438 380.867188 L 468.285156 379.90625 L 468.425781 378.902344 L 468.566406 377.855469 L 468.703125 376.765625 L 468.84375 375.632812 L 468.984375 374.449219 L 469.125 373.222656 L 469.261719 371.945312 L 469.402344 370.617188 L 469.542969 369.242188 L 469.683594 367.8125 L 469.820312 366.328125 L 469.960938 364.789062 L 470.101562 363.195312 L 470.242188 361.542969 L 470.378906 359.832031 L 470.519531 358.0625 L 470.660156 356.234375 L 470.800781 354.339844 L 470.9375 352.386719 L 471.078125 350.367188 L 471.21875 348.285156 L 471.359375 346.136719 L 471.496094 343.921875 L 471.636719 341.640625 L 471.777344 339.289062 L 471.914062 336.871094 L 472.054688 334.382812 L 472.195312 331.820312 L 472.335938 329.191406 L 472.472656 326.492188 L 472.613281 323.71875 L 472.753906 320.875 L 472.894531 317.960938 L 473.03125 314.972656 L 473.171875 311.910156 L 473.3125 308.78125 L 473.453125 305.574219 L 473.589844 302.300781 L 473.730469 298.953125 L 473.871094 295.535156 L 474.011719 292.042969 L 474.148438 288.484375 L 474.289062 284.859375 L 474.429688 281.164062 L 474.566406 277.402344 L 474.707031 273.574219 L 474.847656 269.679688 L 474.988281 265.722656 L 475.125 261.703125 L 475.265625 257.625 L 475.40625 253.492188 L 475.546875 249.296875 L 475.683594 245.050781 L 475.824219 240.75 L 475.964844 236.398438 L 476.105469 232.003906 L 476.242188 227.558594 L 476.382812 223.074219 L 476.523438 218.550781 L 476.664062 213.988281 L 476.800781 209.390625 L 476.941406 204.765625 L 477.082031 200.109375 L 477.222656 195.433594 L 477.359375 190.734375 L 477.5 186.019531 L 477.640625 181.289062 L 477.777344 176.550781 L 477.917969 171.808594 L 478.058594 167.0625 L 478.199219 162.320312 L 478.335938 157.582031 L 478.476562 152.855469 L 478.617188 148.144531 L 478.757812 143.453125 L 478.894531 138.785156 L 479.035156 134.148438 L 479.175781 129.539062 L 479.316406 124.972656 L 479.453125 120.445312 L 479.59375 115.960938 L 479.734375 111.53125 L 479.875 107.160156 L 480.011719 102.84375 L 480.152344 98.59375 L 480.292969 94.417969 L 480.429688 90.308594 L 480.570312 86.285156 L 480.710938 82.339844 L 480.851562 78.484375 L 480.988281 74.71875 L 481.128906 71.050781 L 481.269531 67.484375 L 481.410156 64.019531 L 481.546875 60.664062 L 481.6875 57.421875 L 481.828125 54.296875 L 481.96875 51.292969 L 482.105469 48.410156 L 482.246094 45.65625 L 482.386719 43.035156 L 482.527344 40.542969 L 482.664062 38.191406 L 482.804688 35.980469 L 482.945312 33.910156 L 483.085938 31.984375 L 483.222656 30.207031 L 483.363281 28.582031 L 483.503906 27.105469 L 483.640625 25.785156 L 483.78125 24.617188 L 483.921875 23.609375 L 484.0625 22.757812 L 484.199219 22.066406 L 484.339844 21.535156 L 484.480469 21.167969 L 484.621094 20.957031 L 484.757812 20.910156 L 484.898438 21.027344 L 485.039062 21.300781 L 485.179688 21.738281 L 485.316406 22.339844 L 485.457031 23.097656 L 485.597656 24.011719 L 485.738281 25.089844 L 485.875 26.320312 L 486.015625 27.707031 L 486.15625 29.246094 L 486.292969 30.933594 L 486.433594 32.773438 L 486.574219 34.757812 L 486.714844 36.890625 L 486.851562 39.160156 L 486.992188 41.570312 L 487.132812 44.117188 L 487.273438 46.796875 L 487.410156 49.605469 L 487.550781 52.539062 L 487.691406 55.59375 L 487.832031 58.769531 L 487.96875 62.058594 L 488.109375 65.457031 L 488.25 68.964844 L 488.390625 72.578125 L 488.527344 76.285156 L 488.667969 80.089844 L 488.808594 83.984375 L 488.949219 87.960938 L 489.085938 92.023438 L 489.226562 96.160156 L 489.367188 100.371094 L 489.503906 104.644531 L 489.644531 108.984375 L 489.785156 113.382812 L 489.925781 117.835938 L 490.0625 122.335938 L 490.203125 126.882812 L 490.34375 131.46875 L 490.484375 136.089844 L 490.621094 140.742188 L 490.761719 145.417969 L 490.902344 150.117188 L 491.042969 154.835938 L 491.179688 159.566406 L 491.460938 169.050781 L 491.601562 173.796875 L 491.738281 178.539062 L 491.878906 183.273438 L 492.019531 188 L 492.160156 192.707031 L 492.296875 197.398438 L 492.4375 202.066406 L 492.578125 206.707031 L 492.714844 211.324219 L 492.855469 215.90625 L 492.996094 220.453125 L 493.136719 224.960938 L 493.273438 229.429688 L 493.414062 233.851562 L 493.554688 238.230469 L 493.695312 242.558594 L 493.832031 246.835938 L 493.972656 251.0625 L 494.113281 255.230469 L 494.253906 259.34375 L 494.390625 263.398438 L 494.53125 267.390625 L 494.671875 271.320312 L 494.8125 275.1875 L 494.949219 278.988281 L 495.089844 282.722656 L 495.230469 286.386719 L 495.367188 289.988281 L 495.507812 293.515625 L 495.648438 296.976562 L 495.789062 300.363281 L 495.925781 303.683594 L 496.066406 306.929688 L 496.207031 310.101562 L 496.347656 313.203125 L 496.484375 316.234375 L 496.625 319.191406 L 496.765625 322.078125 L 496.90625 324.890625 L 497.042969 327.632812 L 497.183594 330.304688 L 497.324219 332.902344 L 497.601562 337.894531 L 497.742188 340.285156 L 497.882812 342.605469 L 498.023438 344.859375 L 498.160156 347.046875 L 498.300781 349.167969 L 498.441406 351.222656 L 498.578125 353.214844 L 498.71875 355.140625 L 498.859375 357.007812 L 499 358.8125 L 499.136719 360.558594 L 499.277344 362.242188 L 499.417969 363.871094 L 499.558594 365.441406 L 499.695312 366.957031 L 499.835938 368.417969 L 499.976562 369.824219 L 500.117188 371.179688 L 500.253906 372.488281 L 500.394531 373.742188 L 500.535156 374.953125 L 500.675781 376.113281 L 500.8125 377.226562 L 500.953125 378.300781 L 501.09375 379.328125 L 501.230469 380.316406 L 501.371094 381.261719 L 501.511719 382.167969 L 501.652344 383.035156 L 501.789062 383.867188 L 501.929688 384.660156 L 502.070312 385.421875 L 502.210938 386.148438 L 502.347656 386.84375 L 502.488281 387.507812 L 502.628906 388.140625 L 502.769531 388.746094 L 502.90625 389.324219 L 503.046875 389.871094 L 503.1875 390.394531 L 503.328125 390.894531 L 503.464844 391.371094 L 503.605469 391.820312 L 503.746094 392.25 L 503.886719 392.65625 L 504.023438 393.046875 L 504.164062 393.414062 L 504.304688 393.761719 L 504.441406 394.09375 L 504.582031 394.40625 L 504.722656 394.707031 L 504.863281 394.988281 L 505 395.253906 L 505.140625 395.507812 L 505.28125 395.746094 L 505.421875 395.972656 L 505.558594 396.183594 L 505.699219 396.386719 L 505.839844 396.578125 L 505.980469 396.757812 L 506.117188 396.925781 L 506.257812 397.085938 L 506.398438 397.238281 L 506.539062 397.378906 L 506.675781 397.511719 L 506.816406 397.636719 L 506.957031 397.753906 L 507.09375 397.867188 L 507.234375 397.972656 L 507.375 398.070312 L 507.515625 398.160156 L 507.652344 398.246094 L 507.792969 398.328125 L 507.933594 398.40625 L 508.074219 398.476562 L 508.210938 398.542969 L 508.351562 398.605469 L 508.492188 398.664062 L 508.632812 398.71875 L 508.769531 398.769531 L 508.910156 398.816406 L 509.191406 398.902344 L 509.328125 398.941406 L 509.609375 399.011719 L 509.75 399.042969 L 509.886719 399.070312 L 510.167969 399.125 L 510.304688 399.148438 L 510.445312 399.171875 L 510.726562 399.210938 L 510.863281 399.226562 L 511.285156 399.273438 L 511.421875 399.285156 L 511.84375 399.320312 L 511.980469 399.328125 L 512.121094 399.339844 L 512.402344 399.355469 L 512.539062 399.359375 L 512.679688 399.367188 L 512.820312 399.371094 L 512.960938 399.378906 L 513.097656 399.382812 L 513.378906 399.390625 L 513.515625 399.394531 L 513.9375 399.40625 L 514.074219 399.410156 L 514.214844 399.410156 L 514.496094 399.417969 L 514.632812 399.417969 L 514.773438 399.421875 L 515.054688 399.421875 L 515.191406 399.425781 L 515.472656 399.425781 L 515.613281 399.429688 L 516.03125 399.429688 L 516.167969 399.433594 L 517.007812 399.433594 L 517.148438 399.4375 L 721.105469 399.4375 Z M 23.234375 399.4375 "/>
<path style=" stroke:none;fill-rule:nonzero;fill:rgb(18.431373%,30.980392%,30.980392%);fill-opacity:0.701961;" d="M 23.234375 399.4375 L 445.671875 399.4375 L 445.808594 399.433594 L 446.789062 399.433594 L 446.925781 399.429688 L 447.347656 399.429688 L 447.484375 399.425781 L 447.765625 399.425781 L 447.902344 399.421875 L 448.042969 399.421875 L 448.183594 399.417969 L 448.324219 399.417969 L 448.460938 399.414062 L 448.601562 399.414062 L 448.742188 399.410156 L 448.882812 399.410156 L 449.019531 399.40625 L 449.441406 399.394531 L 449.578125 399.390625 L 449.859375 399.382812 L 450 399.375 L 450.136719 399.371094 L 450.277344 399.363281 L 450.417969 399.359375 L 450.558594 399.351562 L 450.695312 399.34375 L 450.835938 399.335938 L 450.976562 399.324219 L 451.113281 399.316406 L 451.535156 399.28125 L 451.671875 399.265625 L 451.8125 399.253906 L 451.953125 399.238281 L 452.09375 399.21875 L 452.230469 399.203125 L 452.371094 399.179688 L 452.511719 399.160156 L 452.652344 399.136719 L 452.789062 399.113281 L 453.070312 399.058594 L 453.210938 399.027344 L 453.347656 398.996094 L 453.488281 398.960938 L 453.628906 398.921875 L 453.765625 398.882812 L 453.90625 398.839844 L 454.046875 398.792969 L 454.1875 398.742188 L 454.324219 398.6875 L 454.464844 398.632812 L 454.605469 398.570312 L 454.746094 398.503906 L 454.882812 398.4375 L 455.023438 398.363281 L 455.304688 398.199219 L 455.441406 398.109375 L 455.582031 398.011719 L 455.722656 397.910156 L 455.863281 397.800781 L 456 397.683594 L 456.140625 397.5625 L 456.28125 397.429688 L 456.421875 397.292969 L 456.558594 397.144531 L 456.699219 396.988281 L 456.839844 396.820312 L 456.976562 396.644531 L 457.117188 396.457031 L 457.257812 396.257812 L 457.398438 396.046875 L 457.535156 395.824219 L 457.675781 395.585938 L 457.816406 395.339844 L 457.957031 395.074219 L 458.09375 394.796875 L 458.234375 394.5 L 458.375 394.191406 L 458.515625 393.863281 L 458.652344 393.515625 L 458.792969 393.152344 L 458.933594 392.769531 L 459.074219 392.363281 L 459.210938 391.9375 L 459.351562 391.492188 L 459.492188 391.019531 L 459.628906 390.523438 L 459.769531 390.003906 L 459.910156 389.457031 L 460.050781 388.886719 L 460.1875 388.285156 L 460.328125 387.652344 L 460.46875 386.992188 L 460.609375 386.300781 L 460.746094 385.574219 L 460.886719 384.816406 L 461.027344 384.023438 L 461.167969 383.195312 L 461.304688 382.328125 L 461.445312 381.425781 L 461.585938 380.480469 L 461.726562 379.496094 L 461.863281 378.46875 L 462.003906 377.398438 L 462.144531 376.28125 L 462.285156 375.121094 L 462.421875 373.910156 L 462.5625 372.652344 L 462.703125 371.347656 L 462.839844 369.988281 L 462.980469 368.578125 L 463.121094 367.113281 L 463.261719 365.597656 L 463.398438 364.019531 L 463.539062 362.390625 L 463.679688 360.699219 L 463.820312 358.949219 L 463.957031 357.136719 L 464.097656 355.265625 L 464.238281 353.328125 L 464.378906 351.328125 L 464.515625 349.261719 L 464.65625 347.132812 L 464.796875 344.933594 L 464.9375 342.667969 L 465.074219 340.332031 L 465.214844 337.929688 L 465.355469 335.453125 L 465.496094 332.90625 L 465.632812 330.292969 L 465.773438 327.601562 L 465.914062 324.839844 L 466.050781 322.007812 L 466.191406 319.101562 L 466.332031 316.121094 L 466.472656 313.066406 L 466.609375 309.941406 L 466.75 306.742188 L 466.890625 303.46875 L 467.03125 300.125 L 467.167969 296.707031 L 467.308594 293.21875 L 467.449219 289.660156 L 467.589844 286.027344 L 467.726562 282.328125 L 467.867188 278.558594 L 468.007812 274.722656 L 468.148438 270.820312 L 468.285156 266.855469 L 468.425781 262.824219 L 468.566406 258.730469 L 468.703125 254.578125 L 468.84375 250.367188 L 468.984375 246.101562 L 469.125 241.78125 L 469.261719 237.40625 L 469.402344 232.984375 L 469.542969 228.515625 L 469.683594 224.003906 L 469.820312 219.449219 L 469.960938 214.855469 L 470.101562 210.226562 L 470.242188 205.566406 L 470.378906 200.875 L 470.519531 196.160156 L 470.660156 191.421875 L 470.800781 186.664062 L 470.9375 181.890625 L 471.078125 177.109375 L 471.21875 172.320312 L 471.359375 167.527344 L 471.496094 162.734375 L 471.636719 157.949219 L 471.777344 153.171875 L 471.914062 148.40625 L 472.054688 143.664062 L 472.195312 138.941406 L 472.335938 134.246094 L 472.472656 129.582031 L 472.613281 124.957031 L 472.753906 120.371094 L 472.894531 115.828125 L 473.03125 111.339844 L 473.171875 106.90625 L 473.3125 102.53125 L 473.453125 98.222656 L 473.589844 93.984375 L 473.730469 89.816406 L 473.871094 85.726562 L 474.011719 81.722656 L 474.148438 77.808594 L 474.289062 73.984375 L 474.429688 70.253906 L 474.566406 66.628906 L 474.707031 63.105469 L 474.847656 59.691406 L 474.988281 56.394531 L 475.125 53.210938 L 475.265625 50.152344 L 475.40625 47.21875 L 475.546875 44.410156 L 475.683594 41.734375 L 475.824219 39.195312 L 475.964844 36.796875 L 476.105469 34.535156 L 476.242188 32.421875 L 476.382812 30.453125 L 476.523438 28.632812 L 476.664062 26.96875 L 476.800781 25.457031 L 476.941406 24.097656 L 477.082031 22.898438 L 477.222656 21.859375 L 477.359375 20.980469 L 477.5 20.261719 L 477.640625 19.707031 L 477.777344 19.3125 L 477.917969 19.085938 L 478.058594 19.019531 L 478.199219 19.121094 L 478.335938 19.382812 L 478.476562 19.8125 L 478.617188 20.402344 L 478.757812 21.15625 L 478.894531 22.070312 L 479.035156 23.144531 L 479.175781 24.378906 L 479.316406 25.769531 L 479.453125 27.316406 L 479.59375 29.015625 L 479.734375 30.867188 L 479.875 32.867188 L 480.011719 35.011719 L 480.152344 37.300781 L 480.292969 39.734375 L 480.429688 42.300781 L 480.570312 45.007812 L 480.710938 47.839844 L 480.851562 50.804688 L 480.988281 53.890625 L 481.128906 57.097656 L 481.269531 60.421875 L 481.410156 63.859375 L 481.546875 67.402344 L 481.6875 71.050781 L 481.828125 74.800781 L 481.96875 78.644531 L 482.105469 82.582031 L 482.246094 86.605469 L 482.386719 90.710938 L 482.527344 94.894531 L 482.664062 99.148438 L 482.804688 103.472656 L 482.945312 107.859375 L 483.085938 112.304688 L 483.222656 116.808594 L 483.363281 121.355469 L 483.503906 125.953125 L 483.640625 130.585938 L 483.78125 135.257812 L 483.921875 139.960938 L 484.0625 144.6875 L 484.199219 149.4375 L 484.339844 154.203125 L 484.480469 158.984375 L 484.621094 163.769531 L 484.757812 168.5625 L 484.898438 173.355469 L 485.039062 178.144531 L 485.179688 182.925781 L 485.316406 187.695312 L 485.457031 192.449219 L 485.597656 197.179688 L 485.738281 201.890625 L 485.875 206.574219 L 486.015625 211.230469 L 486.15625 215.851562 L 486.292969 220.4375 L 486.433594 224.984375 L 486.574219 229.488281 L 486.714844 233.945312 L 486.851562 238.359375 L 486.992188 242.71875 L 487.132812 247.027344 L 487.273438 251.285156 L 487.410156 255.480469 L 487.550781 259.621094 L 487.691406 263.699219 L 487.832031 267.71875 L 487.96875 271.671875 L 488.109375 275.558594 L 488.25 279.378906 L 488.390625 283.132812 L 488.527344 286.820312 L 488.667969 290.433594 L 488.808594 293.980469 L 488.949219 297.453125 L 489.085938 300.855469 L 489.226562 304.183594 L 489.367188 307.441406 L 489.503906 310.625 L 489.644531 313.734375 L 489.785156 316.773438 L 489.925781 319.734375 L 490.0625 322.625 L 490.203125 325.445312 L 490.34375 328.191406 L 490.484375 330.863281 L 490.621094 333.464844 L 490.761719 335.996094 L 490.902344 338.453125 L 491.042969 340.84375 L 491.179688 343.164062 L 491.320312 345.414062 L 491.460938 347.597656 L 491.601562 349.714844 L 491.738281 351.765625 L 491.878906 353.753906 L 492.019531 355.675781 L 492.160156 357.535156 L 492.296875 359.332031 L 492.4375 361.070312 L 492.578125 362.746094 L 492.714844 364.367188 L 492.855469 365.929688 L 492.996094 367.4375 L 493.136719 368.886719 L 493.273438 370.285156 L 493.414062 371.632812 L 493.554688 372.929688 L 493.695312 374.175781 L 493.832031 375.375 L 493.972656 376.527344 L 494.113281 377.632812 L 494.253906 378.691406 L 494.390625 379.710938 L 494.53125 380.6875 L 494.671875 381.625 L 494.8125 382.519531 L 494.949219 383.378906 L 495.089844 384.199219 L 495.230469 384.984375 L 495.367188 385.734375 L 495.507812 386.453125 L 495.648438 387.136719 L 495.789062 387.792969 L 495.925781 388.417969 L 496.066406 389.011719 L 496.207031 389.578125 L 496.347656 390.117188 L 496.484375 390.632812 L 496.625 391.125 L 496.765625 391.589844 L 496.90625 392.03125 L 497.042969 392.453125 L 497.183594 392.851562 L 497.324219 393.234375 L 497.464844 393.59375 L 497.601562 393.933594 L 497.742188 394.257812 L 497.882812 394.566406 L 498.023438 394.855469 L 498.160156 395.132812 L 498.300781 395.394531 L 498.441406 395.640625 L 498.578125 395.871094 L 498.71875 396.09375 L 498.859375 396.300781 L 499 396.496094 L 499.136719 396.683594 L 499.277344 396.855469 L 499.417969 397.019531 L 499.558594 397.175781 L 499.695312 397.324219 L 499.835938 397.460938 L 499.976562 397.589844 L 500.117188 397.710938 L 500.253906 397.824219 L 500.394531 397.933594 L 500.535156 398.035156 L 500.675781 398.128906 L 500.8125 398.21875 L 500.953125 398.300781 L 501.09375 398.378906 L 501.230469 398.453125 L 501.511719 398.585938 L 501.652344 398.644531 L 501.789062 398.699219 L 501.929688 398.753906 L 502.210938 398.847656 L 502.347656 398.890625 L 502.628906 398.96875 L 502.769531 399.003906 L 502.90625 399.035156 L 503.046875 399.0625 L 503.1875 399.09375 L 503.328125 399.117188 L 503.464844 399.140625 L 503.746094 399.1875 L 503.886719 399.207031 L 504.023438 399.222656 L 504.304688 399.253906 L 504.441406 399.269531 L 504.582031 399.285156 L 504.863281 399.308594 L 505 399.316406 L 505.140625 399.328125 L 505.421875 399.34375 L 505.558594 399.351562 L 505.839844 399.367188 L 505.980469 399.371094 L 506.117188 399.378906 L 506.539062 399.390625 L 506.675781 399.394531 L 506.957031 399.402344 L 507.09375 399.40625 L 507.234375 399.410156 L 507.375 399.410156 L 507.515625 399.414062 L 507.652344 399.417969 L 507.792969 399.417969 L 507.933594 399.421875 L 508.210938 399.421875 L 508.351562 399.425781 L 508.632812 399.425781 L 508.769531 399.429688 L 509.191406 399.429688 L 509.328125 399.433594 L 510.167969 399.433594 L 510.304688 399.4375 L 721.105469 399.4375 Z M 23.234375 399.4375 "/>
<path style="fill:none;stroke-width:1.280374;stroke-linecap:butt;stroke-linejoin:round;stroke:rgb(0%,0%,0%);stroke-opacity:0.501961;stroke-dasharray:8.962618,3.841122;stroke-miterlimit:10;" d="M 484.730469 414 L 484.730469 0 "/>
<path style="fill:none;stroke-width:1.066978;stroke-linecap:butt;stroke-linejoin:round;stroke:rgb(0%,0%,0%);stroke-opacity:1;stroke-miterlimit:10;" d="M 0 399.4375 L 756 399.4375 "/>
</g>
</svg>
