<?xml version="1.0" encoding="UTF-8"?>
<svg xmlns="http://www.w3.org/2000/svg" xmlns:xlink="http://www.w3.org/1999/xlink" width="756pt" height="414pt" viewBox="0 0 756 414" version="1.1">
<g id="surface74">
<rect x="0" y="0" width="756" height="414" style="fill:rgb(100%,100%,100%);fill-opacity:1;stroke:none;"/>
<path style=" stroke:none;fill-rule:nonzero;fill:rgb(100%,64.705882%,0%);fill-opacity:0.701961;" d="M 23.234375 399.4375 L 213.511719 399.4375 L 213.652344 399.433594 L 225.65625 399.433594 L 225.796875 399.429688 L 233.054688 399.429688 L 233.195312 399.425781 L 238.359375 399.425781 L 238.5 399.421875 L 242.550781 399.421875 L 242.6875 399.417969 L 246.039062 399.417969 L 246.179688 399.414062 L 248.96875 399.414062 L 249.109375 399.410156 L 251.625 399.410156 L 251.761719 399.40625 L 253.855469 399.40625 L 253.996094 399.402344 L 255.949219 399.402344 L 256.089844 399.398438 L 257.90625 399.398438 L 258.042969 399.394531 L 259.71875 399.394531 L 259.859375 399.390625 L 261.253906 399.390625 L 261.394531 399.386719 L 262.792969 399.386719 L 262.929688 399.382812 L 264.1875 399.382812 L 264.328125 399.378906 L 265.582031 399.378906 L 265.722656 399.375 L 266.839844 399.375 L 266.980469 399.371094 L 268.097656 399.371094 L 268.234375 399.367188 L 269.214844 399.367188 L 269.351562 399.363281 L 270.328125 399.363281 L 270.46875 399.359375 L 271.308594 399.359375 L 271.445312 399.355469 L 272.285156 399.355469 L 272.425781 399.351562 L 273.261719 399.351562 L 273.402344 399.347656 L 274.238281 399.347656 L 274.378906 399.34375 L 275.078125 399.34375 L 275.214844 399.339844 L 275.914062 399.339844 L 276.054688 399.335938 L 276.75 399.335938 L 276.890625 399.332031 L 277.589844 399.332031 L 277.730469 399.328125 L 278.289062 399.328125 L 278.425781 399.324219 L 279.125 399.324219 L 279.265625 399.320312 L 279.824219 399.320312 L 279.960938 399.316406 L 280.519531 399.316406 L 280.660156 399.3125 L 281.21875 399.3125 L 281.359375 399.308594 L 281.917969 399.308594 L 282.054688 399.304688 L 282.613281 399.304688 L 282.753906 399.300781 L 283.171875 399.300781 L 283.3125 399.296875 L 283.871094 399.296875 L 284.011719 399.292969 L 284.429688 399.292969 L 284.570312 399.289062 L 284.988281 399.289062 L 285.128906 399.285156 L 285.546875 399.285156 L 285.6875 399.28125 L 286.105469 399.28125 L 286.246094 399.277344 L 286.664062 399.277344 L 286.804688 399.273438 L 287.222656 399.273438 L 287.363281 399.269531 L 287.78125 399.269531 L 287.917969 399.265625 L 288.339844 399.265625 L 288.476562 399.261719 L 288.898438 399.261719 L 289.035156 399.257812 L 289.316406 399.257812 L 289.457031 399.253906 L 289.875 399.253906 L 290.015625 399.25 L 290.292969 399.25 L 290.433594 399.246094 L 290.851562 399.246094 L 290.992188 399.242188 L 291.269531 399.242188 L 291.410156 399.238281 L 291.6875 399.238281 L 291.828125 399.234375 L 292.109375 399.234375 L 292.246094 399.230469 L 292.667969 399.230469 L 292.804688 399.226562 L 293.085938 399.226562 L 293.226562 399.222656 L 293.503906 399.222656 L 293.644531 399.21875 L 293.921875 399.21875 L 294.0625 399.214844 L 294.339844 399.214844 L 294.480469 399.210938 L 294.761719 399.210938 L 294.898438 399.207031 L 295.179688 399.207031 L 295.320312 399.203125 L 295.457031 399.203125 L 295.597656 399.199219 L 295.878906 399.199219 L 296.015625 399.195312 L 296.296875 399.195312 L 296.433594 399.191406 L 296.714844 399.191406 L 296.855469 399.1875 L 296.992188 399.1875 L 297.132812 399.183594 L 297.414062 399.183594 L 297.550781 399.179688 L 297.832031 399.179688 L 297.972656 399.175781 L 298.109375 399.175781 L 298.25 399.171875 L 298.53125 399.171875 L 298.667969 399.167969 L 298.808594 399.167969 L 298.949219 399.164062 L 299.226562 399.164062 L 299.367188 399.160156 L 299.507812 399.160156 L 299.644531 399.15625 L 299.925781 399.15625 L 300.066406 399.152344 L 300.203125 399.152344 L 300.34375 399.148438 L 300.625 399.148438 L 300.761719 399.144531 L 300.902344 399.144531 L 301.042969 399.140625 L 301.183594 399.140625 L 301.320312 399.136719 L 301.601562 399.136719 L 301.742188 399.132812 L 301.878906 399.132812 L 302.019531 399.128906 L 302.160156 399.128906 L 302.296875 399.125 L 302.4375 399.125 L 302.578125 399.121094 L 302.855469 399.121094 L 302.996094 399.117188 L 303.136719 399.117188 L 303.277344 399.113281 L 303.414062 399.113281 L 303.554688 399.109375 L 303.695312 399.109375 L 303.835938 399.105469 L 303.972656 399.105469 L 304.113281 399.101562 L 304.253906 399.101562 L 304.394531 399.097656 L 304.53125 399.097656 L 304.671875 399.09375 L 304.8125 399.09375 L 304.953125 399.089844 L 305.089844 399.089844 L 305.230469 399.085938 L 305.371094 399.085938 L 305.507812 399.082031 L 305.648438 399.082031 L 305.789062 399.078125 L 305.929688 399.078125 L 306.066406 399.074219 L 306.207031 399.074219 L 306.347656 399.070312 L 306.488281 399.070312 L 306.625 399.066406 L 306.765625 399.066406 L 306.90625 399.0625 L 307.046875 399.0625 L 307.183594 399.058594 L 307.324219 399.058594 L 307.464844 399.054688 L 307.605469 399.054688 L 307.742188 399.050781 L 307.882812 399.050781 L 308.023438 399.046875 L 308.164062 399.046875 L 308.300781 399.042969 L 308.441406 399.039062 L 308.582031 399.039062 L 308.71875 399.035156 L 308.859375 399.035156 L 309 399.03125 L 309.140625 399.03125 L 309.277344 399.027344 L 309.417969 399.027344 L 309.699219 399.019531 L 309.835938 399.019531 L 309.976562 399.015625 L 310.117188 399.015625 L 310.257812 399.011719 L 310.394531 399.007812 L 310.535156 399.007812 L 310.675781 399.003906 L 310.816406 399.003906 L 310.953125 399 L 311.09375 399 L 311.234375 398.996094 L 311.371094 398.992188 L 311.511719 398.992188 L 311.792969 398.984375 L 311.929688 398.984375 L 312.070312 398.980469 L 312.210938 398.980469 L 312.351562 398.976562 L 312.488281 398.972656 L 312.628906 398.972656 L 312.910156 398.964844 L 313.046875 398.964844 L 313.1875 398.960938 L 313.328125 398.960938 L 313.46875 398.957031 L 313.605469 398.953125 L 313.746094 398.953125 L 314.027344 398.945312 L 314.164062 398.945312 L 314.445312 398.9375 L 314.582031 398.9375 L 314.863281 398.929688 L 315.003906 398.929688 L 315.140625 398.925781 L 315.28125 398.921875 L 315.421875 398.921875 L 315.5625 398.917969 L 315.699219 398.914062 L 315.839844 398.910156 L 315.980469 398.910156 L 316.121094 398.90625 L 316.257812 398.902344 L 316.398438 398.902344 L 316.679688 398.894531 L 316.816406 398.894531 L 317.097656 398.886719 L 317.234375 398.882812 L 317.375 398.882812 L 317.65625 398.875 L 317.792969 398.871094 L 317.933594 398.871094 L 318.214844 398.863281 L 318.351562 398.859375 L 318.492188 398.859375 L 318.773438 398.851562 L 318.910156 398.847656 L 319.050781 398.847656 L 319.332031 398.839844 L 319.46875 398.835938 L 319.609375 398.835938 L 319.890625 398.828125 L 320.027344 398.824219 L 320.167969 398.820312 L 320.308594 398.820312 L 320.445312 398.816406 L 320.867188 398.804688 L 321.003906 398.804688 L 321.425781 398.792969 L 321.5625 398.789062 L 321.703125 398.785156 L 321.84375 398.785156 L 321.984375 398.78125 L 322.121094 398.777344 L 322.542969 398.765625 L 322.679688 398.761719 L 322.820312 398.761719 L 322.960938 398.757812 L 323.097656 398.753906 L 323.519531 398.742188 L 323.65625 398.738281 L 323.796875 398.734375 L 323.9375 398.734375 L 324.078125 398.730469 L 324.214844 398.726562 L 324.636719 398.714844 L 324.773438 398.710938 L 325.195312 398.699219 L 325.332031 398.699219 L 325.753906 398.6875 L 325.890625 398.683594 L 326.171875 398.675781 L 326.308594 398.671875 L 326.730469 398.660156 L 326.867188 398.65625 L 327.289062 398.644531 L 327.425781 398.640625 L 327.847656 398.628906 L 327.984375 398.625 L 328.40625 398.613281 L 328.542969 398.609375 L 328.824219 398.601562 L 328.960938 398.597656 L 329.382812 398.585938 L 329.519531 398.582031 L 329.941406 398.570312 L 330.078125 398.566406 L 330.5 398.554688 L 330.636719 398.550781 L 330.777344 398.542969 L 331.058594 398.535156 L 331.195312 398.53125 L 331.617188 398.519531 L 331.753906 398.515625 L 332.035156 398.507812 L 332.171875 398.5 L 332.59375 398.488281 L 332.730469 398.484375 L 333.011719 398.476562 L 333.152344 398.46875 L 333.289062 398.464844 L 333.710938 398.453125 L 333.847656 398.449219 L 333.988281 398.445312 L 334.128906 398.4375 L 334.269531 398.433594 L 334.40625 398.429688 L 334.6875 398.421875 L 334.828125 398.414062 L 334.964844 398.410156 L 335.246094 398.402344 L 335.382812 398.398438 L 335.523438 398.390625 L 335.804688 398.382812 L 335.941406 398.378906 L 336.082031 398.371094 L 336.363281 398.363281 L 336.5 398.359375 L 336.640625 398.351562 L 336.921875 398.34375 L 337.058594 398.339844 L 337.199219 398.332031 L 337.480469 398.324219 L 337.617188 398.316406 L 337.898438 398.308594 L 338.035156 398.304688 L 338.175781 398.296875 L 338.457031 398.289062 L 338.59375 398.28125 L 338.875 398.273438 L 339.015625 398.265625 L 339.152344 398.261719 L 339.292969 398.257812 L 339.433594 398.25 L 339.574219 398.246094 L 339.710938 398.242188 L 339.851562 398.234375 L 339.992188 398.230469 L 340.132812 398.222656 L 340.269531 398.21875 L 340.410156 398.214844 L 340.550781 398.207031 L 340.691406 398.203125 L 340.828125 398.195312 L 341.109375 398.1875 L 341.246094 398.179688 L 341.386719 398.175781 L 341.527344 398.167969 L 341.667969 398.164062 L 341.804688 398.160156 L 341.945312 398.152344 L 342.085938 398.148438 L 342.226562 398.140625 L 342.363281 398.136719 L 342.503906 398.128906 L 342.644531 398.125 L 342.785156 398.117188 L 342.921875 398.113281 L 343.0625 398.105469 L 343.203125 398.101562 L 343.34375 398.09375 L 343.480469 398.089844 L 343.621094 398.082031 L 343.761719 398.078125 L 343.898438 398.070312 L 344.039062 398.066406 L 344.179688 398.058594 L 344.320312 398.054688 L 344.457031 398.046875 L 344.597656 398.042969 L 344.738281 398.035156 L 344.878906 398.03125 L 345.015625 398.023438 L 345.15625 398.019531 L 345.296875 398.011719 L 345.4375 398.007812 L 345.574219 398 L 345.714844 397.992188 L 345.855469 397.988281 L 345.996094 397.980469 L 346.132812 397.976562 L 346.414062 397.960938 L 346.554688 397.957031 L 346.691406 397.949219 L 346.832031 397.945312 L 346.972656 397.9375 L 347.109375 397.929688 L 347.25 397.925781 L 347.390625 397.917969 L 347.53125 397.914062 L 347.667969 397.90625 L 347.808594 397.898438 L 347.949219 397.894531 L 348.089844 397.886719 L 348.226562 397.878906 L 348.367188 397.875 L 348.648438 397.859375 L 348.785156 397.855469 L 349.207031 397.832031 L 349.34375 397.828125 L 349.625 397.8125 L 349.761719 397.808594 L 350.183594 397.785156 L 350.320312 397.78125 L 350.742188 397.757812 L 350.878906 397.753906 L 351.300781 397.730469 L 351.4375 397.722656 L 351.578125 397.71875 L 351.859375 397.703125 L 351.996094 397.695312 L 352.136719 397.6875 L 352.277344 397.683594 L 352.417969 397.675781 L 352.554688 397.667969 L 352.835938 397.652344 L 352.972656 397.644531 L 353.113281 397.640625 L 353.394531 397.625 L 353.53125 397.617188 L 353.953125 397.59375 L 354.089844 397.585938 L 354.230469 397.582031 L 354.511719 397.566406 L 354.648438 397.558594 L 355.070312 397.535156 L 355.207031 397.527344 L 355.628906 397.503906 L 355.765625 397.496094 L 356.046875 397.480469 L 356.183594 397.472656 L 356.605469 397.449219 L 356.742188 397.441406 L 357.164062 397.417969 L 357.300781 397.410156 L 357.722656 397.386719 L 357.859375 397.378906 L 358.28125 397.355469 L 358.417969 397.347656 L 358.699219 397.332031 L 358.835938 397.324219 L 359.117188 397.308594 L 359.257812 397.296875 L 359.394531 397.289062 L 359.816406 397.265625 L 359.953125 397.257812 L 360.234375 397.242188 L 360.375 397.230469 L 360.511719 397.222656 L 360.933594 397.199219 L 361.070312 397.191406 L 361.210938 397.179688 L 361.492188 397.164062 L 361.628906 397.15625 L 361.769531 397.148438 L 361.910156 397.136719 L 362.046875 397.128906 L 362.46875 397.105469 L 362.605469 397.09375 L 363.027344 397.070312 L 363.164062 397.058594 L 363.445312 397.042969 L 363.585938 397.03125 L 363.722656 397.023438 L 364.003906 397.007812 L 364.144531 396.996094 L 364.28125 396.988281 L 364.421875 396.980469 L 364.5625 396.96875 L 364.699219 396.960938 L 364.839844 396.953125 L 364.980469 396.941406 L 365.121094 396.933594 L 365.257812 396.925781 L 365.398438 396.914062 L 365.679688 396.898438 L 365.816406 396.886719 L 365.957031 396.878906 L 366.097656 396.867188 L 366.238281 396.859375 L 366.375 396.851562 L 366.515625 396.839844 L 366.65625 396.832031 L 366.796875 396.820312 L 366.933594 396.8125 L 367.074219 396.804688 L 367.214844 396.792969 L 367.355469 396.785156 L 367.492188 396.773438 L 367.632812 396.765625 L 367.773438 396.753906 L 367.910156 396.746094 L 368.050781 396.734375 L 368.191406 396.726562 L 368.332031 396.714844 L 368.46875 396.707031 L 368.609375 396.695312 L 368.75 396.6875 L 368.890625 396.675781 L 369.027344 396.667969 L 369.167969 396.65625 L 369.308594 396.648438 L 369.449219 396.636719 L 369.585938 396.628906 L 369.726562 396.617188 L 369.867188 396.609375 L 370.007812 396.597656 L 370.144531 396.589844 L 370.285156 396.578125 L 370.425781 396.570312 L 370.5625 396.558594 L 370.703125 396.546875 L 370.84375 396.539062 L 370.984375 396.527344 L 371.121094 396.519531 L 371.402344 396.496094 L 371.542969 396.488281 L 371.679688 396.476562 L 371.820312 396.46875 L 372.101562 396.445312 L 372.238281 396.4375 L 372.519531 396.414062 L 372.660156 396.40625 L 372.796875 396.394531 L 372.9375 396.382812 L 373.078125 396.375 L 373.21875 396.363281 L 373.355469 396.351562 L 373.496094 396.34375 L 373.636719 396.332031 L 373.773438 396.320312 L 373.914062 396.308594 L 374.054688 396.300781 L 374.195312 396.289062 L 374.332031 396.277344 L 374.472656 396.269531 L 374.753906 396.246094 L 374.890625 396.234375 L 375.03125 396.226562 L 375.3125 396.203125 L 375.449219 396.191406 L 375.589844 396.179688 L 375.730469 396.171875 L 375.871094 396.160156 L 376.007812 396.148438 L 376.289062 396.125 L 376.429688 396.117188 L 376.566406 396.105469 L 376.847656 396.082031 L 376.984375 396.070312 L 377.125 396.058594 L 377.265625 396.050781 L 377.40625 396.039062 L 377.542969 396.027344 L 377.964844 395.992188 L 378.101562 395.980469 L 378.242188 395.96875 L 378.382812 395.960938 L 378.523438 395.949219 L 378.660156 395.9375 L 379.082031 395.902344 L 379.21875 395.890625 L 379.5 395.867188 L 379.636719 395.855469 L 380.058594 395.820312 L 380.195312 395.808594 L 380.617188 395.773438 L 380.753906 395.761719 L 381.175781 395.726562 L 381.3125 395.714844 L 381.734375 395.679688 L 381.871094 395.667969 L 382.292969 395.632812 L 382.429688 395.621094 L 382.710938 395.597656 L 382.847656 395.585938 L 383.269531 395.550781 L 383.40625 395.539062 L 383.546875 395.523438 L 383.828125 395.5 L 383.964844 395.488281 L 384.386719 395.453125 L 384.523438 395.441406 L 384.664062 395.425781 L 384.945312 395.402344 L 385.082031 395.390625 L 385.363281 395.367188 L 385.5 395.351562 L 385.921875 395.316406 L 386.058594 395.304688 L 386.199219 395.292969 L 386.339844 395.277344 L 386.480469 395.265625 L 386.617188 395.253906 L 386.757812 395.242188 L 386.898438 395.226562 L 387.039062 395.214844 L 387.175781 395.203125 L 387.457031 395.179688 L 387.597656 395.164062 L 387.734375 395.152344 L 387.875 395.140625 L 388.015625 395.125 L 388.15625 395.113281 L 388.292969 395.101562 L 388.433594 395.089844 L 388.574219 395.074219 L 388.710938 395.0625 L 388.851562 395.050781 L 388.992188 395.035156 L 389.132812 395.023438 L 389.269531 395.011719 L 389.410156 395 L 389.550781 394.984375 L 389.691406 394.972656 L 389.828125 394.960938 L 389.96875 394.945312 L 390.25 394.921875 L 390.386719 394.90625 L 390.667969 394.882812 L 390.808594 394.867188 L 390.945312 394.855469 L 391.085938 394.839844 L 391.226562 394.828125 L 391.363281 394.816406 L 391.503906 394.800781 L 391.644531 394.789062 L 391.785156 394.773438 L 391.921875 394.761719 L 392.0625 394.75 L 392.203125 394.734375 L 392.34375 394.722656 L 392.480469 394.707031 L 392.761719 394.683594 L 392.902344 394.667969 L 393.039062 394.65625 L 393.179688 394.640625 L 393.320312 394.628906 L 393.460938 394.613281 L 393.597656 394.601562 L 393.738281 394.585938 L 394.019531 394.5625 L 394.15625 394.546875 L 394.296875 394.535156 L 394.4375 394.519531 L 394.574219 394.507812 L 394.714844 394.492188 L 394.855469 394.480469 L 394.996094 394.464844 L 395.132812 394.453125 L 395.273438 394.4375 L 395.414062 394.425781 L 395.554688 394.410156 L 395.691406 394.398438 L 395.832031 394.382812 L 395.972656 394.371094 L 396.113281 394.355469 L 396.25 394.34375 L 396.53125 394.3125 L 396.671875 394.300781 L 396.808594 394.285156 L 396.949219 394.273438 L 397.089844 394.257812 L 397.226562 394.246094 L 397.367188 394.230469 L 397.507812 394.21875 L 397.648438 394.203125 L 397.785156 394.1875 L 397.925781 394.175781 L 398.066406 394.160156 L 398.207031 394.148438 L 398.34375 394.132812 L 398.484375 394.121094 L 398.765625 394.089844 L 398.902344 394.078125 L 399.183594 394.046875 L 399.324219 394.035156 L 399.460938 394.019531 L 399.601562 394.007812 L 399.882812 393.976562 L 400.019531 393.964844 L 400.300781 393.933594 L 400.4375 393.921875 L 400.578125 393.90625 L 400.71875 393.894531 L 400.859375 393.878906 L 400.996094 393.863281 L 401.136719 393.851562 L 401.417969 393.820312 L 401.554688 393.808594 L 401.835938 393.777344 L 401.976562 393.765625 L 402.113281 393.75 L 402.394531 393.71875 L 402.535156 393.707031 L 402.671875 393.691406 L 402.8125 393.675781 L 402.953125 393.664062 L 403.09375 393.648438 L 403.230469 393.632812 L 403.371094 393.621094 L 403.511719 393.605469 L 403.648438 393.589844 L 403.789062 393.574219 L 403.929688 393.5625 L 404.070312 393.546875 L 404.207031 393.53125 L 404.347656 393.519531 L 404.628906 393.488281 L 404.765625 393.472656 L 404.90625 393.460938 L 405.1875 393.429688 L 405.324219 393.414062 L 405.464844 393.402344 L 405.746094 393.371094 L 405.882812 393.355469 L 406.023438 393.34375 L 406.164062 393.328125 L 406.300781 393.3125 L 406.441406 393.296875 L 406.582031 393.285156 L 406.722656 393.269531 L 406.859375 393.253906 L 407.140625 393.222656 L 407.28125 393.210938 L 407.417969 393.195312 L 407.699219 393.164062 L 407.839844 393.152344 L 407.976562 393.136719 L 408.398438 393.089844 L 408.535156 393.078125 L 408.957031 393.03125 L 409.09375 393.015625 L 409.234375 393.003906 L 409.375 392.988281 L 409.511719 392.972656 L 409.933594 392.925781 L 410.070312 392.914062 L 410.492188 392.867188 L 410.628906 392.851562 L 410.769531 392.839844 L 411.050781 392.808594 L 411.1875 392.792969 L 411.46875 392.761719 L 411.609375 392.75 L 411.746094 392.734375 L 412.027344 392.703125 L 412.164062 392.6875 L 412.304688 392.671875 L 412.445312 392.660156 L 412.585938 392.644531 L 412.722656 392.628906 L 413.144531 392.582031 L 413.28125 392.566406 L 413.421875 392.554688 L 413.703125 392.523438 L 413.839844 392.507812 L 414.121094 392.476562 L 414.261719 392.464844 L 414.398438 392.449219 L 414.820312 392.402344 L 414.957031 392.386719 L 415.097656 392.371094 L 415.238281 392.359375 L 415.375 392.34375 L 415.796875 392.296875 L 415.933594 392.28125 L 416.074219 392.265625 L 416.214844 392.253906 L 416.355469 392.238281 L 416.492188 392.222656 L 416.914062 392.175781 L 417.050781 392.160156 L 417.191406 392.148438 L 417.472656 392.117188 L 417.609375 392.101562 L 417.890625 392.070312 L 418.027344 392.054688 L 418.167969 392.042969 L 418.449219 392.011719 L 418.585938 391.996094 L 419.007812 391.949219 L 419.144531 391.9375 L 419.566406 391.890625 L 419.703125 391.875 L 419.984375 391.84375 L 420.125 391.832031 L 420.261719 391.816406 L 420.683594 391.769531 L 420.820312 391.753906 L 420.960938 391.738281 L 421.101562 391.726562 L 421.238281 391.710938 L 421.660156 391.664062 L 421.796875 391.648438 L 421.9375 391.636719 L 422.21875 391.605469 L 422.355469 391.589844 L 422.636719 391.558594 L 422.777344 391.546875 L 422.914062 391.53125 L 423.335938 391.484375 L 423.472656 391.46875 L 423.613281 391.457031 L 423.894531 391.425781 L 424.03125 391.410156 L 424.3125 391.378906 L 424.449219 391.367188 L 424.871094 391.320312 L 425.007812 391.304688 L 425.148438 391.292969 L 425.429688 391.261719 L 425.566406 391.246094 L 425.707031 391.230469 L 425.847656 391.21875 L 425.988281 391.203125 L 426.125 391.1875 L 426.40625 391.15625 L 426.546875 391.144531 L 426.683594 391.128906 L 426.964844 391.097656 L 427.101562 391.085938 L 427.523438 391.039062 L 427.660156 391.027344 L 428.082031 390.980469 L 428.21875 390.964844 L 428.359375 390.953125 L 428.640625 390.921875 L 428.777344 390.910156 L 429.199219 390.863281 L 429.335938 390.851562 L 429.757812 390.804688 L 429.894531 390.792969 L 430.175781 390.761719 L 430.3125 390.75 L 430.734375 390.703125 L 430.871094 390.691406 L 431.152344 390.660156 L 431.292969 390.648438 L 431.429688 390.632812 L 431.570312 390.617188 L 431.710938 390.605469 L 431.851562 390.589844 L 431.988281 390.574219 L 432.128906 390.5625 L 432.410156 390.53125 L 432.546875 390.519531 L 432.828125 390.488281 L 432.964844 390.476562 L 433.105469 390.460938 L 433.246094 390.449219 L 433.386719 390.433594 L 433.523438 390.417969 L 433.664062 390.40625 L 433.945312 390.375 L 434.082031 390.363281 L 434.222656 390.347656 L 434.363281 390.335938 L 434.503906 390.320312 L 434.640625 390.304688 L 434.78125 390.292969 L 434.921875 390.277344 L 435.0625 390.265625 L 435.199219 390.25 L 435.339844 390.238281 L 435.621094 390.207031 L 435.757812 390.195312 L 435.898438 390.179688 L 436.039062 390.167969 L 436.175781 390.152344 L 436.316406 390.140625 L 436.457031 390.125 L 436.597656 390.113281 L 436.734375 390.097656 L 436.875 390.085938 L 437.015625 390.070312 L 437.15625 390.058594 L 437.292969 390.042969 L 437.433594 390.03125 L 437.574219 390.015625 L 437.714844 390.003906 L 437.851562 389.988281 L 437.992188 389.976562 L 438.132812 389.960938 L 438.273438 389.949219 L 438.410156 389.933594 L 438.691406 389.910156 L 438.828125 389.894531 L 438.96875 389.882812 L 439.109375 389.867188 L 439.25 389.855469 L 439.386719 389.839844 L 439.667969 389.816406 L 439.808594 389.800781 L 439.945312 389.789062 L 440.085938 389.773438 L 440.367188 389.75 L 440.503906 389.734375 L 440.785156 389.710938 L 440.925781 389.695312 L 441.0625 389.683594 L 441.203125 389.671875 L 441.34375 389.65625 L 441.484375 389.644531 L 441.621094 389.632812 L 441.761719 389.617188 L 441.902344 389.605469 L 442.039062 389.59375 L 442.179688 389.578125 L 442.460938 389.554688 L 442.597656 389.542969 L 442.738281 389.527344 L 443.019531 389.503906 L 443.15625 389.492188 L 443.296875 389.476562 L 443.578125 389.453125 L 443.714844 389.441406 L 443.855469 389.425781 L 444.136719 389.402344 L 444.273438 389.390625 L 444.554688 389.367188 L 444.695312 389.351562 L 444.832031 389.339844 L 445.113281 389.316406 L 445.25 389.304688 L 445.53125 389.28125 L 445.671875 389.265625 L 445.808594 389.253906 L 446.230469 389.21875 L 446.367188 389.207031 L 446.789062 389.171875 L 446.925781 389.160156 L 447.347656 389.125 L 447.484375 389.113281 L 447.765625 389.089844 L 447.902344 389.078125 L 448.324219 389.042969 L 448.460938 389.03125 L 448.882812 388.996094 L 449.019531 388.984375 L 449.441406 388.949219 L 449.578125 388.9375 L 449.859375 388.914062 L 450 388.90625 L 450.136719 388.894531 L 450.558594 388.859375 L 450.695312 388.847656 L 450.835938 388.839844 L 450.976562 388.828125 L 451.113281 388.816406 L 451.394531 388.792969 L 451.535156 388.785156 L 451.671875 388.773438 L 451.953125 388.75 L 452.09375 388.742188 L 452.230469 388.730469 L 452.511719 388.707031 L 452.652344 388.699219 L 452.789062 388.6875 L 452.929688 388.675781 L 453.070312 388.667969 L 453.210938 388.65625 L 453.347656 388.644531 L 453.488281 388.636719 L 453.628906 388.625 L 453.765625 388.613281 L 453.90625 388.605469 L 454.046875 388.59375 L 454.1875 388.585938 L 454.324219 388.574219 L 454.464844 388.5625 L 454.605469 388.554688 L 454.746094 388.542969 L 454.882812 388.535156 L 455.023438 388.523438 L 455.164062 388.515625 L 455.304688 388.503906 L 455.441406 388.496094 L 455.582031 388.484375 L 455.722656 388.476562 L 455.863281 388.464844 L 456 388.457031 L 456.140625 388.445312 L 456.28125 388.4375 L 456.421875 388.425781 L 456.558594 388.417969 L 456.699219 388.40625 L 456.839844 388.398438 L 456.976562 388.390625 L 457.117188 388.378906 L 457.257812 388.371094 L 457.398438 388.359375 L 457.535156 388.351562 L 457.675781 388.34375 L 457.816406 388.332031 L 457.957031 388.324219 L 458.09375 388.316406 L 458.234375 388.304688 L 458.515625 388.289062 L 458.652344 388.277344 L 459.074219 388.253906 L 459.210938 388.242188 L 459.492188 388.226562 L 459.628906 388.21875 L 459.769531 388.210938 L 459.910156 388.199219 L 460.050781 388.191406 L 460.1875 388.183594 L 460.609375 388.160156 L 460.746094 388.148438 L 461.167969 388.125 L 461.304688 388.117188 L 461.726562 388.09375 L 461.863281 388.085938 L 462.285156 388.0625 L 462.421875 388.054688 L 462.703125 388.039062 L 462.839844 388.03125 L 463.261719 388.007812 L 463.398438 388 L 463.820312 387.976562 L 463.957031 387.972656 L 464.378906 387.949219 L 464.515625 387.941406 L 464.65625 387.933594 L 464.796875 387.929688 L 464.9375 387.921875 L 465.074219 387.914062 L 465.355469 387.898438 L 465.496094 387.894531 L 465.632812 387.886719 L 465.773438 387.878906 L 465.914062 387.875 L 466.050781 387.867188 L 466.332031 387.851562 L 466.472656 387.847656 L 466.609375 387.839844 L 466.75 387.835938 L 467.03125 387.820312 L 467.167969 387.816406 L 467.449219 387.800781 L 467.589844 387.796875 L 467.726562 387.789062 L 467.867188 387.785156 L 468.007812 387.777344 L 468.148438 387.773438 L 468.285156 387.765625 L 468.425781 387.761719 L 468.566406 387.753906 L 468.703125 387.75 L 468.84375 387.742188 L 468.984375 387.738281 L 469.125 387.730469 L 469.261719 387.726562 L 469.402344 387.722656 L 469.542969 387.714844 L 469.683594 387.710938 L 469.820312 387.703125 L 470.101562 387.695312 L 470.242188 387.6875 L 470.378906 387.683594 L 470.519531 387.679688 L 470.660156 387.671875 L 470.800781 387.667969 L 470.9375 387.664062 L 471.078125 387.660156 L 471.21875 387.652344 L 471.359375 387.648438 L 471.496094 387.644531 L 471.636719 387.640625 L 471.777344 387.632812 L 471.914062 387.628906 L 472.335938 387.617188 L 472.472656 387.613281 L 472.613281 387.605469 L 472.894531 387.597656 L 473.03125 387.59375 L 473.453125 387.582031 L 473.589844 387.578125 L 474.011719 387.566406 L 474.148438 387.5625 L 474.429688 387.554688 L 474.566406 387.550781 L 474.988281 387.539062 L 475.125 387.535156 L 475.265625 387.53125 L 475.40625 387.53125 L 475.546875 387.527344 L 475.683594 387.523438 L 476.105469 387.511719 L 476.242188 387.511719 L 476.664062 387.5 L 476.800781 387.496094 L 476.941406 387.496094 L 477.222656 387.488281 L 477.359375 387.488281 L 477.640625 387.480469 L 477.777344 387.480469 L 478.058594 387.472656 L 478.199219 387.472656 L 478.335938 387.46875 L 478.476562 387.46875 L 478.757812 387.460938 L 478.894531 387.460938 L 479.035156 387.457031 L 479.175781 387.457031 L 479.316406 387.453125 L 479.453125 387.453125 L 479.59375 387.449219 L 479.734375 387.449219 L 479.875 387.445312 L 480.011719 387.445312 L 480.152344 387.441406 L 480.429688 387.441406 L 480.570312 387.4375 L 480.710938 387.4375 L 480.851562 387.433594 L 481.128906 387.433594 L 481.269531 387.429688 L 481.546875 387.429688 L 481.6875 387.425781 L 482.105469 387.425781 L 482.246094 387.421875 L 482.804688 387.421875 L 482.945312 387.417969 L 484.0625 387.417969 L 484.199219 387.414062 L 485.316406 387.414062 L 485.457031 387.417969 L 486.574219 387.417969 L 486.714844 387.421875 L 487.132812 387.421875 L 487.273438 387.425781 L 487.691406 387.425781 L 487.832031 387.429688 L 488.109375 387.429688 L 488.25 387.433594 L 488.527344 387.433594 L 488.667969 387.4375 L 488.949219 387.4375 L 489.085938 387.441406 L 489.226562 387.441406 L 489.367188 387.445312 L 489.644531 387.445312 L 489.785156 387.449219 L 489.925781 387.449219 L 490.0625 387.453125 L 490.203125 387.453125 L 490.34375 387.457031 L 490.484375 387.457031 L 490.621094 387.460938 L 490.761719 387.464844 L 490.902344 387.464844 L 491.042969 387.46875 L 491.179688 387.46875 L 491.460938 387.476562 L 491.601562 387.476562 L 491.738281 387.480469 L 491.878906 387.484375 L 492.019531 387.484375 L 492.160156 387.488281 L 492.296875 387.492188 L 492.4375 387.492188 L 492.578125 387.496094 L 492.714844 387.5 L 492.855469 387.503906 L 492.996094 387.503906 L 493.136719 387.507812 L 493.273438 387.511719 L 493.554688 387.519531 L 493.695312 387.519531 L 493.832031 387.523438 L 494.253906 387.535156 L 494.390625 387.539062 L 494.671875 387.546875 L 494.8125 387.546875 L 494.949219 387.550781 L 495.230469 387.558594 L 495.367188 387.5625 L 495.789062 387.574219 L 495.925781 387.578125 L 496.207031 387.585938 L 496.347656 387.59375 L 496.484375 387.597656 L 496.90625 387.609375 L 497.042969 387.613281 L 497.324219 387.621094 L 497.464844 387.628906 L 497.601562 387.632812 L 498.023438 387.644531 L 498.160156 387.652344 L 498.441406 387.660156 L 498.578125 387.664062 L 498.71875 387.671875 L 499 387.679688 L 499.136719 387.6875 L 499.417969 387.695312 L 499.558594 387.703125 L 499.695312 387.707031 L 499.835938 387.710938 L 499.976562 387.71875 L 500.117188 387.722656 L 500.253906 387.730469 L 500.535156 387.738281 L 500.675781 387.746094 L 500.8125 387.75 L 500.953125 387.757812 L 501.09375 387.761719 L 501.230469 387.769531 L 501.371094 387.773438 L 501.511719 387.78125 L 501.652344 387.785156 L 501.789062 387.792969 L 501.929688 387.800781 L 502.070312 387.804688 L 502.210938 387.8125 L 502.347656 387.816406 L 502.628906 387.832031 L 502.769531 387.835938 L 502.90625 387.84375 L 503.046875 387.851562 L 503.1875 387.855469 L 503.328125 387.863281 L 503.464844 387.871094 L 503.605469 387.875 L 503.886719 387.890625 L 504.023438 387.894531 L 504.304688 387.910156 L 504.441406 387.917969 L 504.582031 387.925781 L 504.722656 387.929688 L 504.863281 387.9375 L 505 387.945312 L 505.28125 387.960938 L 505.421875 387.964844 L 505.558594 387.972656 L 505.980469 387.996094 L 506.117188 388.003906 L 506.539062 388.027344 L 506.675781 388.035156 L 506.957031 388.050781 L 507.09375 388.058594 L 507.515625 388.082031 L 507.652344 388.089844 L 508.074219 388.113281 L 508.210938 388.121094 L 508.632812 388.144531 L 508.769531 388.152344 L 508.910156 388.160156 L 509.050781 388.171875 L 509.191406 388.179688 L 509.328125 388.1875 L 509.75 388.210938 L 509.886719 388.222656 L 510.167969 388.238281 L 510.304688 388.246094 L 510.445312 388.257812 L 510.726562 388.273438 L 510.863281 388.28125 L 511.003906 388.292969 L 511.285156 388.308594 L 511.421875 388.320312 L 511.703125 388.335938 L 511.84375 388.347656 L 511.980469 388.355469 L 512.121094 388.363281 L 512.261719 388.375 L 512.402344 388.382812 L 512.539062 388.394531 L 512.820312 388.410156 L 512.960938 388.421875 L 513.097656 388.429688 L 513.238281 388.441406 L 513.378906 388.449219 L 513.515625 388.460938 L 513.65625 388.46875 L 513.796875 388.480469 L 513.9375 388.488281 L 514.074219 388.5 L 514.214844 388.507812 L 514.355469 388.519531 L 514.496094 388.527344 L 514.632812 388.539062 L 514.773438 388.546875 L 514.914062 388.558594 L 515.054688 388.566406 L 515.191406 388.578125 L 515.332031 388.589844 L 515.472656 388.597656 L 515.613281 388.609375 L 515.75 388.621094 L 515.890625 388.628906 L 516.03125 388.640625 L 516.167969 388.648438 L 516.449219 388.671875 L 516.589844 388.679688 L 516.726562 388.691406 L 517.007812 388.714844 L 517.148438 388.722656 L 517.285156 388.734375 L 517.425781 388.746094 L 517.566406 388.753906 L 517.707031 388.765625 L 517.84375 388.777344 L 518.125 388.800781 L 518.265625 388.808594 L 518.402344 388.820312 L 518.824219 388.855469 L 518.960938 388.863281 L 519.242188 388.886719 L 519.378906 388.898438 L 519.800781 388.933594 L 519.9375 388.941406 L 520.359375 388.976562 L 520.496094 388.988281 L 520.917969 389.023438 L 521.054688 389.035156 L 521.476562 389.070312 L 521.613281 389.082031 L 521.894531 389.105469 L 522.03125 389.117188 L 522.453125 389.152344 L 522.589844 389.164062 L 523.011719 389.199219 L 523.148438 389.210938 L 523.570312 389.246094 L 523.707031 389.261719 L 524.128906 389.296875 L 524.265625 389.308594 L 524.546875 389.332031 L 524.6875 389.347656 L 524.824219 389.359375 L 525.105469 389.382812 L 525.242188 389.394531 L 525.382812 389.40625 L 525.523438 389.421875 L 525.664062 389.433594 L 525.800781 389.445312 L 526.082031 389.46875 L 526.222656 389.484375 L 526.359375 389.496094 L 526.640625 389.519531 L 526.78125 389.535156 L 526.917969 389.546875 L 527.058594 389.558594 L 527.199219 389.574219 L 527.339844 389.585938 L 527.476562 389.597656 L 527.617188 389.609375 L 527.757812 389.625 L 527.894531 389.636719 L 528.035156 389.648438 L 528.175781 389.664062 L 528.316406 389.675781 L 528.453125 389.6875 L 528.59375 389.703125 L 528.875 389.726562 L 529.011719 389.742188 L 529.152344 389.753906 L 529.292969 389.769531 L 529.433594 389.78125 L 529.570312 389.792969 L 529.710938 389.808594 L 529.992188 389.832031 L 530.128906 389.847656 L 530.269531 389.859375 L 530.410156 389.875 L 530.550781 389.886719 L 530.6875 389.902344 L 530.96875 389.925781 L 531.105469 389.941406 L 531.246094 389.953125 L 531.386719 389.96875 L 531.527344 389.980469 L 531.664062 389.996094 L 531.804688 390.007812 L 531.945312 390.023438 L 532.085938 390.035156 L 532.222656 390.050781 L 532.363281 390.0625 L 532.503906 390.078125 L 532.644531 390.089844 L 532.78125 390.105469 L 532.921875 390.117188 L 533.0625 390.132812 L 533.203125 390.144531 L 533.339844 390.160156 L 533.480469 390.171875 L 533.621094 390.1875 L 533.761719 390.199219 L 533.898438 390.214844 L 534.039062 390.230469 L 534.179688 390.242188 L 534.316406 390.257812 L 534.457031 390.269531 L 534.597656 390.285156 L 534.738281 390.296875 L 534.875 390.3125 L 535.015625 390.328125 L 535.15625 390.339844 L 535.296875 390.355469 L 535.433594 390.367188 L 535.714844 390.398438 L 535.855469 390.410156 L 535.992188 390.425781 L 536.132812 390.4375 L 536.414062 390.46875 L 536.550781 390.480469 L 536.832031 390.511719 L 536.96875 390.523438 L 537.25 390.554688 L 537.390625 390.566406 L 537.527344 390.582031 L 537.667969 390.597656 L 537.808594 390.609375 L 537.949219 390.625 L 538.085938 390.640625 L 538.226562 390.652344 L 538.507812 390.683594 L 538.644531 390.695312 L 538.925781 390.726562 L 539.066406 390.738281 L 539.203125 390.753906 L 539.484375 390.785156 L 539.625 390.796875 L 539.761719 390.8125 L 539.902344 390.828125 L 540.042969 390.839844 L 540.179688 390.855469 L 540.460938 390.886719 L 540.601562 390.898438 L 540.738281 390.914062 L 541.019531 390.945312 L 541.160156 390.957031 L 541.296875 390.972656 L 541.578125 391.003906 L 541.71875 391.015625 L 541.855469 391.03125 L 542.136719 391.0625 L 542.277344 391.074219 L 542.414062 391.089844 L 542.695312 391.121094 L 542.832031 391.136719 L 542.972656 391.148438 L 543.253906 391.179688 L 543.390625 391.195312 L 543.53125 391.207031 L 543.8125 391.238281 L 543.949219 391.253906 L 544.089844 391.269531 L 544.230469 391.28125 L 544.371094 391.296875 L 544.507812 391.3125 L 544.789062 391.34375 L 544.929688 391.355469 L 545.066406 391.371094 L 545.488281 391.417969 L 545.625 391.433594 L 545.765625 391.445312 L 545.90625 391.460938 L 546.042969 391.476562 L 546.324219 391.507812 L 546.464844 391.519531 L 546.601562 391.535156 L 547.023438 391.582031 L 547.160156 391.597656 L 547.300781 391.609375 L 547.582031 391.640625 L 547.71875 391.65625 L 548.140625 391.703125 L 548.277344 391.714844 L 548.558594 391.746094 L 548.695312 391.761719 L 548.976562 391.792969 L 549.117188 391.804688 L 549.253906 391.820312 L 549.675781 391.867188 L 549.8125 391.882812 L 549.953125 391.898438 L 550.09375 391.910156 L 550.234375 391.925781 L 550.371094 391.941406 L 550.792969 391.988281 L 550.929688 392.003906 L 551.070312 392.015625 L 551.351562 392.046875 L 551.488281 392.0625 L 551.769531 392.09375 L 551.90625 392.109375 L 552.046875 392.121094 L 552.328125 392.152344 L 552.464844 392.167969 L 552.886719 392.214844 L 553.023438 392.226562 L 553.445312 392.273438 L 553.582031 392.289062 L 553.863281 392.320312 L 554.003906 392.332031 L 554.140625 392.347656 L 554.5625 392.394531 L 554.699219 392.410156 L 554.839844 392.425781 L 554.980469 392.4375 L 555.117188 392.453125 L 555.539062 392.5 L 555.675781 392.515625 L 555.816406 392.53125 L 555.957031 392.542969 L 556.097656 392.558594 L 556.234375 392.574219 L 556.65625 392.621094 L 556.792969 392.632812 L 557.214844 392.679688 L 557.351562 392.695312 L 557.632812 392.726562 L 557.769531 392.738281 L 558.191406 392.785156 L 558.328125 392.800781 L 558.46875 392.816406 L 558.609375 392.828125 L 558.75 392.84375 L 558.886719 392.859375 L 559.167969 392.890625 L 559.308594 392.902344 L 559.445312 392.917969 L 559.867188 392.964844 L 560.003906 392.980469 L 560.144531 392.992188 L 560.425781 393.023438 L 560.5625 393.039062 L 560.703125 393.054688 L 560.84375 393.066406 L 560.980469 393.082031 L 561.402344 393.128906 L 561.539062 393.140625 L 561.960938 393.1875 L 562.097656 393.199219 L 562.519531 393.246094 L 562.65625 393.261719 L 562.796875 393.273438 L 563.078125 393.304688 L 563.214844 393.320312 L 563.355469 393.332031 L 563.496094 393.347656 L 563.632812 393.363281 L 563.773438 393.378906 L 563.914062 393.390625 L 564.054688 393.40625 L 564.191406 393.421875 L 564.332031 393.4375 L 564.472656 393.449219 L 564.613281 393.464844 L 564.75 393.480469 L 564.890625 393.496094 L 565.03125 393.507812 L 565.171875 393.523438 L 565.308594 393.539062 L 565.449219 393.554688 L 565.589844 393.566406 L 565.730469 393.582031 L 565.867188 393.597656 L 566.007812 393.609375 L 566.289062 393.640625 L 566.425781 393.65625 L 566.566406 393.667969 L 566.707031 393.683594 L 566.84375 393.699219 L 566.984375 393.710938 L 567.265625 393.742188 L 567.402344 393.753906 L 567.683594 393.785156 L 567.824219 393.796875 L 567.960938 393.8125 L 568.101562 393.828125 L 568.242188 393.839844 L 568.382812 393.855469 L 568.519531 393.871094 L 568.660156 393.882812 L 568.941406 393.914062 L 569.078125 393.925781 L 569.359375 393.957031 L 569.496094 393.96875 L 569.777344 394 L 569.917969 394.011719 L 570.054688 394.027344 L 570.195312 394.039062 L 570.476562 394.070312 L 570.613281 394.082031 L 570.753906 394.097656 L 570.894531 394.109375 L 571.035156 394.125 L 571.171875 394.140625 L 571.3125 394.152344 L 571.453125 394.167969 L 571.59375 394.179688 L 571.730469 394.195312 L 571.871094 394.210938 L 572.011719 394.222656 L 572.152344 394.238281 L 572.289062 394.25 L 572.429688 394.265625 L 572.570312 394.277344 L 572.707031 394.292969 L 572.847656 394.304688 L 572.988281 394.320312 L 573.128906 394.332031 L 573.265625 394.347656 L 573.40625 394.363281 L 573.546875 394.375 L 573.6875 394.390625 L 573.824219 394.402344 L 573.964844 394.417969 L 574.105469 394.429688 L 574.246094 394.445312 L 574.382812 394.457031 L 574.523438 394.472656 L 574.664062 394.484375 L 574.804688 394.5 L 574.941406 394.511719 L 575.082031 394.527344 L 575.222656 394.539062 L 575.359375 394.554688 L 575.640625 394.578125 L 575.78125 394.59375 L 575.917969 394.605469 L 576.058594 394.621094 L 576.199219 394.632812 L 576.339844 394.648438 L 576.476562 394.660156 L 576.617188 394.675781 L 576.898438 394.699219 L 577.035156 394.714844 L 577.175781 394.726562 L 577.316406 394.742188 L 577.457031 394.753906 L 577.59375 394.769531 L 577.875 394.792969 L 578.015625 394.808594 L 578.152344 394.820312 L 578.292969 394.832031 L 578.433594 394.847656 L 578.570312 394.859375 L 578.710938 394.875 L 578.992188 394.898438 L 579.128906 394.914062 L 579.410156 394.9375 L 579.550781 394.953125 L 579.6875 394.964844 L 579.828125 394.976562 L 579.96875 394.992188 L 580.109375 395.003906 L 580.246094 395.015625 L 580.386719 395.03125 L 580.667969 395.054688 L 580.804688 395.066406 L 580.945312 395.082031 L 581.226562 395.105469 L 581.363281 395.121094 L 581.644531 395.144531 L 581.78125 395.15625 L 581.921875 395.171875 L 582.203125 395.195312 L 582.339844 395.207031 L 582.480469 395.222656 L 582.761719 395.246094 L 582.898438 395.257812 L 583.039062 395.269531 L 583.179688 395.285156 L 583.320312 395.296875 L 583.457031 395.308594 L 583.738281 395.332031 L 583.878906 395.347656 L 584.015625 395.359375 L 584.296875 395.382812 L 584.433594 395.394531 L 584.574219 395.40625 L 584.714844 395.421875 L 584.855469 395.433594 L 584.992188 395.445312 L 585.414062 395.480469 L 585.550781 395.492188 L 585.691406 395.507812 L 585.972656 395.53125 L 586.109375 395.542969 L 586.53125 395.578125 L 586.667969 395.589844 L 587.089844 395.625 L 587.226562 395.636719 L 587.367188 395.648438 L 587.507812 395.664062 L 587.644531 395.675781 L 588.066406 395.710938 L 588.203125 395.722656 L 588.625 395.757812 L 588.761719 395.769531 L 589.183594 395.804688 L 589.320312 395.816406 L 589.742188 395.851562 L 589.878906 395.859375 L 590.160156 395.882812 L 590.296875 395.894531 L 590.71875 395.929688 L 590.855469 395.941406 L 591.277344 395.976562 L 591.414062 395.988281 L 591.554688 395.996094 L 591.835938 396.019531 L 591.972656 396.03125 L 592.394531 396.066406 L 592.53125 396.074219 L 592.953125 396.109375 L 593.089844 396.121094 L 593.230469 396.132812 L 593.371094 396.140625 L 593.507812 396.152344 L 593.929688 396.1875 L 594.066406 396.195312 L 594.488281 396.230469 L 594.625 396.238281 L 595.046875 396.273438 L 595.183594 396.28125 L 595.605469 396.316406 L 595.742188 396.324219 L 596.023438 396.347656 L 596.160156 396.355469 L 596.441406 396.378906 L 596.582031 396.386719 L 596.71875 396.398438 L 596.859375 396.410156 L 597 396.417969 L 597.140625 396.429688 L 597.277344 396.441406 L 597.417969 396.449219 L 597.699219 396.472656 L 597.835938 396.480469 L 597.976562 396.492188 L 598.117188 396.5 L 598.257812 396.511719 L 598.394531 396.523438 L 598.535156 396.53125 L 598.675781 396.542969 L 598.816406 396.550781 L 598.953125 396.5625 L 599.09375 396.574219 L 599.234375 396.582031 L 599.371094 396.59375 L 599.511719 396.601562 L 599.652344 396.613281 L 599.792969 396.621094 L 599.929688 396.632812 L 600.070312 396.640625 L 600.210938 396.652344 L 600.351562 396.660156 L 600.488281 396.671875 L 600.628906 396.683594 L 600.769531 396.691406 L 600.910156 396.703125 L 601.046875 396.710938 L 601.1875 396.71875 L 601.328125 396.730469 L 601.46875 396.738281 L 601.605469 396.75 L 601.746094 396.757812 L 601.886719 396.769531 L 602.027344 396.777344 L 602.164062 396.789062 L 602.304688 396.796875 L 602.445312 396.808594 L 602.582031 396.816406 L 602.722656 396.824219 L 602.863281 396.835938 L 603.003906 396.84375 L 603.140625 396.855469 L 603.421875 396.871094 L 603.5625 396.882812 L 603.699219 396.890625 L 603.839844 396.902344 L 604.121094 396.917969 L 604.257812 396.929688 L 604.539062 396.945312 L 604.679688 396.957031 L 604.816406 396.964844 L 604.957031 396.972656 L 605.097656 396.984375 L 605.234375 396.992188 L 605.375 397 L 605.515625 397.011719 L 605.65625 397.019531 L 605.792969 397.027344 L 605.933594 397.035156 L 606.074219 397.046875 L 606.214844 397.054688 L 606.351562 397.0625 L 606.492188 397.074219 L 606.773438 397.089844 L 606.910156 397.097656 L 607.050781 397.109375 L 607.332031 397.125 L 607.46875 397.132812 L 607.609375 397.140625 L 607.75 397.152344 L 607.890625 397.160156 L 608.027344 397.167969 L 608.308594 397.183594 L 608.445312 397.195312 L 608.867188 397.21875 L 609.003906 397.226562 L 609.144531 397.234375 L 609.285156 397.246094 L 609.425781 397.253906 L 609.5625 397.261719 L 609.984375 397.285156 L 610.121094 397.292969 L 610.402344 397.308594 L 610.542969 397.320312 L 610.679688 397.328125 L 610.960938 397.34375 L 611.097656 397.351562 L 611.519531 397.375 L 611.65625 397.382812 L 612.078125 397.40625 L 612.214844 397.414062 L 612.636719 397.4375 L 612.773438 397.445312 L 613.195312 397.46875 L 613.332031 397.476562 L 613.753906 397.5 L 613.890625 397.507812 L 614.171875 397.523438 L 614.308594 397.53125 L 614.730469 397.554688 L 614.867188 397.5625 L 615.007812 397.570312 L 615.148438 397.574219 L 615.289062 397.582031 L 615.425781 397.589844 L 615.847656 397.613281 L 615.984375 397.621094 L 616.265625 397.636719 L 616.40625 397.640625 L 616.542969 397.648438 L 616.824219 397.664062 L 616.960938 397.671875 L 617.101562 397.679688 L 617.242188 397.683594 L 617.382812 397.691406 L 617.519531 397.699219 L 617.800781 397.714844 L 617.941406 397.71875 L 618.078125 397.726562 L 618.5 397.75 L 618.636719 397.753906 L 619.058594 397.777344 L 619.195312 397.78125 L 619.617188 397.804688 L 619.753906 397.808594 L 620.035156 397.824219 L 620.171875 397.828125 L 620.59375 397.851562 L 620.730469 397.855469 L 621.011719 397.871094 L 621.152344 397.875 L 621.289062 397.882812 L 621.429688 397.890625 L 621.570312 397.894531 L 621.710938 397.902344 L 621.847656 397.910156 L 621.988281 397.914062 L 622.128906 397.921875 L 622.269531 397.925781 L 622.40625 397.933594 L 622.546875 397.941406 L 622.6875 397.945312 L 622.828125 397.953125 L 622.964844 397.960938 L 623.105469 397.964844 L 623.246094 397.972656 L 623.382812 397.976562 L 623.664062 397.992188 L 623.804688 397.996094 L 623.941406 398.003906 L 624.082031 398.007812 L 624.222656 398.015625 L 624.363281 398.019531 L 624.5 398.027344 L 624.640625 398.03125 L 624.921875 398.046875 L 625.058594 398.050781 L 625.199219 398.058594 L 625.339844 398.0625 L 625.480469 398.070312 L 625.617188 398.074219 L 625.757812 398.082031 L 625.898438 398.085938 L 626.035156 398.09375 L 626.175781 398.097656 L 626.316406 398.105469 L 626.457031 398.109375 L 626.59375 398.117188 L 626.875 398.125 L 627.015625 398.132812 L 627.152344 398.136719 L 627.292969 398.144531 L 627.433594 398.148438 L 627.574219 398.15625 L 627.710938 398.160156 L 627.851562 398.167969 L 628.132812 398.175781 L 628.269531 398.183594 L 628.410156 398.1875 L 628.550781 398.195312 L 628.691406 398.199219 L 628.828125 398.203125 L 628.96875 398.210938 L 629.109375 398.214844 L 629.246094 398.222656 L 629.527344 398.230469 L 629.667969 398.238281 L 629.804688 398.242188 L 629.945312 398.246094 L 630.085938 398.253906 L 630.226562 398.257812 L 630.363281 398.261719 L 630.503906 398.269531 L 630.785156 398.277344 L 630.921875 398.285156 L 631.203125 398.292969 L 631.34375 398.300781 L 631.480469 398.304688 L 631.621094 398.308594 L 631.761719 398.316406 L 631.898438 398.320312 L 632.039062 398.324219 L 632.179688 398.332031 L 632.320312 398.335938 L 632.457031 398.339844 L 632.597656 398.34375 L 632.738281 398.351562 L 632.878906 398.355469 L 633.015625 398.359375 L 633.15625 398.363281 L 633.296875 398.371094 L 633.4375 398.375 L 633.574219 398.378906 L 633.714844 398.382812 L 633.855469 398.390625 L 633.996094 398.394531 L 634.132812 398.398438 L 634.414062 398.40625 L 634.554688 398.414062 L 634.691406 398.417969 L 634.972656 398.425781 L 635.109375 398.429688 L 635.25 398.4375 L 635.53125 398.445312 L 635.667969 398.449219 L 635.808594 398.453125 L 635.949219 398.460938 L 636.089844 398.464844 L 636.226562 398.46875 L 636.648438 398.480469 L 636.785156 398.484375 L 636.925781 398.492188 L 637.207031 398.5 L 637.34375 398.503906 L 637.625 398.511719 L 637.761719 398.515625 L 638.042969 398.523438 L 638.183594 398.53125 L 638.320312 398.535156 L 638.742188 398.546875 L 638.878906 398.550781 L 639.300781 398.5625 L 639.4375 398.566406 L 639.859375 398.578125 L 639.996094 398.582031 L 640.277344 398.589844 L 640.417969 398.597656 L 640.554688 398.601562 L 640.835938 398.609375 L 640.972656 398.613281 L 641.394531 398.625 L 641.53125 398.628906 L 641.953125 398.640625 L 642.089844 398.644531 L 642.511719 398.65625 L 642.648438 398.65625 L 643.070312 398.667969 L 643.207031 398.671875 L 643.628906 398.683594 L 643.765625 398.6875 L 644.046875 398.695312 L 644.183594 398.699219 L 644.605469 398.710938 L 644.742188 398.714844 L 644.882812 398.714844 L 645.164062 398.722656 L 645.300781 398.726562 L 645.722656 398.738281 L 645.859375 398.742188 L 646 398.746094 L 646.140625 398.746094 L 646.28125 398.75 L 646.417969 398.753906 L 646.699219 398.761719 L 646.835938 398.765625 L 647.117188 398.773438 L 647.257812 398.773438 L 647.394531 398.777344 L 647.816406 398.789062 L 647.953125 398.792969 L 648.09375 398.792969 L 648.375 398.800781 L 648.511719 398.804688 L 648.652344 398.808594 L 648.792969 398.808594 L 648.933594 398.8125 L 649.070312 398.816406 L 649.351562 398.824219 L 649.492188 398.824219 L 649.628906 398.828125 L 649.910156 398.835938 L 650.046875 398.839844 L 650.1875 398.839844 L 650.46875 398.847656 L 650.605469 398.851562 L 650.746094 398.851562 L 651.027344 398.859375 L 651.164062 398.863281 L 651.304688 398.863281 L 651.585938 398.871094 L 651.722656 398.875 L 651.863281 398.875 L 652.144531 398.882812 L 652.28125 398.886719 L 652.421875 398.886719 L 652.5625 398.890625 L 652.699219 398.894531 L 652.839844 398.898438 L 652.980469 398.898438 L 653.121094 398.902344 L 653.257812 398.90625 L 653.398438 398.90625 L 653.679688 398.914062 L 653.816406 398.914062 L 654.238281 398.925781 L 654.375 398.925781 L 654.65625 398.933594 L 654.796875 398.933594 L 654.933594 398.9375 L 655.074219 398.941406 L 655.214844 398.941406 L 655.355469 398.945312 L 655.492188 398.949219 L 655.632812 398.949219 L 655.773438 398.953125 L 655.910156 398.957031 L 656.050781 398.957031 L 656.191406 398.960938 L 656.332031 398.960938 L 656.46875 398.964844 L 656.609375 398.96875 L 656.75 398.96875 L 656.890625 398.972656 L 657.027344 398.976562 L 657.167969 398.976562 L 657.449219 398.984375 L 657.585938 398.984375 L 657.726562 398.988281 L 657.867188 398.988281 L 658.007812 398.992188 L 658.144531 398.996094 L 658.285156 398.996094 L 658.425781 399 L 658.5625 399 L 658.84375 399.007812 L 658.984375 399.007812 L 659.121094 399.011719 L 659.261719 399.011719 L 659.402344 399.015625 L 659.542969 399.015625 L 659.679688 399.019531 L 659.820312 399.023438 L 659.960938 399.023438 L 660.101562 399.027344 L 660.238281 399.027344 L 660.378906 399.03125 L 660.519531 399.03125 L 660.660156 399.035156 L 660.796875 399.039062 L 660.9375 399.039062 L 661.078125 399.042969 L 661.21875 399.042969 L 661.355469 399.046875 L 661.496094 399.046875 L 661.636719 399.050781 L 661.773438 399.050781 L 661.914062 399.054688 L 662.054688 399.054688 L 662.195312 399.058594 L 662.332031 399.0625 L 662.472656 399.0625 L 662.613281 399.066406 L 662.753906 399.066406 L 662.890625 399.070312 L 663.03125 399.070312 L 663.171875 399.074219 L 663.3125 399.074219 L 663.449219 399.078125 L 663.589844 399.078125 L 663.730469 399.082031 L 663.871094 399.082031 L 664.007812 399.085938 L 664.148438 399.085938 L 664.289062 399.089844 L 664.425781 399.089844 L 664.566406 399.09375 L 664.707031 399.09375 L 664.847656 399.097656 L 664.984375 399.097656 L 665.125 399.101562 L 665.265625 399.101562 L 665.40625 399.105469 L 665.683594 399.105469 L 665.824219 399.109375 L 665.964844 399.109375 L 666.101562 399.113281 L 666.242188 399.113281 L 666.382812 399.117188 L 666.523438 399.117188 L 666.660156 399.121094 L 666.800781 399.121094 L 666.941406 399.125 L 667.082031 399.125 L 667.21875 399.128906 L 667.5 399.128906 L 667.636719 399.132812 L 667.777344 399.132812 L 667.917969 399.136719 L 668.058594 399.136719 L 668.195312 399.140625 L 668.476562 399.140625 L 668.617188 399.144531 L 668.753906 399.144531 L 668.894531 399.148438 L 669.035156 399.148438 L 669.175781 399.152344 L 669.453125 399.152344 L 669.59375 399.15625 L 669.734375 399.15625 L 669.871094 399.160156 L 670.152344 399.160156 L 670.292969 399.164062 L 670.429688 399.164062 L 670.570312 399.167969 L 670.847656 399.167969 L 670.988281 399.171875 L 671.128906 399.171875 L 671.269531 399.175781 L 671.546875 399.175781 L 671.6875 399.179688 L 671.828125 399.179688 L 671.964844 399.183594 L 672.246094 399.183594 L 672.386719 399.1875 L 672.664062 399.1875 L 672.804688 399.191406 L 673.082031 399.191406 L 673.222656 399.195312 L 673.363281 399.195312 L 673.5 399.199219 L 673.78125 399.199219 L 673.921875 399.203125 L 674.199219 399.203125 L 674.339844 399.207031 L 674.617188 399.207031 L 674.757812 399.210938 L 675.039062 399.210938 L 675.175781 399.214844 L 675.457031 399.214844 L 675.597656 399.21875 L 675.875 399.21875 L 676.015625 399.222656 L 676.292969 399.222656 L 676.433594 399.226562 L 676.710938 399.226562 L 676.851562 399.230469 L 677.132812 399.230469 L 677.269531 399.234375 L 677.550781 399.234375 L 677.691406 399.238281 L 678.109375 399.238281 L 678.25 399.242188 L 678.527344 399.242188 L 678.667969 399.246094 L 678.945312 399.246094 L 679.085938 399.25 L 679.503906 399.25 L 679.644531 399.253906 L 679.921875 399.253906 L 680.0625 399.257812 L 680.480469 399.257812 L 680.621094 399.261719 L 681.039062 399.261719 L 681.179688 399.265625 L 681.460938 399.265625 L 681.597656 399.269531 L 682.019531 399.269531 L 682.15625 399.273438 L 682.574219 399.273438 L 682.714844 399.277344 L 683.132812 399.277344 L 683.273438 399.28125 L 683.691406 399.28125 L 683.832031 399.285156 L 684.25 399.285156 L 684.390625 399.289062 L 684.949219 399.289062 L 685.089844 399.292969 L 685.507812 399.292969 L 685.648438 399.296875 L 686.066406 399.296875 L 686.207031 399.300781 L 686.765625 399.300781 L 686.902344 399.304688 L 687.460938 399.304688 L 687.601562 399.308594 L 688.019531 399.308594 L 688.160156 399.3125 L 688.71875 399.3125 L 688.859375 399.316406 L 689.417969 399.316406 L 689.554688 399.320312 L 690.253906 399.320312 L 690.394531 399.324219 L 690.953125 399.324219 L 691.09375 399.328125 L 691.789062 399.328125 L 691.929688 399.332031 L 692.488281 399.332031 L 692.628906 399.335938 L 693.324219 399.335938 L 693.464844 399.339844 L 694.164062 399.339844 L 694.300781 399.34375 L 695.140625 399.34375 L 695.28125 399.347656 L 695.976562 399.347656 L 696.117188 399.351562 L 696.957031 399.351562 L 697.09375 399.355469 L 697.933594 399.355469 L 698.070312 399.359375 L 699.050781 399.359375 L 699.1875 399.363281 L 700.164062 399.363281 L 700.304688 399.367188 L 701.28125 399.367188 L 701.421875 399.371094 L 702.398438 399.371094 L 702.539062 399.375 L 703.796875 399.375 L 703.933594 399.378906 L 705.050781 399.378906 L 705.191406 399.382812 L 706.449219 399.382812 L 706.585938 399.386719 L 707.984375 399.386719 L 708.125 399.390625 L 709.660156 399.390625 L 709.796875 399.394531 L 711.472656 399.394531 L 711.613281 399.398438 L 713.289062 399.398438 L 713.429688 399.402344 L 715.382812 399.402344 L 715.523438 399.40625 L 717.757812 399.40625 L 717.894531 399.410156 L 720.410156 399.410156 L 720.546875 399.414062 L 721.105469 399.414062 L 721.105469 399.4375 Z M 23.234375 399.4375 "/>
<path style=" stroke:none;fill-rule:nonzero;fill:rgb(90.196078%,25.490196%,45.098039%);fill-opacity:0.701961;" d="M 23.234375 399.4375 L 474.429688 399.4375 L 474.566406 399.433594 L 474.707031 399.433594 L 474.847656 399.429688 L 474.988281 399.429688 L 475.125 399.425781 L 475.546875 399.402344 L 475.683594 399.390625 L 475.824219 399.375 L 475.964844 399.355469 L 476.105469 399.332031 L 476.242188 399.296875 L 476.382812 399.257812 L 476.523438 399.203125 L 476.664062 399.136719 L 476.800781 399.050781 L 476.941406 398.945312 L 477.082031 398.816406 L 477.222656 398.652344 L 477.359375 398.453125 L 477.5 398.207031 L 477.640625 397.902344 L 477.777344 397.535156 L 477.917969 397.085938 L 478.058594 396.550781 L 478.199219 395.902344 L 478.335938 395.128906 L 478.476562 394.207031 L 478.617188 393.117188 L 478.757812 391.832031 L 478.894531 390.328125 L 479.035156 388.566406 L 479.175781 386.527344 L 479.316406 384.164062 L 479.453125 381.449219 L 479.59375 378.34375 L 479.734375 374.804688 L 479.875 370.796875 L 480.011719 366.277344 L 480.152344 361.207031 L 480.292969 355.550781 L 480.429688 349.273438 L 480.570312 342.339844 L 480.710938 334.726562 L 480.851562 326.414062 L 480.988281 317.382812 L 481.128906 307.625 L 481.269531 297.148438 L 481.410156 285.960938 L 481.546875 274.085938 L 481.6875 261.5625 L 481.828125 248.429688 L 481.96875 234.753906 L 482.105469 220.605469 L 482.246094 206.066406 L 482.386719 191.242188 L 482.527344 176.234375 L 482.664062 161.164062 L 482.804688 146.160156 L 482.945312 131.363281 L 483.085938 116.90625 L 483.222656 102.945312 L 483.363281 89.617188 L 483.503906 77.070312 L 483.640625 65.445312 L 483.78125 54.878906 L 483.921875 45.492188 L 484.0625 37.402344 L 484.199219 30.703125 L 484.339844 25.480469 L 484.480469 21.804688 L 484.621094 19.714844 L 484.757812 19.246094 L 484.898438 20.394531 L 485.039062 23.15625 L 485.179688 27.488281 L 485.316406 33.335938 L 485.457031 40.628906 L 485.597656 49.277344 L 485.738281 59.171875 L 485.875 70.199219 L 486.015625 82.226562 L 486.15625 95.117188 L 486.292969 108.730469 L 486.433594 122.917969 L 486.574219 137.535156 L 486.714844 152.4375 L 486.851562 167.484375 L 486.992188 182.542969 L 487.132812 197.488281 L 487.273438 212.207031 L 487.410156 226.589844 L 487.550781 240.550781 L 487.691406 254.007812 L 487.832031 266.890625 L 487.96875 279.148438 L 488.109375 290.738281 L 488.25 301.628906 L 488.390625 311.804688 L 488.527344 321.257812 L 488.667969 329.984375 L 488.808594 338.003906 L 488.949219 345.328125 L 489.085938 351.984375 L 489.226562 357.996094 L 489.367188 363.402344 L 489.503906 368.234375 L 489.644531 372.535156 L 489.785156 376.34375 L 489.925781 379.695312 L 490.0625 382.632812 L 490.203125 385.195312 L 490.34375 387.417969 L 490.484375 389.339844 L 490.621094 390.988281 L 490.761719 392.398438 L 490.902344 393.597656 L 491.042969 394.613281 L 491.179688 395.46875 L 491.320312 396.1875 L 491.460938 396.789062 L 491.601562 397.285156 L 491.738281 397.699219 L 491.878906 398.035156 L 492.019531 398.316406 L 492.160156 398.542969 L 492.296875 398.726562 L 492.4375 398.875 L 492.578125 398.996094 L 492.714844 399.089844 L 492.855469 399.167969 L 492.996094 399.226562 L 493.136719 399.273438 L 493.273438 399.3125 L 493.414062 399.339844 L 493.554688 399.363281 L 493.695312 399.382812 L 493.832031 399.394531 L 493.972656 399.40625 L 494.253906 399.421875 L 494.390625 399.425781 L 494.671875 399.433594 L 494.949219 399.433594 L 495.089844 399.4375 L 721.105469 399.4375 Z M 23.234375 399.4375 "/>
<path style=" stroke:none;fill-rule:nonzero;fill:rgb(18.431373%,30.980392%,30.980392%);fill-opacity:0.701961;" d="M 23.234375 399.4375 L 473.730469 399.4375 L 473.871094 399.433594 L 474.011719 399.433594 L 474.148438 399.429688 L 474.289062 399.429688 L 474.429688 399.425781 L 474.566406 399.417969 L 474.707031 399.414062 L 474.847656 399.40625 L 474.988281 399.394531 L 475.125 399.378906 L 475.265625 399.359375 L 475.40625 399.335938 L 475.546875 399.304688 L 475.683594 399.265625 L 475.824219 399.214844 L 475.964844 399.152344 L 476.105469 399.070312 L 476.242188 398.96875 L 476.382812 398.84375 L 476.523438 398.6875 L 476.664062 398.492188 L 476.800781 398.257812 L 476.941406 397.964844 L 477.082031 397.609375 L 477.222656 397.179688 L 477.359375 396.660156 L 477.5 396.03125 L 477.640625 395.285156 L 477.777344 394.390625 L 477.917969 393.335938 L 478.058594 392.085938 L 478.199219 390.625 L 478.335938 388.914062 L 478.476562 386.925781 L 478.617188 384.625 L 478.757812 381.976562 L 478.894531 378.941406 L 479.035156 375.480469 L 479.175781 371.558594 L 479.316406 367.132812 L 479.453125 362.160156 L 479.59375 356.609375 L 479.734375 350.441406 L 479.875 343.625 L 480.011719 336.128906 L 480.152344 327.933594 L 480.292969 319.023438 L 480.429688 309.390625 L 480.570312 299.03125 L 480.710938 287.960938 L 480.851562 276.195312 L 480.988281 263.769531 L 481.128906 250.730469 L 481.269531 237.132812 L 481.410156 223.046875 L 481.546875 208.554688 L 481.6875 193.757812 L 481.828125 178.757812 L 481.96875 163.675781 L 482.105469 148.636719 L 482.246094 133.777344 L 482.386719 119.238281 L 482.527344 105.164062 L 482.664062 91.703125 L 482.804688 79 L 482.945312 67.199219 L 483.085938 56.429688 L 483.222656 46.824219 L 483.363281 38.496094 L 483.503906 31.550781 L 483.640625 26.070312 L 483.78125 22.125 L 483.921875 19.765625 L 484.0625 19.019531 L 484.199219 19.902344 L 484.339844 22.398438 L 484.480469 26.476562 L 484.621094 32.085938 L 484.757812 39.152344 L 484.898438 47.59375 L 485.039062 57.304688 L 485.179688 68.164062 L 485.316406 80.050781 L 485.457031 92.824219 L 485.597656 106.34375 L 485.738281 120.460938 L 485.875 135.03125 L 486.015625 149.914062 L 486.15625 164.960938 L 486.292969 180.039062 L 486.433594 195.027344 L 486.574219 209.804688 L 486.714844 224.261719 L 486.851562 238.308594 L 486.992188 251.863281 L 487.132812 264.851562 L 487.273438 277.222656 L 487.410156 288.929688 L 487.550781 299.941406 L 487.691406 310.238281 L 487.832031 319.8125 L 487.96875 328.660156 L 488.109375 336.796875 L 488.25 344.230469 L 488.390625 350.992188 L 488.527344 357.105469 L 488.667969 362.605469 L 488.808594 367.53125 L 488.949219 371.910156 L 489.085938 375.792969 L 489.226562 379.214844 L 489.367188 382.214844 L 489.503906 384.832031 L 489.644531 387.105469 L 489.785156 389.070312 L 489.925781 390.757812 L 490.0625 392.203125 L 490.203125 393.433594 L 490.34375 394.472656 L 490.484375 395.351562 L 490.621094 396.089844 L 490.761719 396.707031 L 490.902344 397.21875 L 491.042969 397.644531 L 491.179688 397.992188 L 491.320312 398.277344 L 491.460938 398.511719 L 491.601562 398.703125 L 491.738281 398.855469 L 491.878906 398.980469 L 492.019531 399.078125 L 492.160156 399.15625 L 492.296875 399.21875 L 492.4375 399.269531 L 492.578125 399.308594 L 492.714844 399.339844 L 492.855469 399.363281 L 493.136719 399.394531 L 493.273438 399.40625 L 493.554688 399.421875 L 493.695312 399.425781 L 493.832031 399.429688 L 493.972656 399.429688 L 494.113281 399.433594 L 494.253906 399.433594 L 494.390625 399.4375 L 721.105469 399.4375 Z M 23.234375 399.4375 "/>
<path style="fill:none;stroke-width:1.280374;stroke-linecap:butt;stroke-linejoin:round;stroke:rgb(0%,0%,0%);stroke-opacity:0.501961;stroke-dasharray:8.962618,3.841122;stroke-miterlimit:10;" d="M 484.730469 414 L 484.730469 0 "/>
<path style="fill:none;stroke-width:1.066978;stroke-linecap:butt;stroke-linejoin:round;stroke:rgb(0%,0%,0%);stroke-opacity:1;stroke-miterlimit:10;" d="M 0 399.4375 L 756 399.4375 "/>
</g>
</svg>
