<?xml version="1.0" encoding="UTF-8"?>
<svg xmlns="http://www.w3.org/2000/svg" xmlns:xlink="http://www.w3.org/1999/xlink" width="756pt" height="414pt" viewBox="0 0 756 414" version="1.1">
<g id="surface64">
<rect x="0" y="0" width="756" height="414" style="fill:rgb(100%,100%,100%);fill-opacity:1;stroke:none;"/>
<path style=" stroke:none;fill-rule:nonzero;fill:rgb(100%,64.705882%,0%);fill-opacity:0.701961;" d="M 23.234375 399.4375 L 207.789062 399.4375 L 207.925781 399.433594 L 219.652344 399.433594 L 219.792969 399.429688 L 226.773438 399.429688 L 226.914062 399.425781 L 231.9375 399.425781 L 232.078125 399.421875 L 236.128906 399.421875 L 236.265625 399.417969 L 239.476562 399.417969 L 239.617188 399.414062 L 242.410156 399.414062 L 242.550781 399.410156 L 244.921875 399.410156 L 245.0625 399.40625 L 247.15625 399.40625 L 247.296875 399.402344 L 249.25 399.402344 L 249.390625 399.398438 L 251.066406 399.398438 L 251.203125 399.394531 L 252.738281 399.394531 L 252.878906 399.390625 L 254.277344 399.390625 L 254.414062 399.386719 L 255.8125 399.386719 L 255.949219 399.382812 L 257.207031 399.382812 L 257.347656 399.378906 L 258.464844 399.378906 L 258.601562 399.375 L 259.71875 399.375 L 259.859375 399.371094 L 260.835938 399.371094 L 260.976562 399.367188 L 261.953125 399.367188 L 262.09375 399.363281 L 263.070312 399.363281 L 263.210938 399.359375 L 264.046875 399.359375 L 264.1875 399.355469 L 265.023438 399.355469 L 265.164062 399.351562 L 266.003906 399.351562 L 266.140625 399.347656 L 266.839844 399.347656 L 266.980469 399.34375 L 267.675781 399.34375 L 267.816406 399.339844 L 268.515625 399.339844 L 268.65625 399.335938 L 269.351562 399.335938 L 269.492188 399.332031 L 270.050781 399.332031 L 270.191406 399.328125 L 270.886719 399.328125 L 271.027344 399.324219 L 271.585938 399.324219 L 271.726562 399.320312 L 272.285156 399.320312 L 272.425781 399.316406 L 272.980469 399.316406 L 273.121094 399.3125 L 273.679688 399.3125 L 273.820312 399.308594 L 274.238281 399.308594 L 274.378906 399.304688 L 274.9375 399.304688 L 275.078125 399.300781 L 275.496094 399.300781 L 275.632812 399.296875 L 276.054688 399.296875 L 276.191406 399.292969 L 276.75 399.292969 L 276.890625 399.289062 L 277.308594 399.289062 L 277.449219 399.285156 L 277.867188 399.285156 L 278.007812 399.28125 L 278.425781 399.28125 L 278.566406 399.277344 L 278.84375 399.277344 L 278.984375 399.273438 L 279.402344 399.273438 L 279.542969 399.269531 L 279.960938 399.269531 L 280.101562 399.265625 L 280.382812 399.265625 L 280.519531 399.261719 L 280.941406 399.261719 L 281.078125 399.257812 L 281.359375 399.257812 L 281.496094 399.253906 L 281.917969 399.253906 L 282.054688 399.25 L 282.335938 399.25 L 282.476562 399.246094 L 282.753906 399.246094 L 282.894531 399.242188 L 283.3125 399.242188 L 283.453125 399.238281 L 283.730469 399.238281 L 283.871094 399.234375 L 284.152344 399.234375 L 284.289062 399.230469 L 284.570312 399.230469 L 284.707031 399.226562 L 284.988281 399.226562 L 285.128906 399.222656 L 285.40625 399.222656 L 285.546875 399.21875 L 285.824219 399.21875 L 285.964844 399.214844 L 286.246094 399.214844 L 286.382812 399.210938 L 286.523438 399.210938 L 286.664062 399.207031 L 286.941406 399.207031 L 287.082031 399.203125 L 287.363281 399.203125 L 287.5 399.199219 L 287.78125 399.199219 L 287.917969 399.195312 L 288.058594 399.195312 L 288.199219 399.191406 L 288.476562 399.191406 L 288.617188 399.1875 L 288.757812 399.1875 L 288.898438 399.183594 L 289.175781 399.183594 L 289.316406 399.179688 L 289.59375 399.179688 L 289.734375 399.175781 L 289.875 399.175781 L 290.015625 399.171875 L 290.152344 399.171875 L 290.292969 399.167969 L 290.570312 399.167969 L 290.710938 399.164062 L 290.851562 399.164062 L 290.992188 399.160156 L 291.269531 399.160156 L 291.410156 399.15625 L 291.550781 399.15625 L 291.6875 399.152344 L 291.828125 399.152344 L 291.96875 399.148438 L 292.246094 399.148438 L 292.386719 399.144531 L 292.527344 399.144531 L 292.667969 399.140625 L 292.804688 399.140625 L 292.945312 399.136719 L 293.085938 399.136719 L 293.226562 399.132812 L 293.363281 399.132812 L 293.503906 399.128906 L 293.78125 399.128906 L 293.921875 399.125 L 294.0625 399.125 L 294.203125 399.121094 L 294.339844 399.121094 L 294.480469 399.117188 L 294.621094 399.117188 L 294.761719 399.113281 L 294.898438 399.113281 L 295.039062 399.109375 L 295.179688 399.109375 L 295.320312 399.105469 L 295.457031 399.105469 L 295.597656 399.101562 L 295.738281 399.101562 L 295.878906 399.097656 L 296.015625 399.097656 L 296.15625 399.09375 L 296.296875 399.09375 L 296.433594 399.089844 L 296.574219 399.089844 L 296.714844 399.085938 L 296.855469 399.085938 L 296.992188 399.082031 L 297.132812 399.082031 L 297.273438 399.078125 L 297.414062 399.078125 L 297.550781 399.074219 L 297.691406 399.070312 L 297.832031 399.070312 L 297.972656 399.066406 L 298.109375 399.066406 L 298.25 399.0625 L 298.390625 399.0625 L 298.53125 399.058594 L 298.667969 399.058594 L 298.808594 399.054688 L 298.949219 399.054688 L 299.089844 399.050781 L 299.226562 399.046875 L 299.367188 399.046875 L 299.507812 399.042969 L 299.644531 399.042969 L 299.785156 399.039062 L 299.925781 399.039062 L 300.066406 399.035156 L 300.203125 399.03125 L 300.34375 399.03125 L 300.484375 399.027344 L 300.625 399.027344 L 300.761719 399.023438 L 300.902344 399.019531 L 301.042969 399.019531 L 301.183594 399.015625 L 301.320312 399.015625 L 301.601562 399.007812 L 301.742188 399.007812 L 301.878906 399.003906 L 302.019531 399 L 302.160156 399 L 302.296875 398.996094 L 302.4375 398.996094 L 302.71875 398.988281 L 302.855469 398.988281 L 303.136719 398.980469 L 303.277344 398.980469 L 303.414062 398.976562 L 303.554688 398.972656 L 303.695312 398.972656 L 303.835938 398.96875 L 303.972656 398.964844 L 304.113281 398.964844 L 304.394531 398.957031 L 304.53125 398.957031 L 304.8125 398.949219 L 304.953125 398.949219 L 305.089844 398.945312 L 305.230469 398.941406 L 305.371094 398.941406 L 305.507812 398.9375 L 305.789062 398.929688 L 305.929688 398.929688 L 306.066406 398.925781 L 306.207031 398.921875 L 306.347656 398.921875 L 306.488281 398.917969 L 306.625 398.914062 L 306.765625 398.910156 L 306.90625 398.910156 L 307.046875 398.90625 L 307.183594 398.902344 L 307.324219 398.898438 L 307.464844 398.898438 L 307.605469 398.894531 L 307.742188 398.890625 L 307.882812 398.886719 L 308.023438 398.886719 L 308.164062 398.882812 L 308.300781 398.878906 L 308.582031 398.871094 L 308.71875 398.871094 L 309.140625 398.859375 L 309.277344 398.859375 L 309.699219 398.847656 L 309.835938 398.84375 L 309.976562 398.839844 L 310.117188 398.839844 L 310.257812 398.835938 L 310.394531 398.832031 L 310.816406 398.820312 L 310.953125 398.820312 L 311.234375 398.8125 L 311.371094 398.808594 L 311.652344 398.800781 L 311.792969 398.800781 L 311.929688 398.796875 L 312.351562 398.785156 L 312.488281 398.78125 L 312.910156 398.769531 L 313.046875 398.769531 L 313.46875 398.757812 L 313.605469 398.753906 L 314.027344 398.742188 L 314.164062 398.738281 L 314.445312 398.730469 L 314.582031 398.726562 L 315.003906 398.714844 L 315.140625 398.714844 L 315.5625 398.703125 L 315.699219 398.699219 L 316.121094 398.6875 L 316.257812 398.683594 L 316.679688 398.671875 L 316.816406 398.667969 L 317.097656 398.660156 L 317.234375 398.65625 L 317.515625 398.648438 L 317.65625 398.640625 L 317.792969 398.636719 L 318.214844 398.625 L 318.351562 398.621094 L 318.773438 398.609375 L 318.910156 398.605469 L 319.332031 398.59375 L 319.46875 398.589844 L 319.609375 398.582031 L 319.890625 398.574219 L 320.027344 398.570312 L 320.308594 398.5625 L 320.445312 398.558594 L 320.585938 398.554688 L 320.726562 398.546875 L 320.867188 398.542969 L 321.003906 398.539062 L 321.425781 398.527344 L 321.5625 398.519531 L 321.984375 398.507812 L 322.121094 398.503906 L 322.261719 398.5 L 322.402344 398.492188 L 322.542969 398.488281 L 322.679688 398.484375 L 322.820312 398.480469 L 322.960938 398.472656 L 323.097656 398.46875 L 323.519531 398.457031 L 323.65625 398.449219 L 324.078125 398.4375 L 324.214844 398.429688 L 324.496094 398.421875 L 324.636719 398.414062 L 324.773438 398.410156 L 325.054688 398.402344 L 325.195312 398.394531 L 325.332031 398.390625 L 325.472656 398.386719 L 325.613281 398.378906 L 325.753906 398.375 L 325.890625 398.371094 L 326.03125 398.363281 L 326.171875 398.359375 L 326.308594 398.355469 L 326.449219 398.347656 L 326.730469 398.339844 L 326.867188 398.332031 L 327.007812 398.328125 L 327.148438 398.320312 L 327.289062 398.316406 L 327.425781 398.3125 L 327.566406 398.304688 L 327.847656 398.296875 L 327.984375 398.289062 L 328.125 398.285156 L 328.265625 398.277344 L 328.40625 398.273438 L 328.542969 398.265625 L 328.824219 398.257812 L 328.960938 398.25 L 329.101562 398.246094 L 329.242188 398.238281 L 329.382812 398.234375 L 329.519531 398.226562 L 329.660156 398.222656 L 329.800781 398.214844 L 329.941406 398.210938 L 330.078125 398.203125 L 330.21875 398.199219 L 330.359375 398.191406 L 330.5 398.1875 L 330.636719 398.179688 L 330.777344 398.175781 L 330.917969 398.167969 L 331.058594 398.164062 L 331.195312 398.15625 L 331.335938 398.152344 L 331.617188 398.136719 L 331.753906 398.132812 L 331.894531 398.125 L 332.035156 398.121094 L 332.171875 398.113281 L 332.3125 398.109375 L 332.59375 398.09375 L 332.730469 398.089844 L 332.871094 398.082031 L 333.011719 398.078125 L 333.152344 398.070312 L 333.289062 398.0625 L 333.429688 398.058594 L 333.710938 398.042969 L 333.847656 398.039062 L 334.128906 398.023438 L 334.269531 398.019531 L 334.40625 398.011719 L 334.546875 398.003906 L 334.6875 398 L 334.828125 397.992188 L 334.964844 397.984375 L 335.105469 397.980469 L 335.246094 397.972656 L 335.382812 397.964844 L 335.523438 397.957031 L 335.664062 397.953125 L 335.804688 397.945312 L 335.941406 397.9375 L 336.082031 397.929688 L 336.222656 397.925781 L 336.363281 397.917969 L 336.5 397.910156 L 336.640625 397.902344 L 336.78125 397.898438 L 336.921875 397.890625 L 337.058594 397.882812 L 337.339844 397.867188 L 337.480469 397.863281 L 337.617188 397.855469 L 337.898438 397.839844 L 338.035156 397.832031 L 338.175781 397.824219 L 338.316406 397.820312 L 338.457031 397.8125 L 338.59375 397.804688 L 339.015625 397.78125 L 339.152344 397.773438 L 339.433594 397.757812 L 339.574219 397.753906 L 339.710938 397.746094 L 340.132812 397.722656 L 340.269531 397.714844 L 340.691406 397.691406 L 340.828125 397.683594 L 341.109375 397.667969 L 341.246094 397.660156 L 341.667969 397.636719 L 341.804688 397.628906 L 342.226562 397.605469 L 342.363281 397.597656 L 342.785156 397.574219 L 342.921875 397.5625 L 343.34375 397.539062 L 343.480469 397.53125 L 343.761719 397.515625 L 343.898438 397.507812 L 344.039062 397.5 L 344.179688 397.488281 L 344.320312 397.480469 L 344.457031 397.472656 L 344.878906 397.449219 L 345.015625 397.4375 L 345.4375 397.414062 L 345.574219 397.40625 L 345.714844 397.394531 L 345.996094 397.378906 L 346.132812 397.371094 L 346.273438 397.359375 L 346.554688 397.34375 L 346.691406 397.335938 L 346.832031 397.324219 L 346.972656 397.316406 L 347.109375 397.308594 L 347.25 397.296875 L 347.53125 397.28125 L 347.667969 397.273438 L 347.808594 397.261719 L 348.089844 397.246094 L 348.226562 397.234375 L 348.367188 397.226562 L 348.507812 397.214844 L 348.648438 397.207031 L 348.785156 397.199219 L 348.925781 397.1875 L 349.066406 397.179688 L 349.207031 397.167969 L 349.34375 397.160156 L 349.484375 397.152344 L 349.625 397.140625 L 349.761719 397.132812 L 349.902344 397.121094 L 350.042969 397.113281 L 350.183594 397.101562 L 350.320312 397.09375 L 350.460938 397.082031 L 350.742188 397.066406 L 350.878906 397.054688 L 351.019531 397.046875 L 351.300781 397.023438 L 351.4375 397.015625 L 351.578125 397.003906 L 351.71875 396.996094 L 351.859375 396.984375 L 351.996094 396.976562 L 352.136719 396.964844 L 352.277344 396.957031 L 352.417969 396.945312 L 352.554688 396.933594 L 352.695312 396.925781 L 352.835938 396.914062 L 352.972656 396.90625 L 353.253906 396.882812 L 353.394531 396.875 L 353.53125 396.863281 L 353.671875 396.851562 L 353.8125 396.84375 L 353.953125 396.832031 L 354.089844 396.820312 L 354.230469 396.8125 L 354.511719 396.789062 L 354.648438 396.78125 L 354.929688 396.757812 L 355.070312 396.75 L 355.207031 396.738281 L 355.488281 396.714844 L 355.628906 396.707031 L 355.765625 396.695312 L 356.046875 396.671875 L 356.183594 396.660156 L 356.324219 396.652344 L 356.605469 396.628906 L 356.742188 396.617188 L 357.023438 396.59375 L 357.164062 396.585938 L 357.300781 396.574219 L 357.722656 396.539062 L 357.859375 396.527344 L 358.140625 396.503906 L 358.28125 396.496094 L 358.417969 396.484375 L 358.699219 396.460938 L 358.835938 396.449219 L 359.257812 396.414062 L 359.394531 396.402344 L 359.816406 396.367188 L 359.953125 396.355469 L 360.375 396.320312 L 360.511719 396.308594 L 360.933594 396.273438 L 361.070312 396.261719 L 361.210938 396.246094 L 361.492188 396.222656 L 361.628906 396.210938 L 361.910156 396.1875 L 362.046875 396.175781 L 362.1875 396.164062 L 362.328125 396.148438 L 362.46875 396.136719 L 362.605469 396.125 L 363.027344 396.089844 L 363.164062 396.074219 L 363.585938 396.039062 L 363.722656 396.027344 L 363.863281 396.011719 L 364.144531 395.988281 L 364.28125 395.976562 L 364.421875 395.960938 L 364.5625 395.949219 L 364.699219 395.9375 L 364.839844 395.921875 L 365.121094 395.898438 L 365.257812 395.882812 L 365.539062 395.859375 L 365.679688 395.84375 L 365.816406 395.832031 L 365.957031 395.820312 L 366.097656 395.804688 L 366.238281 395.792969 L 366.375 395.78125 L 366.515625 395.765625 L 366.65625 395.753906 L 366.796875 395.738281 L 366.933594 395.726562 L 367.074219 395.710938 L 367.355469 395.6875 L 367.492188 395.671875 L 367.632812 395.660156 L 367.773438 395.644531 L 367.910156 395.632812 L 368.050781 395.617188 L 368.191406 395.605469 L 368.332031 395.589844 L 368.46875 395.578125 L 368.609375 395.5625 L 368.75 395.550781 L 368.890625 395.535156 L 369.027344 395.523438 L 369.308594 395.492188 L 369.449219 395.480469 L 369.585938 395.464844 L 369.726562 395.453125 L 370.007812 395.421875 L 370.144531 395.410156 L 370.285156 395.394531 L 370.425781 395.382812 L 370.5625 395.367188 L 370.703125 395.351562 L 370.84375 395.339844 L 370.984375 395.324219 L 371.121094 395.308594 L 371.261719 395.296875 L 371.542969 395.265625 L 371.679688 395.253906 L 372.101562 395.207031 L 372.238281 395.195312 L 372.660156 395.148438 L 372.796875 395.136719 L 373.21875 395.089844 L 373.355469 395.074219 L 373.496094 395.0625 L 373.636719 395.046875 L 373.773438 395.03125 L 374.195312 394.984375 L 374.332031 394.972656 L 374.753906 394.925781 L 374.890625 394.910156 L 375.3125 394.863281 L 375.449219 394.847656 L 375.589844 394.835938 L 375.871094 394.804688 L 376.007812 394.789062 L 376.429688 394.742188 L 376.566406 394.726562 L 376.847656 394.695312 L 376.984375 394.679688 L 377.40625 394.632812 L 377.542969 394.617188 L 377.683594 394.601562 L 377.824219 394.582031 L 377.964844 394.566406 L 378.101562 394.550781 L 378.523438 394.503906 L 378.660156 394.488281 L 379.082031 394.441406 L 379.21875 394.421875 L 379.5 394.390625 L 379.636719 394.375 L 379.917969 394.34375 L 380.058594 394.324219 L 380.195312 394.308594 L 380.617188 394.261719 L 380.753906 394.242188 L 381.175781 394.195312 L 381.3125 394.175781 L 381.59375 394.144531 L 381.734375 394.125 L 381.871094 394.109375 L 382.152344 394.078125 L 382.292969 394.058594 L 382.429688 394.042969 L 382.570312 394.027344 L 382.710938 394.007812 L 382.847656 393.992188 L 382.988281 393.976562 L 383.128906 393.957031 L 383.269531 393.941406 L 383.40625 393.921875 L 383.6875 393.890625 L 383.828125 393.871094 L 383.964844 393.855469 L 384.105469 393.835938 L 384.386719 393.804688 L 384.523438 393.785156 L 384.664062 393.769531 L 384.804688 393.75 L 384.945312 393.734375 L 385.082031 393.714844 L 385.222656 393.699219 L 385.363281 393.679688 L 385.5 393.664062 L 385.640625 393.644531 L 385.78125 393.628906 L 385.921875 393.609375 L 386.058594 393.59375 L 386.199219 393.574219 L 386.339844 393.558594 L 386.480469 393.539062 L 386.617188 393.523438 L 386.757812 393.503906 L 386.898438 393.488281 L 387.039062 393.46875 L 387.175781 393.453125 L 387.457031 393.414062 L 387.597656 393.398438 L 387.734375 393.378906 L 387.875 393.363281 L 388.15625 393.324219 L 388.292969 393.308594 L 388.574219 393.269531 L 388.710938 393.253906 L 388.992188 393.214844 L 389.132812 393.199219 L 389.269531 393.179688 L 389.410156 393.160156 L 389.550781 393.144531 L 389.691406 393.125 L 389.828125 393.105469 L 389.96875 393.089844 L 390.25 393.050781 L 390.386719 393.03125 L 390.527344 393.015625 L 390.808594 392.976562 L 390.945312 392.957031 L 391.085938 392.941406 L 391.226562 392.921875 L 391.363281 392.902344 L 391.503906 392.882812 L 391.644531 392.867188 L 391.785156 392.847656 L 391.921875 392.828125 L 392.34375 392.769531 L 392.480469 392.753906 L 392.902344 392.695312 L 393.039062 392.675781 L 393.179688 392.65625 L 393.320312 392.640625 L 393.460938 392.621094 L 393.597656 392.601562 L 394.019531 392.542969 L 394.15625 392.523438 L 394.4375 392.484375 L 394.574219 392.464844 L 394.714844 392.449219 L 394.996094 392.410156 L 395.132812 392.390625 L 395.554688 392.332031 L 395.691406 392.3125 L 396.113281 392.253906 L 396.25 392.234375 L 396.671875 392.175781 L 396.808594 392.15625 L 397.089844 392.117188 L 397.226562 392.097656 L 397.648438 392.039062 L 397.785156 392.019531 L 398.066406 391.980469 L 398.207031 391.957031 L 398.34375 391.9375 L 398.765625 391.878906 L 398.902344 391.859375 L 399.324219 391.800781 L 399.460938 391.78125 L 399.601562 391.757812 L 399.882812 391.71875 L 400.019531 391.699219 L 400.300781 391.660156 L 400.4375 391.640625 L 400.578125 391.621094 L 400.71875 391.597656 L 400.859375 391.578125 L 400.996094 391.558594 L 401.277344 391.519531 L 401.417969 391.496094 L 401.554688 391.476562 L 401.976562 391.417969 L 402.113281 391.398438 L 402.253906 391.375 L 402.535156 391.335938 L 402.671875 391.316406 L 402.8125 391.292969 L 403.09375 391.253906 L 403.230469 391.234375 L 403.371094 391.210938 L 403.511719 391.191406 L 403.648438 391.171875 L 403.789062 391.152344 L 403.929688 391.128906 L 404.070312 391.109375 L 404.207031 391.089844 L 404.347656 391.070312 L 404.488281 391.046875 L 404.628906 391.027344 L 404.765625 391.007812 L 404.90625 390.988281 L 405.046875 390.964844 L 405.1875 390.945312 L 405.324219 390.925781 L 405.464844 390.902344 L 405.746094 390.863281 L 405.882812 390.839844 L 406.164062 390.800781 L 406.300781 390.78125 L 406.441406 390.757812 L 406.722656 390.71875 L 406.859375 390.695312 L 407.140625 390.65625 L 407.28125 390.632812 L 407.417969 390.613281 L 407.558594 390.589844 L 407.839844 390.550781 L 407.976562 390.527344 L 408.257812 390.488281 L 408.398438 390.464844 L 408.535156 390.445312 L 408.675781 390.425781 L 408.816406 390.402344 L 408.957031 390.382812 L 409.09375 390.359375 L 409.375 390.320312 L 409.511719 390.296875 L 409.792969 390.257812 L 409.933594 390.234375 L 410.070312 390.214844 L 410.210938 390.191406 L 410.492188 390.152344 L 410.628906 390.128906 L 410.769531 390.109375 L 410.910156 390.085938 L 411.050781 390.066406 L 411.1875 390.042969 L 411.46875 390.003906 L 411.609375 389.980469 L 411.746094 389.960938 L 411.886719 389.9375 L 412.027344 389.917969 L 412.164062 389.898438 L 412.304688 389.875 L 412.445312 389.855469 L 412.585938 389.832031 L 412.722656 389.8125 L 412.863281 389.789062 L 413.144531 389.75 L 413.28125 389.726562 L 413.421875 389.707031 L 413.5625 389.683594 L 413.703125 389.664062 L 413.839844 389.640625 L 413.980469 389.621094 L 414.121094 389.597656 L 414.261719 389.578125 L 414.398438 389.558594 L 414.539062 389.535156 L 414.679688 389.515625 L 414.820312 389.492188 L 414.957031 389.472656 L 415.097656 389.449219 L 415.238281 389.429688 L 415.375 389.40625 L 415.65625 389.367188 L 415.796875 389.34375 L 415.933594 389.324219 L 416.074219 389.300781 L 416.214844 389.28125 L 416.355469 389.257812 L 416.492188 389.238281 L 416.632812 389.214844 L 416.773438 389.195312 L 416.914062 389.171875 L 417.050781 389.152344 L 417.191406 389.132812 L 417.332031 389.109375 L 417.472656 389.089844 L 417.609375 389.066406 L 417.75 389.046875 L 417.890625 389.023438 L 418.027344 389.003906 L 418.167969 388.980469 L 418.308594 388.960938 L 418.449219 388.9375 L 418.585938 388.917969 L 418.726562 388.898438 L 418.867188 388.875 L 419.007812 388.855469 L 419.144531 388.832031 L 419.285156 388.8125 L 419.425781 388.789062 L 419.566406 388.769531 L 419.703125 388.746094 L 419.84375 388.726562 L 419.984375 388.703125 L 420.125 388.683594 L 420.261719 388.664062 L 420.402344 388.640625 L 420.542969 388.621094 L 420.683594 388.597656 L 420.820312 388.578125 L 420.960938 388.554688 L 421.101562 388.535156 L 421.238281 388.515625 L 421.378906 388.492188 L 421.519531 388.472656 L 421.660156 388.449219 L 421.796875 388.429688 L 421.9375 388.40625 L 422.21875 388.367188 L 422.355469 388.34375 L 422.496094 388.324219 L 422.636719 388.300781 L 422.777344 388.28125 L 422.914062 388.257812 L 423.195312 388.21875 L 423.335938 388.195312 L 423.472656 388.175781 L 423.613281 388.152344 L 423.894531 388.113281 L 424.03125 388.089844 L 424.171875 388.070312 L 424.3125 388.046875 L 424.449219 388.027344 L 424.589844 388.007812 L 424.730469 387.984375 L 424.871094 387.964844 L 425.007812 387.941406 L 425.289062 387.902344 L 425.429688 387.878906 L 425.566406 387.859375 L 425.707031 387.839844 L 425.847656 387.816406 L 425.988281 387.796875 L 426.125 387.777344 L 426.265625 387.753906 L 426.40625 387.734375 L 426.546875 387.710938 L 426.683594 387.691406 L 426.824219 387.671875 L 426.964844 387.648438 L 427.101562 387.628906 L 427.242188 387.609375 L 427.382812 387.585938 L 427.523438 387.566406 L 427.660156 387.546875 L 427.800781 387.523438 L 428.082031 387.484375 L 428.21875 387.464844 L 428.359375 387.441406 L 428.640625 387.402344 L 428.777344 387.378906 L 429.199219 387.320312 L 429.335938 387.296875 L 429.617188 387.257812 L 429.757812 387.234375 L 429.894531 387.214844 L 430.175781 387.175781 L 430.3125 387.152344 L 430.734375 387.09375 L 430.871094 387.074219 L 431.011719 387.050781 L 431.292969 387.011719 L 431.429688 386.992188 L 431.570312 386.972656 L 431.710938 386.949219 L 431.851562 386.929688 L 431.988281 386.910156 L 432.269531 386.871094 L 432.410156 386.847656 L 432.546875 386.828125 L 432.828125 386.789062 L 432.964844 386.769531 L 433.246094 386.730469 L 433.386719 386.707031 L 433.523438 386.6875 L 433.945312 386.628906 L 434.082031 386.609375 L 434.503906 386.550781 L 434.640625 386.53125 L 434.921875 386.492188 L 435.0625 386.46875 L 435.199219 386.449219 L 435.621094 386.390625 L 435.757812 386.371094 L 436.039062 386.332031 L 436.175781 386.3125 L 436.597656 386.253906 L 436.734375 386.234375 L 437.015625 386.195312 L 437.15625 386.179688 L 437.292969 386.160156 L 437.714844 386.101562 L 437.851562 386.082031 L 438.273438 386.023438 L 438.410156 386.003906 L 438.550781 385.984375 L 438.691406 385.96875 L 438.828125 385.949219 L 439.25 385.890625 L 439.386719 385.871094 L 439.527344 385.855469 L 439.808594 385.816406 L 439.945312 385.796875 L 440.085938 385.777344 L 440.226562 385.761719 L 440.367188 385.742188 L 440.503906 385.722656 L 440.644531 385.703125 L 440.785156 385.6875 L 440.925781 385.667969 L 441.0625 385.648438 L 441.203125 385.628906 L 441.34375 385.613281 L 441.484375 385.59375 L 441.621094 385.574219 L 441.761719 385.558594 L 441.902344 385.539062 L 442.039062 385.519531 L 442.179688 385.503906 L 442.460938 385.464844 L 442.597656 385.449219 L 442.738281 385.429688 L 442.878906 385.414062 L 443.019531 385.394531 L 443.15625 385.375 L 443.296875 385.359375 L 443.4375 385.339844 L 443.578125 385.324219 L 443.714844 385.304688 L 443.855469 385.289062 L 443.996094 385.269531 L 444.136719 385.253906 L 444.273438 385.234375 L 444.414062 385.21875 L 444.554688 385.199219 L 444.695312 385.183594 L 444.832031 385.164062 L 444.972656 385.148438 L 445.113281 385.128906 L 445.25 385.113281 L 445.390625 385.09375 L 445.671875 385.0625 L 445.808594 385.042969 L 445.949219 385.027344 L 446.089844 385.007812 L 446.230469 384.992188 L 446.367188 384.976562 L 446.507812 384.957031 L 446.789062 384.925781 L 446.925781 384.90625 L 447.347656 384.859375 L 447.484375 384.839844 L 447.765625 384.808594 L 447.902344 384.792969 L 448.042969 384.773438 L 448.324219 384.742188 L 448.460938 384.726562 L 448.601562 384.710938 L 448.742188 384.691406 L 448.882812 384.675781 L 449.019531 384.660156 L 449.441406 384.613281 L 449.578125 384.597656 L 449.71875 384.582031 L 449.859375 384.5625 L 450 384.546875 L 450.136719 384.53125 L 450.558594 384.484375 L 450.695312 384.46875 L 450.976562 384.4375 L 451.113281 384.421875 L 451.394531 384.390625 L 451.535156 384.378906 L 451.671875 384.363281 L 452.09375 384.316406 L 452.230469 384.300781 L 452.511719 384.269531 L 452.652344 384.257812 L 452.789062 384.242188 L 453.210938 384.195312 L 453.347656 384.183594 L 453.628906 384.152344 L 453.765625 384.140625 L 454.1875 384.09375 L 454.324219 384.082031 L 454.605469 384.050781 L 454.746094 384.039062 L 454.882812 384.023438 L 455.023438 384.011719 L 455.304688 383.980469 L 455.441406 383.96875 L 455.582031 383.953125 L 455.722656 383.941406 L 455.863281 383.925781 L 456 383.914062 L 456.140625 383.898438 L 456.28125 383.886719 L 456.421875 383.871094 L 456.558594 383.859375 L 456.699219 383.847656 L 456.839844 383.832031 L 456.976562 383.820312 L 457.117188 383.804688 L 457.398438 383.78125 L 457.535156 383.765625 L 457.816406 383.742188 L 457.957031 383.726562 L 458.09375 383.714844 L 458.234375 383.703125 L 458.375 383.6875 L 458.515625 383.675781 L 458.652344 383.664062 L 458.933594 383.640625 L 459.074219 383.625 L 459.210938 383.613281 L 459.492188 383.589844 L 459.628906 383.578125 L 459.910156 383.554688 L 460.050781 383.539062 L 460.1875 383.527344 L 460.609375 383.492188 L 460.746094 383.480469 L 461.167969 383.445312 L 461.304688 383.433594 L 461.445312 383.425781 L 461.726562 383.402344 L 461.863281 383.390625 L 462.285156 383.355469 L 462.421875 383.34375 L 462.5625 383.335938 L 462.703125 383.324219 L 462.839844 383.3125 L 462.980469 383.300781 L 463.121094 383.292969 L 463.261719 383.28125 L 463.398438 383.269531 L 463.539062 383.257812 L 463.679688 383.25 L 463.820312 383.238281 L 463.957031 383.226562 L 464.097656 383.21875 L 464.238281 383.207031 L 464.378906 383.199219 L 464.515625 383.1875 L 464.65625 383.175781 L 464.796875 383.167969 L 464.9375 383.15625 L 465.074219 383.148438 L 465.214844 383.136719 L 465.355469 383.128906 L 465.496094 383.117188 L 465.632812 383.109375 L 465.773438 383.101562 L 465.914062 383.089844 L 466.050781 383.082031 L 466.191406 383.070312 L 466.472656 383.054688 L 466.609375 383.042969 L 466.890625 383.027344 L 467.03125 383.015625 L 467.167969 383.007812 L 467.449219 382.992188 L 467.589844 382.980469 L 467.726562 382.972656 L 468.148438 382.949219 L 468.285156 382.941406 L 468.425781 382.929688 L 468.566406 382.921875 L 468.703125 382.914062 L 469.125 382.890625 L 469.261719 382.882812 L 469.683594 382.859375 L 469.820312 382.851562 L 470.242188 382.828125 L 470.378906 382.824219 L 470.800781 382.800781 L 470.9375 382.792969 L 471.078125 382.785156 L 471.21875 382.78125 L 471.359375 382.773438 L 471.496094 382.765625 L 471.636719 382.757812 L 471.777344 382.753906 L 471.914062 382.746094 L 472.054688 382.738281 L 472.195312 382.734375 L 472.335938 382.726562 L 472.472656 382.722656 L 472.753906 382.707031 L 472.894531 382.703125 L 473.03125 382.695312 L 473.171875 382.691406 L 473.3125 382.683594 L 473.453125 382.679688 L 473.589844 382.671875 L 473.730469 382.667969 L 473.871094 382.660156 L 474.011719 382.65625 L 474.148438 382.652344 L 474.289062 382.644531 L 474.429688 382.640625 L 474.566406 382.632812 L 474.847656 382.625 L 474.988281 382.617188 L 475.125 382.613281 L 475.546875 382.601562 L 475.683594 382.59375 L 476.105469 382.582031 L 476.242188 382.578125 L 476.382812 382.574219 L 476.523438 382.566406 L 476.664062 382.5625 L 476.800781 382.558594 L 477.222656 382.546875 L 477.359375 382.542969 L 477.640625 382.535156 L 477.777344 382.53125 L 477.917969 382.53125 L 478.199219 382.523438 L 478.335938 382.519531 L 478.757812 382.507812 L 478.894531 382.507812 L 479.316406 382.496094 L 479.453125 382.496094 L 479.734375 382.488281 L 479.875 382.488281 L 480.011719 382.484375 L 480.152344 382.480469 L 480.292969 382.480469 L 480.429688 382.476562 L 480.570312 382.476562 L 480.710938 382.472656 L 480.851562 382.472656 L 480.988281 382.46875 L 481.128906 382.46875 L 481.269531 382.464844 L 481.410156 382.464844 L 481.546875 382.460938 L 481.6875 382.460938 L 481.828125 382.457031 L 482.105469 382.457031 L 482.246094 382.453125 L 482.527344 382.453125 L 482.664062 382.449219 L 483.222656 382.449219 L 483.363281 382.445312 L 484.339844 382.445312 L 484.480469 382.441406 L 484.898438 382.441406 L 485.039062 382.445312 L 486.15625 382.445312 L 486.292969 382.449219 L 486.714844 382.449219 L 486.851562 382.453125 L 487.132812 382.453125 L 487.273438 382.457031 L 487.550781 382.457031 L 487.691406 382.460938 L 487.96875 382.460938 L 488.109375 382.464844 L 488.25 382.464844 L 488.390625 382.46875 L 488.527344 382.46875 L 488.667969 382.472656 L 488.808594 382.472656 L 488.949219 382.476562 L 489.085938 382.476562 L 489.367188 382.484375 L 489.503906 382.484375 L 489.785156 382.492188 L 489.925781 382.492188 L 490.0625 382.496094 L 490.203125 382.5 L 490.34375 382.5 L 490.484375 382.503906 L 490.621094 382.507812 L 490.902344 382.515625 L 491.042969 382.515625 L 491.179688 382.519531 L 491.601562 382.53125 L 491.738281 382.535156 L 492.160156 382.546875 L 492.296875 382.550781 L 492.578125 382.558594 L 492.714844 382.5625 L 493.136719 382.574219 L 493.273438 382.578125 L 493.554688 382.585938 L 493.695312 382.59375 L 493.832031 382.597656 L 494.253906 382.609375 L 494.390625 382.617188 L 494.671875 382.625 L 494.8125 382.632812 L 494.949219 382.636719 L 495.089844 382.640625 L 495.230469 382.648438 L 495.367188 382.652344 L 495.507812 382.660156 L 495.789062 382.667969 L 495.925781 382.675781 L 496.066406 382.679688 L 496.207031 382.6875 L 496.347656 382.691406 L 496.484375 382.699219 L 496.625 382.703125 L 496.90625 382.71875 L 497.042969 382.722656 L 497.183594 382.730469 L 497.324219 382.734375 L 497.464844 382.742188 L 497.601562 382.75 L 497.742188 382.753906 L 498.023438 382.769531 L 498.160156 382.777344 L 498.300781 382.78125 L 498.441406 382.789062 L 498.578125 382.796875 L 498.859375 382.8125 L 499 382.816406 L 499.136719 382.824219 L 499.558594 382.847656 L 499.695312 382.855469 L 500.117188 382.878906 L 500.253906 382.886719 L 500.675781 382.910156 L 500.8125 382.917969 L 501.09375 382.933594 L 501.230469 382.941406 L 501.371094 382.953125 L 501.652344 382.96875 L 501.789062 382.976562 L 501.929688 382.984375 L 502.070312 382.996094 L 502.210938 383.003906 L 502.347656 383.011719 L 502.488281 383.019531 L 502.628906 383.03125 L 502.769531 383.039062 L 502.90625 383.046875 L 503.046875 383.058594 L 503.328125 383.074219 L 503.464844 383.085938 L 503.605469 383.09375 L 503.746094 383.105469 L 503.886719 383.113281 L 504.023438 383.121094 L 504.164062 383.132812 L 504.304688 383.140625 L 504.441406 383.152344 L 504.582031 383.160156 L 504.863281 383.183594 L 505 383.191406 L 505.140625 383.203125 L 505.28125 383.210938 L 505.421875 383.222656 L 505.558594 383.234375 L 505.699219 383.242188 L 505.980469 383.265625 L 506.117188 383.273438 L 506.398438 383.296875 L 506.539062 383.304688 L 506.675781 383.316406 L 506.957031 383.339844 L 507.09375 383.351562 L 507.234375 383.359375 L 507.515625 383.382812 L 507.652344 383.394531 L 508.074219 383.429688 L 508.210938 383.441406 L 508.632812 383.476562 L 508.769531 383.488281 L 509.191406 383.523438 L 509.328125 383.535156 L 509.75 383.570312 L 509.886719 383.582031 L 510.167969 383.605469 L 510.304688 383.621094 L 510.726562 383.65625 L 510.863281 383.667969 L 511.003906 383.683594 L 511.285156 383.707031 L 511.421875 383.71875 L 511.5625 383.734375 L 511.84375 383.757812 L 511.980469 383.773438 L 512.261719 383.796875 L 512.402344 383.8125 L 512.539062 383.824219 L 512.679688 383.839844 L 512.960938 383.863281 L 513.097656 383.878906 L 513.238281 383.890625 L 513.378906 383.90625 L 513.515625 383.917969 L 513.65625 383.933594 L 513.796875 383.945312 L 513.9375 383.960938 L 514.074219 383.972656 L 514.355469 384.003906 L 514.496094 384.015625 L 514.632812 384.03125 L 514.773438 384.042969 L 515.054688 384.074219 L 515.191406 384.085938 L 515.472656 384.117188 L 515.613281 384.128906 L 515.75 384.144531 L 516.03125 384.175781 L 516.167969 384.1875 L 516.589844 384.234375 L 516.726562 384.246094 L 517.148438 384.292969 L 517.285156 384.308594 L 517.425781 384.324219 L 517.566406 384.335938 L 517.707031 384.351562 L 517.84375 384.367188 L 518.265625 384.414062 L 518.402344 384.429688 L 518.824219 384.476562 L 518.960938 384.492188 L 519.242188 384.523438 L 519.378906 384.539062 L 519.800781 384.585938 L 519.9375 384.601562 L 520.078125 384.617188 L 520.21875 384.636719 L 520.359375 384.652344 L 520.496094 384.667969 L 520.917969 384.714844 L 521.054688 384.730469 L 521.195312 384.75 L 521.476562 384.78125 L 521.613281 384.796875 L 521.753906 384.816406 L 521.894531 384.832031 L 522.03125 384.847656 L 522.171875 384.863281 L 522.3125 384.882812 L 522.453125 384.898438 L 522.589844 384.914062 L 522.730469 384.929688 L 522.871094 384.949219 L 523.011719 384.964844 L 523.148438 384.980469 L 523.289062 385 L 523.429688 385.015625 L 523.570312 385.035156 L 523.707031 385.050781 L 523.847656 385.066406 L 523.988281 385.085938 L 524.128906 385.101562 L 524.265625 385.121094 L 524.40625 385.136719 L 524.546875 385.15625 L 524.6875 385.171875 L 524.824219 385.1875 L 524.964844 385.207031 L 525.105469 385.222656 L 525.242188 385.242188 L 525.382812 385.257812 L 525.664062 385.296875 L 525.800781 385.3125 L 525.941406 385.332031 L 526.082031 385.347656 L 526.222656 385.367188 L 526.359375 385.382812 L 526.640625 385.421875 L 526.78125 385.4375 L 526.917969 385.457031 L 527.058594 385.472656 L 527.339844 385.511719 L 527.476562 385.527344 L 527.757812 385.566406 L 527.894531 385.582031 L 528.175781 385.621094 L 528.316406 385.636719 L 528.453125 385.65625 L 528.734375 385.695312 L 528.875 385.710938 L 529.011719 385.730469 L 529.292969 385.769531 L 529.433594 385.785156 L 529.570312 385.804688 L 529.992188 385.863281 L 530.128906 385.878906 L 530.550781 385.9375 L 530.6875 385.957031 L 530.828125 385.976562 L 530.96875 385.992188 L 531.105469 386.011719 L 531.527344 386.070312 L 531.664062 386.089844 L 532.085938 386.148438 L 532.222656 386.167969 L 532.503906 386.207031 L 532.644531 386.222656 L 532.78125 386.242188 L 533.203125 386.300781 L 533.339844 386.320312 L 533.761719 386.378906 L 533.898438 386.398438 L 534.179688 386.4375 L 534.316406 386.460938 L 534.738281 386.519531 L 534.875 386.539062 L 535.296875 386.597656 L 535.433594 386.617188 L 535.855469 386.675781 L 535.992188 386.699219 L 536.414062 386.757812 L 536.550781 386.777344 L 536.832031 386.816406 L 536.96875 386.835938 L 537.109375 386.859375 L 537.390625 386.898438 L 537.527344 386.917969 L 537.667969 386.9375 L 537.808594 386.960938 L 537.949219 386.980469 L 538.085938 387 L 538.367188 387.039062 L 538.507812 387.0625 L 538.644531 387.082031 L 539.066406 387.140625 L 539.203125 387.164062 L 539.625 387.222656 L 539.761719 387.246094 L 540.042969 387.285156 L 540.179688 387.304688 L 540.320312 387.328125 L 540.601562 387.367188 L 540.738281 387.390625 L 541.160156 387.449219 L 541.296875 387.472656 L 541.578125 387.511719 L 541.71875 387.535156 L 541.855469 387.554688 L 541.996094 387.574219 L 542.136719 387.597656 L 542.277344 387.617188 L 542.414062 387.636719 L 542.554688 387.660156 L 542.695312 387.679688 L 542.832031 387.699219 L 542.972656 387.722656 L 543.253906 387.761719 L 543.390625 387.785156 L 543.671875 387.824219 L 543.8125 387.847656 L 543.949219 387.867188 L 544.089844 387.890625 L 544.371094 387.929688 L 544.507812 387.953125 L 544.789062 387.992188 L 544.929688 388.015625 L 545.066406 388.035156 L 545.207031 388.058594 L 545.488281 388.097656 L 545.625 388.121094 L 545.765625 388.140625 L 545.90625 388.164062 L 546.042969 388.183594 L 546.183594 388.203125 L 546.324219 388.226562 L 546.464844 388.246094 L 546.601562 388.269531 L 546.742188 388.289062 L 546.882812 388.3125 L 547.023438 388.332031 L 547.160156 388.351562 L 547.300781 388.375 L 547.441406 388.394531 L 547.582031 388.417969 L 547.71875 388.4375 L 547.859375 388.460938 L 548.140625 388.5 L 548.277344 388.523438 L 548.417969 388.542969 L 548.558594 388.566406 L 548.695312 388.585938 L 548.835938 388.609375 L 549.117188 388.648438 L 549.253906 388.671875 L 549.394531 388.691406 L 549.535156 388.714844 L 549.675781 388.734375 L 549.8125 388.757812 L 549.953125 388.777344 L 550.09375 388.800781 L 550.234375 388.820312 L 550.371094 388.839844 L 550.511719 388.863281 L 550.652344 388.882812 L 550.792969 388.90625 L 550.929688 388.925781 L 551.070312 388.949219 L 551.210938 388.96875 L 551.351562 388.992188 L 551.488281 389.011719 L 551.628906 389.035156 L 551.769531 389.054688 L 551.90625 389.074219 L 552.046875 389.097656 L 552.1875 389.117188 L 552.328125 389.140625 L 552.464844 389.160156 L 552.605469 389.183594 L 552.746094 389.203125 L 552.886719 389.226562 L 553.023438 389.246094 L 553.164062 389.269531 L 553.445312 389.308594 L 553.582031 389.332031 L 553.722656 389.351562 L 553.863281 389.375 L 554.003906 389.394531 L 554.140625 389.417969 L 554.28125 389.4375 L 554.421875 389.460938 L 554.5625 389.480469 L 554.699219 389.503906 L 554.980469 389.542969 L 555.117188 389.566406 L 555.257812 389.585938 L 555.398438 389.609375 L 555.539062 389.628906 L 555.675781 389.652344 L 555.816406 389.671875 L 555.957031 389.695312 L 556.097656 389.714844 L 556.234375 389.734375 L 556.375 389.757812 L 556.515625 389.777344 L 556.65625 389.800781 L 556.792969 389.820312 L 556.933594 389.84375 L 557.214844 389.882812 L 557.351562 389.90625 L 557.492188 389.925781 L 557.632812 389.949219 L 557.769531 389.96875 L 557.910156 389.992188 L 558.191406 390.03125 L 558.328125 390.054688 L 558.46875 390.074219 L 558.609375 390.097656 L 558.75 390.117188 L 558.886719 390.136719 L 559.027344 390.160156 L 559.167969 390.179688 L 559.308594 390.203125 L 559.445312 390.222656 L 559.585938 390.242188 L 559.726562 390.265625 L 559.867188 390.285156 L 560.003906 390.308594 L 560.285156 390.347656 L 560.425781 390.371094 L 560.5625 390.390625 L 560.703125 390.410156 L 560.84375 390.433594 L 560.980469 390.453125 L 561.121094 390.476562 L 561.402344 390.515625 L 561.539062 390.539062 L 561.820312 390.578125 L 561.960938 390.601562 L 562.097656 390.621094 L 562.238281 390.640625 L 562.378906 390.664062 L 562.519531 390.683594 L 562.65625 390.703125 L 562.796875 390.726562 L 563.078125 390.765625 L 563.214844 390.789062 L 563.496094 390.828125 L 563.632812 390.851562 L 563.914062 390.890625 L 564.054688 390.914062 L 564.191406 390.933594 L 564.472656 390.972656 L 564.613281 390.996094 L 564.75 391.015625 L 564.890625 391.035156 L 565.03125 391.058594 L 565.171875 391.078125 L 565.308594 391.097656 L 565.449219 391.117188 L 565.589844 391.140625 L 565.730469 391.160156 L 565.867188 391.179688 L 566.007812 391.199219 L 566.148438 391.222656 L 566.289062 391.242188 L 566.425781 391.261719 L 566.566406 391.28125 L 566.707031 391.304688 L 566.84375 391.324219 L 567.265625 391.382812 L 567.402344 391.40625 L 567.824219 391.464844 L 567.960938 391.484375 L 568.101562 391.507812 L 568.382812 391.546875 L 568.519531 391.566406 L 568.660156 391.585938 L 568.800781 391.609375 L 568.941406 391.628906 L 569.078125 391.648438 L 569.359375 391.6875 L 569.496094 391.707031 L 569.636719 391.726562 L 569.777344 391.75 L 569.917969 391.769531 L 570.054688 391.789062 L 570.476562 391.847656 L 570.613281 391.867188 L 571.035156 391.925781 L 571.171875 391.949219 L 571.59375 392.007812 L 571.730469 392.027344 L 572.152344 392.085938 L 572.289062 392.105469 L 572.570312 392.144531 L 572.707031 392.164062 L 573.128906 392.222656 L 573.265625 392.242188 L 573.6875 392.300781 L 573.824219 392.320312 L 574.246094 392.378906 L 574.382812 392.398438 L 574.804688 392.457031 L 574.941406 392.476562 L 575.082031 392.492188 L 575.222656 392.511719 L 575.359375 392.53125 L 575.78125 392.589844 L 575.917969 392.609375 L 576.199219 392.648438 L 576.339844 392.664062 L 576.476562 392.683594 L 576.898438 392.742188 L 577.035156 392.761719 L 577.175781 392.78125 L 577.316406 392.796875 L 577.457031 392.816406 L 577.59375 392.835938 L 577.875 392.875 L 578.015625 392.890625 L 578.152344 392.910156 L 578.433594 392.949219 L 578.570312 392.964844 L 578.992188 393.023438 L 579.128906 393.039062 L 579.550781 393.097656 L 579.6875 393.113281 L 579.96875 393.152344 L 580.109375 393.167969 L 580.246094 393.1875 L 580.386719 393.207031 L 580.527344 393.222656 L 580.667969 393.242188 L 580.804688 393.261719 L 580.945312 393.277344 L 581.226562 393.316406 L 581.363281 393.332031 L 581.503906 393.351562 L 581.644531 393.367188 L 581.78125 393.386719 L 581.921875 393.40625 L 582.0625 393.421875 L 582.203125 393.441406 L 582.339844 393.457031 L 582.621094 393.496094 L 582.761719 393.511719 L 582.898438 393.53125 L 583.039062 393.546875 L 583.179688 393.566406 L 583.320312 393.582031 L 583.457031 393.601562 L 583.597656 393.617188 L 583.738281 393.636719 L 583.878906 393.652344 L 584.015625 393.671875 L 584.15625 393.6875 L 584.296875 393.707031 L 584.433594 393.722656 L 584.574219 393.742188 L 584.714844 393.757812 L 584.855469 393.777344 L 584.992188 393.792969 L 585.132812 393.808594 L 585.273438 393.828125 L 585.414062 393.84375 L 585.550781 393.863281 L 585.691406 393.878906 L 585.832031 393.898438 L 585.972656 393.914062 L 586.109375 393.929688 L 586.25 393.949219 L 586.53125 393.980469 L 586.667969 394 L 586.949219 394.03125 L 587.089844 394.050781 L 587.226562 394.066406 L 587.367188 394.082031 L 587.507812 394.101562 L 587.644531 394.117188 L 587.785156 394.132812 L 587.925781 394.152344 L 588.066406 394.167969 L 588.203125 394.183594 L 588.34375 394.199219 L 588.484375 394.21875 L 588.625 394.234375 L 588.761719 394.25 L 588.902344 394.265625 L 589.042969 394.285156 L 589.183594 394.300781 L 589.320312 394.316406 L 589.742188 394.363281 L 589.878906 394.382812 L 590.160156 394.414062 L 590.296875 394.429688 L 590.578125 394.460938 L 590.71875 394.480469 L 590.855469 394.496094 L 591.277344 394.542969 L 591.414062 394.558594 L 591.835938 394.605469 L 591.972656 394.621094 L 592.394531 394.667969 L 592.53125 394.683594 L 592.953125 394.730469 L 593.089844 394.746094 L 593.371094 394.777344 L 593.507812 394.792969 L 593.929688 394.839844 L 594.066406 394.855469 L 594.488281 394.902344 L 594.625 394.917969 L 594.765625 394.933594 L 594.90625 394.945312 L 595.046875 394.960938 L 595.183594 394.976562 L 595.605469 395.023438 L 595.742188 395.039062 L 595.882812 395.050781 L 596.023438 395.066406 L 596.160156 395.082031 L 596.441406 395.113281 L 596.582031 395.125 L 596.71875 395.140625 L 597 395.171875 L 597.140625 395.183594 L 597.277344 395.199219 L 597.558594 395.230469 L 597.699219 395.242188 L 597.835938 395.257812 L 598.117188 395.289062 L 598.257812 395.300781 L 598.394531 395.316406 L 598.535156 395.332031 L 598.675781 395.34375 L 598.816406 395.359375 L 598.953125 395.375 L 599.09375 395.386719 L 599.234375 395.402344 L 599.371094 395.414062 L 599.652344 395.445312 L 599.792969 395.457031 L 599.929688 395.472656 L 600.070312 395.484375 L 600.210938 395.5 L 600.351562 395.511719 L 600.488281 395.527344 L 600.628906 395.542969 L 600.769531 395.554688 L 600.910156 395.570312 L 601.046875 395.582031 L 601.1875 395.597656 L 601.328125 395.609375 L 601.46875 395.625 L 601.605469 395.636719 L 601.746094 395.652344 L 601.886719 395.664062 L 602.027344 395.679688 L 602.164062 395.691406 L 602.304688 395.703125 L 602.445312 395.71875 L 602.582031 395.730469 L 602.722656 395.746094 L 602.863281 395.757812 L 603.003906 395.773438 L 603.140625 395.785156 L 603.28125 395.796875 L 603.421875 395.8125 L 603.5625 395.824219 L 603.699219 395.835938 L 603.839844 395.851562 L 604.121094 395.875 L 604.257812 395.890625 L 604.539062 395.914062 L 604.679688 395.929688 L 604.816406 395.941406 L 604.957031 395.953125 L 605.097656 395.96875 L 605.234375 395.980469 L 605.515625 396.003906 L 605.65625 396.019531 L 605.792969 396.03125 L 606.074219 396.054688 L 606.214844 396.070312 L 606.351562 396.082031 L 606.773438 396.117188 L 606.910156 396.128906 L 607.050781 396.144531 L 607.332031 396.167969 L 607.46875 396.179688 L 607.890625 396.214844 L 608.027344 396.230469 L 608.308594 396.253906 L 608.445312 396.265625 L 608.867188 396.300781 L 609.003906 396.3125 L 609.425781 396.347656 L 609.5625 396.359375 L 609.984375 396.394531 L 610.121094 396.40625 L 610.542969 396.441406 L 610.679688 396.453125 L 610.960938 396.476562 L 611.097656 396.488281 L 611.519531 396.523438 L 611.65625 396.53125 L 612.078125 396.566406 L 612.214844 396.578125 L 612.496094 396.601562 L 612.636719 396.609375 L 612.773438 396.621094 L 613.195312 396.65625 L 613.332031 396.667969 L 613.472656 396.675781 L 613.753906 396.699219 L 613.890625 396.710938 L 614.03125 396.71875 L 614.171875 396.730469 L 614.308594 396.742188 L 614.449219 396.753906 L 614.589844 396.761719 L 614.730469 396.773438 L 614.867188 396.785156 L 615.007812 396.796875 L 615.148438 396.804688 L 615.289062 396.816406 L 615.425781 396.828125 L 615.566406 396.835938 L 615.847656 396.859375 L 615.984375 396.867188 L 616.125 396.878906 L 616.265625 396.886719 L 616.40625 396.898438 L 616.542969 396.910156 L 616.683594 396.917969 L 616.824219 396.929688 L 616.960938 396.941406 L 617.101562 396.949219 L 617.242188 396.960938 L 617.382812 396.96875 L 617.519531 396.980469 L 617.660156 396.988281 L 617.800781 397 L 617.941406 397.007812 L 618.078125 397.019531 L 618.21875 397.03125 L 618.359375 397.039062 L 618.5 397.050781 L 618.636719 397.058594 L 618.777344 397.070312 L 618.917969 397.078125 L 619.058594 397.089844 L 619.195312 397.097656 L 619.335938 397.105469 L 619.476562 397.117188 L 619.617188 397.125 L 619.753906 397.136719 L 619.894531 397.144531 L 620.035156 397.15625 L 620.171875 397.164062 L 620.3125 397.171875 L 620.453125 397.183594 L 620.59375 397.191406 L 620.730469 397.203125 L 621.011719 397.21875 L 621.152344 397.230469 L 621.289062 397.238281 L 621.429688 397.25 L 621.710938 397.265625 L 621.847656 397.277344 L 622.269531 397.300781 L 622.40625 397.3125 L 622.6875 397.328125 L 622.828125 397.339844 L 622.964844 397.347656 L 623.246094 397.363281 L 623.382812 397.375 L 623.804688 397.398438 L 623.941406 397.410156 L 624.363281 397.433594 L 624.5 397.441406 L 624.640625 397.453125 L 624.921875 397.46875 L 625.058594 397.476562 L 625.480469 397.5 L 625.617188 397.511719 L 625.898438 397.527344 L 626.035156 397.535156 L 626.457031 397.558594 L 626.59375 397.566406 L 626.734375 397.574219 L 626.875 397.585938 L 627.015625 397.59375 L 627.152344 397.601562 L 627.574219 397.625 L 627.710938 397.632812 L 628.132812 397.65625 L 628.269531 397.664062 L 628.691406 397.6875 L 628.828125 397.695312 L 629.109375 397.710938 L 629.246094 397.71875 L 629.527344 397.734375 L 629.667969 397.738281 L 629.804688 397.746094 L 630.226562 397.769531 L 630.363281 397.777344 L 630.785156 397.800781 L 630.921875 397.808594 L 631.0625 397.8125 L 631.34375 397.828125 L 631.480469 397.835938 L 631.761719 397.851562 L 631.898438 397.855469 L 632.320312 397.878906 L 632.457031 397.886719 L 632.597656 397.894531 L 632.738281 397.898438 L 632.878906 397.90625 L 633.015625 397.914062 L 633.15625 397.921875 L 633.296875 397.925781 L 633.4375 397.933594 L 633.574219 397.941406 L 633.714844 397.949219 L 633.855469 397.953125 L 633.996094 397.960938 L 634.132812 397.96875 L 634.273438 397.976562 L 634.414062 397.980469 L 634.554688 397.988281 L 634.691406 397.996094 L 634.832031 398 L 634.972656 398.007812 L 635.109375 398.015625 L 635.25 398.019531 L 635.53125 398.035156 L 635.667969 398.039062 L 635.949219 398.054688 L 636.089844 398.058594 L 636.226562 398.066406 L 636.367188 398.074219 L 636.507812 398.078125 L 636.648438 398.085938 L 636.785156 398.089844 L 637.066406 398.105469 L 637.207031 398.109375 L 637.34375 398.117188 L 637.484375 398.121094 L 637.625 398.128906 L 637.761719 398.136719 L 637.902344 398.140625 L 638.042969 398.148438 L 638.183594 398.152344 L 638.320312 398.160156 L 638.460938 398.164062 L 638.601562 398.171875 L 638.742188 398.175781 L 638.878906 398.183594 L 639.019531 398.1875 L 639.160156 398.195312 L 639.300781 398.199219 L 639.4375 398.207031 L 639.578125 398.210938 L 639.71875 398.21875 L 639.859375 398.222656 L 639.996094 398.230469 L 640.136719 398.234375 L 640.277344 398.242188 L 640.417969 398.246094 L 640.554688 398.253906 L 640.695312 398.257812 L 640.835938 398.265625 L 640.972656 398.269531 L 641.113281 398.273438 L 641.253906 398.28125 L 641.394531 398.285156 L 641.53125 398.292969 L 641.8125 398.300781 L 641.953125 398.308594 L 642.089844 398.3125 L 642.230469 398.320312 L 642.511719 398.328125 L 642.648438 398.335938 L 642.789062 398.339844 L 642.929688 398.347656 L 643.070312 398.351562 L 643.207031 398.355469 L 643.347656 398.363281 L 643.628906 398.371094 L 643.765625 398.378906 L 644.046875 398.386719 L 644.183594 398.390625 L 644.324219 398.398438 L 644.605469 398.40625 L 644.742188 398.414062 L 645.023438 398.421875 L 645.164062 398.429688 L 645.300781 398.433594 L 645.582031 398.441406 L 645.722656 398.449219 L 645.859375 398.453125 L 646.140625 398.460938 L 646.28125 398.46875 L 646.417969 398.472656 L 646.699219 398.480469 L 646.835938 398.484375 L 646.976562 398.492188 L 647.257812 398.5 L 647.394531 398.503906 L 647.535156 398.507812 L 647.675781 398.515625 L 647.816406 398.519531 L 647.953125 398.523438 L 648.375 398.535156 L 648.511719 398.542969 L 648.933594 398.554688 L 649.070312 398.558594 L 649.351562 398.566406 L 649.492188 398.574219 L 649.628906 398.578125 L 649.910156 398.585938 L 650.046875 398.589844 L 650.46875 398.601562 L 650.605469 398.605469 L 650.746094 398.609375 L 650.886719 398.617188 L 651.027344 398.621094 L 651.164062 398.625 L 651.585938 398.636719 L 651.722656 398.640625 L 652.144531 398.652344 L 652.28125 398.65625 L 652.5625 398.664062 L 652.699219 398.667969 L 653.121094 398.679688 L 653.257812 398.683594 L 653.679688 398.695312 L 653.816406 398.699219 L 654.238281 398.710938 L 654.375 398.714844 L 654.796875 398.726562 L 654.933594 398.730469 L 655.355469 398.742188 L 655.492188 398.746094 L 655.632812 398.746094 L 655.773438 398.75 L 655.910156 398.753906 L 656.332031 398.765625 L 656.46875 398.769531 L 656.890625 398.78125 L 657.027344 398.78125 L 657.449219 398.792969 L 657.585938 398.796875 L 658.007812 398.808594 L 658.144531 398.808594 L 658.425781 398.816406 L 658.5625 398.820312 L 658.984375 398.832031 L 659.121094 398.832031 L 659.542969 398.84375 L 659.679688 398.847656 L 659.820312 398.847656 L 660.101562 398.855469 L 660.238281 398.859375 L 660.378906 398.863281 L 660.519531 398.863281 L 660.660156 398.867188 L 660.796875 398.871094 L 661.078125 398.878906 L 661.21875 398.878906 L 661.355469 398.882812 L 661.636719 398.890625 L 661.773438 398.890625 L 662.195312 398.902344 L 662.332031 398.902344 L 662.753906 398.914062 L 662.890625 398.914062 L 663.3125 398.925781 L 663.449219 398.925781 L 663.730469 398.933594 L 663.871094 398.933594 L 664.007812 398.9375 L 664.289062 398.945312 L 664.425781 398.945312 L 664.707031 398.953125 L 664.847656 398.953125 L 664.984375 398.957031 L 665.125 398.960938 L 665.265625 398.960938 L 665.40625 398.964844 L 665.542969 398.96875 L 665.683594 398.96875 L 665.964844 398.976562 L 666.101562 398.976562 L 666.382812 398.984375 L 666.523438 398.984375 L 666.660156 398.988281 L 666.800781 398.992188 L 666.941406 398.992188 L 667.082031 398.996094 L 667.21875 398.996094 L 667.5 399.003906 L 667.636719 399.003906 L 667.917969 399.011719 L 668.058594 399.011719 L 668.195312 399.015625 L 668.335938 399.015625 L 668.617188 399.023438 L 668.753906 399.023438 L 668.894531 399.027344 L 669.035156 399.027344 L 669.175781 399.03125 L 669.3125 399.035156 L 669.453125 399.035156 L 669.59375 399.039062 L 669.734375 399.039062 L 669.871094 399.042969 L 670.011719 399.042969 L 670.292969 399.050781 L 670.429688 399.050781 L 670.570312 399.054688 L 670.710938 399.054688 L 670.847656 399.058594 L 670.988281 399.058594 L 671.269531 399.066406 L 671.40625 399.066406 L 671.546875 399.070312 L 671.6875 399.070312 L 671.828125 399.074219 L 671.964844 399.074219 L 672.105469 399.078125 L 672.246094 399.078125 L 672.386719 399.082031 L 672.523438 399.082031 L 672.664062 399.085938 L 672.804688 399.085938 L 672.945312 399.089844 L 673.082031 399.089844 L 673.222656 399.09375 L 673.363281 399.09375 L 673.5 399.097656 L 673.640625 399.097656 L 673.78125 399.101562 L 673.921875 399.101562 L 674.058594 399.105469 L 674.199219 399.105469 L 674.339844 399.109375 L 674.480469 399.109375 L 674.617188 399.113281 L 674.757812 399.113281 L 674.898438 399.117188 L 675.039062 399.117188 L 675.175781 399.121094 L 675.316406 399.121094 L 675.457031 399.125 L 675.597656 399.125 L 675.734375 399.128906 L 675.875 399.128906 L 676.015625 399.132812 L 676.15625 399.132812 L 676.292969 399.136719 L 676.574219 399.136719 L 676.710938 399.140625 L 676.851562 399.140625 L 676.992188 399.144531 L 677.132812 399.144531 L 677.269531 399.148438 L 677.410156 399.148438 L 677.550781 399.152344 L 677.828125 399.152344 L 677.96875 399.15625 L 678.109375 399.15625 L 678.25 399.160156 L 678.386719 399.160156 L 678.527344 399.164062 L 678.808594 399.164062 L 678.945312 399.167969 L 679.085938 399.167969 L 679.226562 399.171875 L 679.503906 399.171875 L 679.644531 399.175781 L 679.785156 399.175781 L 679.921875 399.179688 L 680.203125 399.179688 L 680.34375 399.183594 L 680.480469 399.183594 L 680.621094 399.1875 L 680.902344 399.1875 L 681.039062 399.191406 L 681.179688 399.191406 L 681.320312 399.195312 L 681.597656 399.195312 L 681.738281 399.199219 L 682.019531 399.199219 L 682.15625 399.203125 L 682.296875 399.203125 L 682.4375 399.207031 L 682.714844 399.207031 L 682.855469 399.210938 L 683.132812 399.210938 L 683.273438 399.214844 L 683.554688 399.214844 L 683.691406 399.21875 L 683.972656 399.21875 L 684.113281 399.222656 L 684.390625 399.222656 L 684.53125 399.226562 L 684.808594 399.226562 L 684.949219 399.230469 L 685.226562 399.230469 L 685.367188 399.234375 L 685.648438 399.234375 L 685.785156 399.238281 L 686.066406 399.238281 L 686.207031 399.242188 L 686.484375 399.242188 L 686.625 399.246094 L 686.902344 399.246094 L 687.042969 399.25 L 687.460938 399.25 L 687.601562 399.253906 L 687.882812 399.253906 L 688.019531 399.257812 L 688.4375 399.257812 L 688.578125 399.261719 L 688.859375 399.261719 L 688.996094 399.265625 L 689.417969 399.265625 L 689.554688 399.269531 L 689.835938 399.269531 L 689.976562 399.273438 L 690.394531 399.273438 L 690.535156 399.277344 L 690.953125 399.277344 L 691.09375 399.28125 L 691.511719 399.28125 L 691.648438 399.285156 L 692.070312 399.285156 L 692.207031 399.289062 L 692.628906 399.289062 L 692.765625 399.292969 L 693.1875 399.292969 L 693.324219 399.296875 L 693.746094 399.296875 L 693.882812 399.300781 L 694.441406 399.300781 L 694.582031 399.304688 L 695 399.304688 L 695.140625 399.308594 L 695.699219 399.308594 L 695.839844 399.3125 L 696.398438 399.3125 L 696.535156 399.316406 L 697.09375 399.316406 L 697.234375 399.320312 L 697.792969 399.320312 L 697.933594 399.324219 L 698.492188 399.324219 L 698.628906 399.328125 L 699.1875 399.328125 L 699.328125 399.332031 L 700.027344 399.332031 L 700.164062 399.335938 L 700.863281 399.335938 L 701.003906 399.339844 L 701.5625 399.339844 L 701.703125 399.34375 L 702.539062 399.34375 L 702.679688 399.347656 L 703.375 399.347656 L 703.515625 399.351562 L 704.355469 399.351562 L 704.492188 399.355469 L 705.332031 399.355469 L 705.472656 399.359375 L 706.308594 399.359375 L 706.449219 399.363281 L 707.285156 399.363281 L 707.425781 399.367188 L 708.402344 399.367188 L 708.542969 399.371094 L 709.660156 399.371094 L 709.796875 399.375 L 710.777344 399.375 L 710.914062 399.378906 L 712.171875 399.378906 L 712.3125 399.382812 L 713.566406 399.382812 L 713.707031 399.386719 L 714.964844 399.386719 L 715.101562 399.390625 L 716.5 399.390625 L 716.640625 399.394531 L 718.3125 399.394531 L 718.453125 399.398438 L 720.128906 399.398438 L 720.269531 399.402344 L 721.105469 399.402344 L 721.105469 399.4375 Z M 23.234375 399.4375 "/>
<path style=" stroke:none;fill-rule:nonzero;fill:rgb(90.196078%,25.490196%,45.098039%);fill-opacity:0.701961;" d="M 23.234375 399.4375 L 470.101562 399.4375 L 470.242188 399.433594 L 470.660156 399.433594 L 470.800781 399.429688 L 470.9375 399.429688 L 471.359375 399.417969 L 471.496094 399.414062 L 471.636719 399.40625 L 471.777344 399.402344 L 471.914062 399.390625 L 472.054688 399.382812 L 472.195312 399.371094 L 472.335938 399.355469 L 472.472656 399.339844 L 472.753906 399.292969 L 472.894531 399.265625 L 473.03125 399.230469 L 473.171875 399.1875 L 473.3125 399.140625 L 473.453125 399.082031 L 473.589844 399.015625 L 473.730469 398.9375 L 473.871094 398.847656 L 474.011719 398.742188 L 474.148438 398.617188 L 474.289062 398.472656 L 474.429688 398.308594 L 474.566406 398.117188 L 474.707031 397.894531 L 474.847656 397.640625 L 474.988281 397.347656 L 475.125 397.015625 L 475.265625 396.632812 L 475.40625 396.199219 L 475.546875 395.707031 L 475.683594 395.148438 L 475.824219 394.519531 L 475.964844 393.804688 L 476.105469 393.003906 L 476.242188 392.101562 L 476.382812 391.09375 L 476.523438 389.96875 L 476.664062 388.710938 L 476.800781 387.316406 L 476.941406 385.765625 L 477.082031 384.050781 L 477.222656 382.160156 L 477.359375 380.074219 L 477.5 377.785156 L 477.640625 375.28125 L 477.777344 372.539062 L 477.917969 369.550781 L 478.058594 366.304688 L 478.199219 362.78125 L 478.335938 358.96875 L 478.476562 354.859375 L 478.617188 350.433594 L 478.757812 345.6875 L 478.894531 340.605469 L 479.035156 335.179688 L 479.175781 329.402344 L 479.316406 323.269531 L 479.453125 316.777344 L 479.59375 309.921875 L 479.734375 302.703125 L 479.875 295.128906 L 480.011719 287.199219 L 480.152344 278.925781 L 480.292969 270.320312 L 480.429688 261.394531 L 480.570312 252.164062 L 480.710938 242.65625 L 480.851562 232.886719 L 480.988281 222.886719 L 481.128906 212.6875 L 481.269531 202.320312 L 481.410156 191.820312 L 481.546875 181.226562 L 481.6875 170.585938 L 481.828125 159.933594 L 481.96875 149.324219 L 482.105469 138.800781 L 482.246094 128.414062 L 482.386719 118.214844 L 482.527344 108.257812 L 482.664062 98.585938 L 482.804688 89.261719 L 482.945312 80.328125 L 483.085938 71.835938 L 483.222656 63.839844 L 483.363281 56.378906 L 483.503906 49.503906 L 483.640625 43.25 L 483.78125 37.660156 L 483.921875 32.765625 L 484.0625 28.597656 L 484.199219 25.179688 L 484.339844 22.542969 L 484.480469 20.691406 L 484.621094 19.648438 L 484.757812 19.410156 L 484.898438 19.988281 L 485.039062 21.371094 L 485.179688 23.554688 L 485.316406 26.519531 L 485.457031 30.253906 L 485.597656 34.730469 L 485.738281 39.921875 L 485.875 45.792969 L 486.015625 52.3125 L 486.15625 59.441406 L 486.292969 67.128906 L 486.433594 75.339844 L 486.574219 84.023438 L 486.714844 93.125 L 486.851562 102.601562 L 486.992188 112.402344 L 487.132812 122.464844 L 487.273438 132.75 L 487.410156 143.199219 L 487.550781 153.765625 L 487.691406 164.398438 L 487.832031 175.050781 L 487.96875 185.675781 L 488.109375 196.234375 L 488.25 206.683594 L 488.390625 216.988281 L 488.527344 227.105469 L 488.667969 237.011719 L 488.808594 246.675781 L 488.949219 256.070312 L 489.085938 265.175781 L 489.226562 273.96875 L 489.367188 282.4375 L 489.503906 290.566406 L 489.644531 298.347656 L 489.785156 305.773438 L 489.925781 312.839844 L 490.0625 319.542969 L 490.203125 325.882812 L 490.34375 331.867188 L 490.484375 337.496094 L 490.621094 342.777344 L 490.761719 347.71875 L 490.902344 352.328125 L 491.042969 356.621094 L 491.179688 360.605469 L 491.320312 364.292969 L 491.460938 367.699219 L 491.601562 370.835938 L 491.738281 373.71875 L 491.878906 376.359375 L 492.019531 378.773438 L 492.160156 380.972656 L 492.296875 382.976562 L 492.4375 384.792969 L 492.578125 386.433594 L 492.714844 387.917969 L 492.855469 389.253906 L 492.996094 390.457031 L 493.136719 391.53125 L 493.273438 392.492188 L 493.414062 393.351562 L 493.554688 394.113281 L 493.695312 394.792969 L 493.832031 395.390625 L 493.972656 395.921875 L 494.113281 396.390625 L 494.253906 396.800781 L 494.390625 397.160156 L 494.53125 397.476562 L 494.671875 397.75 L 494.8125 397.992188 L 494.949219 398.199219 L 495.089844 398.378906 L 495.230469 398.535156 L 495.367188 398.671875 L 495.507812 398.789062 L 495.648438 398.886719 L 495.789062 398.972656 L 495.925781 399.046875 L 496.066406 399.109375 L 496.207031 399.160156 L 496.347656 399.207031 L 496.484375 399.246094 L 496.625 399.277344 L 496.765625 399.304688 L 496.90625 399.328125 L 497.042969 399.347656 L 497.183594 399.363281 L 497.464844 399.386719 L 497.601562 399.394531 L 497.882812 399.410156 L 498.023438 399.414062 L 498.160156 399.421875 L 498.300781 399.421875 L 498.441406 399.425781 L 498.578125 399.429688 L 498.71875 399.429688 L 498.859375 399.433594 L 499.136719 399.433594 L 499.277344 399.4375 L 721.105469 399.4375 Z M 23.234375 399.4375 "/>
<path style=" stroke:none;fill-rule:nonzero;fill:rgb(18.431373%,30.980392%,30.980392%);fill-opacity:0.701961;" d="M 23.234375 399.4375 L 468.84375 399.4375 L 468.984375 399.433594 L 469.261719 399.433594 L 469.402344 399.429688 L 469.542969 399.429688 L 469.683594 399.425781 L 469.820312 399.421875 L 469.960938 399.421875 L 470.101562 399.414062 L 470.242188 399.410156 L 470.378906 399.402344 L 470.660156 399.386719 L 470.800781 399.375 L 470.9375 399.363281 L 471.078125 399.347656 L 471.21875 399.328125 L 471.359375 399.304688 L 471.496094 399.277344 L 471.636719 399.246094 L 471.777344 399.207031 L 471.914062 399.160156 L 472.054688 399.109375 L 472.195312 399.046875 L 472.335938 398.972656 L 472.472656 398.886719 L 472.613281 398.785156 L 472.753906 398.671875 L 472.894531 398.535156 L 473.03125 398.378906 L 473.171875 398.199219 L 473.3125 397.988281 L 473.453125 397.75 L 473.589844 397.472656 L 473.730469 397.15625 L 473.871094 396.792969 L 474.011719 396.382812 L 474.148438 395.914062 L 474.289062 395.382812 L 474.429688 394.78125 L 474.566406 394.101562 L 474.707031 393.335938 L 474.847656 392.472656 L 474.988281 391.507812 L 475.125 390.429688 L 475.265625 389.222656 L 475.40625 387.882812 L 475.546875 386.390625 L 475.683594 384.742188 L 475.824219 382.917969 L 475.964844 380.90625 L 476.105469 378.699219 L 476.242188 376.273438 L 476.382812 373.621094 L 476.523438 370.726562 L 476.664062 367.578125 L 476.800781 364.15625 L 476.941406 360.453125 L 477.082031 356.453125 L 477.222656 352.140625 L 477.359375 347.511719 L 477.5 342.550781 L 477.640625 337.246094 L 477.777344 331.59375 L 477.917969 325.585938 L 478.058594 319.21875 L 478.199219 312.488281 L 478.335938 305.394531 L 478.476562 297.941406 L 478.617188 290.128906 L 478.757812 281.96875 L 478.894531 273.46875 L 479.035156 264.640625 L 479.175781 255.507812 L 479.316406 246.078125 L 479.453125 236.386719 L 479.59375 226.449219 L 479.734375 216.296875 L 479.875 205.96875 L 480.011719 195.492188 L 480.152344 184.90625 L 480.292969 174.257812 L 480.429688 163.582031 L 480.570312 152.933594 L 480.710938 142.351562 L 480.851562 131.886719 L 480.988281 121.59375 L 481.128906 111.523438 L 481.269531 101.722656 L 481.410156 92.25 L 481.546875 83.152344 L 481.6875 74.480469 L 481.828125 66.285156 L 481.96875 58.617188 L 482.105469 51.511719 L 482.246094 45.023438 L 482.386719 39.183594 L 482.527344 34.03125 L 482.664062 29.597656 L 482.804688 25.910156 L 482.945312 22.992188 L 483.085938 20.863281 L 483.222656 19.535156 L 483.363281 19.019531 L 483.503906 19.320312 L 483.640625 20.429688 L 483.78125 22.34375 L 483.921875 25.050781 L 484.0625 28.53125 L 484.199219 32.769531 L 484.339844 37.730469 L 484.480469 43.390625 L 484.621094 49.710938 L 484.757812 56.652344 L 484.898438 64.175781 L 485.039062 72.234375 L 485.179688 80.78125 L 485.316406 89.769531 L 485.457031 99.148438 L 485.597656 108.863281 L 485.738281 118.867188 L 485.875 129.109375 L 486.015625 139.53125 L 486.15625 150.085938 L 486.292969 160.722656 L 486.433594 171.394531 L 486.574219 182.054688 L 486.714844 192.660156 L 486.851562 203.171875 L 486.992188 213.542969 L 487.132812 223.746094 L 487.273438 233.742188 L 487.410156 243.503906 L 487.550781 253.003906 L 487.691406 262.21875 L 487.832031 271.132812 L 487.96875 279.71875 L 488.109375 287.972656 L 488.25 295.878906 L 488.390625 303.429688 L 488.527344 310.621094 L 488.667969 317.449219 L 488.808594 323.914062 L 488.949219 330.015625 L 489.085938 335.765625 L 489.226562 341.160156 L 489.367188 346.210938 L 489.503906 350.929688 L 489.644531 355.328125 L 489.785156 359.410156 L 489.925781 363.191406 L 490.0625 366.6875 L 490.203125 369.90625 L 490.34375 372.871094 L 490.484375 375.585938 L 490.621094 378.070312 L 490.761719 380.335938 L 490.902344 382.398438 L 491.042969 384.269531 L 491.179688 385.964844 L 491.320312 387.496094 L 491.460938 388.878906 L 491.601562 390.117188 L 491.738281 391.230469 L 491.878906 392.226562 L 492.019531 393.113281 L 492.160156 393.902344 L 492.296875 394.605469 L 492.4375 395.226562 L 492.578125 395.777344 L 492.714844 396.261719 L 492.855469 396.691406 L 492.996094 397.0625 L 493.136719 397.390625 L 493.273438 397.679688 L 493.414062 397.925781 L 493.554688 398.144531 L 493.695312 398.332031 L 493.832031 398.496094 L 493.972656 398.636719 L 494.113281 398.757812 L 494.253906 398.863281 L 494.390625 398.949219 L 494.53125 399.027344 L 494.671875 399.09375 L 494.8125 399.148438 L 494.949219 399.195312 L 495.089844 399.234375 L 495.230469 399.269531 L 495.367188 399.296875 L 495.507812 399.320312 L 495.789062 399.359375 L 495.925781 399.371094 L 496.207031 399.394531 L 496.347656 399.402344 L 496.484375 399.410156 L 496.90625 399.421875 L 497.042969 399.425781 L 497.183594 399.429688 L 497.324219 399.429688 L 497.464844 399.433594 L 497.742188 399.433594 L 497.882812 399.4375 L 721.105469 399.4375 Z M 23.234375 399.4375 "/>
<path style="fill:none;stroke-width:1.280374;stroke-linecap:butt;stroke-linejoin:round;stroke:rgb(0%,0%,0%);stroke-opacity:0.501961;stroke-dasharray:8.962618,3.841122;stroke-miterlimit:10;" d="M 484.730469 414 L 484.730469 0 "/>
<path style="fill:none;stroke-width:1.066978;stroke-linecap:butt;stroke-linejoin:round;stroke:rgb(0%,0%,0%);stroke-opacity:1;stroke-miterlimit:10;" d="M 0 399.4375 L 756 399.4375 "/>
</g>
</svg>
