<?xml version="1.0" encoding="UTF-8"?>
<svg xmlns="http://www.w3.org/2000/svg" xmlns:xlink="http://www.w3.org/1999/xlink" width="756pt" height="504pt" viewBox="0 0 756 504" version="1.1">
<g id="surface5183">
<rect x="0" y="0" width="756" height="504" style="fill:rgb(100%,100%,100%);fill-opacity:1;stroke:none;"/>
<path style="fill-rule:nonzero;fill:rgb(98.823529%,99.215686%,74.901961%);fill-opacity:1;stroke-width:0.426791;stroke-linecap:butt;stroke-linejoin:round;stroke:rgb(100%,100%,100%);stroke-opacity:1;stroke-miterlimit:10;" d="M 34.363281 481.089844 L 110.726562 481.089844 L 110.726562 404.726562 L 34.363281 404.726562 Z M 34.363281 481.089844 "/>
<path style="fill-rule:nonzero;fill:rgb(99.607843%,81.960784%,58.039216%);fill-opacity:1;stroke-width:0.426791;stroke-linecap:butt;stroke-linejoin:round;stroke:rgb(100%,100%,100%);stroke-opacity:1;stroke-miterlimit:10;" d="M 110.726562 481.089844 L 187.089844 481.089844 L 187.089844 404.726562 L 110.726562 404.726562 Z M 110.726562 481.089844 "/>
<path style="fill-rule:nonzero;fill:rgb(94.901961%,39.215686%,36.078431%);fill-opacity:1;stroke-width:0.426791;stroke-linecap:butt;stroke-linejoin:round;stroke:rgb(100%,100%,100%);stroke-opacity:1;stroke-miterlimit:10;" d="M 187.089844 481.089844 L 263.453125 481.089844 L 263.453125 404.726562 L 187.089844 404.726562 Z M 187.089844 481.089844 "/>
<path style="fill-rule:nonzero;fill:rgb(98.823529%,53.333333%,38.039216%);fill-opacity:1;stroke-width:0.426791;stroke-linecap:butt;stroke-linejoin:round;stroke:rgb(100%,100%,100%);stroke-opacity:1;stroke-miterlimit:10;" d="M 263.453125 481.089844 L 339.816406 481.089844 L 339.816406 404.726562 L 263.453125 404.726562 Z M 263.453125 481.089844 "/>
<path style="fill-rule:nonzero;fill:rgb(95.686275%,40.392157%,36.078431%);fill-opacity:1;stroke-width:0.426791;stroke-linecap:butt;stroke-linejoin:round;stroke:rgb(100%,100%,100%);stroke-opacity:1;stroke-miterlimit:10;" d="M 339.816406 481.089844 L 416.179688 481.089844 L 416.179688 404.726562 L 339.816406 404.726562 Z M 339.816406 481.089844 "/>
<path style="fill-rule:nonzero;fill:rgb(66.666667%,20%,49.019608%);fill-opacity:1;stroke-width:0.426791;stroke-linecap:butt;stroke-linejoin:round;stroke:rgb(100%,100%,100%);stroke-opacity:1;stroke-miterlimit:10;" d="M 416.183594 481.089844 L 492.546875 481.089844 L 492.546875 404.726562 L 416.183594 404.726562 Z M 416.183594 481.089844 "/>
<path style="fill-rule:nonzero;fill:rgb(75.294118%,22.745098%,46.27451%);fill-opacity:1;stroke-width:0.426791;stroke-linecap:butt;stroke-linejoin:round;stroke:rgb(100%,100%,100%);stroke-opacity:1;stroke-miterlimit:10;" d="M 492.546875 481.089844 L 568.910156 481.089844 L 568.910156 404.726562 L 492.546875 404.726562 Z M 492.546875 481.089844 "/>
<path style="fill-rule:nonzero;fill:rgb(90.196078%,31.764706%,38.823529%);fill-opacity:1;stroke-width:0.426791;stroke-linecap:butt;stroke-linejoin:round;stroke:rgb(100%,100%,100%);stroke-opacity:1;stroke-miterlimit:10;" d="M 568.910156 481.089844 L 645.273438 481.089844 L 645.273438 404.726562 L 568.910156 404.726562 Z M 568.910156 481.089844 "/>
<path style="fill-rule:nonzero;fill:rgb(72.54902%,21.960784%,47.058824%);fill-opacity:1;stroke-width:0.426791;stroke-linecap:butt;stroke-linejoin:round;stroke:rgb(100%,100%,100%);stroke-opacity:1;stroke-miterlimit:10;" d="M 645.273438 481.089844 L 721.636719 481.089844 L 721.636719 404.726562 L 645.273438 404.726562 Z M 645.273438 481.089844 "/>
<path style="fill-rule:nonzero;fill:rgb(99.215686%,85.490196%,61.176471%);fill-opacity:1;stroke-width:0.426791;stroke-linecap:butt;stroke-linejoin:round;stroke:rgb(100%,100%,100%);stroke-opacity:1;stroke-miterlimit:10;" d="M 34.363281 404.726562 L 110.726562 404.726562 L 110.726562 328.363281 L 34.363281 328.363281 Z M 34.363281 404.726562 "/>
<path style="fill-rule:nonzero;fill:rgb(96.862745%,44.705882%,36.078431%);fill-opacity:1;stroke-width:0.426791;stroke-linecap:butt;stroke-linejoin:round;stroke:rgb(100%,100%,100%);stroke-opacity:1;stroke-miterlimit:10;" d="M 110.726562 404.726562 L 187.089844 404.726562 L 187.089844 328.363281 L 110.726562 328.363281 Z M 110.726562 404.726562 "/>
<path style="fill-rule:nonzero;fill:rgb(97.647059%,47.843137%,36.470588%);fill-opacity:1;stroke-width:0.426791;stroke-linecap:butt;stroke-linejoin:round;stroke:rgb(100%,100%,100%);stroke-opacity:1;stroke-miterlimit:10;" d="M 187.089844 404.726562 L 263.453125 404.726562 L 263.453125 328.363281 L 187.089844 328.363281 Z M 187.089844 404.726562 "/>
<path style="fill-rule:nonzero;fill:rgb(93.72549%,36.078431%,36.862745%);fill-opacity:1;stroke-width:0.426791;stroke-linecap:butt;stroke-linejoin:round;stroke:rgb(100%,100%,100%);stroke-opacity:1;stroke-miterlimit:10;" d="M 263.453125 404.726562 L 339.816406 404.726562 L 339.816406 328.363281 L 263.453125 328.363281 Z M 263.453125 404.726562 "/>
<path style="fill-rule:nonzero;fill:rgb(89.803922%,31.372549%,39.215686%);fill-opacity:1;stroke-width:0.426791;stroke-linecap:butt;stroke-linejoin:round;stroke:rgb(100%,100%,100%);stroke-opacity:1;stroke-miterlimit:10;" d="M 339.816406 404.726562 L 416.179688 404.726562 L 416.179688 328.363281 L 339.816406 328.363281 Z M 339.816406 404.726562 "/>
<path style="fill-rule:nonzero;fill:rgb(89.803922%,31.372549%,39.215686%);fill-opacity:1;stroke-width:0.426791;stroke-linecap:butt;stroke-linejoin:round;stroke:rgb(100%,100%,100%);stroke-opacity:1;stroke-miterlimit:10;" d="M 416.183594 404.726562 L 492.546875 404.726562 L 492.546875 328.363281 L 416.183594 328.363281 Z M 416.183594 404.726562 "/>
<path style="fill-rule:nonzero;fill:rgb(45.098039%,12.54902%,50.588235%);fill-opacity:1;stroke-width:0.426791;stroke-linecap:butt;stroke-linejoin:round;stroke:rgb(100%,100%,100%);stroke-opacity:1;stroke-miterlimit:10;" d="M 492.546875 404.726562 L 568.910156 404.726562 L 568.910156 328.363281 L 492.546875 328.363281 Z M 492.546875 404.726562 "/>
<path style="fill-rule:nonzero;fill:rgb(54.509804%,16.078431%,50.588235%);fill-opacity:1;stroke-width:0.426791;stroke-linecap:butt;stroke-linejoin:round;stroke:rgb(100%,100%,100%);stroke-opacity:1;stroke-miterlimit:10;" d="M 568.910156 404.726562 L 645.273438 404.726562 L 645.273438 328.363281 L 568.910156 328.363281 Z M 568.910156 404.726562 "/>
<path style="fill-rule:nonzero;fill:rgb(81.960784%,25.490196%,43.529412%);fill-opacity:1;stroke-width:0.426791;stroke-linecap:butt;stroke-linejoin:round;stroke:rgb(100%,100%,100%);stroke-opacity:1;stroke-miterlimit:10;" d="M 645.273438 404.726562 L 721.636719 404.726562 L 721.636719 328.363281 L 645.273438 328.363281 Z M 645.273438 404.726562 "/>
<path style="fill-rule:nonzero;fill:rgb(98.823529%,54.117647%,38.431373%);fill-opacity:1;stroke-width:0.426791;stroke-linecap:butt;stroke-linejoin:round;stroke:rgb(100%,100%,100%);stroke-opacity:1;stroke-miterlimit:10;" d="M 34.363281 328.363281 L 110.726562 328.363281 L 110.726562 252 L 34.363281 252 Z M 34.363281 328.363281 "/>
<path style="fill-rule:nonzero;fill:rgb(99.607843%,63.137255%,43.137255%);fill-opacity:1;stroke-width:0.426791;stroke-linecap:butt;stroke-linejoin:round;stroke:rgb(100%,100%,100%);stroke-opacity:1;stroke-miterlimit:10;" d="M 110.726562 328.363281 L 187.089844 328.363281 L 187.089844 252 L 110.726562 252 Z M 110.726562 328.363281 "/>
<path style="fill-rule:nonzero;fill:rgb(99.607843%,61.568627%,42.352941%);fill-opacity:1;stroke-width:0.426791;stroke-linecap:butt;stroke-linejoin:round;stroke:rgb(100%,100%,100%);stroke-opacity:1;stroke-miterlimit:10;" d="M 187.089844 328.363281 L 263.453125 328.363281 L 263.453125 252 L 187.089844 252 Z M 187.089844 328.363281 "/>
<path style="fill-rule:nonzero;fill:rgb(93.333333%,35.686275%,36.862745%);fill-opacity:1;stroke-width:0.426791;stroke-linecap:butt;stroke-linejoin:round;stroke:rgb(100%,100%,100%);stroke-opacity:1;stroke-miterlimit:10;" d="M 263.453125 328.363281 L 339.816406 328.363281 L 339.816406 252 L 263.453125 252 Z M 263.453125 328.363281 "/>
<path style="fill-rule:nonzero;fill:rgb(94.509804%,37.647059%,36.470588%);fill-opacity:1;stroke-width:0.426791;stroke-linecap:butt;stroke-linejoin:round;stroke:rgb(100%,100%,100%);stroke-opacity:1;stroke-miterlimit:10;" d="M 339.816406 328.363281 L 416.179688 328.363281 L 416.179688 252 L 339.816406 252 Z M 339.816406 328.363281 "/>
<path style="fill-rule:nonzero;fill:rgb(83.137255%,26.666667%,42.745098%);fill-opacity:1;stroke-width:0.426791;stroke-linecap:butt;stroke-linejoin:round;stroke:rgb(100%,100%,100%);stroke-opacity:1;stroke-miterlimit:10;" d="M 416.183594 328.363281 L 492.546875 328.363281 L 492.546875 252 L 416.183594 252 Z M 416.183594 328.363281 "/>
<path style="fill-rule:nonzero;fill:rgb(71.764706%,21.568627%,47.45098%);fill-opacity:1;stroke-width:0.426791;stroke-linecap:butt;stroke-linejoin:round;stroke:rgb(100%,100%,100%);stroke-opacity:1;stroke-miterlimit:10;" d="M 492.546875 328.363281 L 568.910156 328.363281 L 568.910156 252 L 492.546875 252 Z M 492.546875 328.363281 "/>
<path style="fill-rule:nonzero;fill:rgb(77.647059%,23.921569%,45.098039%);fill-opacity:1;stroke-width:0.426791;stroke-linecap:butt;stroke-linejoin:round;stroke:rgb(100%,100%,100%);stroke-opacity:1;stroke-miterlimit:10;" d="M 568.910156 328.363281 L 645.273438 328.363281 L 645.273438 252 L 568.910156 252 Z M 568.910156 328.363281 "/>
<path style="fill-rule:nonzero;fill:rgb(29.803922%,6.666667%,47.843137%);fill-opacity:1;stroke-width:0.426791;stroke-linecap:butt;stroke-linejoin:round;stroke:rgb(100%,100%,100%);stroke-opacity:1;stroke-miterlimit:10;" d="M 645.273438 328.363281 L 721.636719 328.363281 L 721.636719 252 L 645.273438 252 Z M 645.273438 328.363281 "/>
<path style="fill-rule:nonzero;fill:rgb(98.431373%,51.764706%,37.647059%);fill-opacity:1;stroke-width:0.426791;stroke-linecap:butt;stroke-linejoin:round;stroke:rgb(100%,100%,100%);stroke-opacity:1;stroke-miterlimit:10;" d="M 34.363281 252 L 110.726562 252 L 110.726562 175.636719 L 34.363281 175.636719 Z M 34.363281 252 "/>
<path style="fill-rule:nonzero;fill:rgb(99.607843%,62.745098%,43.137255%);fill-opacity:1;stroke-width:0.426791;stroke-linecap:butt;stroke-linejoin:round;stroke:rgb(100%,100%,100%);stroke-opacity:1;stroke-miterlimit:10;" d="M 110.726562 252 L 187.089844 252 L 187.089844 175.636719 L 110.726562 175.636719 Z M 110.726562 252 "/>
<path style="fill-rule:nonzero;fill:rgb(73.72549%,22.352941%,47.058824%);fill-opacity:1;stroke-width:0.426791;stroke-linecap:butt;stroke-linejoin:round;stroke:rgb(100%,100%,100%);stroke-opacity:1;stroke-miterlimit:10;" d="M 187.089844 252 L 263.453125 252 L 263.453125 175.636719 L 187.089844 175.636719 Z M 187.089844 252 "/>
<path style="fill-rule:nonzero;fill:rgb(76.078431%,23.137255%,45.882353%);fill-opacity:1;stroke-width:0.426791;stroke-linecap:butt;stroke-linejoin:round;stroke:rgb(100%,100%,100%);stroke-opacity:1;stroke-miterlimit:10;" d="M 263.453125 252 L 339.816406 252 L 339.816406 175.636719 L 263.453125 175.636719 Z M 263.453125 252 "/>
<path style="fill-rule:nonzero;fill:rgb(76.862745%,23.529412%,45.882353%);fill-opacity:1;stroke-width:0.426791;stroke-linecap:butt;stroke-linejoin:round;stroke:rgb(100%,100%,100%);stroke-opacity:1;stroke-miterlimit:10;" d="M 339.816406 252 L 416.179688 252 L 416.179688 175.636719 L 339.816406 175.636719 Z M 339.816406 252 "/>
<path style="fill-rule:nonzero;fill:rgb(48.627451%,13.72549%,50.980392%);fill-opacity:1;stroke-width:0.426791;stroke-linecap:butt;stroke-linejoin:round;stroke:rgb(100%,100%,100%);stroke-opacity:1;stroke-miterlimit:10;" d="M 416.183594 252 L 492.546875 252 L 492.546875 175.636719 L 416.183594 175.636719 Z M 416.183594 252 "/>
<path style="fill-rule:nonzero;fill:rgb(39.215686%,10.196078%,50.196078%);fill-opacity:1;stroke-width:0.426791;stroke-linecap:butt;stroke-linejoin:round;stroke:rgb(100%,100%,100%);stroke-opacity:1;stroke-miterlimit:10;" d="M 492.546875 252 L 568.910156 252 L 568.910156 175.636719 L 492.546875 175.636719 Z M 492.546875 252 "/>
<path style="fill-rule:nonzero;fill:rgb(30.196078%,6.666667%,47.843137%);fill-opacity:1;stroke-width:0.426791;stroke-linecap:butt;stroke-linejoin:round;stroke:rgb(100%,100%,100%);stroke-opacity:1;stroke-miterlimit:10;" d="M 568.910156 252 L 645.273438 252 L 645.273438 175.636719 L 568.910156 175.636719 Z M 568.910156 252 "/>
<path style="fill-rule:nonzero;fill:rgb(21.568627%,6.27451%,41.960784%);fill-opacity:1;stroke-width:0.426791;stroke-linecap:butt;stroke-linejoin:round;stroke:rgb(100%,100%,100%);stroke-opacity:1;stroke-miterlimit:10;" d="M 645.273438 252 L 721.636719 252 L 721.636719 175.636719 L 645.273438 175.636719 Z M 645.273438 252 "/>
<path style="fill-rule:nonzero;fill:rgb(92.156863%,34.117647%,37.647059%);fill-opacity:1;stroke-width:0.426791;stroke-linecap:butt;stroke-linejoin:round;stroke:rgb(100%,100%,100%);stroke-opacity:1;stroke-miterlimit:10;" d="M 34.363281 175.636719 L 110.726562 175.636719 L 110.726562 99.273438 L 34.363281 99.273438 Z M 34.363281 175.636719 "/>
<path style="fill-rule:nonzero;fill:rgb(91.764706%,33.72549%,38.039216%);fill-opacity:1;stroke-width:0.426791;stroke-linecap:butt;stroke-linejoin:round;stroke:rgb(100%,100%,100%);stroke-opacity:1;stroke-miterlimit:10;" d="M 110.726562 175.636719 L 187.089844 175.636719 L 187.089844 99.273438 L 110.726562 99.273438 Z M 110.726562 175.636719 "/>
<path style="fill-rule:nonzero;fill:rgb(86.666667%,28.627451%,40.784314%);fill-opacity:1;stroke-width:0.426791;stroke-linecap:butt;stroke-linejoin:round;stroke:rgb(100%,100%,100%);stroke-opacity:1;stroke-miterlimit:10;" d="M 187.089844 175.636719 L 263.453125 175.636719 L 263.453125 99.273438 L 187.089844 99.273438 Z M 187.089844 175.636719 "/>
<path style="fill-rule:nonzero;fill:rgb(78.039216%,23.921569%,45.098039%);fill-opacity:1;stroke-width:0.426791;stroke-linecap:butt;stroke-linejoin:round;stroke:rgb(100%,100%,100%);stroke-opacity:1;stroke-miterlimit:10;" d="M 263.453125 175.636719 L 339.816406 175.636719 L 339.816406 99.273438 L 263.453125 99.273438 Z M 263.453125 175.636719 "/>
<path style="fill-rule:nonzero;fill:rgb(72.941176%,21.960784%,47.058824%);fill-opacity:1;stroke-width:0.426791;stroke-linecap:butt;stroke-linejoin:round;stroke:rgb(100%,100%,100%);stroke-opacity:1;stroke-miterlimit:10;" d="M 339.816406 175.636719 L 416.179688 175.636719 L 416.179688 99.273438 L 339.816406 99.273438 Z M 339.816406 175.636719 "/>
<path style="fill-rule:nonzero;fill:rgb(54.901961%,16.078431%,50.588235%);fill-opacity:1;stroke-width:0.426791;stroke-linecap:butt;stroke-linejoin:round;stroke:rgb(100%,100%,100%);stroke-opacity:1;stroke-miterlimit:10;" d="M 416.183594 175.636719 L 492.546875 175.636719 L 492.546875 99.273438 L 416.183594 99.273438 Z M 416.183594 175.636719 "/>
<path style="fill-rule:nonzero;fill:rgb(61.176471%,18.039216%,49.803922%);fill-opacity:1;stroke-width:0.426791;stroke-linecap:butt;stroke-linejoin:round;stroke:rgb(100%,100%,100%);stroke-opacity:1;stroke-miterlimit:10;" d="M 492.546875 175.636719 L 568.910156 175.636719 L 568.910156 99.273438 L 492.546875 99.273438 Z M 492.546875 175.636719 "/>
<path style="fill-rule:nonzero;fill:rgb(2.745098%,2.352941%,10.980392%);fill-opacity:1;stroke-width:0.426791;stroke-linecap:butt;stroke-linejoin:round;stroke:rgb(100%,100%,100%);stroke-opacity:1;stroke-miterlimit:10;" d="M 568.910156 175.636719 L 645.273438 175.636719 L 645.273438 99.273438 L 568.910156 99.273438 Z M 568.910156 175.636719 "/>
<path style="fill-rule:nonzero;fill:rgb(5.490196%,4.313725%,16.862745%);fill-opacity:1;stroke-width:0.426791;stroke-linecap:butt;stroke-linejoin:round;stroke:rgb(100%,100%,100%);stroke-opacity:1;stroke-miterlimit:10;" d="M 645.273438 175.636719 L 721.636719 175.636719 L 721.636719 99.273438 L 645.273438 99.273438 Z M 645.273438 175.636719 "/>
<path style="fill-rule:nonzero;fill:rgb(98.039216%,50.980392%,37.254902%);fill-opacity:1;stroke-width:0.426791;stroke-linecap:butt;stroke-linejoin:round;stroke:rgb(100%,100%,100%);stroke-opacity:1;stroke-miterlimit:10;" d="M 34.363281 99.273438 L 110.726562 99.273438 L 110.726562 22.910156 L 34.363281 22.910156 Z M 34.363281 99.273438 "/>
<path style="fill-rule:nonzero;fill:rgb(87.843137%,29.803922%,40.392157%);fill-opacity:1;stroke-width:0.426791;stroke-linecap:butt;stroke-linejoin:round;stroke:rgb(100%,100%,100%);stroke-opacity:1;stroke-miterlimit:10;" d="M 110.726562 99.273438 L 187.089844 99.273438 L 187.089844 22.910156 L 110.726562 22.910156 Z M 110.726562 99.273438 "/>
<path style="fill-rule:nonzero;fill:rgb(79.607843%,24.313725%,44.705882%);fill-opacity:1;stroke-width:0.426791;stroke-linecap:butt;stroke-linejoin:round;stroke:rgb(100%,100%,100%);stroke-opacity:1;stroke-miterlimit:10;" d="M 187.089844 99.273438 L 263.453125 99.273438 L 263.453125 22.910156 L 187.089844 22.910156 Z M 187.089844 99.273438 "/>
<path style="fill-rule:nonzero;fill:rgb(50.196078%,14.509804%,50.980392%);fill-opacity:1;stroke-width:0.426791;stroke-linecap:butt;stroke-linejoin:round;stroke:rgb(100%,100%,100%);stroke-opacity:1;stroke-miterlimit:10;" d="M 263.453125 99.273438 L 339.816406 99.273438 L 339.816406 22.910156 L 263.453125 22.910156 Z M 263.453125 99.273438 "/>
<path style="fill-rule:nonzero;fill:rgb(53.333333%,15.294118%,50.588235%);fill-opacity:1;stroke-width:0.426791;stroke-linecap:butt;stroke-linejoin:round;stroke:rgb(100%,100%,100%);stroke-opacity:1;stroke-miterlimit:10;" d="M 339.816406 99.273438 L 416.179688 99.273438 L 416.179688 22.910156 L 339.816406 22.910156 Z M 339.816406 99.273438 "/>
<path style="fill-rule:nonzero;fill:rgb(38.431373%,9.803922%,50.196078%);fill-opacity:1;stroke-width:0.426791;stroke-linecap:butt;stroke-linejoin:round;stroke:rgb(100%,100%,100%);stroke-opacity:1;stroke-miterlimit:10;" d="M 416.183594 99.273438 L 492.546875 99.273438 L 492.546875 22.910156 L 416.183594 22.910156 Z M 416.183594 99.273438 "/>
<path style="fill-rule:nonzero;fill:rgb(32.54902%,7.45098%,49.019608%);fill-opacity:1;stroke-width:0.426791;stroke-linecap:butt;stroke-linejoin:round;stroke:rgb(100%,100%,100%);stroke-opacity:1;stroke-miterlimit:10;" d="M 492.546875 99.273438 L 568.910156 99.273438 L 568.910156 22.910156 L 492.546875 22.910156 Z M 492.546875 99.273438 "/>
<path style="fill-rule:nonzero;fill:rgb(22.352941%,5.882353%,43.137255%);fill-opacity:1;stroke-width:0.426791;stroke-linecap:butt;stroke-linejoin:round;stroke:rgb(100%,100%,100%);stroke-opacity:1;stroke-miterlimit:10;" d="M 568.910156 99.273438 L 645.273438 99.273438 L 645.273438 22.910156 L 568.910156 22.910156 Z M 568.910156 99.273438 "/>
<path style="fill-rule:nonzero;fill:rgb(0%,0%,1.568627%);fill-opacity:1;stroke-width:0.426791;stroke-linecap:butt;stroke-linejoin:round;stroke:rgb(100%,100%,100%);stroke-opacity:1;stroke-miterlimit:10;" d="M 645.273438 99.273438 L 721.636719 99.273438 L 721.636719 22.910156 L 645.273438 22.910156 Z M 645.273438 99.273438 "/>
</g>
</svg>
