<?xml version="1.0" encoding="UTF-8"?>
<svg xmlns="http://www.w3.org/2000/svg" xmlns:xlink="http://www.w3.org/1999/xlink" width="756pt" height="414pt" viewBox="0 0 756 414" version="1.1">
<g id="surface1029">
<rect x="0" y="0" width="756" height="414" style="fill:rgb(100%,100%,100%);fill-opacity:1;stroke:none;"/>
<path style=" stroke:none;fill-rule:nonzero;fill:rgb(100%,64.705882%,0%);fill-opacity:0.701961;" d="M 23.234375 399.4375 L 141.871094 399.4375 L 148.851562 399.433594 L 155.828125 399.433594 L 162.808594 399.429688 L 169.785156 399.425781 L 176.765625 399.417969 L 183.746094 399.40625 L 190.722656 399.390625 L 197.703125 399.367188 L 204.679688 399.332031 L 211.660156 399.285156 L 218.636719 399.222656 L 225.617188 399.132812 L 232.59375 399.011719 L 239.574219 398.847656 L 246.550781 398.628906 L 253.53125 398.335938 L 260.511719 397.949219 L 267.488281 397.445312 L 274.46875 396.796875 L 281.445312 395.964844 L 288.425781 394.914062 L 295.402344 393.597656 L 302.382812 391.960938 L 309.359375 389.945312 L 316.339844 387.496094 L 323.320312 384.542969 L 330.296875 381.023438 L 337.277344 376.867188 L 344.253906 372.015625 L 351.234375 366.40625 L 358.210938 360 L 365.191406 352.753906 L 372.167969 344.660156 L 379.148438 335.714844 L 386.128906 325.957031 L 393.105469 315.441406 L 400.085938 304.25 L 407.0625 292.503906 L 414.042969 280.351562 L 421.019531 267.964844 L 428 255.550781 L 434.976562 243.332031 L 441.957031 231.542969 L 448.9375 220.429688 L 455.914062 210.238281 L 462.894531 201.199219 L 469.871094 193.53125 L 476.851562 187.421875 L 483.828125 183.023438 L 490.808594 180.449219 L 497.785156 179.765625 L 504.765625 180.992188 L 511.746094 184.097656 L 518.722656 188.996094 L 525.703125 195.570312 L 532.679688 203.652344 L 539.660156 213.042969 L 546.636719 223.523438 L 553.617188 234.851562 L 560.59375 246.789062 L 567.574219 259.089844 L 574.554688 271.515625 L 581.53125 283.855469 L 588.511719 295.90625 L 595.488281 307.507812 L 602.46875 318.519531 L 609.445312 328.828125 L 616.425781 338.355469 L 623.402344 347.058594 L 630.382812 354.910156 L 637.363281 361.914062 L 644.339844 368.089844 L 651.320312 373.476562 L 658.296875 378.125 L 665.277344 382.089844 L 672.253906 385.441406 L 679.234375 388.246094 L 686.210938 390.5625 L 693.191406 392.460938 L 700.171875 394.003906 L 707.148438 395.242188 L 714.128906 396.222656 L 721.105469 397 L 721.105469 399.4375 Z M 23.234375 399.4375 "/>
<path style=" stroke:none;fill-rule:nonzero;fill:rgb(90.196078%,25.490196%,45.098039%);fill-opacity:0.701961;" d="M 23.234375 399.4375 L 239.574219 399.4375 L 246.550781 399.433594 L 260.511719 399.425781 L 267.488281 399.414062 L 274.46875 399.394531 L 281.445312 399.363281 L 288.425781 399.308594 L 295.402344 399.21875 L 302.382812 399.078125 L 309.359375 398.859375 L 316.339844 398.519531 L 323.320312 398.011719 L 330.296875 397.257812 L 337.277344 396.160156 L 344.253906 394.597656 L 351.234375 392.414062 L 358.210938 389.425781 L 365.191406 385.410156 L 372.167969 380.121094 L 379.148438 373.300781 L 386.128906 364.679688 L 393.105469 354.019531 L 400.085938 341.109375 L 407.0625 325.828125 L 414.042969 308.144531 L 421.019531 288.167969 L 428 266.164062 L 434.976562 242.566406 L 441.957031 217.980469 L 448.9375 193.164062 L 455.914062 169.007812 L 462.894531 146.464844 L 469.871094 126.511719 L 476.851562 110.074219 L 483.828125 97.941406 L 490.808594 90.726562 L 497.785156 88.800781 L 504.765625 92.261719 L 511.746094 100.929688 L 518.722656 114.363281 L 525.703125 131.890625 L 532.679688 152.683594 L 539.660156 175.785156 L 546.636719 200.230469 L 553.617188 225.066406 L 560.59375 249.441406 L 567.574219 272.636719 L 574.554688 294.097656 L 581.53125 313.4375 L 588.511719 330.441406 L 595.488281 345.035156 L 602.46875 357.285156 L 609.445312 367.34375 L 616.425781 375.421875 L 623.402344 381.777344 L 630.382812 386.675781 L 637.363281 390.375 L 644.339844 393.113281 L 651.320312 395.101562 L 658.296875 396.515625 L 665.277344 397.503906 L 672.253906 398.179688 L 679.234375 398.632812 L 686.210938 398.933594 L 693.191406 399.125 L 700.171875 399.25 L 707.148438 399.324219 L 714.128906 399.371094 L 721.105469 399.402344 L 721.105469 399.4375 Z M 23.234375 399.4375 "/>
<path style=" stroke:none;fill-rule:nonzero;fill:rgb(18.431373%,30.980392%,30.980392%);fill-opacity:0.701961;" d="M 23.234375 399.4375 L 37.191406 399.4375 L 44.167969 399.433594 L 51.148438 399.425781 L 58.128906 399.414062 L 65.105469 399.390625 L 72.085938 399.339844 L 79.0625 399.253906 L 86.042969 399.09375 L 93.019531 398.8125 L 100 398.332031 L 106.976562 397.542969 L 113.957031 396.269531 L 120.9375 394.28125 L 127.914062 391.261719 L 134.894531 386.804688 L 141.871094 380.421875 L 148.851562 371.558594 L 155.828125 359.617188 L 162.808594 344.023438 L 169.785156 324.316406 L 176.765625 300.226562 L 183.746094 271.792969 L 190.722656 239.445312 L 197.703125 204.074219 L 204.679688 167.035156 L 211.660156 130.109375 L 218.636719 95.363281 L 225.617188 64.996094 L 232.59375 41.078125 L 239.574219 25.359375 L 246.550781 19.019531 L 253.53125 22.554688 L 260.511719 35.6875 L 267.488281 57.417969 L 274.46875 86.144531 L 281.445312 119.863281 L 288.425781 156.386719 L 295.402344 193.589844 L 302.382812 229.597656 L 309.359375 262.917969 L 316.339844 292.535156 L 323.320312 317.886719 L 330.296875 338.828125 L 337.277344 355.554688 L 344.253906 368.484375 L 351.234375 378.167969 L 358.210938 385.199219 L 365.191406 390.152344 L 372.167969 393.539062 L 379.148438 395.789062 L 386.128906 397.238281 L 393.105469 398.144531 L 400.085938 398.699219 L 407.0625 399.027344 L 414.042969 399.214844 L 421.019531 399.320312 L 428 399.378906 L 434.976562 399.410156 L 441.957031 399.425781 L 448.9375 399.433594 L 455.914062 399.4375 L 721.105469 399.4375 Z M 23.234375 399.4375 "/>
<path style="fill:none;stroke-width:1.280374;stroke-linecap:butt;stroke-linejoin:round;stroke:rgb(0%,0%,0%);stroke-opacity:1;stroke-dasharray:8.962618,3.841122;stroke-miterlimit:10;" d="M 496.789062 414 L 496.789062 0 "/>
<path style="fill:none;stroke-width:1.066978;stroke-linecap:butt;stroke-linejoin:round;stroke:rgb(0%,0%,0%);stroke-opacity:1;stroke-miterlimit:10;" d="M 0 399.4375 L 756 399.4375 "/>
</g>
</svg>
