<?xml version="1.0" encoding="UTF-8"?>
<svg xmlns="http://www.w3.org/2000/svg" xmlns:xlink="http://www.w3.org/1999/xlink" width="756pt" height="414pt" viewBox="0 0 756 414" version="1.1">
<g id="surface44">
<rect x="0" y="0" width="756" height="414" style="fill:rgb(100%,100%,100%);fill-opacity:1;stroke:none;"/>
<path style=" stroke:none;fill-rule:nonzero;fill:rgb(100%,64.705882%,0%);fill-opacity:0.701961;" d="M 23.234375 399.4375 L 189.5 399.4375 L 189.640625 399.433594 L 200.667969 399.433594 L 200.808594 399.429688 L 207.367188 399.429688 L 207.507812 399.425781 L 212.117188 399.425781 L 212.253906 399.421875 L 215.886719 399.421875 L 216.023438 399.417969 L 219.097656 399.417969 L 219.234375 399.414062 L 221.75 399.414062 L 221.886719 399.410156 L 224.121094 399.410156 L 224.261719 399.40625 L 226.074219 399.40625 L 226.214844 399.402344 L 228.03125 399.402344 L 228.167969 399.398438 L 229.707031 399.398438 L 229.84375 399.394531 L 231.242188 399.394531 L 231.378906 399.390625 L 232.777344 399.390625 L 232.917969 399.386719 L 234.03125 399.386719 L 234.171875 399.382812 L 235.289062 399.382812 L 235.429688 399.378906 L 236.546875 399.378906 L 236.6875 399.375 L 237.664062 399.375 L 237.800781 399.371094 L 238.640625 399.371094 L 238.78125 399.367188 L 239.757812 399.367188 L 239.894531 399.363281 L 240.734375 399.363281 L 240.875 399.359375 L 241.570312 399.359375 L 241.710938 399.355469 L 242.410156 399.355469 L 242.550781 399.351562 L 243.246094 399.351562 L 243.386719 399.347656 L 244.085938 399.347656 L 244.222656 399.34375 L 244.921875 399.34375 L 245.0625 399.339844 L 245.621094 399.339844 L 245.761719 399.335938 L 246.316406 399.335938 L 246.457031 399.332031 L 247.015625 399.332031 L 247.15625 399.328125 L 247.714844 399.328125 L 247.855469 399.324219 L 248.414062 399.324219 L 248.550781 399.320312 L 248.96875 399.320312 L 249.109375 399.316406 L 249.667969 399.316406 L 249.808594 399.3125 L 250.226562 399.3125 L 250.367188 399.308594 L 250.785156 399.308594 L 250.925781 399.304688 L 251.34375 399.304688 L 251.484375 399.300781 L 251.902344 399.300781 L 252.042969 399.296875 L 252.460938 399.296875 L 252.601562 399.292969 L 253.019531 399.292969 L 253.160156 399.289062 L 253.4375 399.289062 L 253.578125 399.285156 L 253.996094 399.285156 L 254.136719 399.28125 L 254.554688 399.28125 L 254.695312 399.277344 L 254.972656 399.277344 L 255.113281 399.273438 L 255.390625 399.273438 L 255.53125 399.269531 L 255.949219 399.269531 L 256.089844 399.265625 L 256.371094 399.265625 L 256.507812 399.261719 L 256.789062 399.261719 L 256.929688 399.257812 L 257.207031 399.257812 L 257.347656 399.253906 L 257.625 399.253906 L 257.765625 399.25 L 258.042969 399.25 L 258.183594 399.246094 L 258.464844 399.246094 L 258.601562 399.242188 L 258.882812 399.242188 L 259.023438 399.238281 L 259.300781 399.238281 L 259.441406 399.234375 L 259.582031 399.234375 L 259.71875 399.230469 L 260 399.230469 L 260.140625 399.226562 L 260.417969 399.226562 L 260.558594 399.222656 L 260.695312 399.222656 L 260.835938 399.21875 L 261.117188 399.21875 L 261.253906 399.214844 L 261.535156 399.214844 L 261.675781 399.210938 L 261.8125 399.210938 L 261.953125 399.207031 L 262.234375 399.207031 L 262.371094 399.203125 L 262.511719 399.203125 L 262.652344 399.199219 L 262.792969 399.199219 L 262.929688 399.195312 L 263.210938 399.195312 L 263.351562 399.191406 L 263.488281 399.191406 L 263.628906 399.1875 L 263.769531 399.1875 L 263.90625 399.183594 L 264.1875 399.183594 L 264.328125 399.179688 L 264.464844 399.179688 L 264.605469 399.175781 L 264.746094 399.175781 L 264.886719 399.171875 L 265.023438 399.171875 L 265.164062 399.167969 L 265.304688 399.167969 L 265.445312 399.164062 L 265.582031 399.164062 L 265.722656 399.160156 L 266.003906 399.160156 L 266.140625 399.15625 L 266.28125 399.15625 L 266.421875 399.152344 L 266.5625 399.152344 L 266.699219 399.148438 L 266.839844 399.148438 L 266.980469 399.144531 L 267.117188 399.144531 L 267.257812 399.140625 L 267.398438 399.140625 L 267.539062 399.136719 L 267.675781 399.136719 L 267.957031 399.128906 L 268.097656 399.128906 L 268.234375 399.125 L 268.375 399.125 L 268.515625 399.121094 L 268.65625 399.121094 L 268.792969 399.117188 L 268.933594 399.117188 L 269.074219 399.113281 L 269.214844 399.113281 L 269.351562 399.109375 L 269.492188 399.109375 L 269.632812 399.105469 L 269.769531 399.101562 L 269.910156 399.101562 L 270.050781 399.097656 L 270.191406 399.097656 L 270.328125 399.09375 L 270.46875 399.09375 L 270.75 399.085938 L 270.886719 399.085938 L 271.027344 399.082031 L 271.167969 399.082031 L 271.308594 399.078125 L 271.445312 399.074219 L 271.585938 399.074219 L 271.726562 399.070312 L 271.867188 399.070312 L 272.003906 399.066406 L 272.144531 399.0625 L 272.285156 399.0625 L 272.425781 399.058594 L 272.5625 399.054688 L 272.703125 399.054688 L 272.84375 399.050781 L 272.980469 399.046875 L 273.121094 399.046875 L 273.402344 399.039062 L 273.539062 399.039062 L 273.820312 399.03125 L 273.960938 399.03125 L 274.097656 399.027344 L 274.238281 399.023438 L 274.378906 399.023438 L 274.519531 399.019531 L 274.65625 399.015625 L 274.796875 399.015625 L 275.078125 399.007812 L 275.214844 399.007812 L 275.496094 399 L 275.632812 398.996094 L 275.773438 398.996094 L 276.054688 398.988281 L 276.191406 398.988281 L 276.613281 398.976562 L 276.75 398.976562 L 277.171875 398.964844 L 277.308594 398.960938 L 277.449219 398.960938 L 277.730469 398.953125 L 277.867188 398.949219 L 278.007812 398.949219 L 278.289062 398.941406 L 278.425781 398.9375 L 278.707031 398.929688 L 278.84375 398.929688 L 279.265625 398.917969 L 279.402344 398.914062 L 279.542969 398.910156 L 279.683594 398.910156 L 279.824219 398.90625 L 279.960938 398.902344 L 280.382812 398.890625 L 280.519531 398.886719 L 280.660156 398.886719 L 280.941406 398.878906 L 281.078125 398.875 L 281.359375 398.867188 L 281.496094 398.863281 L 281.917969 398.851562 L 282.054688 398.847656 L 282.195312 398.84375 L 282.335938 398.84375 L 282.476562 398.839844 L 282.613281 398.835938 L 283.035156 398.824219 L 283.171875 398.820312 L 283.59375 398.808594 L 283.730469 398.804688 L 284.152344 398.792969 L 284.289062 398.789062 L 284.570312 398.78125 L 284.707031 398.777344 L 285.128906 398.765625 L 285.265625 398.757812 L 285.6875 398.746094 L 285.824219 398.742188 L 286.246094 398.730469 L 286.382812 398.726562 L 286.664062 398.71875 L 286.804688 398.710938 L 286.941406 398.707031 L 287.363281 398.695312 L 287.5 398.691406 L 287.640625 398.6875 L 287.78125 398.679688 L 287.917969 398.675781 L 288.339844 398.664062 L 288.476562 398.65625 L 288.898438 398.644531 L 289.035156 398.640625 L 289.175781 398.632812 L 289.457031 398.625 L 289.59375 398.621094 L 289.734375 398.613281 L 290.015625 398.605469 L 290.152344 398.601562 L 290.292969 398.59375 L 290.433594 398.589844 L 290.570312 398.585938 L 290.710938 398.578125 L 290.992188 398.570312 L 291.128906 398.5625 L 291.410156 398.554688 L 291.550781 398.546875 L 291.6875 398.542969 L 291.828125 398.539062 L 291.96875 398.53125 L 292.109375 398.527344 L 292.246094 398.523438 L 292.386719 398.515625 L 292.527344 398.511719 L 292.667969 398.503906 L 292.804688 398.5 L 292.945312 398.496094 L 293.085938 398.488281 L 293.226562 398.484375 L 293.363281 398.476562 L 293.503906 398.472656 L 293.644531 398.464844 L 293.78125 398.460938 L 293.921875 398.453125 L 294.203125 398.445312 L 294.339844 398.4375 L 294.480469 398.433594 L 294.761719 398.417969 L 294.898438 398.414062 L 295.039062 398.40625 L 295.179688 398.402344 L 295.320312 398.394531 L 295.457031 398.390625 L 295.597656 398.382812 L 295.738281 398.378906 L 295.878906 398.371094 L 296.015625 398.367188 L 296.296875 398.351562 L 296.433594 398.347656 L 296.714844 398.332031 L 296.855469 398.328125 L 296.992188 398.320312 L 297.132812 398.316406 L 297.414062 398.300781 L 297.550781 398.296875 L 297.972656 398.273438 L 298.109375 398.269531 L 298.390625 398.253906 L 298.53125 398.25 L 298.667969 398.242188 L 298.949219 398.226562 L 299.089844 398.222656 L 299.226562 398.214844 L 299.507812 398.199219 L 299.644531 398.191406 L 299.785156 398.1875 L 300.066406 398.171875 L 300.203125 398.164062 L 300.484375 398.148438 L 300.625 398.144531 L 300.761719 398.136719 L 301.183594 398.113281 L 301.320312 398.105469 L 301.742188 398.082031 L 301.878906 398.074219 L 302.160156 398.058594 L 302.296875 398.050781 L 302.71875 398.027344 L 302.855469 398.019531 L 303.277344 397.996094 L 303.414062 397.988281 L 303.835938 397.964844 L 303.972656 397.957031 L 304.394531 397.933594 L 304.53125 397.921875 L 304.953125 397.898438 L 305.089844 397.890625 L 305.230469 397.882812 L 305.371094 397.871094 L 305.507812 397.863281 L 305.929688 397.839844 L 306.066406 397.828125 L 306.488281 397.804688 L 306.625 397.792969 L 306.90625 397.777344 L 307.046875 397.765625 L 307.183594 397.757812 L 307.324219 397.75 L 307.464844 397.738281 L 307.605469 397.730469 L 307.742188 397.722656 L 307.882812 397.710938 L 308.023438 397.703125 L 308.164062 397.691406 L 308.300781 397.683594 L 308.441406 397.671875 L 308.582031 397.664062 L 308.71875 397.65625 L 308.859375 397.644531 L 309 397.636719 L 309.140625 397.625 L 309.277344 397.617188 L 309.417969 397.605469 L 309.558594 397.597656 L 309.699219 397.585938 L 309.835938 397.574219 L 309.976562 397.566406 L 310.117188 397.554688 L 310.257812 397.546875 L 310.394531 397.535156 L 310.535156 397.527344 L 310.816406 397.503906 L 310.953125 397.496094 L 311.234375 397.472656 L 311.371094 397.464844 L 311.652344 397.441406 L 311.792969 397.433594 L 311.929688 397.421875 L 312.210938 397.398438 L 312.351562 397.390625 L 312.488281 397.378906 L 312.910156 397.34375 L 313.046875 397.335938 L 313.46875 397.300781 L 313.605469 397.289062 L 314.027344 397.253906 L 314.164062 397.246094 L 314.445312 397.222656 L 314.582031 397.210938 L 315.003906 397.175781 L 315.140625 397.164062 L 315.5625 397.128906 L 315.699219 397.113281 L 316.121094 397.078125 L 316.257812 397.066406 L 316.679688 397.03125 L 316.816406 397.015625 L 317.097656 396.992188 L 317.234375 396.980469 L 317.375 396.96875 L 317.515625 396.953125 L 317.65625 396.941406 L 317.792969 396.929688 L 317.933594 396.914062 L 318.214844 396.890625 L 318.351562 396.878906 L 318.492188 396.863281 L 318.632812 396.851562 L 318.773438 396.835938 L 318.910156 396.824219 L 319.050781 396.8125 L 319.191406 396.796875 L 319.332031 396.785156 L 319.46875 396.769531 L 319.609375 396.757812 L 319.75 396.742188 L 319.890625 396.730469 L 320.027344 396.714844 L 320.167969 396.703125 L 320.308594 396.6875 L 320.445312 396.675781 L 320.585938 396.660156 L 320.726562 396.648438 L 320.867188 396.632812 L 321.003906 396.617188 L 321.144531 396.605469 L 321.285156 396.589844 L 321.425781 396.578125 L 321.5625 396.5625 L 321.84375 396.53125 L 321.984375 396.519531 L 322.121094 396.503906 L 322.261719 396.488281 L 322.402344 396.476562 L 322.542969 396.460938 L 322.679688 396.445312 L 322.960938 396.414062 L 323.097656 396.398438 L 323.238281 396.386719 L 323.519531 396.355469 L 323.65625 396.339844 L 324.078125 396.292969 L 324.214844 396.277344 L 324.636719 396.230469 L 324.773438 396.214844 L 325.195312 396.167969 L 325.332031 396.152344 L 325.613281 396.121094 L 325.753906 396.101562 L 325.890625 396.085938 L 326.171875 396.054688 L 326.308594 396.039062 L 326.449219 396.019531 L 326.730469 395.988281 L 326.867188 395.972656 L 327.007812 395.953125 L 327.289062 395.921875 L 327.425781 395.902344 L 327.707031 395.871094 L 327.847656 395.851562 L 327.984375 395.835938 L 328.125 395.816406 L 328.265625 395.800781 L 328.40625 395.78125 L 328.542969 395.765625 L 328.683594 395.746094 L 328.824219 395.730469 L 328.960938 395.710938 L 329.101562 395.695312 L 329.242188 395.675781 L 329.382812 395.660156 L 329.519531 395.640625 L 329.660156 395.621094 L 329.800781 395.605469 L 329.941406 395.585938 L 330.078125 395.566406 L 330.21875 395.550781 L 330.5 395.511719 L 330.636719 395.496094 L 331.058594 395.4375 L 331.195312 395.417969 L 331.335938 395.402344 L 331.617188 395.363281 L 331.753906 395.34375 L 332.035156 395.304688 L 332.171875 395.285156 L 332.59375 395.226562 L 332.730469 395.207031 L 333.152344 395.148438 L 333.289062 395.128906 L 333.429688 395.109375 L 333.570312 395.085938 L 333.710938 395.066406 L 333.847656 395.046875 L 334.128906 395.007812 L 334.269531 394.984375 L 334.40625 394.964844 L 334.6875 394.925781 L 334.828125 394.902344 L 334.964844 394.882812 L 335.105469 394.863281 L 335.246094 394.839844 L 335.382812 394.820312 L 335.523438 394.796875 L 335.804688 394.757812 L 335.941406 394.734375 L 336.082031 394.714844 L 336.363281 394.667969 L 336.5 394.648438 L 336.640625 394.625 L 336.78125 394.605469 L 336.921875 394.582031 L 337.058594 394.5625 L 337.480469 394.492188 L 337.617188 394.472656 L 337.898438 394.425781 L 338.035156 394.40625 L 338.457031 394.335938 L 338.59375 394.3125 L 339.015625 394.242188 L 339.152344 394.222656 L 339.574219 394.152344 L 339.710938 394.128906 L 339.851562 394.105469 L 339.992188 394.078125 L 340.132812 394.054688 L 340.269531 394.03125 L 340.691406 393.960938 L 340.828125 393.9375 L 340.96875 393.910156 L 341.109375 393.886719 L 341.246094 393.863281 L 341.386719 393.839844 L 341.527344 393.8125 L 341.667969 393.789062 L 341.804688 393.765625 L 341.945312 393.738281 L 342.085938 393.714844 L 342.226562 393.6875 L 342.363281 393.664062 L 342.503906 393.640625 L 342.644531 393.613281 L 342.785156 393.589844 L 342.921875 393.5625 L 343.0625 393.539062 L 343.34375 393.484375 L 343.480469 393.460938 L 343.621094 393.433594 L 343.761719 393.410156 L 343.898438 393.382812 L 344.179688 393.328125 L 344.320312 393.304688 L 344.457031 393.277344 L 344.738281 393.222656 L 344.878906 393.199219 L 345.015625 393.171875 L 345.4375 393.089844 L 345.574219 393.0625 L 345.996094 392.980469 L 346.132812 392.953125 L 346.554688 392.871094 L 346.691406 392.84375 L 346.832031 392.816406 L 346.972656 392.785156 L 347.109375 392.757812 L 347.390625 392.703125 L 347.53125 392.671875 L 347.667969 392.644531 L 347.949219 392.589844 L 348.089844 392.558594 L 348.226562 392.53125 L 348.367188 392.5 L 348.648438 392.445312 L 348.785156 392.414062 L 348.925781 392.386719 L 349.066406 392.355469 L 349.207031 392.328125 L 349.34375 392.296875 L 349.484375 392.265625 L 349.625 392.238281 L 349.761719 392.207031 L 349.902344 392.175781 L 350.042969 392.148438 L 350.183594 392.117188 L 350.320312 392.085938 L 350.460938 392.058594 L 350.742188 391.996094 L 350.878906 391.964844 L 351.160156 391.902344 L 351.300781 391.875 L 351.4375 391.84375 L 351.859375 391.75 L 351.996094 391.71875 L 352.417969 391.625 L 352.554688 391.589844 L 352.835938 391.527344 L 352.972656 391.496094 L 353.113281 391.464844 L 353.253906 391.429688 L 353.394531 391.398438 L 353.53125 391.367188 L 353.671875 391.335938 L 353.8125 391.300781 L 353.953125 391.269531 L 354.089844 391.238281 L 354.230469 391.203125 L 354.371094 391.171875 L 354.511719 391.136719 L 354.648438 391.105469 L 354.789062 391.070312 L 354.929688 391.039062 L 355.070312 391.003906 L 355.207031 390.972656 L 355.488281 390.902344 L 355.628906 390.871094 L 355.765625 390.835938 L 355.90625 390.800781 L 356.046875 390.769531 L 356.183594 390.734375 L 356.605469 390.628906 L 356.742188 390.597656 L 357.164062 390.492188 L 357.300781 390.457031 L 357.722656 390.351562 L 357.859375 390.316406 L 358.140625 390.246094 L 358.28125 390.207031 L 358.417969 390.171875 L 358.699219 390.101562 L 358.835938 390.066406 L 358.976562 390.027344 L 359.257812 389.957031 L 359.394531 389.917969 L 359.675781 389.847656 L 359.816406 389.808594 L 359.953125 389.773438 L 360.09375 389.734375 L 360.234375 389.699219 L 360.375 389.660156 L 360.511719 389.625 L 360.652344 389.585938 L 360.792969 389.550781 L 360.933594 389.511719 L 361.070312 389.472656 L 361.210938 389.4375 L 361.492188 389.359375 L 361.628906 389.324219 L 361.910156 389.246094 L 362.046875 389.207031 L 362.328125 389.128906 L 362.46875 389.09375 L 362.605469 389.054688 L 363.027344 388.9375 L 363.164062 388.898438 L 363.445312 388.820312 L 363.585938 388.777344 L 363.722656 388.738281 L 364.144531 388.621094 L 364.28125 388.582031 L 364.421875 388.539062 L 364.5625 388.5 L 364.699219 388.460938 L 364.839844 388.417969 L 365.121094 388.339844 L 365.257812 388.296875 L 365.398438 388.257812 L 365.539062 388.214844 L 365.679688 388.175781 L 365.816406 388.132812 L 365.957031 388.09375 L 366.097656 388.050781 L 366.238281 388.011719 L 366.375 387.96875 L 366.515625 387.925781 L 366.65625 387.886719 L 366.796875 387.84375 L 366.933594 387.800781 L 367.074219 387.757812 L 367.214844 387.71875 L 367.355469 387.675781 L 367.492188 387.632812 L 367.773438 387.546875 L 367.910156 387.503906 L 368.332031 387.375 L 368.46875 387.332031 L 368.890625 387.203125 L 369.027344 387.160156 L 369.449219 387.03125 L 369.585938 386.984375 L 370.007812 386.855469 L 370.144531 386.808594 L 370.285156 386.765625 L 370.425781 386.71875 L 370.5625 386.675781 L 370.703125 386.632812 L 370.84375 386.585938 L 370.984375 386.542969 L 371.121094 386.496094 L 371.261719 386.453125 L 371.402344 386.40625 L 371.542969 386.363281 L 371.679688 386.316406 L 371.820312 386.269531 L 371.960938 386.226562 L 372.101562 386.179688 L 372.238281 386.132812 L 372.378906 386.085938 L 372.519531 386.042969 L 372.660156 385.996094 L 372.796875 385.949219 L 373.21875 385.808594 L 373.355469 385.765625 L 373.636719 385.671875 L 373.773438 385.625 L 374.195312 385.484375 L 374.332031 385.433594 L 374.753906 385.292969 L 374.890625 385.246094 L 375.03125 385.199219 L 375.171875 385.148438 L 375.3125 385.101562 L 375.449219 385.054688 L 375.589844 385.003906 L 375.871094 384.910156 L 376.007812 384.859375 L 376.148438 384.8125 L 376.289062 384.761719 L 376.429688 384.714844 L 376.566406 384.664062 L 376.707031 384.617188 L 376.847656 384.566406 L 376.984375 384.519531 L 377.265625 384.417969 L 377.40625 384.371094 L 377.542969 384.320312 L 377.683594 384.269531 L 377.824219 384.222656 L 377.964844 384.171875 L 378.101562 384.121094 L 378.382812 384.019531 L 378.523438 383.972656 L 378.660156 383.921875 L 379.082031 383.769531 L 379.21875 383.71875 L 379.5 383.617188 L 379.636719 383.566406 L 379.917969 383.464844 L 380.058594 383.410156 L 380.195312 383.359375 L 380.617188 383.207031 L 380.753906 383.152344 L 381.175781 383 L 381.3125 382.945312 L 381.453125 382.894531 L 381.59375 382.839844 L 381.734375 382.789062 L 381.871094 382.738281 L 382.011719 382.683594 L 382.152344 382.632812 L 382.292969 382.578125 L 382.429688 382.523438 L 382.570312 382.472656 L 382.710938 382.417969 L 382.847656 382.367188 L 383.128906 382.257812 L 383.269531 382.207031 L 383.40625 382.152344 L 383.6875 382.042969 L 383.828125 381.992188 L 383.964844 381.9375 L 384.386719 381.773438 L 384.523438 381.71875 L 384.664062 381.667969 L 384.945312 381.558594 L 385.082031 381.503906 L 385.363281 381.394531 L 385.5 381.335938 L 385.921875 381.171875 L 386.058594 381.117188 L 386.339844 381.007812 L 386.480469 380.949219 L 386.617188 380.894531 L 386.898438 380.785156 L 387.039062 380.726562 L 387.175781 380.671875 L 387.316406 380.617188 L 387.457031 380.558594 L 387.597656 380.503906 L 387.734375 380.445312 L 387.875 380.390625 L 388.015625 380.332031 L 388.15625 380.277344 L 388.292969 380.21875 L 388.433594 380.164062 L 388.574219 380.105469 L 388.710938 380.050781 L 388.851562 379.992188 L 388.992188 379.9375 L 389.132812 379.878906 L 389.269531 379.820312 L 389.410156 379.765625 L 389.691406 379.648438 L 389.828125 379.589844 L 389.96875 379.535156 L 390.25 379.417969 L 390.386719 379.359375 L 390.527344 379.300781 L 390.667969 379.246094 L 390.808594 379.1875 L 390.945312 379.128906 L 391.226562 379.011719 L 391.363281 378.953125 L 391.785156 378.777344 L 391.921875 378.71875 L 392.203125 378.601562 L 392.34375 378.539062 L 392.480469 378.480469 L 392.902344 378.304688 L 393.039062 378.246094 L 393.179688 378.183594 L 393.460938 378.066406 L 393.597656 378.003906 L 393.878906 377.886719 L 394.019531 377.824219 L 394.15625 377.765625 L 394.296875 377.707031 L 394.4375 377.644531 L 394.574219 377.585938 L 394.714844 377.523438 L 394.855469 377.464844 L 394.996094 377.402344 L 395.132812 377.34375 L 395.273438 377.28125 L 395.414062 377.222656 L 395.554688 377.160156 L 395.691406 377.101562 L 395.832031 377.039062 L 395.972656 376.980469 L 396.113281 376.917969 L 396.25 376.855469 L 396.390625 376.796875 L 396.671875 376.671875 L 396.808594 376.613281 L 397.089844 376.488281 L 397.226562 376.425781 L 397.367188 376.363281 L 397.507812 376.304688 L 397.648438 376.242188 L 397.785156 376.179688 L 398.207031 375.992188 L 398.34375 375.933594 L 398.765625 375.746094 L 398.902344 375.683594 L 399.324219 375.496094 L 399.460938 375.433594 L 399.882812 375.246094 L 400.019531 375.179688 L 400.300781 375.054688 L 400.4375 374.992188 L 400.859375 374.804688 L 400.996094 374.738281 L 401.417969 374.550781 L 401.554688 374.484375 L 401.976562 374.296875 L 402.113281 374.230469 L 402.394531 374.105469 L 402.535156 374.039062 L 402.671875 373.976562 L 402.8125 373.914062 L 402.953125 373.847656 L 403.09375 373.785156 L 403.230469 373.71875 L 403.371094 373.65625 L 403.511719 373.589844 L 403.648438 373.527344 L 403.789062 373.464844 L 403.929688 373.398438 L 404.070312 373.335938 L 404.207031 373.269531 L 404.347656 373.207031 L 404.628906 373.074219 L 404.765625 373.011719 L 404.90625 372.945312 L 405.046875 372.882812 L 405.1875 372.816406 L 405.324219 372.753906 L 405.605469 372.621094 L 405.746094 372.558594 L 405.882812 372.492188 L 406.023438 372.425781 L 406.164062 372.363281 L 406.300781 372.296875 L 406.441406 372.230469 L 406.582031 372.167969 L 406.722656 372.101562 L 406.859375 372.035156 L 407 371.972656 L 407.28125 371.839844 L 407.417969 371.773438 L 407.558594 371.710938 L 407.839844 371.578125 L 407.976562 371.511719 L 408.117188 371.445312 L 408.257812 371.382812 L 408.398438 371.316406 L 408.535156 371.25 L 408.957031 371.050781 L 409.09375 370.988281 L 409.375 370.855469 L 409.511719 370.789062 L 409.933594 370.589844 L 410.070312 370.523438 L 410.210938 370.457031 L 410.351562 370.394531 L 410.492188 370.328125 L 410.628906 370.261719 L 411.050781 370.0625 L 411.1875 369.996094 L 411.609375 369.796875 L 411.746094 369.730469 L 412.027344 369.597656 L 412.164062 369.53125 L 412.585938 369.332031 L 412.722656 369.265625 L 413.144531 369.066406 L 413.28125 369 L 413.703125 368.800781 L 413.839844 368.734375 L 413.980469 368.664062 L 414.261719 368.53125 L 414.398438 368.464844 L 414.820312 368.265625 L 414.957031 368.199219 L 415.238281 368.066406 L 415.375 368 L 415.65625 367.867188 L 415.796875 367.796875 L 415.933594 367.730469 L 416.355469 367.53125 L 416.492188 367.464844 L 416.914062 367.265625 L 417.050781 367.199219 L 417.191406 367.132812 L 417.332031 367.0625 L 417.472656 366.996094 L 417.609375 366.929688 L 417.890625 366.796875 L 418.027344 366.730469 L 418.449219 366.53125 L 418.585938 366.464844 L 418.726562 366.394531 L 419.007812 366.261719 L 419.144531 366.195312 L 419.566406 365.996094 L 419.703125 365.929688 L 420.125 365.730469 L 420.261719 365.664062 L 420.542969 365.53125 L 420.683594 365.460938 L 420.820312 365.394531 L 421.101562 365.261719 L 421.238281 365.195312 L 421.660156 364.996094 L 421.796875 364.929688 L 422.21875 364.730469 L 422.355469 364.664062 L 422.777344 364.464844 L 422.914062 364.398438 L 423.335938 364.199219 L 423.472656 364.132812 L 423.613281 364.066406 L 423.753906 364.003906 L 423.894531 363.9375 L 424.03125 363.871094 L 424.3125 363.738281 L 424.449219 363.671875 L 424.871094 363.472656 L 425.007812 363.40625 L 425.148438 363.34375 L 425.429688 363.210938 L 425.566406 363.144531 L 425.847656 363.011719 L 425.988281 362.949219 L 426.125 362.882812 L 426.40625 362.75 L 426.546875 362.6875 L 426.683594 362.621094 L 426.964844 362.488281 L 427.101562 362.425781 L 427.382812 362.292969 L 427.523438 362.230469 L 427.660156 362.164062 L 427.800781 362.097656 L 427.941406 362.035156 L 428.082031 361.96875 L 428.21875 361.902344 L 428.359375 361.839844 L 428.640625 361.707031 L 428.777344 361.644531 L 428.917969 361.578125 L 429.058594 361.515625 L 429.199219 361.449219 L 429.335938 361.386719 L 429.476562 361.320312 L 429.617188 361.257812 L 429.757812 361.191406 L 429.894531 361.128906 L 430.035156 361.0625 L 430.175781 361 L 430.3125 360.933594 L 430.59375 360.808594 L 430.734375 360.742188 L 430.871094 360.679688 L 431.011719 360.617188 L 431.152344 360.550781 L 431.292969 360.488281 L 431.429688 360.425781 L 431.570312 360.359375 L 431.851562 360.234375 L 431.988281 360.171875 L 432.128906 360.105469 L 432.410156 359.980469 L 432.546875 359.917969 L 432.828125 359.792969 L 432.964844 359.726562 L 433.386719 359.539062 L 433.523438 359.476562 L 433.945312 359.289062 L 434.082031 359.226562 L 434.503906 359.039062 L 434.640625 358.976562 L 434.78125 358.917969 L 435.0625 358.792969 L 435.199219 358.730469 L 435.339844 358.667969 L 435.480469 358.609375 L 435.621094 358.546875 L 435.757812 358.484375 L 435.898438 358.421875 L 436.039062 358.363281 L 436.175781 358.300781 L 436.316406 358.238281 L 436.457031 358.179688 L 436.597656 358.117188 L 436.734375 358.058594 L 436.875 357.996094 L 437.015625 357.9375 L 437.15625 357.875 L 437.292969 357.816406 L 437.433594 357.753906 L 437.574219 357.695312 L 437.714844 357.632812 L 437.851562 357.574219 L 437.992188 357.511719 L 438.273438 357.394531 L 438.410156 357.335938 L 438.550781 357.273438 L 438.691406 357.214844 L 438.828125 357.15625 L 438.96875 357.097656 L 439.109375 357.035156 L 439.25 356.976562 L 439.386719 356.917969 L 439.808594 356.742188 L 439.945312 356.683594 L 440.367188 356.507812 L 440.503906 356.449219 L 440.785156 356.332031 L 440.925781 356.277344 L 441.0625 356.21875 L 441.34375 356.101562 L 441.484375 356.046875 L 441.621094 355.988281 L 441.761719 355.929688 L 441.902344 355.875 L 442.039062 355.816406 L 442.179688 355.757812 L 442.320312 355.703125 L 442.460938 355.644531 L 442.597656 355.589844 L 442.738281 355.53125 L 443.019531 355.421875 L 443.15625 355.363281 L 443.296875 355.308594 L 443.4375 355.25 L 443.578125 355.195312 L 443.714844 355.140625 L 443.996094 355.03125 L 444.136719 354.972656 L 444.273438 354.917969 L 444.695312 354.753906 L 444.832031 354.699219 L 445.113281 354.589844 L 445.25 354.535156 L 445.390625 354.480469 L 445.53125 354.429688 L 445.671875 354.375 L 445.808594 354.320312 L 446.089844 354.210938 L 446.230469 354.160156 L 446.367188 354.105469 L 446.507812 354.054688 L 446.789062 353.945312 L 446.925781 353.894531 L 447.066406 353.839844 L 447.347656 353.738281 L 447.484375 353.683594 L 447.765625 353.582031 L 447.902344 353.527344 L 448.324219 353.375 L 448.460938 353.324219 L 448.742188 353.222656 L 448.882812 353.167969 L 449.019531 353.121094 L 449.441406 352.96875 L 449.578125 352.917969 L 449.859375 352.816406 L 450 352.769531 L 450.136719 352.71875 L 450.277344 352.667969 L 450.417969 352.621094 L 450.558594 352.570312 L 450.695312 352.523438 L 450.835938 352.472656 L 450.976562 352.425781 L 451.113281 352.375 L 451.394531 352.28125 L 451.535156 352.230469 L 451.671875 352.183594 L 451.953125 352.089844 L 452.09375 352.039062 L 452.230469 351.992188 L 452.652344 351.851562 L 452.789062 351.804688 L 452.929688 351.757812 L 453.070312 351.714844 L 453.210938 351.667969 L 453.347656 351.621094 L 453.488281 351.574219 L 453.628906 351.53125 L 453.765625 351.484375 L 453.90625 351.4375 L 454.046875 351.394531 L 454.1875 351.347656 L 454.324219 351.304688 L 454.464844 351.257812 L 454.746094 351.171875 L 454.882812 351.125 L 455.304688 350.996094 L 455.441406 350.949219 L 455.863281 350.820312 L 456 350.777344 L 456.28125 350.691406 L 456.421875 350.652344 L 456.558594 350.609375 L 456.839844 350.523438 L 456.976562 350.484375 L 457.257812 350.398438 L 457.398438 350.359375 L 457.535156 350.316406 L 457.816406 350.238281 L 457.957031 350.195312 L 458.09375 350.15625 L 458.234375 350.117188 L 458.375 350.074219 L 458.515625 350.035156 L 458.652344 349.996094 L 459.074219 349.878906 L 459.210938 349.839844 L 459.492188 349.761719 L 459.628906 349.726562 L 460.050781 349.609375 L 460.1875 349.574219 L 460.328125 349.535156 L 460.46875 349.5 L 460.609375 349.460938 L 460.746094 349.425781 L 460.886719 349.386719 L 461.167969 349.316406 L 461.304688 349.28125 L 461.445312 349.242188 L 461.726562 349.171875 L 461.863281 349.136719 L 462.285156 349.03125 L 462.421875 348.996094 L 462.5625 348.964844 L 462.703125 348.929688 L 462.839844 348.894531 L 462.980469 348.863281 L 463.261719 348.792969 L 463.398438 348.761719 L 463.539062 348.730469 L 463.679688 348.695312 L 463.820312 348.664062 L 463.957031 348.632812 L 464.097656 348.597656 L 464.378906 348.535156 L 464.515625 348.503906 L 464.9375 348.410156 L 465.074219 348.378906 L 465.355469 348.316406 L 465.496094 348.289062 L 465.632812 348.257812 L 465.773438 348.226562 L 465.914062 348.199219 L 466.050781 348.167969 L 466.191406 348.140625 L 466.332031 348.109375 L 466.472656 348.082031 L 466.609375 348.054688 L 466.75 348.023438 L 467.03125 347.96875 L 467.167969 347.941406 L 467.589844 347.859375 L 467.726562 347.832031 L 468.007812 347.777344 L 468.148438 347.753906 L 468.285156 347.726562 L 468.425781 347.699219 L 468.566406 347.675781 L 468.703125 347.648438 L 468.84375 347.625 L 468.984375 347.597656 L 469.125 347.574219 L 469.261719 347.550781 L 469.402344 347.523438 L 469.683594 347.476562 L 469.820312 347.453125 L 470.242188 347.382812 L 470.378906 347.359375 L 470.660156 347.3125 L 470.800781 347.292969 L 470.9375 347.269531 L 471.078125 347.246094 L 471.21875 347.226562 L 471.359375 347.203125 L 471.496094 347.183594 L 471.636719 347.160156 L 471.777344 347.140625 L 471.914062 347.121094 L 472.054688 347.101562 L 472.195312 347.078125 L 472.335938 347.058594 L 472.472656 347.039062 L 472.894531 346.980469 L 473.03125 346.964844 L 473.453125 346.90625 L 473.589844 346.890625 L 473.730469 346.871094 L 473.871094 346.855469 L 474.011719 346.835938 L 474.148438 346.820312 L 474.289062 346.804688 L 474.429688 346.785156 L 474.566406 346.769531 L 474.988281 346.722656 L 475.125 346.707031 L 475.546875 346.660156 L 475.683594 346.644531 L 475.824219 346.632812 L 476.105469 346.601562 L 476.242188 346.589844 L 476.382812 346.574219 L 476.523438 346.5625 L 476.664062 346.546875 L 476.800781 346.535156 L 477.222656 346.5 L 477.359375 346.484375 L 477.640625 346.460938 L 477.777344 346.453125 L 478.199219 346.417969 L 478.335938 346.40625 L 478.476562 346.398438 L 478.617188 346.386719 L 478.757812 346.378906 L 478.894531 346.367188 L 479.175781 346.351562 L 479.316406 346.339844 L 479.453125 346.332031 L 479.875 346.308594 L 480.011719 346.300781 L 480.292969 346.285156 L 480.429688 346.277344 L 480.570312 346.269531 L 480.710938 346.265625 L 480.851562 346.257812 L 480.988281 346.25 L 481.128906 346.246094 L 481.269531 346.238281 L 481.410156 346.234375 L 481.546875 346.230469 L 481.6875 346.222656 L 481.96875 346.214844 L 482.105469 346.210938 L 482.527344 346.199219 L 482.664062 346.195312 L 482.945312 346.1875 L 483.085938 346.1875 L 483.222656 346.183594 L 483.363281 346.179688 L 483.503906 346.179688 L 483.640625 346.175781 L 483.921875 346.175781 L 484.0625 346.171875 L 485.457031 346.171875 L 485.597656 346.175781 L 485.738281 346.175781 L 485.875 346.179688 L 486.015625 346.179688 L 486.15625 346.183594 L 486.292969 346.183594 L 486.574219 346.191406 L 486.714844 346.191406 L 486.851562 346.195312 L 487.273438 346.207031 L 487.410156 346.210938 L 487.550781 346.214844 L 487.691406 346.222656 L 487.832031 346.226562 L 487.96875 346.230469 L 488.109375 346.238281 L 488.25 346.242188 L 488.390625 346.25 L 488.527344 346.253906 L 488.667969 346.261719 L 488.808594 346.265625 L 488.949219 346.273438 L 489.085938 346.28125 L 489.367188 346.296875 L 489.503906 346.304688 L 489.925781 346.328125 L 490.0625 346.335938 L 490.203125 346.34375 L 490.34375 346.355469 L 490.484375 346.363281 L 490.621094 346.371094 L 490.761719 346.382812 L 490.902344 346.390625 L 491.042969 346.402344 L 491.179688 346.414062 L 491.320312 346.421875 L 491.601562 346.445312 L 491.738281 346.457031 L 492.160156 346.492188 L 492.296875 346.503906 L 492.578125 346.527344 L 492.714844 346.542969 L 492.996094 346.566406 L 493.136719 346.582031 L 493.273438 346.59375 L 493.414062 346.609375 L 493.554688 346.621094 L 493.695312 346.636719 L 493.832031 346.652344 L 494.113281 346.683594 L 494.253906 346.695312 L 494.390625 346.710938 L 494.671875 346.742188 L 494.8125 346.761719 L 494.949219 346.777344 L 495.230469 346.808594 L 495.367188 346.828125 L 495.507812 346.84375 L 495.648438 346.863281 L 495.789062 346.878906 L 495.925781 346.898438 L 496.066406 346.914062 L 496.347656 346.953125 L 496.484375 346.972656 L 496.625 346.988281 L 496.90625 347.027344 L 497.042969 347.046875 L 497.183594 347.066406 L 497.324219 347.089844 L 497.464844 347.109375 L 497.601562 347.128906 L 497.742188 347.148438 L 497.882812 347.171875 L 498.023438 347.191406 L 498.160156 347.214844 L 498.300781 347.234375 L 498.441406 347.257812 L 498.578125 347.277344 L 499 347.347656 L 499.136719 347.367188 L 499.558594 347.4375 L 499.695312 347.460938 L 499.835938 347.484375 L 499.976562 347.511719 L 500.117188 347.535156 L 500.253906 347.558594 L 500.394531 347.582031 L 500.535156 347.609375 L 500.675781 347.632812 L 500.8125 347.660156 L 500.953125 347.683594 L 501.09375 347.710938 L 501.230469 347.738281 L 501.371094 347.761719 L 501.652344 347.816406 L 501.789062 347.84375 L 502.210938 347.925781 L 502.347656 347.953125 L 502.769531 348.035156 L 502.90625 348.066406 L 503.1875 348.121094 L 503.328125 348.152344 L 503.464844 348.179688 L 503.605469 348.210938 L 503.746094 348.238281 L 503.886719 348.269531 L 504.023438 348.300781 L 504.164062 348.332031 L 504.304688 348.359375 L 504.441406 348.390625 L 504.863281 348.484375 L 505 348.515625 L 505.140625 348.546875 L 505.28125 348.582031 L 505.421875 348.613281 L 505.558594 348.644531 L 505.699219 348.675781 L 505.839844 348.710938 L 505.980469 348.742188 L 506.117188 348.777344 L 506.257812 348.808594 L 506.398438 348.84375 L 506.539062 348.875 L 506.675781 348.910156 L 506.816406 348.945312 L 506.957031 348.976562 L 507.09375 349.011719 L 507.515625 349.117188 L 507.652344 349.152344 L 508.074219 349.257812 L 508.210938 349.292969 L 508.351562 349.332031 L 508.632812 349.402344 L 508.769531 349.441406 L 508.910156 349.476562 L 509.050781 349.515625 L 509.191406 349.550781 L 509.328125 349.589844 L 509.46875 349.625 L 509.75 349.703125 L 509.886719 349.742188 L 510.027344 349.777344 L 510.167969 349.816406 L 510.304688 349.855469 L 510.726562 349.972656 L 510.863281 350.011719 L 511.003906 350.050781 L 511.144531 350.09375 L 511.285156 350.132812 L 511.421875 350.171875 L 511.5625 350.214844 L 511.84375 350.292969 L 511.980469 350.335938 L 512.121094 350.375 L 512.261719 350.417969 L 512.402344 350.457031 L 512.539062 350.5 L 512.679688 350.542969 L 512.820312 350.582031 L 512.960938 350.625 L 513.097656 350.667969 L 513.378906 350.753906 L 513.515625 350.796875 L 513.9375 350.925781 L 514.074219 350.96875 L 514.355469 351.054688 L 514.496094 351.101562 L 514.632812 351.144531 L 514.773438 351.1875 L 514.914062 351.234375 L 515.054688 351.277344 L 515.191406 351.324219 L 515.332031 351.367188 L 515.472656 351.414062 L 515.613281 351.457031 L 515.75 351.503906 L 515.890625 351.546875 L 516.03125 351.59375 L 516.167969 351.640625 L 516.449219 351.734375 L 516.589844 351.777344 L 516.726562 351.824219 L 517.148438 351.964844 L 517.285156 352.011719 L 517.425781 352.0625 L 517.707031 352.15625 L 517.84375 352.203125 L 517.984375 352.25 L 518.125 352.300781 L 518.265625 352.347656 L 518.402344 352.398438 L 518.683594 352.492188 L 518.824219 352.542969 L 518.960938 352.589844 L 519.242188 352.691406 L 519.378906 352.738281 L 519.800781 352.890625 L 519.9375 352.9375 L 520.359375 353.089844 L 520.496094 353.140625 L 520.917969 353.292969 L 521.054688 353.34375 L 521.335938 353.445312 L 521.476562 353.5 L 521.613281 353.550781 L 521.753906 353.601562 L 521.894531 353.65625 L 522.03125 353.707031 L 522.171875 353.757812 L 522.3125 353.8125 L 522.453125 353.863281 L 522.589844 353.917969 L 522.730469 353.96875 L 522.871094 354.023438 L 523.011719 354.074219 L 523.148438 354.128906 L 523.289062 354.183594 L 523.429688 354.234375 L 523.570312 354.289062 L 523.707031 354.34375 L 523.847656 354.398438 L 523.988281 354.449219 L 524.128906 354.503906 L 524.265625 354.558594 L 524.6875 354.722656 L 524.824219 354.777344 L 525.105469 354.886719 L 525.242188 354.941406 L 525.523438 355.050781 L 525.664062 355.109375 L 525.800781 355.164062 L 526.082031 355.273438 L 526.222656 355.332031 L 526.359375 355.386719 L 526.5 355.445312 L 526.78125 355.554688 L 526.917969 355.613281 L 527.058594 355.667969 L 527.199219 355.726562 L 527.339844 355.78125 L 527.476562 355.839844 L 527.617188 355.898438 L 527.757812 355.953125 L 527.894531 356.011719 L 528.035156 356.070312 L 528.175781 356.125 L 528.316406 356.183594 L 528.453125 356.242188 L 528.734375 356.359375 L 528.875 356.414062 L 529.011719 356.472656 L 529.433594 356.648438 L 529.570312 356.707031 L 529.992188 356.882812 L 530.128906 356.941406 L 530.269531 357.003906 L 530.550781 357.121094 L 530.6875 357.179688 L 530.828125 357.238281 L 530.96875 357.300781 L 531.105469 357.359375 L 531.246094 357.417969 L 531.386719 357.480469 L 531.527344 357.539062 L 531.664062 357.597656 L 531.804688 357.660156 L 531.945312 357.71875 L 532.085938 357.78125 L 532.222656 357.839844 L 532.363281 357.902344 L 532.503906 357.960938 L 532.644531 358.023438 L 532.78125 358.082031 L 532.921875 358.144531 L 533.0625 358.203125 L 533.203125 358.265625 L 533.339844 358.328125 L 533.480469 358.386719 L 533.761719 358.511719 L 533.898438 358.570312 L 534.179688 358.695312 L 534.316406 358.757812 L 534.457031 358.820312 L 534.597656 358.878906 L 534.738281 358.941406 L 534.875 359.003906 L 535.296875 359.191406 L 535.433594 359.253906 L 535.855469 359.441406 L 535.992188 359.503906 L 536.414062 359.691406 L 536.550781 359.753906 L 536.832031 359.878906 L 536.96875 359.945312 L 537.390625 360.132812 L 537.527344 360.195312 L 537.667969 360.261719 L 537.949219 360.386719 L 538.085938 360.449219 L 538.226562 360.515625 L 538.507812 360.640625 L 538.644531 360.707031 L 538.785156 360.769531 L 538.925781 360.835938 L 539.066406 360.898438 L 539.203125 360.960938 L 539.34375 361.027344 L 539.484375 361.089844 L 539.625 361.15625 L 539.761719 361.21875 L 539.902344 361.285156 L 540.042969 361.347656 L 540.179688 361.414062 L 540.320312 361.476562 L 540.460938 361.542969 L 540.601562 361.605469 L 540.738281 361.671875 L 540.878906 361.734375 L 541.160156 361.867188 L 541.296875 361.929688 L 541.578125 362.0625 L 541.71875 362.125 L 541.855469 362.191406 L 541.996094 362.257812 L 542.136719 362.320312 L 542.277344 362.386719 L 542.414062 362.453125 L 542.554688 362.515625 L 542.695312 362.582031 L 542.832031 362.648438 L 542.972656 362.714844 L 543.113281 362.777344 L 543.253906 362.84375 L 543.390625 362.910156 L 543.671875 363.042969 L 543.8125 363.105469 L 543.949219 363.171875 L 544.371094 363.371094 L 544.507812 363.4375 L 544.648438 363.5 L 544.929688 363.632812 L 545.066406 363.699219 L 545.488281 363.898438 L 545.625 363.964844 L 545.90625 364.097656 L 546.042969 364.164062 L 546.183594 364.226562 L 546.464844 364.359375 L 546.601562 364.425781 L 547.023438 364.625 L 547.160156 364.691406 L 547.582031 364.890625 L 547.71875 364.957031 L 548.140625 365.15625 L 548.277344 365.222656 L 548.417969 365.289062 L 548.558594 365.359375 L 548.695312 365.425781 L 549.117188 365.625 L 549.253906 365.691406 L 549.675781 365.890625 L 549.8125 365.957031 L 550.234375 366.15625 L 550.371094 366.222656 L 550.511719 366.289062 L 550.652344 366.359375 L 550.792969 366.425781 L 550.929688 366.492188 L 551.351562 366.691406 L 551.488281 366.757812 L 551.769531 366.890625 L 551.90625 366.957031 L 552.046875 367.027344 L 552.328125 367.160156 L 552.464844 367.226562 L 552.886719 367.425781 L 553.023438 367.492188 L 553.445312 367.691406 L 553.582031 367.761719 L 554.003906 367.960938 L 554.140625 368.027344 L 554.5625 368.226562 L 554.699219 368.292969 L 554.980469 368.425781 L 555.117188 368.492188 L 555.257812 368.5625 L 555.539062 368.695312 L 555.675781 368.761719 L 556.097656 368.960938 L 556.234375 369.027344 L 556.65625 369.226562 L 556.792969 369.292969 L 557.214844 369.492188 L 557.351562 369.558594 L 557.632812 369.691406 L 557.769531 369.757812 L 558.191406 369.957031 L 558.328125 370.023438 L 558.75 370.222656 L 558.886719 370.289062 L 559.308594 370.488281 L 559.445312 370.550781 L 559.867188 370.75 L 560.003906 370.816406 L 560.425781 371.015625 L 560.5625 371.078125 L 560.84375 371.210938 L 560.980469 371.277344 L 561.261719 371.410156 L 561.402344 371.472656 L 561.539062 371.539062 L 561.960938 371.738281 L 562.097656 371.800781 L 562.519531 372 L 562.65625 372.0625 L 562.9375 372.195312 L 563.078125 372.257812 L 563.214844 372.324219 L 563.355469 372.390625 L 563.496094 372.453125 L 563.632812 372.519531 L 563.773438 372.585938 L 563.914062 372.648438 L 564.054688 372.714844 L 564.191406 372.78125 L 564.332031 372.84375 L 564.472656 372.910156 L 564.613281 372.972656 L 564.75 373.039062 L 564.890625 373.101562 L 565.03125 373.167969 L 565.171875 373.230469 L 565.308594 373.296875 L 565.449219 373.359375 L 565.589844 373.425781 L 565.730469 373.488281 L 565.867188 373.554688 L 566.007812 373.617188 L 566.148438 373.683594 L 566.289062 373.746094 L 566.425781 373.8125 L 566.707031 373.9375 L 566.84375 374.003906 L 567.125 374.128906 L 567.265625 374.195312 L 567.402344 374.257812 L 567.542969 374.320312 L 567.683594 374.386719 L 567.824219 374.449219 L 567.960938 374.511719 L 568.101562 374.574219 L 568.242188 374.640625 L 568.382812 374.703125 L 568.519531 374.765625 L 568.660156 374.828125 L 568.800781 374.894531 L 568.941406 374.957031 L 569.078125 375.019531 L 569.359375 375.144531 L 569.496094 375.207031 L 569.917969 375.394531 L 570.054688 375.457031 L 570.476562 375.644531 L 570.613281 375.707031 L 571.035156 375.894531 L 571.171875 375.957031 L 571.59375 376.144531 L 571.730469 376.207031 L 571.871094 376.269531 L 572.011719 376.328125 L 572.152344 376.390625 L 572.289062 376.453125 L 572.429688 376.515625 L 572.570312 376.574219 L 572.707031 376.636719 L 572.988281 376.761719 L 573.128906 376.820312 L 573.265625 376.882812 L 573.40625 376.945312 L 573.546875 377.003906 L 573.6875 377.066406 L 573.824219 377.125 L 573.964844 377.1875 L 574.105469 377.246094 L 574.246094 377.308594 L 574.382812 377.367188 L 574.523438 377.429688 L 574.664062 377.488281 L 574.804688 377.550781 L 574.941406 377.609375 L 575.082031 377.671875 L 575.222656 377.730469 L 575.359375 377.792969 L 575.640625 377.910156 L 575.78125 377.972656 L 575.917969 378.03125 L 576.199219 378.148438 L 576.339844 378.210938 L 576.476562 378.269531 L 576.898438 378.445312 L 577.035156 378.507812 L 577.457031 378.683594 L 577.59375 378.742188 L 578.015625 378.917969 L 578.152344 378.976562 L 578.433594 379.09375 L 578.570312 379.152344 L 578.992188 379.328125 L 579.128906 379.382812 L 579.550781 379.558594 L 579.6875 379.617188 L 579.828125 379.671875 L 580.109375 379.789062 L 580.246094 379.84375 L 580.527344 379.960938 L 580.667969 380.015625 L 580.804688 380.074219 L 580.945312 380.132812 L 581.085938 380.1875 L 581.226562 380.246094 L 581.363281 380.300781 L 581.503906 380.359375 L 581.644531 380.414062 L 581.78125 380.46875 L 581.921875 380.527344 L 582.0625 380.582031 L 582.203125 380.640625 L 582.339844 380.695312 L 582.480469 380.75 L 582.621094 380.808594 L 582.761719 380.863281 L 582.898438 380.917969 L 583.039062 380.972656 L 583.179688 381.03125 L 583.320312 381.085938 L 583.457031 381.140625 L 583.878906 381.304688 L 584.015625 381.359375 L 584.296875 381.46875 L 584.433594 381.523438 L 584.855469 381.6875 L 584.992188 381.742188 L 585.414062 381.90625 L 585.550781 381.960938 L 585.691406 382.011719 L 585.972656 382.121094 L 586.109375 382.175781 L 586.25 382.226562 L 586.53125 382.335938 L 586.667969 382.386719 L 586.949219 382.496094 L 587.089844 382.546875 L 587.226562 382.601562 L 587.367188 382.652344 L 587.507812 382.707031 L 587.644531 382.757812 L 587.785156 382.8125 L 588.066406 382.914062 L 588.203125 382.96875 L 588.484375 383.070312 L 588.625 383.125 L 588.761719 383.175781 L 589.042969 383.277344 L 589.183594 383.332031 L 589.320312 383.382812 L 589.742188 383.535156 L 589.878906 383.585938 L 590.160156 383.6875 L 590.296875 383.738281 L 590.71875 383.890625 L 590.855469 383.941406 L 591.277344 384.09375 L 591.414062 384.140625 L 591.835938 384.292969 L 591.972656 384.339844 L 592.253906 384.441406 L 592.394531 384.488281 L 592.53125 384.539062 L 592.671875 384.585938 L 592.953125 384.6875 L 593.089844 384.734375 L 593.230469 384.785156 L 593.371094 384.832031 L 593.507812 384.878906 L 593.648438 384.929688 L 593.789062 384.976562 L 593.929688 385.027344 L 594.066406 385.074219 L 594.347656 385.167969 L 594.488281 385.21875 L 594.625 385.265625 L 595.046875 385.40625 L 595.183594 385.453125 L 595.324219 385.503906 L 595.605469 385.597656 L 595.742188 385.644531 L 596.023438 385.738281 L 596.160156 385.785156 L 596.300781 385.828125 L 596.582031 385.921875 L 596.71875 385.96875 L 597 386.0625 L 597.140625 386.105469 L 597.277344 386.152344 L 597.558594 386.246094 L 597.699219 386.289062 L 597.835938 386.335938 L 597.976562 386.378906 L 598.257812 386.472656 L 598.394531 386.515625 L 598.535156 386.5625 L 598.816406 386.648438 L 598.953125 386.695312 L 599.09375 386.738281 L 599.234375 386.785156 L 599.371094 386.828125 L 599.511719 386.871094 L 599.652344 386.917969 L 599.792969 386.960938 L 599.929688 387.003906 L 600.210938 387.089844 L 600.351562 387.136719 L 600.488281 387.179688 L 600.910156 387.308594 L 601.046875 387.351562 L 601.46875 387.480469 L 601.605469 387.523438 L 602.027344 387.652344 L 602.164062 387.691406 L 602.445312 387.777344 L 602.582031 387.820312 L 602.722656 387.859375 L 603.003906 387.945312 L 603.140625 387.984375 L 603.421875 388.070312 L 603.5625 388.109375 L 603.699219 388.152344 L 603.839844 388.191406 L 603.980469 388.234375 L 604.121094 388.273438 L 604.257812 388.316406 L 604.539062 388.394531 L 604.679688 388.4375 L 604.816406 388.476562 L 604.957031 388.515625 L 605.097656 388.558594 L 605.234375 388.597656 L 605.65625 388.714844 L 605.792969 388.757812 L 606.214844 388.875 L 606.351562 388.914062 L 606.773438 389.03125 L 606.910156 389.070312 L 607.332031 389.1875 L 607.46875 389.222656 L 607.890625 389.339844 L 608.027344 389.375 L 608.308594 389.453125 L 608.445312 389.488281 L 608.726562 389.566406 L 608.867188 389.601562 L 609.003906 389.640625 L 609.144531 389.675781 L 609.285156 389.714844 L 609.425781 389.75 L 609.5625 389.789062 L 609.703125 389.824219 L 609.84375 389.863281 L 609.984375 389.898438 L 610.121094 389.933594 L 610.261719 389.972656 L 610.542969 390.042969 L 610.679688 390.082031 L 610.960938 390.152344 L 611.097656 390.1875 L 611.519531 390.292969 L 611.65625 390.332031 L 612.078125 390.4375 L 612.214844 390.472656 L 612.355469 390.507812 L 612.496094 390.539062 L 612.636719 390.574219 L 612.773438 390.609375 L 613.195312 390.714844 L 613.332031 390.746094 L 613.753906 390.851562 L 613.890625 390.882812 L 614.171875 390.953125 L 614.308594 390.984375 L 614.449219 391.019531 L 614.589844 391.050781 L 614.730469 391.085938 L 614.867188 391.117188 L 615.007812 391.152344 L 615.148438 391.183594 L 615.289062 391.21875 L 615.425781 391.25 L 615.566406 391.28125 L 615.707031 391.316406 L 615.847656 391.347656 L 615.984375 391.378906 L 616.125 391.414062 L 616.40625 391.476562 L 616.542969 391.507812 L 616.683594 391.542969 L 616.824219 391.574219 L 616.960938 391.605469 L 617.382812 391.699219 L 617.519531 391.730469 L 617.941406 391.824219 L 618.078125 391.855469 L 618.5 391.949219 L 618.636719 391.976562 L 619.058594 392.070312 L 619.195312 392.101562 L 619.335938 392.128906 L 619.617188 392.191406 L 619.753906 392.21875 L 620.035156 392.28125 L 620.171875 392.308594 L 620.3125 392.339844 L 620.453125 392.367188 L 620.59375 392.398438 L 620.730469 392.425781 L 620.871094 392.457031 L 621.011719 392.484375 L 621.152344 392.515625 L 621.289062 392.542969 L 621.429688 392.570312 L 621.570312 392.601562 L 621.710938 392.628906 L 621.847656 392.65625 L 621.988281 392.6875 L 622.269531 392.742188 L 622.40625 392.769531 L 622.546875 392.796875 L 622.6875 392.828125 L 622.828125 392.855469 L 622.964844 392.882812 L 623.246094 392.9375 L 623.382812 392.964844 L 623.804688 393.046875 L 623.941406 393.074219 L 624.363281 393.15625 L 624.5 393.183594 L 624.640625 393.207031 L 624.921875 393.261719 L 625.058594 393.289062 L 625.199219 393.316406 L 625.339844 393.339844 L 625.480469 393.367188 L 625.617188 393.394531 L 625.757812 393.417969 L 625.898438 393.445312 L 626.035156 393.472656 L 626.175781 393.496094 L 626.316406 393.523438 L 626.457031 393.546875 L 626.59375 393.574219 L 626.734375 393.597656 L 626.875 393.625 L 627.015625 393.648438 L 627.152344 393.675781 L 627.292969 393.699219 L 627.433594 393.726562 L 627.574219 393.75 L 627.710938 393.773438 L 627.851562 393.800781 L 628.132812 393.847656 L 628.269531 393.875 L 628.691406 393.945312 L 628.828125 393.96875 L 628.96875 393.996094 L 629.109375 394.019531 L 629.246094 394.042969 L 629.667969 394.113281 L 629.804688 394.136719 L 630.226562 394.207031 L 630.363281 394.230469 L 630.785156 394.300781 L 630.921875 394.324219 L 631.0625 394.347656 L 631.203125 394.367188 L 631.34375 394.390625 L 631.480469 394.414062 L 631.621094 394.4375 L 631.761719 394.457031 L 631.898438 394.480469 L 632.179688 394.527344 L 632.320312 394.546875 L 632.457031 394.570312 L 632.597656 394.59375 L 632.738281 394.613281 L 632.878906 394.636719 L 633.015625 394.65625 L 633.15625 394.679688 L 633.296875 394.699219 L 633.4375 394.722656 L 633.574219 394.742188 L 633.714844 394.765625 L 633.855469 394.785156 L 633.996094 394.808594 L 634.132812 394.828125 L 634.273438 394.847656 L 634.414062 394.871094 L 634.554688 394.890625 L 634.691406 394.914062 L 634.972656 394.953125 L 635.109375 394.972656 L 635.25 394.996094 L 635.53125 395.035156 L 635.667969 395.054688 L 635.808594 395.074219 L 635.949219 395.097656 L 636.089844 395.117188 L 636.226562 395.136719 L 636.648438 395.195312 L 636.785156 395.214844 L 637.207031 395.273438 L 637.34375 395.292969 L 637.625 395.332031 L 637.761719 395.351562 L 638.183594 395.410156 L 638.320312 395.425781 L 638.742188 395.484375 L 638.878906 395.503906 L 639.019531 395.519531 L 639.300781 395.558594 L 639.4375 395.574219 L 639.71875 395.613281 L 639.859375 395.628906 L 639.996094 395.648438 L 640.136719 395.667969 L 640.277344 395.683594 L 640.417969 395.703125 L 640.554688 395.71875 L 640.695312 395.738281 L 640.835938 395.753906 L 640.972656 395.773438 L 641.113281 395.789062 L 641.253906 395.808594 L 641.394531 395.824219 L 641.53125 395.84375 L 641.8125 395.875 L 641.953125 395.894531 L 642.089844 395.910156 L 642.230469 395.929688 L 642.511719 395.960938 L 642.648438 395.976562 L 642.789062 395.996094 L 643.070312 396.027344 L 643.207031 396.042969 L 643.347656 396.0625 L 643.628906 396.09375 L 643.765625 396.109375 L 644.046875 396.140625 L 644.183594 396.160156 L 644.605469 396.207031 L 644.742188 396.222656 L 645.164062 396.269531 L 645.300781 396.285156 L 645.722656 396.332031 L 645.859375 396.347656 L 646 396.359375 L 646.28125 396.390625 L 646.417969 396.40625 L 646.699219 396.4375 L 646.835938 396.453125 L 646.976562 396.464844 L 647.257812 396.496094 L 647.394531 396.511719 L 647.535156 396.523438 L 647.816406 396.554688 L 647.953125 396.566406 L 648.234375 396.597656 L 648.375 396.609375 L 648.511719 396.625 L 648.652344 396.640625 L 648.792969 396.652344 L 648.933594 396.667969 L 649.070312 396.679688 L 649.210938 396.695312 L 649.351562 396.707031 L 649.492188 396.722656 L 649.628906 396.734375 L 649.769531 396.75 L 649.910156 396.761719 L 650.046875 396.777344 L 650.1875 396.789062 L 650.328125 396.804688 L 650.46875 396.816406 L 650.605469 396.828125 L 650.746094 396.84375 L 650.886719 396.855469 L 651.027344 396.871094 L 651.164062 396.882812 L 651.304688 396.894531 L 651.445312 396.910156 L 651.585938 396.921875 L 651.722656 396.933594 L 651.863281 396.945312 L 652.003906 396.960938 L 652.144531 396.972656 L 652.28125 396.984375 L 652.421875 396.996094 L 652.5625 397.011719 L 652.699219 397.023438 L 653.121094 397.058594 L 653.257812 397.070312 L 653.398438 397.085938 L 653.679688 397.109375 L 653.816406 397.121094 L 654.238281 397.15625 L 654.375 397.167969 L 654.796875 397.203125 L 654.933594 397.214844 L 655.355469 397.25 L 655.492188 397.261719 L 655.773438 397.285156 L 655.910156 397.292969 L 656.332031 397.328125 L 656.46875 397.339844 L 656.609375 397.351562 L 656.75 397.359375 L 656.890625 397.371094 L 657.027344 397.382812 L 657.308594 397.40625 L 657.449219 397.414062 L 657.585938 397.425781 L 657.726562 397.4375 L 657.867188 397.445312 L 658.007812 397.457031 L 658.144531 397.46875 L 658.285156 397.476562 L 658.425781 397.488281 L 658.5625 397.5 L 658.703125 397.507812 L 658.984375 397.53125 L 659.121094 397.539062 L 659.261719 397.550781 L 659.402344 397.558594 L 659.542969 397.570312 L 659.679688 397.582031 L 659.820312 397.589844 L 659.960938 397.601562 L 660.101562 397.609375 L 660.238281 397.621094 L 660.378906 397.628906 L 660.519531 397.640625 L 660.660156 397.648438 L 660.796875 397.660156 L 661.078125 397.675781 L 661.21875 397.6875 L 661.355469 397.695312 L 661.496094 397.707031 L 661.636719 397.714844 L 661.773438 397.726562 L 662.054688 397.742188 L 662.195312 397.753906 L 662.332031 397.761719 L 662.472656 397.769531 L 662.613281 397.78125 L 662.753906 397.789062 L 662.890625 397.796875 L 663.03125 397.804688 L 663.171875 397.816406 L 663.3125 397.824219 L 663.449219 397.832031 L 663.589844 397.84375 L 663.871094 397.859375 L 664.007812 397.867188 L 664.148438 397.875 L 664.289062 397.886719 L 664.425781 397.894531 L 664.847656 397.917969 L 664.984375 397.925781 L 665.125 397.9375 L 665.40625 397.953125 L 665.542969 397.960938 L 665.964844 397.984375 L 666.101562 397.992188 L 666.523438 398.015625 L 666.660156 398.023438 L 667.082031 398.046875 L 667.21875 398.054688 L 667.5 398.070312 L 667.636719 398.078125 L 668.058594 398.101562 L 668.195312 398.109375 L 668.617188 398.132812 L 668.753906 398.136719 L 669.175781 398.160156 L 669.3125 398.167969 L 669.59375 398.183594 L 669.734375 398.1875 L 669.871094 398.195312 L 670.292969 398.21875 L 670.429688 398.222656 L 670.710938 398.238281 L 670.847656 398.246094 L 670.988281 398.25 L 671.269531 398.265625 L 671.40625 398.269531 L 671.828125 398.292969 L 671.964844 398.296875 L 672.246094 398.3125 L 672.386719 398.316406 L 672.523438 398.324219 L 672.664062 398.332031 L 672.804688 398.335938 L 672.945312 398.34375 L 673.082031 398.347656 L 673.363281 398.363281 L 673.5 398.367188 L 673.640625 398.375 L 673.78125 398.378906 L 673.921875 398.386719 L 674.058594 398.390625 L 674.339844 398.40625 L 674.480469 398.410156 L 674.617188 398.417969 L 674.757812 398.421875 L 674.898438 398.429688 L 675.039062 398.433594 L 675.175781 398.441406 L 675.316406 398.445312 L 675.457031 398.453125 L 675.597656 398.457031 L 675.734375 398.464844 L 676.015625 398.472656 L 676.15625 398.480469 L 676.292969 398.484375 L 676.433594 398.492188 L 676.574219 398.496094 L 676.710938 398.503906 L 676.992188 398.511719 L 677.132812 398.519531 L 677.269531 398.523438 L 677.410156 398.53125 L 677.691406 398.539062 L 677.828125 398.546875 L 678.109375 398.554688 L 678.25 398.5625 L 678.386719 398.566406 L 678.527344 398.570312 L 678.667969 398.578125 L 678.808594 398.582031 L 678.945312 398.585938 L 679.085938 398.59375 L 679.226562 398.597656 L 679.363281 398.601562 L 679.503906 398.605469 L 679.644531 398.613281 L 679.785156 398.617188 L 679.921875 398.621094 L 680.0625 398.625 L 680.203125 398.632812 L 680.34375 398.636719 L 680.480469 398.640625 L 680.621094 398.644531 L 680.761719 398.652344 L 680.902344 398.65625 L 681.039062 398.660156 L 681.320312 398.667969 L 681.460938 398.675781 L 681.597656 398.679688 L 682.019531 398.691406 L 682.15625 398.695312 L 682.296875 398.699219 L 682.4375 398.707031 L 682.574219 398.710938 L 682.996094 398.722656 L 683.132812 398.726562 L 683.414062 398.734375 L 683.554688 398.742188 L 683.691406 398.746094 L 684.113281 398.757812 L 684.25 398.761719 L 684.671875 398.773438 L 684.808594 398.777344 L 685.089844 398.785156 L 685.226562 398.789062 L 685.648438 398.800781 L 685.785156 398.804688 L 686.207031 398.816406 L 686.34375 398.820312 L 686.765625 398.832031 L 686.902344 398.835938 L 687.324219 398.847656 L 687.460938 398.851562 L 687.882812 398.863281 L 688.019531 398.867188 L 688.160156 398.867188 L 688.300781 398.871094 L 688.4375 398.875 L 688.859375 398.886719 L 688.996094 398.890625 L 689.277344 398.898438 L 689.417969 398.898438 L 689.554688 398.902344 L 689.976562 398.914062 L 690.113281 398.917969 L 690.253906 398.921875 L 690.394531 398.921875 L 690.535156 398.925781 L 690.671875 398.929688 L 690.953125 398.9375 L 691.09375 398.9375 L 691.230469 398.941406 L 691.511719 398.949219 L 691.648438 398.953125 L 691.789062 398.953125 L 692.070312 398.960938 L 692.207031 398.964844 L 692.347656 398.96875 L 692.488281 398.96875 L 692.628906 398.972656 L 692.765625 398.976562 L 692.90625 398.980469 L 693.046875 398.980469 L 693.1875 398.984375 L 693.324219 398.988281 L 693.464844 398.992188 L 693.605469 398.992188 L 693.746094 398.996094 L 693.882812 399 L 694.023438 399 L 694.164062 399.003906 L 694.300781 399.007812 L 694.441406 399.011719 L 694.582031 399.011719 L 694.722656 399.015625 L 694.859375 399.019531 L 695 399.019531 L 695.28125 399.027344 L 695.417969 399.027344 L 695.699219 399.035156 L 695.839844 399.035156 L 695.976562 399.039062 L 696.117188 399.042969 L 696.257812 399.042969 L 696.398438 399.046875 L 696.535156 399.050781 L 696.675781 399.050781 L 696.957031 399.058594 L 697.09375 399.058594 L 697.375 399.066406 L 697.511719 399.066406 L 697.652344 399.070312 L 697.792969 399.070312 L 697.933594 399.074219 L 698.070312 399.078125 L 698.210938 399.078125 L 698.351562 399.082031 L 698.492188 399.082031 L 698.628906 399.085938 L 698.769531 399.089844 L 698.910156 399.089844 L 699.050781 399.09375 L 699.1875 399.09375 L 699.46875 399.101562 L 699.609375 399.101562 L 699.746094 399.105469 L 699.886719 399.105469 L 700.027344 399.109375 L 700.164062 399.109375 L 700.304688 399.113281 L 700.445312 399.113281 L 700.585938 399.117188 L 700.722656 399.121094 L 700.863281 399.121094 L 701.003906 399.125 L 701.144531 399.125 L 701.28125 399.128906 L 701.421875 399.128906 L 701.5625 399.132812 L 701.703125 399.132812 L 701.839844 399.136719 L 701.980469 399.136719 L 702.121094 399.140625 L 702.261719 399.140625 L 702.398438 399.144531 L 702.539062 399.144531 L 702.679688 399.148438 L 702.820312 399.148438 L 702.957031 399.152344 L 703.097656 399.152344 L 703.238281 399.15625 L 703.375 399.15625 L 703.515625 399.160156 L 703.65625 399.160156 L 703.796875 399.164062 L 703.933594 399.164062 L 704.074219 399.167969 L 704.214844 399.167969 L 704.355469 399.171875 L 704.632812 399.171875 L 704.773438 399.175781 L 704.914062 399.175781 L 705.050781 399.179688 L 705.191406 399.179688 L 705.332031 399.183594 L 705.472656 399.183594 L 705.609375 399.1875 L 705.890625 399.1875 L 706.027344 399.191406 L 706.167969 399.191406 L 706.308594 399.195312 L 706.449219 399.195312 L 706.585938 399.199219 L 706.867188 399.199219 L 707.007812 399.203125 L 707.144531 399.203125 L 707.285156 399.207031 L 707.566406 399.207031 L 707.703125 399.210938 L 707.84375 399.210938 L 707.984375 399.214844 L 708.261719 399.214844 L 708.402344 399.21875 L 708.542969 399.21875 L 708.683594 399.222656 L 708.960938 399.222656 L 709.101562 399.226562 L 709.238281 399.226562 L 709.378906 399.230469 L 709.660156 399.230469 L 709.796875 399.234375 L 710.078125 399.234375 L 710.21875 399.238281 L 710.496094 399.238281 L 710.636719 399.242188 L 710.914062 399.242188 L 711.054688 399.246094 L 711.335938 399.246094 L 711.472656 399.25 L 711.753906 399.25 L 711.894531 399.253906 L 712.171875 399.253906 L 712.3125 399.257812 L 712.589844 399.257812 L 712.730469 399.261719 L 713.007812 399.261719 L 713.148438 399.265625 L 713.429688 399.265625 L 713.566406 399.269531 L 713.847656 399.269531 L 713.988281 399.273438 L 714.40625 399.273438 L 714.546875 399.277344 L 714.824219 399.277344 L 714.964844 399.28125 L 715.382812 399.28125 L 715.523438 399.285156 L 715.800781 399.285156 L 715.941406 399.289062 L 716.359375 399.289062 L 716.5 399.292969 L 716.917969 399.292969 L 717.058594 399.296875 L 717.335938 399.296875 L 717.476562 399.300781 L 717.894531 399.300781 L 718.035156 399.304688 L 718.453125 399.304688 L 718.59375 399.308594 L 719.152344 399.308594 L 719.292969 399.3125 L 719.710938 399.3125 L 719.851562 399.316406 L 720.269531 399.316406 L 720.410156 399.320312 L 720.964844 399.320312 L 721.105469 399.324219 L 721.105469 399.4375 Z M 23.234375 399.4375 "/>
<path style=" stroke:none;fill-rule:nonzero;fill:rgb(90.196078%,25.490196%,45.098039%);fill-opacity:0.701961;" d="M 23.234375 399.4375 L 438.828125 399.4375 L 438.96875 399.433594 L 440.226562 399.433594 L 440.367188 399.429688 L 441.0625 399.429688 L 441.203125 399.425781 L 441.761719 399.425781 L 441.902344 399.421875 L 442.179688 399.421875 L 442.320312 399.417969 L 442.597656 399.417969 L 442.738281 399.414062 L 443.019531 399.414062 L 443.15625 399.410156 L 443.296875 399.410156 L 443.4375 399.40625 L 443.578125 399.40625 L 443.714844 399.402344 L 443.855469 399.398438 L 443.996094 399.398438 L 444.136719 399.394531 L 444.273438 399.390625 L 444.414062 399.386719 L 444.554688 399.386719 L 444.695312 399.382812 L 444.832031 399.378906 L 445.113281 399.371094 L 445.25 399.367188 L 445.390625 399.363281 L 445.53125 399.355469 L 445.671875 399.351562 L 445.808594 399.347656 L 445.949219 399.339844 L 446.089844 399.335938 L 446.230469 399.328125 L 446.367188 399.320312 L 446.789062 399.296875 L 446.925781 399.289062 L 447.207031 399.273438 L 447.347656 399.261719 L 447.484375 399.25 L 447.625 399.242188 L 447.765625 399.230469 L 447.902344 399.214844 L 448.183594 399.191406 L 448.324219 399.175781 L 448.460938 399.160156 L 448.742188 399.128906 L 448.882812 399.109375 L 449.019531 399.09375 L 449.160156 399.074219 L 449.300781 399.050781 L 449.441406 399.03125 L 449.578125 399.007812 L 449.859375 398.960938 L 450 398.933594 L 450.136719 398.90625 L 450.277344 398.875 L 450.417969 398.847656 L 450.558594 398.8125 L 450.695312 398.78125 L 450.835938 398.746094 L 450.976562 398.707031 L 451.113281 398.667969 L 451.253906 398.628906 L 451.535156 398.542969 L 451.671875 398.496094 L 452.09375 398.34375 L 452.230469 398.285156 L 452.371094 398.226562 L 452.652344 398.101562 L 452.789062 398.035156 L 452.929688 397.964844 L 453.070312 397.890625 L 453.210938 397.8125 L 453.347656 397.734375 L 453.488281 397.652344 L 453.628906 397.5625 L 453.765625 397.472656 L 454.046875 397.277344 L 454.1875 397.171875 L 454.324219 397.066406 L 454.464844 396.953125 L 454.605469 396.835938 L 454.746094 396.710938 L 454.882812 396.585938 L 455.023438 396.453125 L 455.164062 396.3125 L 455.304688 396.167969 L 455.441406 396.019531 L 455.582031 395.863281 L 455.722656 395.699219 L 455.863281 395.53125 L 456 395.351562 L 456.140625 395.171875 L 456.28125 394.980469 L 456.421875 394.78125 L 456.558594 394.574219 L 456.699219 394.363281 L 456.839844 394.140625 L 456.976562 393.910156 L 457.117188 393.671875 L 457.257812 393.421875 L 457.398438 393.164062 L 457.535156 392.898438 L 457.675781 392.621094 L 457.816406 392.332031 L 457.957031 392.035156 L 458.09375 391.726562 L 458.234375 391.40625 L 458.375 391.074219 L 458.515625 390.730469 L 458.652344 390.375 L 458.792969 390.007812 L 458.933594 389.625 L 459.074219 389.230469 L 459.210938 388.824219 L 459.351562 388.402344 L 459.492188 387.96875 L 459.628906 387.515625 L 459.769531 387.050781 L 459.910156 386.570312 L 460.050781 386.074219 L 460.1875 385.558594 L 460.328125 385.03125 L 460.46875 384.484375 L 460.609375 383.921875 L 460.746094 383.339844 L 460.886719 382.738281 L 461.027344 382.121094 L 461.167969 381.480469 L 461.304688 380.824219 L 461.445312 380.148438 L 461.585938 379.449219 L 461.726562 378.730469 L 461.863281 377.992188 L 462.003906 377.230469 L 462.144531 376.445312 L 462.285156 375.640625 L 462.421875 374.808594 L 462.5625 373.957031 L 462.703125 373.082031 L 462.839844 372.179688 L 462.980469 371.253906 L 463.121094 370.304688 L 463.261719 369.328125 L 463.398438 368.324219 L 463.539062 367.296875 L 463.679688 366.242188 L 463.820312 365.15625 L 463.957031 364.046875 L 464.097656 362.90625 L 464.238281 361.738281 L 464.378906 360.542969 L 464.515625 359.316406 L 464.65625 358.058594 L 464.796875 356.773438 L 464.9375 355.457031 L 465.074219 354.109375 L 465.214844 352.730469 L 465.355469 351.320312 L 465.496094 349.875 L 465.632812 348.402344 L 465.773438 346.890625 L 465.914062 345.351562 L 466.050781 343.777344 L 466.191406 342.167969 L 466.332031 340.527344 L 466.472656 338.851562 L 466.609375 337.140625 L 466.75 335.398438 L 466.890625 333.617188 L 467.03125 331.804688 L 467.167969 329.953125 L 467.308594 328.066406 L 467.449219 326.148438 L 467.589844 324.191406 L 467.726562 322.199219 L 467.867188 320.171875 L 468.007812 318.109375 L 468.148438 316.007812 L 468.285156 313.875 L 468.425781 311.703125 L 468.566406 309.496094 L 468.703125 307.253906 L 468.84375 304.972656 L 468.984375 302.660156 L 469.125 300.308594 L 469.261719 297.925781 L 469.402344 295.503906 L 469.542969 293.050781 L 469.683594 290.558594 L 469.820312 288.035156 L 469.960938 285.476562 L 470.101562 282.882812 L 470.242188 280.257812 L 470.378906 277.597656 L 470.519531 274.90625 L 470.660156 272.179688 L 470.800781 269.425781 L 470.9375 266.636719 L 471.078125 263.820312 L 471.21875 260.972656 L 471.359375 258.09375 L 471.496094 255.1875 L 471.636719 252.25 L 471.777344 249.289062 L 471.914062 246.296875 L 472.054688 243.28125 L 472.195312 240.242188 L 472.335938 237.175781 L 472.472656 234.085938 L 472.613281 230.972656 L 472.753906 227.839844 L 472.894531 224.683594 L 473.03125 221.507812 L 473.171875 218.3125 L 473.3125 215.101562 L 473.453125 211.871094 L 473.589844 208.625 L 473.730469 205.367188 L 473.871094 202.09375 L 474.011719 198.804688 L 474.148438 195.507812 L 474.289062 192.203125 L 474.429688 188.886719 L 474.566406 185.566406 L 474.847656 178.902344 L 474.988281 175.566406 L 475.125 172.226562 L 475.265625 168.886719 L 475.546875 162.214844 L 475.683594 158.882812 L 475.824219 155.554688 L 475.964844 152.234375 L 476.105469 148.921875 L 476.242188 145.621094 L 476.382812 142.332031 L 476.523438 139.054688 L 476.664062 135.789062 L 476.800781 132.542969 L 476.941406 129.3125 L 477.082031 126.105469 L 477.222656 122.914062 L 477.359375 119.75 L 477.5 116.605469 L 477.640625 113.492188 L 477.777344 110.402344 L 477.917969 107.34375 L 478.058594 104.3125 L 478.199219 101.316406 L 478.335938 98.355469 L 478.476562 95.425781 L 478.617188 92.535156 L 478.757812 89.683594 L 478.894531 86.875 L 479.035156 84.105469 L 479.175781 81.378906 L 479.316406 78.695312 L 479.453125 76.0625 L 479.59375 73.476562 L 479.734375 70.9375 L 479.875 68.453125 L 480.011719 66.019531 L 480.152344 63.640625 L 480.292969 61.3125 L 480.429688 59.046875 L 480.570312 56.835938 L 480.710938 54.6875 L 480.851562 52.597656 L 480.988281 50.566406 L 481.128906 48.601562 L 481.269531 46.703125 L 481.410156 44.867188 L 481.546875 43.097656 L 481.6875 41.398438 L 481.828125 39.765625 L 481.96875 38.203125 L 482.105469 36.710938 L 482.246094 35.289062 L 482.386719 33.941406 L 482.527344 32.667969 L 482.664062 31.46875 L 482.804688 30.34375 L 482.945312 29.292969 L 483.085938 28.320312 L 483.222656 27.425781 L 483.363281 26.605469 L 483.503906 25.863281 L 483.640625 25.203125 L 483.78125 24.621094 L 483.921875 24.117188 L 484.0625 23.691406 L 484.199219 23.347656 L 484.339844 23.082031 L 484.480469 22.898438 L 484.621094 22.792969 L 484.757812 22.769531 L 484.898438 22.828125 L 485.039062 22.964844 L 485.179688 23.183594 L 485.316406 23.480469 L 485.457031 23.859375 L 485.597656 24.316406 L 485.738281 24.855469 L 485.875 25.472656 L 486.015625 26.167969 L 486.15625 26.941406 L 486.292969 27.789062 L 486.433594 28.71875 L 486.574219 29.726562 L 486.714844 30.804688 L 486.851562 31.960938 L 486.992188 33.195312 L 487.132812 34.5 L 487.273438 35.878906 L 487.410156 37.328125 L 487.550781 38.847656 L 487.691406 40.441406 L 487.832031 42.101562 L 487.96875 43.832031 L 488.109375 45.628906 L 488.25 47.492188 L 488.390625 49.417969 L 488.527344 51.410156 L 488.667969 53.464844 L 488.808594 55.582031 L 488.949219 57.757812 L 489.085938 59.992188 L 489.226562 62.28125 L 489.367188 64.628906 L 489.503906 67.03125 L 489.644531 69.488281 L 489.785156 71.996094 L 489.925781 74.554688 L 490.0625 77.160156 L 490.203125 79.816406 L 490.34375 82.515625 L 490.484375 85.261719 L 490.621094 88.046875 L 490.761719 90.875 L 490.902344 93.742188 L 491.042969 96.648438 L 491.179688 99.59375 L 491.320312 102.570312 L 491.460938 105.578125 L 491.601562 108.621094 L 491.738281 111.695312 L 491.878906 114.792969 L 492.019531 117.921875 L 492.160156 121.074219 L 492.296875 124.25 L 492.4375 127.449219 L 492.578125 130.664062 L 492.714844 133.902344 L 492.855469 137.15625 L 492.996094 140.425781 L 493.136719 143.707031 L 493.273438 147.003906 L 493.414062 150.308594 L 493.554688 153.625 L 493.695312 156.949219 L 493.832031 160.277344 L 494.113281 166.949219 L 494.253906 170.289062 L 494.390625 173.628906 L 494.671875 180.300781 L 494.8125 183.632812 L 494.949219 186.957031 L 495.089844 190.277344 L 495.230469 193.589844 L 495.367188 196.894531 L 495.507812 200.1875 L 495.648438 203.464844 L 495.789062 206.734375 L 495.925781 209.988281 L 496.066406 213.226562 L 496.207031 216.449219 L 496.347656 219.65625 L 496.484375 222.839844 L 496.625 226.007812 L 496.765625 229.15625 L 496.90625 232.28125 L 497.042969 235.382812 L 497.183594 238.464844 L 497.324219 241.519531 L 497.464844 244.550781 L 497.601562 247.554688 L 497.742188 250.535156 L 497.882812 253.484375 L 498.023438 256.410156 L 498.160156 259.304688 L 498.300781 262.167969 L 498.441406 265.003906 L 498.578125 267.8125 L 498.71875 270.585938 L 498.859375 273.328125 L 499 276.039062 L 499.136719 278.71875 L 499.277344 281.363281 L 499.417969 283.972656 L 499.558594 286.554688 L 499.695312 289.097656 L 499.835938 291.605469 L 499.976562 294.082031 L 500.117188 296.523438 L 500.253906 298.929688 L 500.394531 301.300781 L 500.535156 303.632812 L 500.675781 305.933594 L 500.8125 308.199219 L 500.953125 310.425781 L 501.09375 312.617188 L 501.230469 314.773438 L 501.371094 316.894531 L 501.511719 318.976562 L 501.652344 321.027344 L 501.789062 323.039062 L 501.929688 325.015625 L 502.070312 326.957031 L 502.210938 328.863281 L 502.347656 330.734375 L 502.488281 332.566406 L 502.628906 334.367188 L 502.769531 336.132812 L 502.90625 337.863281 L 503.046875 339.558594 L 503.1875 341.21875 L 503.328125 342.847656 L 503.464844 344.441406 L 503.605469 346 L 503.746094 347.527344 L 503.886719 349.023438 L 504.023438 350.484375 L 504.164062 351.914062 L 504.304688 353.3125 L 504.441406 354.675781 L 504.582031 356.011719 L 504.722656 357.316406 L 504.863281 358.589844 L 505 359.832031 L 505.140625 361.046875 L 505.28125 362.230469 L 505.421875 363.386719 L 505.558594 364.515625 L 505.699219 365.613281 L 505.839844 366.6875 L 505.980469 367.730469 L 506.117188 368.75 L 506.257812 369.742188 L 506.398438 370.707031 L 506.539062 371.644531 L 506.675781 372.5625 L 506.816406 373.453125 L 506.957031 374.316406 L 507.09375 375.160156 L 507.234375 375.980469 L 507.375 376.777344 L 507.515625 377.550781 L 507.652344 378.304688 L 507.792969 379.035156 L 507.933594 379.742188 L 508.074219 380.433594 L 508.210938 381.101562 L 508.351562 381.75 L 508.492188 382.382812 L 508.632812 382.992188 L 508.769531 383.585938 L 508.910156 384.160156 L 509.050781 384.714844 L 509.191406 385.253906 L 509.328125 385.777344 L 509.46875 386.285156 L 509.609375 386.773438 L 509.75 387.25 L 509.886719 387.707031 L 510.027344 388.152344 L 510.167969 388.582031 L 510.304688 388.996094 L 510.445312 389.398438 L 510.585938 389.789062 L 510.726562 390.164062 L 510.863281 390.527344 L 511.003906 390.875 L 511.144531 391.214844 L 511.285156 391.542969 L 511.421875 391.855469 L 511.5625 392.160156 L 511.703125 392.453125 L 511.84375 392.738281 L 511.980469 393.011719 L 512.121094 393.273438 L 512.261719 393.527344 L 512.402344 393.773438 L 512.539062 394.007812 L 512.679688 394.234375 L 512.820312 394.453125 L 512.960938 394.664062 L 513.097656 394.867188 L 513.238281 395.058594 L 513.378906 395.246094 L 513.515625 395.429688 L 513.65625 395.601562 L 513.796875 395.769531 L 513.9375 395.929688 L 514.074219 396.082031 L 514.214844 396.230469 L 514.355469 396.371094 L 514.496094 396.507812 L 514.632812 396.640625 L 514.773438 396.765625 L 514.914062 396.886719 L 515.054688 397 L 515.191406 397.109375 L 515.332031 397.21875 L 515.472656 397.320312 L 515.613281 397.417969 L 515.75 397.511719 L 515.890625 397.601562 L 516.03125 397.6875 L 516.167969 397.769531 L 516.308594 397.847656 L 516.589844 397.996094 L 516.726562 398.0625 L 516.867188 398.128906 L 517.148438 398.253906 L 517.285156 398.308594 L 517.566406 398.417969 L 517.707031 398.46875 L 517.84375 398.515625 L 517.984375 398.5625 L 518.265625 398.648438 L 518.402344 398.6875 L 518.542969 398.722656 L 518.683594 398.761719 L 518.824219 398.792969 L 518.960938 398.828125 L 519.242188 398.890625 L 519.378906 398.917969 L 519.519531 398.945312 L 519.660156 398.96875 L 519.800781 398.996094 L 519.9375 399.019531 L 520.078125 399.039062 L 520.21875 399.0625 L 520.359375 399.082031 L 520.496094 399.101562 L 520.636719 399.117188 L 520.777344 399.136719 L 520.917969 399.152344 L 521.054688 399.167969 L 521.195312 399.183594 L 521.335938 399.195312 L 521.476562 399.210938 L 521.613281 399.222656 L 521.894531 399.246094 L 522.03125 399.257812 L 522.171875 399.265625 L 522.3125 399.277344 L 522.453125 399.285156 L 522.589844 399.292969 L 523.011719 399.316406 L 523.148438 399.324219 L 523.289062 399.332031 L 523.429688 399.335938 L 523.570312 399.34375 L 523.707031 399.347656 L 523.847656 399.355469 L 524.128906 399.363281 L 524.265625 399.367188 L 524.6875 399.378906 L 524.824219 399.382812 L 525.105469 399.390625 L 525.242188 399.394531 L 525.382812 399.394531 L 525.664062 399.402344 L 525.800781 399.402344 L 525.941406 399.40625 L 526.082031 399.40625 L 526.222656 399.410156 L 526.359375 399.410156 L 526.5 399.414062 L 526.640625 399.414062 L 526.78125 399.417969 L 527.058594 399.417969 L 527.199219 399.421875 L 527.617188 399.421875 L 527.757812 399.425781 L 528.175781 399.425781 L 528.316406 399.429688 L 529.011719 399.429688 L 529.152344 399.433594 L 530.410156 399.433594 L 530.550781 399.4375 L 721.105469 399.4375 Z M 23.234375 399.4375 "/>
<path style=" stroke:none;fill-rule:nonzero;fill:rgb(18.431373%,30.980392%,30.980392%);fill-opacity:0.701961;" d="M 23.234375 399.4375 L 425.988281 399.4375 L 426.125 399.433594 L 427.523438 399.433594 L 427.660156 399.429688 L 428.359375 399.429688 L 428.5 399.425781 L 428.917969 399.425781 L 429.058594 399.421875 L 429.335938 399.421875 L 429.476562 399.417969 L 429.757812 399.417969 L 429.894531 399.414062 L 430.035156 399.414062 L 430.175781 399.410156 L 430.453125 399.410156 L 430.734375 399.402344 L 430.871094 399.402344 L 431.011719 399.398438 L 431.152344 399.398438 L 431.292969 399.394531 L 431.429688 399.390625 L 431.710938 399.382812 L 431.851562 399.382812 L 431.988281 399.378906 L 432.269531 399.371094 L 432.410156 399.363281 L 432.546875 399.359375 L 432.828125 399.351562 L 432.964844 399.34375 L 433.105469 399.339844 L 433.386719 399.324219 L 433.523438 399.320312 L 433.945312 399.296875 L 434.082031 399.285156 L 434.363281 399.269531 L 434.503906 399.257812 L 434.640625 399.246094 L 435.0625 399.210938 L 435.199219 399.199219 L 435.621094 399.152344 L 435.757812 399.136719 L 435.898438 399.121094 L 436.039062 399.101562 L 436.175781 399.082031 L 436.316406 399.0625 L 436.457031 399.039062 L 436.597656 399.019531 L 436.734375 398.996094 L 436.875 398.96875 L 437.015625 398.945312 L 437.15625 398.917969 L 437.292969 398.886719 L 437.433594 398.859375 L 437.574219 398.824219 L 437.714844 398.792969 L 437.851562 398.757812 L 437.992188 398.722656 L 438.132812 398.683594 L 438.273438 398.640625 L 438.410156 398.601562 L 438.691406 398.507812 L 438.828125 398.460938 L 438.96875 398.410156 L 439.25 398.300781 L 439.386719 398.242188 L 439.667969 398.117188 L 439.808594 398.046875 L 439.945312 397.976562 L 440.226562 397.828125 L 440.367188 397.746094 L 440.503906 397.664062 L 440.785156 397.484375 L 440.925781 397.386719 L 441.0625 397.289062 L 441.203125 397.183594 L 441.34375 397.074219 L 441.484375 396.960938 L 441.621094 396.839844 L 441.761719 396.71875 L 441.902344 396.589844 L 442.039062 396.453125 L 442.179688 396.316406 L 442.320312 396.167969 L 442.460938 396.015625 L 442.597656 395.859375 L 442.738281 395.695312 L 442.878906 395.523438 L 443.019531 395.34375 L 443.15625 395.15625 L 443.296875 394.964844 L 443.4375 394.765625 L 443.578125 394.554688 L 443.714844 394.339844 L 443.855469 394.113281 L 443.996094 393.878906 L 444.136719 393.636719 L 444.273438 393.382812 L 444.414062 393.121094 L 444.554688 392.847656 L 444.695312 392.566406 L 444.832031 392.273438 L 444.972656 391.96875 L 445.113281 391.65625 L 445.25 391.328125 L 445.390625 390.992188 L 445.53125 390.640625 L 445.671875 390.277344 L 445.808594 389.902344 L 445.949219 389.515625 L 446.089844 389.113281 L 446.230469 388.695312 L 446.367188 388.265625 L 446.507812 387.820312 L 446.648438 387.359375 L 446.789062 386.882812 L 446.925781 386.390625 L 447.066406 385.878906 L 447.207031 385.355469 L 447.347656 384.8125 L 447.484375 384.253906 L 447.625 383.675781 L 447.765625 383.078125 L 447.902344 382.460938 L 448.042969 381.828125 L 448.183594 381.171875 L 448.324219 380.5 L 448.460938 379.804688 L 448.601562 379.085938 L 448.742188 378.347656 L 448.882812 377.589844 L 449.019531 376.808594 L 449.160156 376.003906 L 449.300781 375.171875 L 449.441406 374.320312 L 449.578125 373.445312 L 449.71875 372.542969 L 449.859375 371.617188 L 450 370.664062 L 450.136719 369.6875 L 450.277344 368.679688 L 450.417969 367.648438 L 450.558594 366.589844 L 450.695312 365.503906 L 450.835938 364.386719 L 450.976562 363.242188 L 451.113281 362.070312 L 451.253906 360.867188 L 451.394531 359.632812 L 451.535156 358.367188 L 451.671875 357.074219 L 451.8125 355.746094 L 451.953125 354.390625 L 452.09375 353 L 452.230469 351.578125 L 452.371094 350.121094 L 452.511719 348.632812 L 452.652344 347.113281 L 452.789062 345.558594 L 452.929688 343.96875 L 453.070312 342.34375 L 453.210938 340.683594 L 453.347656 338.988281 L 453.488281 337.261719 L 453.628906 335.496094 L 453.765625 333.695312 L 453.90625 331.859375 L 454.046875 329.984375 L 454.1875 328.078125 L 454.324219 326.132812 L 454.464844 324.148438 L 454.605469 322.128906 L 454.746094 320.074219 L 454.882812 317.980469 L 455.023438 315.851562 L 455.164062 313.6875 L 455.304688 311.480469 L 455.441406 309.242188 L 455.582031 306.964844 L 455.722656 304.648438 L 455.863281 302.296875 L 456 299.910156 L 456.140625 297.488281 L 456.28125 295.027344 L 456.421875 292.53125 L 456.558594 289.996094 L 456.699219 287.429688 L 456.839844 284.824219 L 456.976562 282.1875 L 457.117188 279.515625 L 457.257812 276.808594 L 457.398438 274.066406 L 457.535156 271.292969 L 457.675781 268.488281 L 457.816406 265.648438 L 457.957031 262.777344 L 458.09375 259.875 L 458.234375 256.941406 L 458.375 253.976562 L 458.515625 250.984375 L 458.652344 247.964844 L 458.792969 244.917969 L 458.933594 241.84375 L 459.074219 238.742188 L 459.210938 235.613281 L 459.351562 232.460938 L 459.492188 229.289062 L 459.628906 226.089844 L 459.769531 222.871094 L 459.910156 219.632812 L 460.050781 216.371094 L 460.1875 213.09375 L 460.328125 209.800781 L 460.46875 206.488281 L 460.609375 203.164062 L 460.746094 199.824219 L 460.886719 196.46875 L 461.027344 193.105469 L 461.167969 189.734375 L 461.304688 186.351562 L 461.445312 182.960938 L 461.726562 176.164062 L 461.863281 172.757812 L 462.003906 169.351562 L 462.144531 165.949219 L 462.285156 162.542969 L 462.421875 159.140625 L 462.5625 155.742188 L 462.703125 152.351562 L 462.839844 148.964844 L 462.980469 145.589844 L 463.121094 142.226562 L 463.261719 138.871094 L 463.398438 135.535156 L 463.539062 132.210938 L 463.679688 128.902344 L 463.820312 125.617188 L 463.957031 122.347656 L 464.097656 119.101562 L 464.238281 115.882812 L 464.378906 112.6875 L 464.515625 109.515625 L 464.65625 106.378906 L 464.796875 103.265625 L 464.9375 100.191406 L 465.074219 97.148438 L 465.214844 94.140625 L 465.355469 91.167969 L 465.496094 88.238281 L 465.632812 85.347656 L 465.773438 82.496094 L 465.914062 79.691406 L 466.050781 76.933594 L 466.191406 74.222656 L 466.332031 71.558594 L 466.472656 68.945312 L 466.609375 66.382812 L 466.75 63.875 L 466.890625 61.421875 L 467.03125 59.023438 L 467.167969 56.683594 L 467.308594 54.402344 L 467.449219 52.183594 L 467.589844 50.023438 L 467.726562 47.929688 L 467.867188 45.898438 L 468.007812 43.933594 L 468.148438 42.035156 L 468.285156 40.207031 L 468.425781 38.445312 L 468.566406 36.757812 L 468.703125 35.136719 L 468.84375 33.589844 L 468.984375 32.121094 L 469.125 30.722656 L 469.261719 29.398438 L 469.402344 28.152344 L 469.542969 26.980469 L 469.683594 25.890625 L 469.820312 24.878906 L 469.960938 23.941406 L 470.101562 23.089844 L 470.242188 22.3125 L 470.378906 21.621094 L 470.519531 21.007812 L 470.660156 20.476562 L 470.800781 20.027344 L 470.9375 19.660156 L 471.078125 19.378906 L 471.21875 19.175781 L 471.359375 19.058594 L 471.496094 19.019531 L 471.636719 19.066406 L 471.777344 19.199219 L 471.914062 19.410156 L 472.054688 19.707031 L 472.195312 20.082031 L 472.335938 20.542969 L 472.472656 21.085938 L 472.613281 21.707031 L 472.753906 22.414062 L 472.894531 23.199219 L 473.03125 24.0625 L 473.171875 25.007812 L 473.3125 26.03125 L 473.453125 27.136719 L 473.589844 28.316406 L 473.730469 29.570312 L 473.871094 30.90625 L 474.011719 32.3125 L 474.148438 33.796875 L 474.289062 35.351562 L 474.429688 36.980469 L 474.566406 38.679688 L 474.707031 40.449219 L 474.847656 42.289062 L 474.988281 44.195312 L 475.125 46.167969 L 475.265625 48.207031 L 475.40625 50.3125 L 475.546875 52.476562 L 475.683594 54.707031 L 475.824219 56.996094 L 475.964844 59.34375 L 476.105469 61.746094 L 476.242188 64.207031 L 476.382812 66.722656 L 476.523438 69.292969 L 476.664062 71.914062 L 476.800781 74.582031 L 476.941406 77.300781 L 477.082031 80.066406 L 477.222656 82.878906 L 477.359375 85.734375 L 477.5 88.628906 L 477.640625 91.566406 L 477.777344 94.542969 L 477.917969 97.554688 L 478.058594 100.601562 L 478.199219 103.683594 L 478.335938 106.796875 L 478.476562 109.941406 L 478.617188 113.113281 L 478.757812 116.3125 L 478.894531 119.539062 L 479.035156 122.789062 L 479.175781 126.058594 L 479.316406 129.347656 L 479.453125 132.65625 L 479.59375 135.984375 L 479.734375 139.324219 L 479.875 142.679688 L 480.011719 146.042969 L 480.152344 149.421875 L 480.292969 152.808594 L 480.429688 156.199219 L 480.570312 159.597656 L 480.710938 163 L 480.851562 166.40625 L 480.988281 169.8125 L 481.128906 173.21875 L 481.410156 180.023438 L 481.546875 183.417969 L 481.6875 186.804688 L 481.828125 190.1875 L 481.96875 193.558594 L 482.105469 196.921875 L 482.246094 200.273438 L 482.386719 203.613281 L 482.527344 206.9375 L 482.664062 210.246094 L 482.804688 213.539062 L 482.945312 216.8125 L 483.085938 220.070312 L 483.222656 223.304688 L 483.363281 226.523438 L 483.503906 229.71875 L 483.640625 232.886719 L 483.78125 236.035156 L 483.921875 239.160156 L 484.0625 242.257812 L 484.199219 245.328125 L 484.339844 248.375 L 484.480469 251.390625 L 484.621094 254.378906 L 484.757812 257.339844 L 484.898438 260.265625 L 485.039062 263.164062 L 485.179688 266.03125 L 485.316406 268.867188 L 485.457031 271.667969 L 485.597656 274.4375 L 485.738281 277.175781 L 485.875 279.878906 L 486.015625 282.546875 L 486.15625 285.179688 L 486.292969 287.777344 L 486.433594 290.339844 L 486.574219 292.867188 L 486.714844 295.359375 L 486.851562 297.816406 L 486.992188 300.234375 L 487.132812 302.617188 L 487.273438 304.964844 L 487.410156 307.273438 L 487.550781 309.546875 L 487.691406 311.78125 L 487.832031 313.980469 L 487.96875 316.140625 L 488.109375 318.265625 L 488.25 320.355469 L 488.390625 322.40625 L 488.527344 324.417969 L 488.667969 326.394531 L 488.808594 328.335938 L 488.949219 330.242188 L 489.085938 332.109375 L 489.226562 333.941406 L 489.367188 335.734375 L 489.503906 337.496094 L 489.644531 339.21875 L 489.785156 340.910156 L 489.925781 342.5625 L 490.0625 344.183594 L 490.203125 345.769531 L 490.34375 347.320312 L 490.484375 348.835938 L 490.621094 350.320312 L 490.761719 351.769531 L 490.902344 353.1875 L 491.042969 354.574219 L 491.179688 355.925781 L 491.320312 357.25 L 491.460938 358.539062 L 491.601562 359.800781 L 491.738281 361.027344 L 491.878906 362.226562 L 492.019531 363.398438 L 492.160156 364.539062 L 492.296875 365.652344 L 492.4375 366.734375 L 492.578125 367.789062 L 492.714844 368.816406 L 492.855469 369.820312 L 492.996094 370.792969 L 493.136719 371.742188 L 493.273438 372.667969 L 493.414062 373.5625 L 493.554688 374.4375 L 493.695312 375.285156 L 493.832031 376.113281 L 493.972656 376.914062 L 494.113281 377.695312 L 494.253906 378.449219 L 494.390625 379.183594 L 494.53125 379.898438 L 494.671875 380.589844 L 494.8125 381.261719 L 494.949219 381.914062 L 495.089844 382.546875 L 495.230469 383.160156 L 495.367188 383.753906 L 495.507812 384.328125 L 495.648438 384.886719 L 495.789062 385.425781 L 495.925781 385.949219 L 496.066406 386.457031 L 496.207031 386.945312 L 496.347656 387.421875 L 496.484375 387.878906 L 496.625 388.324219 L 496.765625 388.75 L 496.90625 389.167969 L 497.042969 389.566406 L 497.183594 389.953125 L 497.324219 390.328125 L 497.464844 390.6875 L 497.601562 391.039062 L 497.742188 391.375 L 497.882812 391.699219 L 498.023438 392.011719 L 498.160156 392.3125 L 498.300781 392.605469 L 498.441406 392.886719 L 498.578125 393.15625 L 498.71875 393.417969 L 498.859375 393.667969 L 499 393.910156 L 499.136719 394.144531 L 499.277344 394.367188 L 499.417969 394.585938 L 499.558594 394.792969 L 499.695312 394.992188 L 499.835938 395.183594 L 499.976562 395.367188 L 500.117188 395.546875 L 500.253906 395.714844 L 500.394531 395.878906 L 500.535156 396.039062 L 500.675781 396.1875 L 500.8125 396.332031 L 500.953125 396.472656 L 501.09375 396.605469 L 501.230469 396.734375 L 501.371094 396.859375 L 501.511719 396.976562 L 501.652344 397.089844 L 501.789062 397.195312 L 501.929688 397.300781 L 502.070312 397.402344 L 502.210938 397.496094 L 502.347656 397.585938 L 502.488281 397.675781 L 502.628906 397.757812 L 502.769531 397.835938 L 502.90625 397.914062 L 503.046875 397.988281 L 503.1875 398.058594 L 503.328125 398.125 L 503.464844 398.1875 L 503.605469 398.25 L 503.746094 398.308594 L 503.886719 398.363281 L 504.023438 398.417969 L 504.164062 398.46875 L 504.304688 398.515625 L 504.441406 398.5625 L 504.722656 398.648438 L 504.863281 398.6875 L 505 398.726562 L 505.421875 398.832031 L 505.558594 398.863281 L 505.699219 398.890625 L 505.839844 398.921875 L 505.980469 398.949219 L 506.117188 398.972656 L 506.539062 399.042969 L 506.675781 399.066406 L 506.957031 399.105469 L 507.09375 399.121094 L 507.234375 399.140625 L 507.515625 399.171875 L 507.652344 399.1875 L 507.933594 399.210938 L 508.074219 399.226562 L 508.210938 399.238281 L 508.351562 399.25 L 508.492188 399.257812 L 508.632812 399.269531 L 508.769531 399.277344 L 508.910156 399.289062 L 509.191406 399.304688 L 509.328125 399.3125 L 509.609375 399.328125 L 509.75 399.332031 L 509.886719 399.339844 L 510.027344 399.34375 L 510.167969 399.351562 L 510.304688 399.355469 L 510.445312 399.359375 L 510.585938 399.367188 L 510.726562 399.371094 L 510.863281 399.375 L 511.285156 399.386719 L 511.421875 399.386719 L 511.84375 399.398438 L 511.980469 399.398438 L 512.261719 399.40625 L 512.402344 399.40625 L 512.539062 399.410156 L 512.679688 399.410156 L 512.820312 399.414062 L 513.097656 399.414062 L 513.238281 399.417969 L 513.515625 399.417969 L 513.65625 399.421875 L 513.9375 399.421875 L 514.074219 399.425781 L 514.496094 399.425781 L 514.632812 399.429688 L 515.332031 399.429688 L 515.472656 399.433594 L 516.726562 399.433594 L 516.867188 399.4375 L 721.105469 399.4375 Z M 23.234375 399.4375 "/>
<path style="fill:none;stroke-width:1.280374;stroke-linecap:butt;stroke-linejoin:round;stroke:rgb(0%,0%,0%);stroke-opacity:0.501961;stroke-dasharray:8.962618,3.841122;stroke-miterlimit:10;" d="M 484.730469 414 L 484.730469 0 "/>
<path style="fill:none;stroke-width:1.066978;stroke-linecap:butt;stroke-linejoin:round;stroke:rgb(0%,0%,0%);stroke-opacity:1;stroke-miterlimit:10;" d="M 0 399.4375 L 756 399.4375 "/>
</g>
</svg>
