<?xml version="1.0" encoding="UTF-8"?>
<svg xmlns="http://www.w3.org/2000/svg" xmlns:xlink="http://www.w3.org/1999/xlink" width="756pt" height="432pt" viewBox="0 0 756 432" version="1.1">
<g id="surface46">
<rect x="0" y="0" width="756" height="432" style="fill:rgb(100%,100%,100%);fill-opacity:1;stroke:none;"/>
<path style="fill-rule:nonzero;fill:rgb(18.431373%,30.980392%,30.980392%);fill-opacity:0.901961;stroke-width:0.708661;stroke-linecap:round;stroke-linejoin:round;stroke:rgb(18.431373%,30.980392%,30.980392%);stroke-opacity:0.901961;stroke-miterlimit:10;" d="M 374.308594 200.277344 C 374.308594 203.417969 371.761719 205.964844 368.617188 205.964844 C 365.476562 205.964844 362.929688 203.417969 362.929688 200.277344 C 362.929688 197.132812 365.476562 194.585938 368.617188 194.585938 C 371.761719 194.585938 374.308594 197.132812 374.308594 200.277344 "/>
<path style="fill-rule:nonzero;fill:rgb(18.431373%,30.980392%,30.980392%);fill-opacity:0.901961;stroke-width:0.708661;stroke-linecap:round;stroke-linejoin:round;stroke:rgb(18.431373%,30.980392%,30.980392%);stroke-opacity:0.901961;stroke-miterlimit:10;" d="M 197.179688 188.3125 C 197.179688 191.457031 194.632812 194.003906 191.488281 194.003906 C 188.347656 194.003906 185.800781 191.457031 185.800781 188.3125 C 185.800781 185.171875 188.347656 182.625 191.488281 182.625 C 194.632812 182.625 197.179688 185.171875 197.179688 188.3125 "/>
<path style="fill-rule:nonzero;fill:rgb(18.431373%,30.980392%,30.980392%);fill-opacity:0.901961;stroke-width:0.708661;stroke-linecap:round;stroke-linejoin:round;stroke:rgb(18.431373%,30.980392%,30.980392%);stroke-opacity:0.901961;stroke-miterlimit:10;" d="M 452.15625 423.492188 C 452.15625 426.636719 449.609375 429.183594 446.464844 429.183594 C 443.324219 429.183594 440.777344 426.636719 440.777344 423.492188 C 440.777344 420.351562 443.324219 417.804688 446.464844 417.804688 C 449.609375 417.804688 452.15625 420.351562 452.15625 423.492188 "/>
<path style="fill-rule:nonzero;fill:rgb(18.431373%,30.980392%,30.980392%);fill-opacity:0.901961;stroke-width:0.708661;stroke-linecap:round;stroke-linejoin:round;stroke:rgb(18.431373%,30.980392%,30.980392%);stroke-opacity:0.901961;stroke-miterlimit:10;" d="M 396.382812 284.28125 C 396.382812 287.425781 393.835938 289.972656 390.695312 289.972656 C 387.550781 289.972656 385.003906 287.425781 385.003906 284.28125 C 385.003906 281.140625 387.550781 278.59375 390.695312 278.59375 C 393.835938 278.59375 396.382812 281.140625 396.382812 284.28125 "/>
<path style="fill-rule:nonzero;fill:rgb(18.431373%,30.980392%,30.980392%);fill-opacity:0.901961;stroke-width:0.708661;stroke-linecap:round;stroke-linejoin:round;stroke:rgb(18.431373%,30.980392%,30.980392%);stroke-opacity:0.901961;stroke-miterlimit:10;" d="M 314.226562 176.578125 C 314.226562 179.71875 311.679688 182.265625 308.539062 182.265625 C 305.394531 182.265625 302.847656 179.71875 302.847656 176.578125 C 302.847656 173.433594 305.394531 170.886719 308.539062 170.886719 C 311.679688 170.886719 314.226562 173.433594 314.226562 176.578125 "/>
<path style="fill-rule:nonzero;fill:rgb(18.431373%,30.980392%,30.980392%);fill-opacity:0.901961;stroke-width:0.708661;stroke-linecap:round;stroke-linejoin:round;stroke:rgb(18.431373%,30.980392%,30.980392%);stroke-opacity:0.901961;stroke-miterlimit:10;" d="M 401.765625 259.207031 C 401.765625 262.347656 399.21875 264.894531 396.078125 264.894531 C 392.933594 264.894531 390.386719 262.347656 390.386719 259.207031 C 390.386719 256.0625 392.933594 253.515625 396.078125 253.515625 C 399.21875 253.515625 401.765625 256.0625 401.765625 259.207031 "/>
<path style="fill-rule:nonzero;fill:rgb(18.431373%,30.980392%,30.980392%);fill-opacity:0.901961;stroke-width:0.708661;stroke-linecap:round;stroke-linejoin:round;stroke:rgb(18.431373%,30.980392%,30.980392%);stroke-opacity:0.901961;stroke-miterlimit:10;" d="M 395.175781 178.308594 C 395.175781 181.453125 392.628906 184 389.488281 184 C 386.347656 184 383.800781 181.453125 383.800781 178.308594 C 383.800781 175.167969 386.347656 172.621094 389.488281 172.621094 C 392.628906 172.621094 395.175781 175.167969 395.175781 178.308594 "/>
<path style="fill-rule:nonzero;fill:rgb(18.431373%,30.980392%,30.980392%);fill-opacity:0.901961;stroke-width:0.708661;stroke-linecap:round;stroke-linejoin:round;stroke:rgb(18.431373%,30.980392%,30.980392%);stroke-opacity:0.901961;stroke-miterlimit:10;" d="M 282.226562 348.21875 C 282.226562 351.363281 279.679688 353.910156 276.535156 353.910156 C 273.394531 353.910156 270.847656 351.363281 270.847656 348.21875 C 270.847656 345.078125 273.394531 342.53125 276.535156 342.53125 C 279.679688 342.53125 282.226562 345.078125 282.226562 348.21875 "/>
<path style="fill-rule:nonzero;fill:rgb(18.431373%,30.980392%,30.980392%);fill-opacity:0.901961;stroke-width:0.708661;stroke-linecap:round;stroke-linejoin:round;stroke:rgb(18.431373%,30.980392%,30.980392%);stroke-opacity:0.901961;stroke-miterlimit:10;" d="M 482.886719 228.425781 C 482.886719 231.566406 480.339844 234.113281 477.199219 234.113281 C 474.058594 234.113281 471.507812 231.566406 471.507812 228.425781 C 471.507812 225.285156 474.058594 222.738281 477.199219 222.738281 C 480.339844 222.738281 482.886719 225.285156 482.886719 228.425781 "/>
<path style="fill-rule:nonzero;fill:rgb(18.431373%,30.980392%,30.980392%);fill-opacity:0.901961;stroke-width:0.708661;stroke-linecap:round;stroke-linejoin:round;stroke:rgb(18.431373%,30.980392%,30.980392%);stroke-opacity:0.901961;stroke-miterlimit:10;" d="M 581.113281 82.203125 C 581.113281 85.347656 578.566406 87.894531 575.421875 87.894531 C 572.28125 87.894531 569.734375 85.347656 569.734375 82.203125 C 569.734375 79.0625 572.28125 76.515625 575.421875 76.515625 C 578.566406 76.515625 581.113281 79.0625 581.113281 82.203125 "/>
<path style="fill-rule:nonzero;fill:rgb(18.431373%,30.980392%,30.980392%);fill-opacity:0.901961;stroke-width:0.708661;stroke-linecap:round;stroke-linejoin:round;stroke:rgb(18.431373%,30.980392%,30.980392%);stroke-opacity:0.901961;stroke-miterlimit:10;" d="M 300.5 368.929688 C 300.5 372.070312 297.953125 374.617188 294.808594 374.617188 C 291.667969 374.617188 289.121094 372.070312 289.121094 368.929688 C 289.121094 365.785156 291.667969 363.238281 294.808594 363.238281 C 297.953125 363.238281 300.5 365.785156 300.5 368.929688 "/>
<path style="fill-rule:nonzero;fill:rgb(18.431373%,30.980392%,30.980392%);fill-opacity:0.901961;stroke-width:0.708661;stroke-linecap:round;stroke-linejoin:round;stroke:rgb(18.431373%,30.980392%,30.980392%);stroke-opacity:0.901961;stroke-miterlimit:10;" d="M 256.464844 221.945312 C 256.464844 225.085938 253.917969 227.632812 250.773438 227.632812 C 247.632812 227.632812 245.085938 225.085938 245.085938 221.945312 C 245.085938 218.800781 247.632812 216.253906 250.773438 216.253906 C 253.917969 216.253906 256.464844 218.800781 256.464844 221.945312 "/>
<path style="fill-rule:nonzero;fill:rgb(18.431373%,30.980392%,30.980392%);fill-opacity:0.901961;stroke-width:0.708661;stroke-linecap:round;stroke-linejoin:round;stroke:rgb(18.431373%,30.980392%,30.980392%);stroke-opacity:0.901961;stroke-miterlimit:10;" d="M 402.265625 281.625 C 402.265625 284.765625 399.71875 287.3125 396.578125 287.3125 C 393.433594 287.3125 390.886719 284.765625 390.886719 281.625 C 390.886719 278.484375 393.433594 275.933594 396.578125 275.933594 C 399.71875 275.933594 402.265625 278.484375 402.265625 281.625 "/>
<path style="fill-rule:nonzero;fill:rgb(18.431373%,30.980392%,30.980392%);fill-opacity:0.901961;stroke-width:0.708661;stroke-linecap:round;stroke-linejoin:round;stroke:rgb(18.431373%,30.980392%,30.980392%);stroke-opacity:0.901961;stroke-miterlimit:10;" d="M 309.050781 273.574219 C 309.050781 276.71875 306.503906 279.265625 303.363281 279.265625 C 300.21875 279.265625 297.671875 276.71875 297.671875 273.574219 C 297.671875 270.433594 300.21875 267.886719 303.363281 267.886719 C 306.503906 267.886719 309.050781 270.433594 309.050781 273.574219 "/>
<path style="fill-rule:nonzero;fill:rgb(18.431373%,30.980392%,30.980392%);fill-opacity:0.901961;stroke-width:0.708661;stroke-linecap:round;stroke-linejoin:round;stroke:rgb(18.431373%,30.980392%,30.980392%);stroke-opacity:0.901961;stroke-miterlimit:10;" d="M 591.9375 180.976562 C 591.9375 184.117188 589.390625 186.667969 586.25 186.667969 C 583.105469 186.667969 580.558594 184.117188 580.558594 180.976562 C 580.558594 177.835938 583.105469 175.289062 586.25 175.289062 C 589.390625 175.289062 591.9375 177.835938 591.9375 180.976562 "/>
<path style="fill-rule:nonzero;fill:rgb(18.431373%,30.980392%,30.980392%);fill-opacity:0.901961;stroke-width:0.708661;stroke-linecap:round;stroke-linejoin:round;stroke:rgb(18.431373%,30.980392%,30.980392%);stroke-opacity:0.901961;stroke-miterlimit:10;" d="M 297.921875 138.648438 C 297.921875 141.789062 295.375 144.335938 292.230469 144.335938 C 289.089844 144.335938 286.542969 141.789062 286.542969 138.648438 C 286.542969 135.503906 289.089844 132.957031 292.230469 132.957031 C 295.375 132.957031 297.921875 135.503906 297.921875 138.648438 "/>
<path style="fill-rule:nonzero;fill:rgb(18.431373%,30.980392%,30.980392%);fill-opacity:0.901961;stroke-width:0.708661;stroke-linecap:round;stroke-linejoin:round;stroke:rgb(18.431373%,30.980392%,30.980392%);stroke-opacity:0.901961;stroke-miterlimit:10;" d="M 470.050781 176.238281 C 470.050781 179.378906 467.503906 181.925781 464.363281 181.925781 C 461.21875 181.925781 458.671875 179.378906 458.671875 176.238281 C 458.671875 173.097656 461.21875 170.550781 464.363281 170.550781 C 467.503906 170.550781 470.050781 173.097656 470.050781 176.238281 "/>
<path style="fill-rule:nonzero;fill:rgb(18.431373%,30.980392%,30.980392%);fill-opacity:0.901961;stroke-width:0.708661;stroke-linecap:round;stroke-linejoin:round;stroke:rgb(18.431373%,30.980392%,30.980392%);stroke-opacity:0.901961;stroke-miterlimit:10;" d="M 567.011719 263.808594 C 567.011719 266.949219 564.464844 269.496094 561.324219 269.496094 C 558.179688 269.496094 555.632812 266.949219 555.632812 263.808594 C 555.632812 260.664062 558.179688 258.117188 561.324219 258.117188 C 564.464844 258.117188 567.011719 260.664062 567.011719 263.808594 "/>
<path style="fill-rule:nonzero;fill:rgb(18.431373%,30.980392%,30.980392%);fill-opacity:0.901961;stroke-width:0.708661;stroke-linecap:round;stroke-linejoin:round;stroke:rgb(18.431373%,30.980392%,30.980392%);stroke-opacity:0.901961;stroke-miterlimit:10;" d="M 726.796875 100.753906 C 726.796875 103.898438 724.25 106.445312 721.105469 106.445312 C 717.964844 106.445312 715.417969 103.898438 715.417969 100.753906 C 715.417969 97.613281 717.964844 95.066406 721.105469 95.066406 C 724.25 95.066406 726.796875 97.613281 726.796875 100.753906 "/>
<path style="fill-rule:nonzero;fill:rgb(18.431373%,30.980392%,30.980392%);fill-opacity:0.901961;stroke-width:0.708661;stroke-linecap:round;stroke-linejoin:round;stroke:rgb(18.431373%,30.980392%,30.980392%);stroke-opacity:0.901961;stroke-miterlimit:10;" d="M 424.839844 269.664062 C 424.839844 272.804688 422.292969 275.351562 419.148438 275.351562 C 416.007812 275.351562 413.460938 272.804688 413.460938 269.664062 C 413.460938 266.519531 416.007812 263.972656 419.148438 263.972656 C 422.292969 263.972656 424.839844 266.519531 424.839844 269.664062 "/>
<path style="fill-rule:nonzero;fill:rgb(18.431373%,30.980392%,30.980392%);fill-opacity:0.901961;stroke-width:0.708661;stroke-linecap:round;stroke-linejoin:round;stroke:rgb(18.431373%,30.980392%,30.980392%);stroke-opacity:0.901961;stroke-miterlimit:10;" d="M 613.835938 213.703125 C 613.835938 216.84375 611.289062 219.390625 608.148438 219.390625 C 605.007812 219.390625 602.460938 216.84375 602.460938 213.703125 C 602.460938 210.5625 605.007812 208.015625 608.148438 208.015625 C 611.289062 208.015625 613.835938 210.5625 613.835938 213.703125 "/>
<path style="fill-rule:nonzero;fill:rgb(18.431373%,30.980392%,30.980392%);fill-opacity:0.901961;stroke-width:0.708661;stroke-linecap:round;stroke-linejoin:round;stroke:rgb(18.431373%,30.980392%,30.980392%);stroke-opacity:0.901961;stroke-miterlimit:10;" d="M 449.230469 290.015625 C 449.230469 293.15625 446.683594 295.703125 443.539062 295.703125 C 440.398438 295.703125 437.851562 293.15625 437.851562 290.015625 C 437.851562 286.871094 440.398438 284.324219 443.539062 284.324219 C 446.683594 284.324219 449.230469 286.871094 449.230469 290.015625 "/>
<path style="fill-rule:nonzero;fill:rgb(18.431373%,30.980392%,30.980392%);fill-opacity:0.901961;stroke-width:0.708661;stroke-linecap:round;stroke-linejoin:round;stroke:rgb(18.431373%,30.980392%,30.980392%);stroke-opacity:0.901961;stroke-miterlimit:10;" d="M 389.917969 271.984375 C 389.917969 275.125 387.371094 277.671875 384.226562 277.671875 C 381.085938 277.671875 378.539062 275.125 378.539062 271.984375 C 378.539062 268.84375 381.085938 266.292969 384.226562 266.292969 C 387.371094 266.292969 389.917969 268.84375 389.917969 271.984375 "/>
<path style="fill-rule:nonzero;fill:rgb(18.431373%,30.980392%,30.980392%);fill-opacity:0.901961;stroke-width:0.708661;stroke-linecap:round;stroke-linejoin:round;stroke:rgb(18.431373%,30.980392%,30.980392%);stroke-opacity:0.901961;stroke-miterlimit:10;" d="M 425.039062 250.949219 C 425.039062 254.089844 422.492188 256.636719 419.347656 256.636719 C 416.207031 256.636719 413.660156 254.089844 413.660156 250.949219 C 413.660156 247.808594 416.207031 245.261719 419.347656 245.261719 C 422.492188 245.261719 425.039062 247.808594 425.039062 250.949219 "/>
<path style="fill-rule:nonzero;fill:rgb(18.431373%,30.980392%,30.980392%);fill-opacity:0.901961;stroke-width:0.708661;stroke-linecap:round;stroke-linejoin:round;stroke:rgb(18.431373%,30.980392%,30.980392%);stroke-opacity:0.901961;stroke-miterlimit:10;" d="M 569.410156 222.917969 C 569.410156 226.058594 566.863281 228.605469 563.71875 228.605469 C 560.578125 228.605469 558.03125 226.058594 558.03125 222.917969 C 558.03125 219.777344 560.578125 217.230469 563.71875 217.230469 C 566.863281 217.230469 569.410156 219.777344 569.410156 222.917969 "/>
<path style="fill-rule:nonzero;fill:rgb(18.431373%,30.980392%,30.980392%);fill-opacity:0.901961;stroke-width:0.708661;stroke-linecap:round;stroke-linejoin:round;stroke:rgb(18.431373%,30.980392%,30.980392%);stroke-opacity:0.901961;stroke-miterlimit:10;" d="M 407.71875 241.394531 C 407.71875 244.539062 405.171875 247.085938 402.03125 247.085938 C 398.886719 247.085938 396.339844 244.539062 396.339844 241.394531 C 396.339844 238.253906 398.886719 235.707031 402.03125 235.707031 C 405.171875 235.707031 407.71875 238.253906 407.71875 241.394531 "/>
<path style="fill-rule:nonzero;fill:rgb(18.431373%,30.980392%,30.980392%);fill-opacity:0.901961;stroke-width:0.708661;stroke-linecap:round;stroke-linejoin:round;stroke:rgb(18.431373%,30.980392%,30.980392%);stroke-opacity:0.901961;stroke-miterlimit:10;" d="M 359.847656 174.742188 C 359.847656 177.882812 357.300781 180.429688 354.160156 180.429688 C 351.015625 180.429688 348.46875 177.882812 348.46875 174.742188 C 348.46875 171.597656 351.015625 169.050781 354.160156 169.050781 C 357.300781 169.050781 359.847656 171.597656 359.847656 174.742188 "/>
<path style="fill-rule:nonzero;fill:rgb(18.431373%,30.980392%,30.980392%);fill-opacity:0.901961;stroke-width:0.708661;stroke-linecap:round;stroke-linejoin:round;stroke:rgb(18.431373%,30.980392%,30.980392%);stroke-opacity:0.901961;stroke-miterlimit:10;" d="M 265.75 254.105469 C 265.75 257.25 263.203125 259.796875 260.058594 259.796875 C 256.917969 259.796875 254.371094 257.25 254.371094 254.105469 C 254.371094 250.964844 256.917969 248.417969 260.058594 248.417969 C 263.203125 248.417969 265.75 250.964844 265.75 254.105469 "/>
<path style="fill-rule:nonzero;fill:rgb(18.431373%,30.980392%,30.980392%);fill-opacity:0.901961;stroke-width:0.708661;stroke-linecap:round;stroke-linejoin:round;stroke:rgb(18.431373%,30.980392%,30.980392%);stroke-opacity:0.901961;stroke-miterlimit:10;" d="M 127.714844 374.515625 C 127.714844 377.660156 125.167969 380.207031 122.027344 380.207031 C 118.882812 380.207031 116.335938 377.660156 116.335938 374.515625 C 116.335938 371.375 118.882812 368.828125 122.027344 368.828125 C 125.167969 368.828125 127.714844 371.375 127.714844 374.515625 "/>
<path style="fill-rule:nonzero;fill:rgb(18.431373%,30.980392%,30.980392%);fill-opacity:0.901961;stroke-width:0.708661;stroke-linecap:round;stroke-linejoin:round;stroke:rgb(18.431373%,30.980392%,30.980392%);stroke-opacity:0.901961;stroke-miterlimit:10;" d="M 542.859375 59.070312 C 542.859375 62.214844 540.3125 64.761719 537.171875 64.761719 C 534.027344 64.761719 531.480469 62.214844 531.480469 59.070312 C 531.480469 55.929688 534.027344 53.382812 537.171875 53.382812 C 540.3125 53.382812 542.859375 55.929688 542.859375 59.070312 "/>
<path style="fill-rule:nonzero;fill:rgb(18.431373%,30.980392%,30.980392%);fill-opacity:0.901961;stroke-width:0.708661;stroke-linecap:round;stroke-linejoin:round;stroke:rgb(18.431373%,30.980392%,30.980392%);stroke-opacity:0.901961;stroke-miterlimit:10;" d="M 289.832031 237.761719 C 289.832031 240.902344 287.285156 243.449219 284.140625 243.449219 C 281 243.449219 278.453125 240.902344 278.453125 237.761719 C 278.453125 234.617188 281 232.070312 284.140625 232.070312 C 287.285156 232.070312 289.832031 234.617188 289.832031 237.761719 "/>
<path style="fill-rule:nonzero;fill:rgb(18.431373%,30.980392%,30.980392%);fill-opacity:0.901961;stroke-width:0.708661;stroke-linecap:round;stroke-linejoin:round;stroke:rgb(18.431373%,30.980392%,30.980392%);stroke-opacity:0.901961;stroke-miterlimit:10;" d="M 438.398438 304.167969 C 438.398438 307.308594 435.851562 309.855469 432.710938 309.855469 C 429.566406 309.855469 427.019531 307.308594 427.019531 304.167969 C 427.019531 301.023438 429.566406 298.476562 432.710938 298.476562 C 435.851562 298.476562 438.398438 301.023438 438.398438 304.167969 "/>
<path style="fill-rule:nonzero;fill:rgb(18.431373%,30.980392%,30.980392%);fill-opacity:0.901961;stroke-width:0.708661;stroke-linecap:round;stroke-linejoin:round;stroke:rgb(18.431373%,30.980392%,30.980392%);stroke-opacity:0.901961;stroke-miterlimit:10;" d="M 484.996094 176.246094 C 484.996094 179.386719 482.449219 181.933594 479.308594 181.933594 C 476.164062 181.933594 473.617188 179.386719 473.617188 176.246094 C 473.617188 173.101562 476.164062 170.554688 479.308594 170.554688 C 482.449219 170.554688 484.996094 173.101562 484.996094 176.246094 "/>
<path style="fill-rule:nonzero;fill:rgb(18.431373%,30.980392%,30.980392%);fill-opacity:0.901961;stroke-width:0.708661;stroke-linecap:round;stroke-linejoin:round;stroke:rgb(18.431373%,30.980392%,30.980392%);stroke-opacity:0.901961;stroke-miterlimit:10;" d="M 511.207031 177.757812 C 511.207031 180.898438 508.65625 183.445312 505.515625 183.445312 C 502.375 183.445312 499.828125 180.898438 499.828125 177.757812 C 499.828125 174.613281 502.375 172.066406 505.515625 172.066406 C 508.65625 172.066406 511.207031 174.613281 511.207031 177.757812 "/>
<path style="fill-rule:nonzero;fill:rgb(18.431373%,30.980392%,30.980392%);fill-opacity:0.901961;stroke-width:0.708661;stroke-linecap:round;stroke-linejoin:round;stroke:rgb(18.431373%,30.980392%,30.980392%);stroke-opacity:0.901961;stroke-miterlimit:10;" d="M 254.152344 348.203125 C 254.152344 351.34375 251.605469 353.890625 248.464844 353.890625 C 245.324219 353.890625 242.777344 351.34375 242.777344 348.203125 C 242.777344 345.058594 245.324219 342.511719 248.464844 342.511719 C 251.605469 342.511719 254.152344 345.058594 254.152344 348.203125 "/>
<path style="fill-rule:nonzero;fill:rgb(18.431373%,30.980392%,30.980392%);fill-opacity:0.901961;stroke-width:0.708661;stroke-linecap:round;stroke-linejoin:round;stroke:rgb(18.431373%,30.980392%,30.980392%);stroke-opacity:0.901961;stroke-miterlimit:10;" d="M 654.203125 20.167969 C 654.203125 23.308594 651.65625 25.855469 648.515625 25.855469 C 645.371094 25.855469 642.824219 23.308594 642.824219 20.167969 C 642.824219 17.023438 645.371094 14.476562 648.515625 14.476562 C 651.65625 14.476562 654.203125 17.023438 654.203125 20.167969 "/>
<path style="fill-rule:nonzero;fill:rgb(18.431373%,30.980392%,30.980392%);fill-opacity:0.901961;stroke-width:0.708661;stroke-linecap:round;stroke-linejoin:round;stroke:rgb(18.431373%,30.980392%,30.980392%);stroke-opacity:0.901961;stroke-miterlimit:10;" d="M 655.703125 129.894531 C 655.703125 133.035156 653.15625 135.582031 650.015625 135.582031 C 646.875 135.582031 644.328125 133.035156 644.328125 129.894531 C 644.328125 126.753906 646.875 124.207031 650.015625 124.207031 C 653.15625 124.207031 655.703125 126.753906 655.703125 129.894531 "/>
<path style="fill-rule:nonzero;fill:rgb(18.431373%,30.980392%,30.980392%);fill-opacity:0.901961;stroke-width:0.708661;stroke-linecap:round;stroke-linejoin:round;stroke:rgb(18.431373%,30.980392%,30.980392%);stroke-opacity:0.901961;stroke-miterlimit:10;" d="M 580.554688 139.507812 C 580.554688 142.648438 578.007812 145.195312 574.867188 145.195312 C 571.722656 145.195312 569.175781 142.648438 569.175781 139.507812 C 569.175781 136.363281 571.722656 133.816406 574.867188 133.816406 C 578.007812 133.816406 580.554688 136.363281 580.554688 139.507812 "/>
<path style="fill-rule:nonzero;fill:rgb(18.431373%,30.980392%,30.980392%);fill-opacity:0.901961;stroke-width:0.708661;stroke-linecap:round;stroke-linejoin:round;stroke:rgb(18.431373%,30.980392%,30.980392%);stroke-opacity:0.901961;stroke-miterlimit:10;" d="M 478.371094 241.105469 C 478.371094 244.246094 475.824219 246.792969 472.679688 246.792969 C 469.539062 246.792969 466.992188 244.246094 466.992188 241.105469 C 466.992188 237.964844 469.539062 235.417969 472.679688 235.417969 C 475.824219 235.417969 478.371094 237.964844 478.371094 241.105469 "/>
<path style="fill-rule:nonzero;fill:rgb(18.431373%,30.980392%,30.980392%);fill-opacity:0.901961;stroke-width:0.708661;stroke-linecap:round;stroke-linejoin:round;stroke:rgb(18.431373%,30.980392%,30.980392%);stroke-opacity:0.901961;stroke-miterlimit:10;" d="M 392.707031 212.554688 C 392.707031 215.695312 390.160156 218.242188 387.019531 218.242188 C 383.875 218.242188 381.328125 215.695312 381.328125 212.554688 C 381.328125 209.414062 383.875 206.863281 387.019531 206.863281 C 390.160156 206.863281 392.707031 209.414062 392.707031 212.554688 "/>
<path style="fill-rule:nonzero;fill:rgb(18.431373%,30.980392%,30.980392%);fill-opacity:0.901961;stroke-width:0.708661;stroke-linecap:round;stroke-linejoin:round;stroke:rgb(18.431373%,30.980392%,30.980392%);stroke-opacity:0.901961;stroke-miterlimit:10;" d="M 479.566406 182.398438 C 479.566406 185.542969 477.019531 188.089844 473.878906 188.089844 C 470.738281 188.089844 468.1875 185.542969 468.1875 182.398438 C 468.1875 179.257812 470.738281 176.710938 473.878906 176.710938 C 477.019531 176.710938 479.566406 179.257812 479.566406 182.398438 "/>
<path style="fill-rule:nonzero;fill:rgb(18.431373%,30.980392%,30.980392%);fill-opacity:0.901961;stroke-width:0.708661;stroke-linecap:round;stroke-linejoin:round;stroke:rgb(18.431373%,30.980392%,30.980392%);stroke-opacity:0.901961;stroke-miterlimit:10;" d="M 510.144531 146.671875 C 510.144531 149.816406 507.597656 152.363281 504.453125 152.363281 C 501.3125 152.363281 498.765625 149.816406 498.765625 146.671875 C 498.765625 143.53125 501.3125 140.984375 504.453125 140.984375 C 507.597656 140.984375 510.144531 143.53125 510.144531 146.671875 "/>
<path style="fill-rule:nonzero;fill:rgb(18.431373%,30.980392%,30.980392%);fill-opacity:0.901961;stroke-width:0.708661;stroke-linecap:round;stroke-linejoin:round;stroke:rgb(18.431373%,30.980392%,30.980392%);stroke-opacity:0.901961;stroke-miterlimit:10;" d="M 554.5625 243.550781 C 554.5625 246.691406 552.015625 249.242188 548.875 249.242188 C 545.734375 249.242188 543.1875 246.691406 543.1875 243.550781 C 543.1875 240.410156 545.734375 237.863281 548.875 237.863281 C 552.015625 237.863281 554.5625 240.410156 554.5625 243.550781 "/>
<path style="fill-rule:nonzero;fill:rgb(18.431373%,30.980392%,30.980392%);fill-opacity:0.901961;stroke-width:0.708661;stroke-linecap:round;stroke-linejoin:round;stroke:rgb(18.431373%,30.980392%,30.980392%);stroke-opacity:0.901961;stroke-miterlimit:10;" d="M 330.875 238.246094 C 330.875 241.386719 328.328125 243.933594 325.1875 243.933594 C 322.042969 243.933594 319.496094 241.386719 319.496094 238.246094 C 319.496094 235.101562 322.042969 232.554688 325.1875 232.554688 C 328.328125 232.554688 330.875 235.101562 330.875 238.246094 "/>
<path style="fill-rule:nonzero;fill:rgb(18.431373%,30.980392%,30.980392%);fill-opacity:0.901961;stroke-width:0.708661;stroke-linecap:round;stroke-linejoin:round;stroke:rgb(18.431373%,30.980392%,30.980392%);stroke-opacity:0.901961;stroke-miterlimit:10;" d="M 340.484375 270.222656 C 340.484375 273.363281 337.9375 275.910156 334.796875 275.910156 C 331.652344 275.910156 329.105469 273.363281 329.105469 270.222656 C 329.105469 267.078125 331.652344 264.53125 334.796875 264.53125 C 337.9375 264.53125 340.484375 267.078125 340.484375 270.222656 "/>
<path style="fill-rule:nonzero;fill:rgb(18.431373%,30.980392%,30.980392%);fill-opacity:0.901961;stroke-width:0.708661;stroke-linecap:round;stroke-linejoin:round;stroke:rgb(18.431373%,30.980392%,30.980392%);stroke-opacity:0.901961;stroke-miterlimit:10;" d="M 359.527344 274.011719 C 359.527344 277.152344 356.980469 279.699219 353.839844 279.699219 C 350.699219 279.699219 348.152344 277.152344 348.152344 274.011719 C 348.152344 270.867188 350.699219 268.320312 353.839844 268.320312 C 356.980469 268.320312 359.527344 270.867188 359.527344 274.011719 "/>
<path style="fill-rule:nonzero;fill:rgb(18.431373%,30.980392%,30.980392%);fill-opacity:0.901961;stroke-width:0.708661;stroke-linecap:round;stroke-linejoin:round;stroke:rgb(18.431373%,30.980392%,30.980392%);stroke-opacity:0.901961;stroke-miterlimit:10;" d="M 241.671875 231.894531 C 241.671875 235.039062 239.121094 237.585938 235.980469 237.585938 C 232.839844 237.585938 230.292969 235.039062 230.292969 231.894531 C 230.292969 228.753906 232.839844 226.207031 235.980469 226.207031 C 239.121094 226.207031 241.671875 228.753906 241.671875 231.894531 "/>
<path style="fill-rule:nonzero;fill:rgb(18.431373%,30.980392%,30.980392%);fill-opacity:0.901961;stroke-width:0.708661;stroke-linecap:round;stroke-linejoin:round;stroke:rgb(18.431373%,30.980392%,30.980392%);stroke-opacity:0.901961;stroke-miterlimit:10;" d="M 466.605469 132.515625 C 466.605469 135.65625 464.058594 138.203125 460.917969 138.203125 C 457.773438 138.203125 455.226562 135.65625 455.226562 132.515625 C 455.226562 129.371094 457.773438 126.824219 460.917969 126.824219 C 464.058594 126.824219 466.605469 129.371094 466.605469 132.515625 "/>
<path style="fill-rule:nonzero;fill:rgb(18.431373%,30.980392%,30.980392%);fill-opacity:0.901961;stroke-width:0.708661;stroke-linecap:round;stroke-linejoin:round;stroke:rgb(18.431373%,30.980392%,30.980392%);stroke-opacity:0.901961;stroke-miterlimit:10;" d="M 474.121094 216.730469 C 474.121094 219.871094 471.574219 222.421875 468.433594 222.421875 C 465.289062 222.421875 462.742188 219.871094 462.742188 216.730469 C 462.742188 213.589844 465.289062 211.042969 468.433594 211.042969 C 471.574219 211.042969 474.121094 213.589844 474.121094 216.730469 "/>
<path style="fill-rule:nonzero;fill:rgb(18.431373%,30.980392%,30.980392%);fill-opacity:0.901961;stroke-width:0.708661;stroke-linecap:round;stroke-linejoin:round;stroke:rgb(18.431373%,30.980392%,30.980392%);stroke-opacity:0.901961;stroke-miterlimit:10;" d="M 620.261719 200.449219 C 620.261719 203.589844 617.714844 206.136719 614.574219 206.136719 C 611.429688 206.136719 608.882812 203.589844 608.882812 200.449219 C 608.882812 197.304688 611.429688 194.757812 614.574219 194.757812 C 617.714844 194.757812 620.261719 197.304688 620.261719 200.449219 "/>
<path style="fill-rule:nonzero;fill:rgb(18.431373%,30.980392%,30.980392%);fill-opacity:0.901961;stroke-width:0.708661;stroke-linecap:round;stroke-linejoin:round;stroke:rgb(18.431373%,30.980392%,30.980392%);stroke-opacity:0.901961;stroke-miterlimit:10;" d="M 312.003906 237.070312 C 312.003906 240.214844 309.457031 242.761719 306.316406 242.761719 C 303.171875 242.761719 300.625 240.214844 300.625 237.070312 C 300.625 233.929688 303.171875 231.382812 306.316406 231.382812 C 309.457031 231.382812 312.003906 233.929688 312.003906 237.070312 "/>
<path style="fill-rule:nonzero;fill:rgb(18.431373%,30.980392%,30.980392%);fill-opacity:0.901961;stroke-width:0.708661;stroke-linecap:round;stroke-linejoin:round;stroke:rgb(18.431373%,30.980392%,30.980392%);stroke-opacity:0.901961;stroke-miterlimit:10;" d="M 238.449219 324.097656 C 238.449219 327.238281 235.902344 329.789062 232.761719 329.789062 C 229.617188 329.789062 227.070312 327.238281 227.070312 324.097656 C 227.070312 320.957031 229.617188 318.410156 232.761719 318.410156 C 235.902344 318.410156 238.449219 320.957031 238.449219 324.097656 "/>
<path style="fill-rule:nonzero;fill:rgb(18.431373%,30.980392%,30.980392%);fill-opacity:0.901961;stroke-width:0.708661;stroke-linecap:round;stroke-linejoin:round;stroke:rgb(18.431373%,30.980392%,30.980392%);stroke-opacity:0.901961;stroke-miterlimit:10;" d="M 547.113281 211.109375 C 547.113281 214.25 544.566406 216.796875 541.425781 216.796875 C 538.28125 216.796875 535.734375 214.25 535.734375 211.109375 C 535.734375 207.96875 538.28125 205.421875 541.425781 205.421875 C 544.566406 205.421875 547.113281 207.96875 547.113281 211.109375 "/>
<path style="fill-rule:nonzero;fill:rgb(18.431373%,30.980392%,30.980392%);fill-opacity:0.901961;stroke-width:0.708661;stroke-linecap:round;stroke-linejoin:round;stroke:rgb(18.431373%,30.980392%,30.980392%);stroke-opacity:0.901961;stroke-miterlimit:10;" d="M 472.636719 278.480469 C 472.636719 281.621094 470.089844 284.167969 466.945312 284.167969 C 463.804688 284.167969 461.257812 281.621094 461.257812 278.480469 C 461.257812 275.335938 463.804688 272.789062 466.945312 272.789062 C 470.089844 272.789062 472.636719 275.335938 472.636719 278.480469 "/>
<path style="fill-rule:nonzero;fill:rgb(18.431373%,30.980392%,30.980392%);fill-opacity:0.901961;stroke-width:0.708661;stroke-linecap:round;stroke-linejoin:round;stroke:rgb(18.431373%,30.980392%,30.980392%);stroke-opacity:0.901961;stroke-miterlimit:10;" d="M 302.535156 304.503906 C 302.535156 307.644531 299.988281 310.191406 296.84375 310.191406 C 293.703125 310.191406 291.15625 307.644531 291.15625 304.503906 C 291.15625 301.359375 293.703125 298.8125 296.84375 298.8125 C 299.988281 298.8125 302.535156 301.359375 302.535156 304.503906 "/>
<path style="fill-rule:nonzero;fill:rgb(18.431373%,30.980392%,30.980392%);fill-opacity:0.901961;stroke-width:0.708661;stroke-linecap:round;stroke-linejoin:round;stroke:rgb(18.431373%,30.980392%,30.980392%);stroke-opacity:0.901961;stroke-miterlimit:10;" d="M 456.429688 242.109375 C 456.429688 245.25 453.882812 247.796875 450.742188 247.796875 C 447.597656 247.796875 445.050781 245.25 445.050781 242.109375 C 445.050781 238.96875 447.597656 236.421875 450.742188 236.421875 C 453.882812 236.421875 456.429688 238.96875 456.429688 242.109375 "/>
<path style="fill-rule:nonzero;fill:rgb(18.431373%,30.980392%,30.980392%);fill-opacity:0.901961;stroke-width:0.708661;stroke-linecap:round;stroke-linejoin:round;stroke:rgb(18.431373%,30.980392%,30.980392%);stroke-opacity:0.901961;stroke-miterlimit:10;" d="M 533.882812 109.0625 C 533.882812 112.203125 531.335938 114.75 528.195312 114.75 C 525.054688 114.75 522.507812 112.203125 522.507812 109.0625 C 522.507812 105.917969 525.054688 103.371094 528.195312 103.371094 C 531.335938 103.371094 533.882812 105.917969 533.882812 109.0625 "/>
<path style="fill-rule:nonzero;fill:rgb(18.431373%,30.980392%,30.980392%);fill-opacity:0.901961;stroke-width:0.708661;stroke-linecap:round;stroke-linejoin:round;stroke:rgb(18.431373%,30.980392%,30.980392%);stroke-opacity:0.901961;stroke-miterlimit:10;" d="M 311.847656 162.957031 C 311.847656 166.097656 309.300781 168.648438 306.160156 168.648438 C 303.019531 168.648438 300.472656 166.097656 300.472656 162.957031 C 300.472656 159.816406 303.019531 157.269531 306.160156 157.269531 C 309.300781 157.269531 311.847656 159.816406 311.847656 162.957031 "/>
<path style="fill-rule:nonzero;fill:rgb(18.431373%,30.980392%,30.980392%);fill-opacity:0.901961;stroke-width:0.708661;stroke-linecap:round;stroke-linejoin:round;stroke:rgb(18.431373%,30.980392%,30.980392%);stroke-opacity:0.901961;stroke-miterlimit:10;" d="M 595.089844 166.027344 C 595.089844 169.167969 592.542969 171.714844 589.402344 171.714844 C 586.257812 171.714844 583.710938 169.167969 583.710938 166.027344 C 583.710938 162.886719 586.257812 160.339844 589.402344 160.339844 C 592.542969 160.339844 595.089844 162.886719 595.089844 166.027344 "/>
<path style="fill-rule:nonzero;fill:rgb(18.431373%,30.980392%,30.980392%);fill-opacity:0.901961;stroke-width:0.708661;stroke-linecap:round;stroke-linejoin:round;stroke:rgb(18.431373%,30.980392%,30.980392%);stroke-opacity:0.901961;stroke-miterlimit:10;" d="M 433.832031 242.847656 C 433.832031 245.988281 431.285156 248.535156 428.140625 248.535156 C 425 248.535156 422.453125 245.988281 422.453125 242.847656 C 422.453125 239.703125 425 237.15625 428.140625 237.15625 C 431.285156 237.15625 433.832031 239.703125 433.832031 242.847656 "/>
<path style="fill-rule:nonzero;fill:rgb(18.431373%,30.980392%,30.980392%);fill-opacity:0.901961;stroke-width:0.708661;stroke-linecap:round;stroke-linejoin:round;stroke:rgb(18.431373%,30.980392%,30.980392%);stroke-opacity:0.901961;stroke-miterlimit:10;" d="M 45.898438 387.234375 C 45.898438 390.375 43.351562 392.921875 40.207031 392.921875 C 37.066406 392.921875 34.519531 390.375 34.519531 387.234375 C 34.519531 384.09375 37.066406 381.542969 40.207031 381.542969 C 43.351562 381.542969 45.898438 384.09375 45.898438 387.234375 "/>
<path style="fill-rule:nonzero;fill:rgb(18.431373%,30.980392%,30.980392%);fill-opacity:0.901961;stroke-width:0.708661;stroke-linecap:round;stroke-linejoin:round;stroke:rgb(18.431373%,30.980392%,30.980392%);stroke-opacity:0.901961;stroke-miterlimit:10;" d="M 79.269531 374.089844 C 79.269531 377.234375 76.722656 379.78125 73.582031 379.78125 C 70.4375 379.78125 67.890625 377.234375 67.890625 374.089844 C 67.890625 370.949219 70.4375 368.402344 73.582031 368.402344 C 76.722656 368.402344 79.269531 370.949219 79.269531 374.089844 "/>
<path style="fill-rule:nonzero;fill:rgb(18.431373%,30.980392%,30.980392%);fill-opacity:0.901961;stroke-width:0.708661;stroke-linecap:round;stroke-linejoin:round;stroke:rgb(18.431373%,30.980392%,30.980392%);stroke-opacity:0.901961;stroke-miterlimit:10;" d="M 443.785156 178.695312 C 443.785156 181.835938 441.238281 184.382812 438.097656 184.382812 C 434.953125 184.382812 432.40625 181.835938 432.40625 178.695312 C 432.40625 175.550781 434.953125 173.003906 438.097656 173.003906 C 441.238281 173.003906 443.785156 175.550781 443.785156 178.695312 "/>
<path style="fill-rule:nonzero;fill:rgb(18.431373%,30.980392%,30.980392%);fill-opacity:0.901961;stroke-width:0.708661;stroke-linecap:round;stroke-linejoin:round;stroke:rgb(18.431373%,30.980392%,30.980392%);stroke-opacity:0.901961;stroke-miterlimit:10;" d="M 297.117188 198.527344 C 297.117188 201.671875 294.570312 204.21875 291.429688 204.21875 C 288.285156 204.21875 285.738281 201.671875 285.738281 198.527344 C 285.738281 195.386719 288.285156 192.839844 291.429688 192.839844 C 294.570312 192.839844 297.117188 195.386719 297.117188 198.527344 "/>
<path style="fill-rule:nonzero;fill:rgb(18.431373%,30.980392%,30.980392%);fill-opacity:0.901961;stroke-width:0.708661;stroke-linecap:round;stroke-linejoin:round;stroke:rgb(18.431373%,30.980392%,30.980392%);stroke-opacity:0.901961;stroke-miterlimit:10;" d="M 339.175781 277.792969 C 339.175781 280.933594 336.628906 283.480469 333.488281 283.480469 C 330.347656 283.480469 327.796875 280.933594 327.796875 277.792969 C 327.796875 274.648438 330.347656 272.101562 333.488281 272.101562 C 336.628906 272.101562 339.175781 274.648438 339.175781 277.792969 "/>
<path style="fill-rule:nonzero;fill:rgb(18.431373%,30.980392%,30.980392%);fill-opacity:0.901961;stroke-width:0.708661;stroke-linecap:round;stroke-linejoin:round;stroke:rgb(18.431373%,30.980392%,30.980392%);stroke-opacity:0.901961;stroke-miterlimit:10;" d="M 414.59375 152.234375 C 414.59375 155.378906 412.046875 157.925781 408.90625 157.925781 C 405.761719 157.925781 403.214844 155.378906 403.214844 152.234375 C 403.214844 149.09375 405.761719 146.546875 408.90625 146.546875 C 412.046875 146.546875 414.59375 149.09375 414.59375 152.234375 "/>
<path style="fill-rule:nonzero;fill:rgb(18.431373%,30.980392%,30.980392%);fill-opacity:0.901961;stroke-width:0.708661;stroke-linecap:round;stroke-linejoin:round;stroke:rgb(18.431373%,30.980392%,30.980392%);stroke-opacity:0.901961;stroke-miterlimit:10;" d="M 378.796875 238.441406 C 378.796875 241.582031 376.25 244.128906 373.109375 244.128906 C 369.964844 244.128906 367.417969 241.582031 367.417969 238.441406 C 367.417969 235.296875 369.964844 232.75 373.109375 232.75 C 376.25 232.75 378.796875 235.296875 378.796875 238.441406 "/>
<path style="fill-rule:nonzero;fill:rgb(18.431373%,30.980392%,30.980392%);fill-opacity:0.901961;stroke-width:0.708661;stroke-linecap:round;stroke-linejoin:round;stroke:rgb(18.431373%,30.980392%,30.980392%);stroke-opacity:0.901961;stroke-miterlimit:10;" d="M 286.746094 345.757812 C 286.746094 348.898438 284.199219 351.445312 281.054688 351.445312 C 277.914062 351.445312 275.367188 348.898438 275.367188 345.757812 C 275.367188 342.613281 277.914062 340.066406 281.054688 340.066406 C 284.199219 340.066406 286.746094 342.613281 286.746094 345.757812 "/>
<path style="fill-rule:nonzero;fill:rgb(18.431373%,30.980392%,30.980392%);fill-opacity:0.901961;stroke-width:0.708661;stroke-linecap:round;stroke-linejoin:round;stroke:rgb(18.431373%,30.980392%,30.980392%);stroke-opacity:0.901961;stroke-miterlimit:10;" d="M 246.570312 284.628906 C 246.570312 287.769531 244.023438 290.316406 240.878906 290.316406 C 237.738281 290.316406 235.191406 287.769531 235.191406 284.628906 C 235.191406 281.484375 237.738281 278.9375 240.878906 278.9375 C 244.023438 278.9375 246.570312 281.484375 246.570312 284.628906 "/>
<path style="fill-rule:nonzero;fill:rgb(18.431373%,30.980392%,30.980392%);fill-opacity:0.901961;stroke-width:0.708661;stroke-linecap:round;stroke-linejoin:round;stroke:rgb(18.431373%,30.980392%,30.980392%);stroke-opacity:0.901961;stroke-miterlimit:10;" d="M 348.957031 230.519531 C 348.957031 233.660156 346.410156 236.207031 343.269531 236.207031 C 340.125 236.207031 337.578125 233.660156 337.578125 230.519531 C 337.578125 227.378906 340.125 224.832031 343.269531 224.832031 C 346.410156 224.832031 348.957031 227.378906 348.957031 230.519531 "/>
<path style="fill-rule:nonzero;fill:rgb(18.431373%,30.980392%,30.980392%);fill-opacity:0.901961;stroke-width:0.708661;stroke-linecap:round;stroke-linejoin:round;stroke:rgb(18.431373%,30.980392%,30.980392%);stroke-opacity:0.901961;stroke-miterlimit:10;" d="M 648.152344 205.996094 C 648.152344 209.136719 645.605469 211.683594 642.464844 211.683594 C 639.320312 211.683594 636.773438 209.136719 636.773438 205.996094 C 636.773438 202.851562 639.320312 200.304688 642.464844 200.304688 C 645.605469 200.304688 648.152344 202.851562 648.152344 205.996094 "/>
<path style="fill-rule:nonzero;fill:rgb(18.431373%,30.980392%,30.980392%);fill-opacity:0.901961;stroke-width:0.708661;stroke-linecap:round;stroke-linejoin:round;stroke:rgb(18.431373%,30.980392%,30.980392%);stroke-opacity:0.901961;stroke-miterlimit:10;" d="M 587.832031 215.632812 C 587.832031 218.777344 585.285156 221.324219 582.144531 221.324219 C 579.003906 221.324219 576.457031 218.777344 576.457031 215.632812 C 576.457031 212.492188 579.003906 209.945312 582.144531 209.945312 C 585.285156 209.945312 587.832031 212.492188 587.832031 215.632812 "/>
<path style="fill-rule:nonzero;fill:rgb(18.431373%,30.980392%,30.980392%);fill-opacity:0.901961;stroke-width:0.708661;stroke-linecap:round;stroke-linejoin:round;stroke:rgb(18.431373%,30.980392%,30.980392%);stroke-opacity:0.901961;stroke-miterlimit:10;" d="M 387.289062 162.839844 C 387.289062 165.980469 384.742188 168.527344 381.601562 168.527344 C 378.457031 168.527344 375.910156 165.980469 375.910156 162.839844 C 375.910156 159.699219 378.457031 157.152344 381.601562 157.152344 C 384.742188 157.152344 387.289062 159.699219 387.289062 162.839844 "/>
<path style="fill-rule:nonzero;fill:rgb(18.431373%,30.980392%,30.980392%);fill-opacity:0.901961;stroke-width:0.708661;stroke-linecap:round;stroke-linejoin:round;stroke:rgb(18.431373%,30.980392%,30.980392%);stroke-opacity:0.901961;stroke-miterlimit:10;" d="M 347.667969 170.292969 C 347.667969 173.433594 345.121094 175.980469 341.980469 175.980469 C 338.835938 175.980469 336.289062 173.433594 336.289062 170.292969 C 336.289062 167.148438 338.835938 164.601562 341.980469 164.601562 C 345.121094 164.601562 347.667969 167.148438 347.667969 170.292969 "/>
<path style="fill-rule:nonzero;fill:rgb(18.431373%,30.980392%,30.980392%);fill-opacity:0.901961;stroke-width:0.708661;stroke-linecap:round;stroke-linejoin:round;stroke:rgb(18.431373%,30.980392%,30.980392%);stroke-opacity:0.901961;stroke-miterlimit:10;" d="M 118.714844 197.945312 C 118.714844 201.085938 116.167969 203.632812 113.027344 203.632812 C 109.882812 203.632812 107.335938 201.085938 107.335938 197.945312 C 107.335938 194.800781 109.882812 192.253906 113.027344 192.253906 C 116.167969 192.253906 118.714844 194.800781 118.714844 197.945312 "/>
<path style="fill-rule:nonzero;fill:rgb(18.431373%,30.980392%,30.980392%);fill-opacity:0.901961;stroke-width:0.708661;stroke-linecap:round;stroke-linejoin:round;stroke:rgb(18.431373%,30.980392%,30.980392%);stroke-opacity:0.901961;stroke-miterlimit:10;" d="M 359.933594 309.378906 C 359.933594 312.519531 357.386719 315.066406 354.246094 315.066406 C 351.101562 315.066406 348.554688 312.519531 348.554688 309.378906 C 348.554688 306.234375 351.101562 303.6875 354.246094 303.6875 C 357.386719 303.6875 359.933594 306.234375 359.933594 309.378906 "/>
<path style="fill-rule:nonzero;fill:rgb(18.431373%,30.980392%,30.980392%);fill-opacity:0.901961;stroke-width:0.708661;stroke-linecap:round;stroke-linejoin:round;stroke:rgb(18.431373%,30.980392%,30.980392%);stroke-opacity:0.901961;stroke-miterlimit:10;" d="M 473.492188 206.898438 C 473.492188 210.039062 470.945312 212.585938 467.800781 212.585938 C 464.660156 212.585938 462.113281 210.039062 462.113281 206.898438 C 462.113281 203.753906 464.660156 201.207031 467.800781 201.207031 C 470.945312 201.207031 473.492188 203.753906 473.492188 206.898438 "/>
<path style="fill-rule:nonzero;fill:rgb(18.431373%,30.980392%,30.980392%);fill-opacity:0.901961;stroke-width:0.708661;stroke-linecap:round;stroke-linejoin:round;stroke:rgb(18.431373%,30.980392%,30.980392%);stroke-opacity:0.901961;stroke-miterlimit:10;" d="M 202.855469 236.546875 C 202.855469 239.691406 200.308594 242.238281 197.167969 242.238281 C 194.023438 242.238281 191.476562 239.691406 191.476562 236.546875 C 191.476562 233.40625 194.023438 230.859375 197.167969 230.859375 C 200.308594 230.859375 202.855469 233.40625 202.855469 236.546875 "/>
<path style="fill-rule:nonzero;fill:rgb(18.431373%,30.980392%,30.980392%);fill-opacity:0.901961;stroke-width:0.708661;stroke-linecap:round;stroke-linejoin:round;stroke:rgb(18.431373%,30.980392%,30.980392%);stroke-opacity:0.901961;stroke-miterlimit:10;" d="M 498.703125 147.8125 C 498.703125 150.953125 496.15625 153.5 493.011719 153.5 C 489.871094 153.5 487.324219 150.953125 487.324219 147.8125 C 487.324219 144.671875 489.871094 142.121094 493.011719 142.121094 C 496.15625 142.121094 498.703125 144.671875 498.703125 147.8125 "/>
<path style="fill-rule:nonzero;fill:rgb(18.431373%,30.980392%,30.980392%);fill-opacity:0.901961;stroke-width:0.708661;stroke-linecap:round;stroke-linejoin:round;stroke:rgb(18.431373%,30.980392%,30.980392%);stroke-opacity:0.901961;stroke-miterlimit:10;" d="M 507.34375 204.496094 C 507.34375 207.636719 504.796875 210.183594 501.652344 210.183594 C 498.511719 210.183594 495.964844 207.636719 495.964844 204.496094 C 495.964844 201.351562 498.511719 198.804688 501.652344 198.804688 C 504.796875 198.804688 507.34375 201.351562 507.34375 204.496094 "/>
<path style="fill-rule:nonzero;fill:rgb(18.431373%,30.980392%,30.980392%);fill-opacity:0.901961;stroke-width:0.708661;stroke-linecap:round;stroke-linejoin:round;stroke:rgb(18.431373%,30.980392%,30.980392%);stroke-opacity:0.901961;stroke-miterlimit:10;" d="M 211.710938 186.550781 C 211.710938 189.691406 209.164062 192.238281 206.019531 192.238281 C 202.878906 192.238281 200.332031 189.691406 200.332031 186.550781 C 200.332031 183.40625 202.878906 180.859375 206.019531 180.859375 C 209.164062 180.859375 211.710938 183.40625 211.710938 186.550781 "/>
<path style="fill-rule:nonzero;fill:rgb(18.431373%,30.980392%,30.980392%);fill-opacity:0.901961;stroke-width:0.708661;stroke-linecap:round;stroke-linejoin:round;stroke:rgb(18.431373%,30.980392%,30.980392%);stroke-opacity:0.901961;stroke-miterlimit:10;" d="M 539.691406 28.566406 C 539.691406 31.710938 537.144531 34.257812 534.003906 34.257812 C 530.859375 34.257812 528.3125 31.710938 528.3125 28.566406 C 528.3125 25.425781 530.859375 22.878906 534.003906 22.878906 C 537.144531 22.878906 539.691406 25.425781 539.691406 28.566406 "/>
<path style="fill-rule:nonzero;fill:rgb(18.431373%,30.980392%,30.980392%);fill-opacity:0.901961;stroke-width:0.708661;stroke-linecap:round;stroke-linejoin:round;stroke:rgb(18.431373%,30.980392%,30.980392%);stroke-opacity:0.901961;stroke-miterlimit:10;" d="M 329.847656 252.949219 C 329.847656 256.089844 327.300781 258.636719 324.160156 258.636719 C 321.015625 258.636719 318.46875 256.089844 318.46875 252.949219 C 318.46875 249.804688 321.015625 247.257812 324.160156 247.257812 C 327.300781 247.257812 329.847656 249.804688 329.847656 252.949219 "/>
<path style="fill-rule:nonzero;fill:rgb(18.431373%,30.980392%,30.980392%);fill-opacity:0.901961;stroke-width:0.708661;stroke-linecap:round;stroke-linejoin:round;stroke:rgb(18.431373%,30.980392%,30.980392%);stroke-opacity:0.901961;stroke-miterlimit:10;" d="M 306.914062 327.402344 C 306.914062 330.546875 304.367188 333.09375 301.222656 333.09375 C 298.082031 333.09375 295.535156 330.546875 295.535156 327.402344 C 295.535156 324.261719 298.082031 321.714844 301.222656 321.714844 C 304.367188 321.714844 306.914062 324.261719 306.914062 327.402344 "/>
<path style="fill-rule:nonzero;fill:rgb(18.431373%,30.980392%,30.980392%);fill-opacity:0.901961;stroke-width:0.708661;stroke-linecap:round;stroke-linejoin:round;stroke:rgb(18.431373%,30.980392%,30.980392%);stroke-opacity:0.901961;stroke-miterlimit:10;" d="M 508.199219 193.578125 C 508.199219 196.71875 505.652344 199.265625 502.511719 199.265625 C 499.367188 199.265625 496.820312 196.71875 496.820312 193.578125 C 496.820312 190.4375 499.367188 187.886719 502.511719 187.886719 C 505.652344 187.886719 508.199219 190.4375 508.199219 193.578125 "/>
<path style="fill-rule:nonzero;fill:rgb(18.431373%,30.980392%,30.980392%);fill-opacity:0.901961;stroke-width:0.708661;stroke-linecap:round;stroke-linejoin:round;stroke:rgb(18.431373%,30.980392%,30.980392%);stroke-opacity:0.901961;stroke-miterlimit:10;" d="M 433.304688 320.179688 C 433.304688 323.320312 430.757812 325.867188 427.613281 325.867188 C 424.472656 325.867188 421.925781 323.320312 421.925781 320.179688 C 421.925781 317.039062 424.472656 314.488281 427.613281 314.488281 C 430.757812 314.488281 433.304688 317.039062 433.304688 320.179688 "/>
<path style="fill-rule:nonzero;fill:rgb(18.431373%,30.980392%,30.980392%);fill-opacity:0.901961;stroke-width:0.708661;stroke-linecap:round;stroke-linejoin:round;stroke:rgb(18.431373%,30.980392%,30.980392%);stroke-opacity:0.901961;stroke-miterlimit:10;" d="M 320.765625 204.164062 C 320.765625 207.308594 318.21875 209.855469 315.078125 209.855469 C 311.933594 209.855469 309.386719 207.308594 309.386719 204.164062 C 309.386719 201.023438 311.933594 198.476562 315.078125 198.476562 C 318.21875 198.476562 320.765625 201.023438 320.765625 204.164062 "/>
<path style="fill-rule:nonzero;fill:rgb(18.431373%,30.980392%,30.980392%);fill-opacity:0.901961;stroke-width:0.708661;stroke-linecap:round;stroke-linejoin:round;stroke:rgb(18.431373%,30.980392%,30.980392%);stroke-opacity:0.901961;stroke-miterlimit:10;" d="M 199.210938 353.375 C 199.210938 356.519531 196.660156 359.066406 193.519531 359.066406 C 190.378906 359.066406 187.832031 356.519531 187.832031 353.375 C 187.832031 350.234375 190.378906 347.6875 193.519531 347.6875 C 196.660156 347.6875 199.210938 350.234375 199.210938 353.375 "/>
<path style="fill-rule:nonzero;fill:rgb(18.431373%,30.980392%,30.980392%);fill-opacity:0.901961;stroke-width:0.708661;stroke-linecap:round;stroke-linejoin:round;stroke:rgb(18.431373%,30.980392%,30.980392%);stroke-opacity:0.901961;stroke-miterlimit:10;" d="M 516.515625 137.46875 C 516.515625 140.609375 513.96875 143.15625 510.824219 143.15625 C 507.683594 143.15625 505.136719 140.609375 505.136719 137.46875 C 505.136719 134.324219 507.683594 131.777344 510.824219 131.777344 C 513.96875 131.777344 516.515625 134.324219 516.515625 137.46875 "/>
<path style="fill-rule:nonzero;fill:rgb(18.431373%,30.980392%,30.980392%);fill-opacity:0.901961;stroke-width:0.708661;stroke-linecap:round;stroke-linejoin:round;stroke:rgb(18.431373%,30.980392%,30.980392%);stroke-opacity:0.901961;stroke-miterlimit:10;" d="M 212.683594 304.054688 C 212.683594 307.199219 210.136719 309.746094 206.996094 309.746094 C 203.851562 309.746094 201.304688 307.199219 201.304688 304.054688 C 201.304688 300.914062 203.851562 298.367188 206.996094 298.367188 C 210.136719 298.367188 212.683594 300.914062 212.683594 304.054688 "/>
<path style="fill-rule:nonzero;fill:rgb(18.431373%,30.980392%,30.980392%);fill-opacity:0.901961;stroke-width:0.708661;stroke-linecap:round;stroke-linejoin:round;stroke:rgb(18.431373%,30.980392%,30.980392%);stroke-opacity:0.901961;stroke-miterlimit:10;" d="M 93.1875 321.21875 C 93.1875 324.359375 90.640625 326.910156 87.496094 326.910156 C 84.355469 326.910156 81.808594 324.359375 81.808594 321.21875 C 81.808594 318.078125 84.355469 315.53125 87.496094 315.53125 C 90.640625 315.53125 93.1875 318.078125 93.1875 321.21875 "/>
<path style="fill-rule:nonzero;fill:rgb(18.431373%,30.980392%,30.980392%);fill-opacity:0.901961;stroke-width:0.708661;stroke-linecap:round;stroke-linejoin:round;stroke:rgb(18.431373%,30.980392%,30.980392%);stroke-opacity:0.901961;stroke-miterlimit:10;" d="M 522 247.648438 C 522 250.792969 519.449219 253.339844 516.308594 253.339844 C 513.167969 253.339844 510.621094 250.792969 510.621094 247.648438 C 510.621094 244.507812 513.167969 241.960938 516.308594 241.960938 C 519.449219 241.960938 522 244.507812 522 247.648438 "/>
<path style="fill-rule:nonzero;fill:rgb(18.431373%,30.980392%,30.980392%);fill-opacity:0.901961;stroke-width:0.708661;stroke-linecap:round;stroke-linejoin:round;stroke:rgb(18.431373%,30.980392%,30.980392%);stroke-opacity:0.901961;stroke-miterlimit:10;" d="M 506.777344 172.296875 C 506.777344 175.441406 504.230469 177.988281 501.089844 177.988281 C 497.945312 177.988281 495.398438 175.441406 495.398438 172.296875 C 495.398438 169.15625 497.945312 166.609375 501.089844 166.609375 C 504.230469 166.609375 506.777344 169.15625 506.777344 172.296875 "/>
<path style="fill-rule:nonzero;fill:rgb(18.431373%,30.980392%,30.980392%);fill-opacity:0.901961;stroke-width:0.708661;stroke-linecap:round;stroke-linejoin:round;stroke:rgb(18.431373%,30.980392%,30.980392%);stroke-opacity:0.901961;stroke-miterlimit:10;" d="M 462.492188 225.199219 C 462.492188 228.34375 459.945312 230.890625 456.804688 230.890625 C 453.660156 230.890625 451.113281 228.34375 451.113281 225.199219 C 451.113281 222.058594 453.660156 219.511719 456.804688 219.511719 C 459.945312 219.511719 462.492188 222.058594 462.492188 225.199219 "/>
<path style="fill-rule:nonzero;fill:rgb(18.431373%,30.980392%,30.980392%);fill-opacity:0.901961;stroke-width:0.708661;stroke-linecap:round;stroke-linejoin:round;stroke:rgb(18.431373%,30.980392%,30.980392%);stroke-opacity:0.901961;stroke-miterlimit:10;" d="M 28.921875 351.410156 C 28.921875 354.550781 26.375 357.101562 23.234375 357.101562 C 20.089844 357.101562 17.542969 354.550781 17.542969 351.410156 C 17.542969 348.269531 20.089844 345.722656 23.234375 345.722656 C 26.375 345.722656 28.921875 348.269531 28.921875 351.410156 "/>
<path style="fill-rule:nonzero;fill:rgb(18.431373%,30.980392%,30.980392%);fill-opacity:0.901961;stroke-width:0.708661;stroke-linecap:round;stroke-linejoin:round;stroke:rgb(18.431373%,30.980392%,30.980392%);stroke-opacity:0.901961;stroke-miterlimit:10;" d="M 336.101562 250.410156 C 336.101562 253.550781 333.554688 256.097656 330.410156 256.097656 C 327.269531 256.097656 324.722656 253.550781 324.722656 250.410156 C 324.722656 247.265625 327.269531 244.71875 330.410156 244.71875 C 333.554688 244.71875 336.101562 247.265625 336.101562 250.410156 "/>
<path style="fill-rule:nonzero;fill:rgb(18.431373%,30.980392%,30.980392%);fill-opacity:0.901961;stroke-width:0.708661;stroke-linecap:round;stroke-linejoin:round;stroke:rgb(18.431373%,30.980392%,30.980392%);stroke-opacity:0.901961;stroke-miterlimit:10;" d="M 389.742188 164.039062 C 389.742188 167.183594 387.195312 169.730469 384.050781 169.730469 C 380.910156 169.730469 378.363281 167.183594 378.363281 164.039062 C 378.363281 160.898438 380.910156 158.351562 384.050781 158.351562 C 387.195312 158.351562 389.742188 160.898438 389.742188 164.039062 "/>
<path style="fill-rule:nonzero;fill:rgb(18.431373%,30.980392%,30.980392%);fill-opacity:0.901961;stroke-width:0.708661;stroke-linecap:round;stroke-linejoin:round;stroke:rgb(18.431373%,30.980392%,30.980392%);stroke-opacity:0.901961;stroke-miterlimit:10;" d="M 555.832031 249.410156 C 555.832031 252.554688 553.285156 255.101562 550.144531 255.101562 C 547 255.101562 544.453125 252.554688 544.453125 249.410156 C 544.453125 246.269531 547 243.722656 550.144531 243.722656 C 553.285156 243.722656 555.832031 246.269531 555.832031 249.410156 "/>
<path style="fill-rule:nonzero;fill:rgb(18.431373%,30.980392%,30.980392%);fill-opacity:0.901961;stroke-width:0.708661;stroke-linecap:round;stroke-linejoin:round;stroke:rgb(18.431373%,30.980392%,30.980392%);stroke-opacity:0.901961;stroke-miterlimit:10;" d="M 422.578125 223.800781 C 422.578125 226.941406 420.03125 229.488281 416.890625 229.488281 C 413.746094 229.488281 411.199219 226.941406 411.199219 223.800781 C 411.199219 220.65625 413.746094 218.109375 416.890625 218.109375 C 420.03125 218.109375 422.578125 220.65625 422.578125 223.800781 "/>
<path style="fill-rule:nonzero;fill:rgb(18.431373%,30.980392%,30.980392%);fill-opacity:0.901961;stroke-width:0.708661;stroke-linecap:round;stroke-linejoin:round;stroke:rgb(18.431373%,30.980392%,30.980392%);stroke-opacity:0.901961;stroke-miterlimit:10;" d="M 186.675781 297.621094 C 186.675781 300.765625 184.128906 303.3125 180.988281 303.3125 C 177.847656 303.3125 175.296875 300.765625 175.296875 297.621094 C 175.296875 294.480469 177.847656 291.933594 180.988281 291.933594 C 184.128906 291.933594 186.675781 294.480469 186.675781 297.621094 "/>
<path style="fill:none;stroke-width:4.267913;stroke-linecap:butt;stroke-linejoin:round;stroke:rgb(100%,64.705882%,0%);stroke-opacity:0.901961;stroke-miterlimit:10;" d="M 0 183.011719 L 756 100.203125 "/>
</g>
</svg>
